M48
; DRILL file {KiCad (5.1.5)-3} date 25.03.2020 21:10:02
; FORMAT={-:-/ absolute / inch / decimal}
; #@! TF.CreationDate,2020-03-25T21:10:02+01:00
; #@! TF.GenerationSoftware,Kicad,Pcbnew,(5.1.5)-3
FMAT,2
INCH
T1C0.0315
T2C0.0394
T3C0.0433
T4C0.0520
%
G90
G05
T1
X2.34Y-3.49
X2.74Y-3.49
X2.06Y-4.21
X2.46Y-4.21
X1.7Y-3.77
X2.1Y-3.77
X2.23Y-4.07
X2.63Y-4.07
X2.97Y-3.25
X2.97Y-3.35
X2.97Y-3.45
X2.97Y-3.55
X2.97Y-3.65
X2.97Y-3.75
X2.97Y-3.85
X2.97Y-3.95
X2.97Y-4.05
X2.97Y-4.15
X2.97Y-4.25
X2.97Y-4.35
X2.97Y-4.45
X2.97Y-4.55
X2.97Y-4.65
X3.57Y-3.25
X3.57Y-3.35
X3.57Y-3.45
X3.57Y-3.55
X3.57Y-3.65
X3.57Y-3.75
X3.57Y-3.85
X3.57Y-3.95
X3.57Y-4.05
X3.57Y-4.15
X3.57Y-4.25
X3.57Y-4.35
X3.57Y-4.45
X3.57Y-4.55
X3.57Y-4.65
X1.45Y-4.06
X1.45Y-4.46
X3.23Y-2.7531
X3.23Y-2.95
X2.27Y-4.35
X2.67Y-4.35
X4.2Y-4.09
X4.2Y-4.19
X4.2Y-4.29
X4.05Y-3.15
X4.05Y-3.25
X4.05Y-3.35
X4.35Y-3.15
X4.35Y-3.25
X4.35Y-3.35
X4.45Y-2.7031
X4.45Y-2.9
X2.23Y-3.87
X2.63Y-3.87
X4.75Y-2.75
X4.75Y-3.15
X2.23Y-3.67
X2.63Y-3.67
X4.75Y-3.7
X4.75Y-4.1
X1.32Y-3.18
X1.32Y-3.48
X1.42Y-3.18
X1.42Y-3.48
X1.52Y-3.18
X1.52Y-3.48
X1.62Y-3.18
X1.62Y-3.48
X1.72Y-3.18
X1.72Y-3.48
X1.82Y-3.18
X1.82Y-3.48
X1.92Y-3.18
X1.92Y-3.48
X2.02Y-3.18
X2.02Y-3.48
T2
X4.05Y-2.85
X4.45Y-4.22
X3.95Y-3.55
X3.95Y-3.75
X4.15Y-3.55
X4.15Y-3.75
X4.25Y-3.55
X4.25Y-3.75
X4.35Y-3.55
X4.35Y-3.75
X4.9547Y-3.55
X5.25Y-3.55
X4.45Y-4.0
X2.29Y-4.66
X2.39Y-4.66
X3.83Y-4.5747
X3.83Y-4.87
X5.05Y-3.9
X5.05Y-4.0
X5.05Y-4.1
X2.65Y-2.76
X2.65Y-3.0553
X2.63Y-4.76
X2.73Y-4.76
X3.55Y-2.8
X3.55Y-2.9
X2.08Y-3.97
X5.2047Y-4.35
X5.5Y-4.35
X1.9Y-4.07
X1.9Y-4.17
X1.9Y-4.27
X1.7647Y-2.81
X2.06Y-2.81
X4.95Y-3.25
X5.2453Y-3.25
X1.93Y-4.57
X2.03Y-4.57
X3.9Y-4.06
X3.9Y-4.16
X3.9Y-4.26
X3.9Y-4.36
X2.38Y-2.76
X2.38Y-3.0553
T3
X4.68Y-4.78
X4.78Y-4.78
X4.88Y-4.78
X3.77Y-3.0
X3.77Y-3.4
X5.45Y-3.2
X5.45Y-3.6
X1.34Y-2.69
X1.44Y-2.69
X1.54Y-2.69
X5.4Y-3.9
X5.4Y-4.0
X5.4Y-4.1
T4
X5.25Y-2.7531
X5.25Y-2.95
T0
M30
