G04 #@! TF.GenerationSoftware,KiCad,Pcbnew,(5.1.5)-3*
G04 #@! TF.CreationDate,2020-03-25T21:09:59+01:00*
G04 #@! TF.ProjectId,FunctiongeneratorMK3PowerControl,46756e63-7469-46f6-9e67-656e65726174,rev?*
G04 #@! TF.SameCoordinates,Original*
G04 #@! TF.FileFunction,Copper,L2,Bot*
G04 #@! TF.FilePolarity,Positive*
%FSLAX46Y46*%
G04 Gerber Fmt 4.6, Leading zero omitted, Abs format (unit mm)*
G04 Created by KiCad (PCBNEW (5.1.5)-3) date 2020-03-25 21:09:59*
%MOMM*%
%LPD*%
G04 APERTURE LIST*
%ADD10C,0.500000*%
%ADD11O,1.600000X1.600000*%
%ADD12R,1.600000X1.600000*%
%ADD13C,1.600000*%
%ADD14C,2.000000*%
%ADD15O,1.905000X2.000000*%
%ADD16R,1.905000X2.000000*%
%ADD17R,2.000000X2.000000*%
%ADD18C,1.440000*%
%ADD19R,1.700000X1.700000*%
%ADD20O,2.200000X2.200000*%
%ADD21R,2.200000X2.200000*%
%ADD22O,2.000000X1.905000*%
%ADD23R,2.000000X1.905000*%
%ADD24O,1.700000X1.700000*%
%ADD25O,3.960000X1.980000*%
%ADD26R,3.960000X1.980000*%
%ADD27C,1.000000*%
%ADD28C,1.500000*%
G04 APERTURE END LIST*
D10*
X129400952Y-115749047D02*
X128210476Y-114915714D01*
X129400952Y-114320476D02*
X126900952Y-114320476D01*
X126900952Y-115272857D01*
X127020000Y-115510952D01*
X127139047Y-115630000D01*
X127377142Y-115749047D01*
X127734285Y-115749047D01*
X127972380Y-115630000D01*
X128091428Y-115510952D01*
X128210476Y-115272857D01*
X128210476Y-114320476D01*
X128091428Y-116820476D02*
X128091428Y-117653809D01*
X129400952Y-118010952D02*
X129400952Y-116820476D01*
X126900952Y-116820476D01*
X126900952Y-118010952D01*
X126900952Y-118725238D02*
X129400952Y-119558571D01*
X126900952Y-120391904D01*
X128091428Y-123963333D02*
X128210476Y-124320476D01*
X128329523Y-124439523D01*
X128567619Y-124558571D01*
X128924761Y-124558571D01*
X129162857Y-124439523D01*
X129281904Y-124320476D01*
X129400952Y-124082380D01*
X129400952Y-123130000D01*
X126900952Y-123130000D01*
X126900952Y-123963333D01*
X127020000Y-124201428D01*
X127139047Y-124320476D01*
X127377142Y-124439523D01*
X127615238Y-124439523D01*
X127853333Y-124320476D01*
X127972380Y-124201428D01*
X128091428Y-123963333D01*
X128091428Y-123130000D01*
D11*
X90678000Y-118110000D03*
X75438000Y-118110000D03*
X90678000Y-82550000D03*
X75438000Y-115570000D03*
X90678000Y-85090000D03*
X75438000Y-113030000D03*
X90678000Y-87630000D03*
X75438000Y-110490000D03*
X90678000Y-90170000D03*
X75438000Y-107950000D03*
X90678000Y-92710000D03*
X75438000Y-105410000D03*
X90678000Y-95250000D03*
X75438000Y-102870000D03*
X90678000Y-97790000D03*
X75438000Y-100330000D03*
X90678000Y-100330000D03*
X75438000Y-97790000D03*
X90678000Y-102870000D03*
X75438000Y-95250000D03*
X90678000Y-105410000D03*
X75438000Y-92710000D03*
X90678000Y-107950000D03*
X75438000Y-90170000D03*
X90678000Y-110490000D03*
X75438000Y-87630000D03*
X90678000Y-113030000D03*
X75438000Y-85090000D03*
X90678000Y-115570000D03*
D12*
X75438000Y-82550000D03*
D11*
X33528000Y-80772000D03*
X51308000Y-88392000D03*
X36068000Y-80772000D03*
X48768000Y-88392000D03*
X38608000Y-80772000D03*
X46228000Y-88392000D03*
X41148000Y-80772000D03*
X43688000Y-88392000D03*
X43688000Y-80772000D03*
X41148000Y-88392000D03*
X46228000Y-80772000D03*
X38608000Y-88392000D03*
X48768000Y-80772000D03*
X36068000Y-88392000D03*
X51308000Y-80772000D03*
D12*
X33528000Y-88392000D03*
D11*
X69596000Y-88646000D03*
D13*
X59436000Y-88646000D03*
D11*
X66802000Y-93218000D03*
D13*
X56642000Y-93218000D03*
D11*
X53340000Y-95758000D03*
D13*
X43180000Y-95758000D03*
D11*
X66802000Y-98298000D03*
D13*
X56642000Y-98298000D03*
D14*
X60452000Y-77604000D03*
X60452000Y-70104000D03*
X44824000Y-71374000D03*
X52324000Y-71374000D03*
D15*
X34036000Y-68326000D03*
X36576000Y-68326000D03*
D16*
X39116000Y-68326000D03*
D14*
X110490000Y-95250000D03*
X110490000Y-90170000D03*
X105410000Y-95250000D03*
D17*
X100330000Y-95250000D03*
D14*
X105410000Y-90170000D03*
X100330000Y-90170000D03*
X107950000Y-95250000D03*
X107950000Y-90170000D03*
D18*
X102870000Y-80010000D03*
X102870000Y-82550000D03*
X102870000Y-85090000D03*
X110490000Y-80010000D03*
X110490000Y-82550000D03*
X110490000Y-85090000D03*
X106680000Y-103886000D03*
X106680000Y-106426000D03*
X106680000Y-108966000D03*
D11*
X120650000Y-69850000D03*
D13*
X120650000Y-80010000D03*
D11*
X120650000Y-93980000D03*
D13*
X120650000Y-104140000D03*
D11*
X36830000Y-103124000D03*
D13*
X36830000Y-113284000D03*
D19*
X102870000Y-72390000D03*
X113030000Y-101600000D03*
X113030000Y-107188000D03*
D20*
X95758000Y-76200000D03*
D21*
X95758000Y-86360000D03*
D13*
X113030000Y-68660000D03*
D12*
X113030000Y-73660000D03*
D15*
X118872000Y-121412000D03*
X121412000Y-121412000D03*
D16*
X123952000Y-121412000D03*
D22*
X137160000Y-104140000D03*
X137160000Y-101600000D03*
D23*
X137160000Y-99060000D03*
D11*
X57658000Y-110490000D03*
D13*
X67818000Y-110490000D03*
D11*
X52324000Y-106934000D03*
D13*
X62484000Y-106934000D03*
D11*
X56642000Y-103378000D03*
D13*
X66802000Y-103378000D03*
D24*
X128270000Y-99060000D03*
X128270000Y-101600000D03*
D19*
X128270000Y-104140000D03*
D25*
X133350000Y-69930000D03*
D26*
X133350000Y-74930000D03*
D24*
X99060000Y-110744000D03*
X99060000Y-108204000D03*
X99060000Y-105664000D03*
D19*
X99060000Y-103124000D03*
X52832000Y-100838000D03*
D24*
X90170000Y-73660000D03*
D19*
X90170000Y-71120000D03*
D24*
X66802000Y-120904000D03*
D19*
X69342000Y-120904000D03*
D24*
X58166000Y-118364000D03*
D19*
X60706000Y-118364000D03*
D24*
X49022000Y-116078000D03*
D19*
X51562000Y-116078000D03*
D24*
X48260000Y-108458000D03*
X48260000Y-105918000D03*
D19*
X48260000Y-103378000D03*
D20*
X138430000Y-81280000D03*
D21*
X138430000Y-91440000D03*
D14*
X133230000Y-82550000D03*
X125730000Y-82550000D03*
X97282000Y-116198000D03*
X97282000Y-123698000D03*
X132200000Y-110490000D03*
X139700000Y-110490000D03*
X125850000Y-90170000D03*
X133350000Y-90170000D03*
D13*
X82042000Y-69930000D03*
D12*
X82042000Y-74930000D03*
D14*
X67310000Y-77604000D03*
X67310000Y-70104000D03*
D27*
X72644000Y-120904000D02*
X75438000Y-118110000D01*
X69342000Y-120904000D02*
X72644000Y-120904000D01*
X71588441Y-118364000D02*
X74382441Y-115570000D01*
X74382441Y-115570000D02*
X75438000Y-115570000D01*
X60706000Y-118364000D02*
X71588441Y-118364000D01*
X127080000Y-69930000D02*
X120730000Y-69930000D01*
X133350000Y-69930000D02*
X127080000Y-69930000D01*
X133230000Y-82550000D02*
X130729999Y-80049999D01*
X81685998Y-85090000D02*
X82550000Y-85090000D01*
X136330000Y-69930000D02*
X141030001Y-74630001D01*
X133350000Y-69930000D02*
X136330000Y-69930000D01*
X76302002Y-90170000D02*
X75438000Y-90170000D01*
X81382002Y-85090000D02*
X76302002Y-90170000D01*
X82804000Y-85344000D02*
X81382002Y-85090000D01*
X90678000Y-85090000D02*
X82804000Y-85344000D01*
X76492001Y-120460001D02*
X82804000Y-114808000D01*
X82804000Y-114808000D02*
X82804000Y-114148002D01*
X34036000Y-66326000D02*
X34036000Y-68326000D01*
X99397989Y-65349989D02*
X35012011Y-65349989D01*
X35012011Y-65349989D02*
X34036000Y-66326000D01*
X102708000Y-68660000D02*
X99397989Y-65349989D01*
X113030000Y-68660000D02*
X102708000Y-68660000D01*
X46228000Y-87048000D02*
X46228000Y-87260630D01*
X47184001Y-86091999D02*
X46228000Y-87048000D01*
X49872001Y-86091999D02*
X47184001Y-86091999D01*
X51308000Y-87527998D02*
X49872001Y-86091999D01*
X51308000Y-88392000D02*
X51308000Y-87527998D01*
X42316631Y-86091999D02*
X41148000Y-87260630D01*
X45059369Y-86091999D02*
X42316631Y-86091999D01*
X46228000Y-87260630D02*
X45059369Y-86091999D01*
X41148000Y-87260630D02*
X41148000Y-88392000D01*
X46228000Y-88392000D02*
X46228000Y-87260630D01*
X39712001Y-86091999D02*
X37236631Y-86091999D01*
X36068000Y-87260630D02*
X36068000Y-88392000D01*
X41148000Y-87527998D02*
X39712001Y-86091999D01*
X37236631Y-86091999D02*
X36068000Y-87260630D01*
X41148000Y-88392000D02*
X41148000Y-87527998D01*
X74306630Y-90170000D02*
X75438000Y-90170000D01*
X68491999Y-90946001D02*
X73530629Y-90946001D01*
X63891997Y-86345999D02*
X68491999Y-90946001D01*
X58331999Y-86345999D02*
X63891997Y-86345999D01*
X56285998Y-88392000D02*
X58331999Y-86345999D01*
X73530629Y-90946001D02*
X74306630Y-90170000D01*
X51308000Y-88392000D02*
X56285998Y-88392000D01*
X71055999Y-126556001D02*
X82804000Y-114808000D01*
X29227989Y-109085991D02*
X46697999Y-126556001D01*
X29227989Y-71181511D02*
X29227989Y-109085991D01*
X32083500Y-68326000D02*
X29227989Y-71181511D01*
X34036000Y-68326000D02*
X32083500Y-68326000D01*
X70529998Y-126492000D02*
X70866000Y-126492000D01*
X66802000Y-120904000D02*
X66802000Y-122764002D01*
X66802000Y-122764002D02*
X70529998Y-126492000D01*
X46697999Y-126556001D02*
X70866000Y-126492000D01*
X70866000Y-126492000D02*
X71055999Y-126556001D01*
X65599919Y-120904000D02*
X66802000Y-120904000D01*
X58166000Y-120224002D02*
X58845998Y-120904000D01*
X58845998Y-120904000D02*
X65599919Y-120904000D01*
X58166000Y-118364000D02*
X58166000Y-120224002D01*
X57316001Y-119213999D02*
X58166000Y-118364000D01*
X49022000Y-117938002D02*
X50297997Y-119213999D01*
X50297997Y-119213999D02*
X57316001Y-119213999D01*
X49022000Y-116078000D02*
X49022000Y-117938002D01*
X89573999Y-120410001D02*
X82804000Y-113640002D01*
X82804000Y-113640002D02*
X82804000Y-110744000D01*
X95867787Y-116198000D02*
X91655786Y-120410001D01*
X97282000Y-116198000D02*
X95867787Y-116198000D01*
X91655786Y-120410001D02*
X89573999Y-120410001D01*
X82804000Y-110744000D02*
X82804000Y-85344000D01*
X82804000Y-114148002D02*
X82804000Y-110744000D01*
D28*
X127067919Y-101600000D02*
X128270000Y-101600000D01*
X119711998Y-101600000D02*
X127067919Y-101600000D01*
X118299999Y-105268001D02*
X118299999Y-103011999D01*
X120922010Y-107890012D02*
X118299999Y-105268001D01*
X120922010Y-119398010D02*
X120922010Y-107890012D01*
X121412000Y-119888000D02*
X120922010Y-119398010D01*
X118299999Y-103011999D02*
X119711998Y-101600000D01*
X121412000Y-121412000D02*
X121412000Y-119888000D01*
X128270000Y-101600000D02*
X137160000Y-101600000D01*
X134750001Y-113040001D02*
X133199999Y-111489999D01*
X133199999Y-111489999D02*
X132200000Y-110490000D01*
X140924001Y-113040001D02*
X134750001Y-113040001D01*
X142250001Y-111714001D02*
X140924001Y-113040001D01*
X142250001Y-103896001D02*
X142250001Y-111714001D01*
X139954000Y-101600000D02*
X142250001Y-103896001D01*
X137160000Y-101600000D02*
X139954000Y-101600000D01*
X142250001Y-75350001D02*
X142250001Y-103896001D01*
X136830000Y-69930000D02*
X142250001Y-75350001D01*
X133350000Y-69930000D02*
X136830000Y-69930000D01*
X120730000Y-69930000D02*
X120650000Y-69850000D01*
X133350000Y-69930000D02*
X120730000Y-69930000D01*
X114220000Y-69850000D02*
X113030000Y-68660000D01*
X120650000Y-69850000D02*
X114220000Y-69850000D01*
X127000000Y-76320000D02*
X127000000Y-69850000D01*
X133230000Y-82550000D02*
X127000000Y-76320000D01*
D27*
X127080000Y-69930000D02*
X127000000Y-69850000D01*
D28*
X130679999Y-79999999D02*
X130729999Y-80049999D01*
X123179999Y-81325999D02*
X124505999Y-79999999D01*
X124505999Y-79999999D02*
X130679999Y-79999999D01*
X123179999Y-84666916D02*
X123179999Y-81325999D01*
X125850000Y-87336917D02*
X123179999Y-84666916D01*
X125850000Y-90170000D02*
X125850000Y-87336917D01*
X97282000Y-112522000D02*
X99060000Y-110744000D01*
X97282000Y-116198000D02*
X97282000Y-112522000D01*
D27*
X74306630Y-113030000D02*
X75438000Y-113030000D01*
X74094000Y-113030000D02*
X74306630Y-113030000D01*
X71839990Y-115284010D02*
X74094000Y-113030000D01*
X57767988Y-115284010D02*
X71839990Y-115284010D01*
X56973998Y-116078000D02*
X57767988Y-115284010D01*
X51562000Y-116078000D02*
X56973998Y-116078000D01*
X36830000Y-113284000D02*
X69850000Y-113284000D01*
X72644000Y-110490000D02*
X75438000Y-110490000D01*
X69850000Y-113284000D02*
X72644000Y-110490000D01*
X122325998Y-99060000D02*
X127067919Y-99060000D01*
X118618000Y-99060000D02*
X115380001Y-102297999D01*
X122325998Y-99060000D02*
X118618000Y-99060000D01*
X113432001Y-111186001D02*
X105090001Y-111186001D01*
X115380001Y-102297999D02*
X115380001Y-109238001D01*
X115380001Y-109238001D02*
X113792000Y-111252000D01*
X113792000Y-111252000D02*
X113432001Y-111186001D01*
D28*
X129119999Y-98210001D02*
X128270000Y-99060000D01*
X129119999Y-87354212D02*
X129119999Y-98210001D01*
X125730000Y-83964213D02*
X129119999Y-87354212D01*
X125730000Y-82550000D02*
X125730000Y-83964213D01*
X113792000Y-116284500D02*
X113792000Y-111252000D01*
X118872000Y-121364500D02*
X113792000Y-116284500D01*
X118872000Y-121412000D02*
X118872000Y-121364500D01*
X100352000Y-108204000D02*
X100262081Y-108204000D01*
X103384001Y-111236001D02*
X100352000Y-108204000D01*
X107819601Y-111186001D02*
X107769601Y-111236001D01*
X107769601Y-111236001D02*
X103384001Y-111236001D01*
X113432001Y-111186001D02*
X107819601Y-111186001D01*
X91948000Y-90170000D02*
X95758000Y-86360000D01*
X90678000Y-90170000D02*
X91948000Y-90170000D01*
X95250000Y-90170000D02*
X100330000Y-95250000D01*
X90678000Y-90170000D02*
X95250000Y-90170000D01*
X101460001Y-107006080D02*
X100262081Y-108204000D01*
X100330000Y-97750000D02*
X101460001Y-98880001D01*
X100262081Y-108204000D02*
X99060000Y-108204000D01*
X101460001Y-98880001D02*
X101460001Y-107006080D01*
X100330000Y-95250000D02*
X100330000Y-97750000D01*
X127067919Y-99060000D02*
X128270000Y-99060000D01*
X115999989Y-102059304D02*
X118999293Y-99060000D01*
X118999293Y-99060000D02*
X127067919Y-99060000D01*
X115999989Y-108708013D02*
X115999989Y-102059304D01*
X113522001Y-111186001D02*
X115999989Y-108708013D01*
X113432001Y-111186001D02*
X113522001Y-111186001D01*
D27*
X70358000Y-107950000D02*
X75438000Y-107950000D01*
X67818000Y-110490000D02*
X70358000Y-107950000D01*
X62484000Y-106934000D02*
X67564000Y-106934000D01*
X67564000Y-106934000D02*
X69088000Y-105410000D01*
X69088000Y-105410000D02*
X75438000Y-105410000D01*
X66802000Y-103378000D02*
X72136000Y-103378000D01*
X72644000Y-102870000D02*
X75438000Y-102870000D01*
X72136000Y-103378000D02*
X72644000Y-102870000D01*
X99060000Y-100584000D02*
X99060000Y-103124000D01*
X90678000Y-97790000D02*
X96266000Y-97790000D01*
X96266000Y-97790000D02*
X99060000Y-100584000D01*
X52832000Y-100838000D02*
X71882000Y-100838000D01*
X71882000Y-100838000D02*
X72390000Y-100330000D01*
X72390000Y-100330000D02*
X75438000Y-100330000D01*
X97857919Y-105664000D02*
X99060000Y-105664000D01*
X97199998Y-105664000D02*
X97857919Y-105664000D01*
X94996000Y-103460002D02*
X97199998Y-105664000D01*
X94996000Y-100330000D02*
X94996000Y-103460002D01*
X90678000Y-100330000D02*
X94996000Y-100330000D01*
X74306630Y-97790000D02*
X75438000Y-97790000D01*
X67310000Y-97790000D02*
X75438000Y-97790000D01*
X66802000Y-98298000D02*
X67310000Y-97790000D01*
X53340000Y-95758000D02*
X71628000Y-95758000D01*
X71628000Y-95758000D02*
X72136000Y-95250000D01*
X72136000Y-95250000D02*
X75438000Y-95250000D01*
X66802000Y-93218000D02*
X70594011Y-93218000D01*
X70866000Y-92946011D02*
X75201989Y-92946011D01*
X75201989Y-92946011D02*
X75438000Y-92710000D01*
X70594011Y-93218000D02*
X70866000Y-92946011D01*
X70395999Y-85792001D02*
X73638000Y-82550000D01*
X73638000Y-82550000D02*
X75438000Y-82550000D01*
X70395999Y-87846001D02*
X70395999Y-85792001D01*
X69596000Y-88646000D02*
X70395999Y-87846001D01*
X66310001Y-78603999D02*
X67310000Y-77604000D01*
X64809999Y-80104001D02*
X66310001Y-78603999D01*
X59251999Y-80104001D02*
X64809999Y-80104001D01*
X43688000Y-77389070D02*
X44703051Y-76374019D01*
X57404000Y-76374019D02*
X57404000Y-78256002D01*
X44703051Y-76374019D02*
X57404000Y-76374019D01*
X43688000Y-80772000D02*
X43688000Y-77389070D01*
X57404000Y-78256002D02*
X59251999Y-80104001D01*
X88980000Y-69930000D02*
X90170000Y-71120000D01*
X82042000Y-69930000D02*
X88980000Y-69930000D01*
X67484000Y-69930000D02*
X67310000Y-70104000D01*
X82042000Y-69930000D02*
X67484000Y-69930000D01*
X67310000Y-70104000D02*
X60452000Y-70104000D01*
X60452000Y-70104000D02*
X53594000Y-70104000D01*
X53594000Y-70104000D02*
X52324000Y-71374000D01*
X66509991Y-82104011D02*
X70358000Y-78256002D01*
X48768000Y-80772000D02*
X48768000Y-79907998D01*
X58423568Y-82104011D02*
X66509991Y-82104011D01*
X48768000Y-79907998D02*
X50301969Y-78374029D01*
X50301969Y-78374029D02*
X54693586Y-78374029D01*
X54693586Y-78374029D02*
X58423568Y-82104011D01*
X70358000Y-78256002D02*
X70358000Y-74930000D01*
X70358000Y-74930000D02*
X82042000Y-74930000D01*
D28*
X138430000Y-97790000D02*
X137160000Y-99060000D01*
X138430000Y-91440000D02*
X138430000Y-97790000D01*
X137160000Y-90170000D02*
X138430000Y-91440000D01*
X133350000Y-90170000D02*
X137160000Y-90170000D01*
D27*
X123952000Y-120127259D02*
X123952000Y-121412000D01*
D28*
X139700000Y-106680000D02*
X137160000Y-104140000D01*
X139700000Y-110490000D02*
X139700000Y-106680000D01*
X137160000Y-104140000D02*
X128270000Y-104140000D01*
X128270000Y-104140000D02*
X120650000Y-104140000D01*
X123952000Y-107667298D02*
X123952000Y-118912000D01*
X123952000Y-118912000D02*
X123952000Y-121412000D01*
X121449999Y-105165297D02*
X123952000Y-107667298D01*
X121449999Y-104939999D02*
X121449999Y-105165297D01*
X120650000Y-104140000D02*
X121449999Y-104939999D01*
X122448573Y-123962010D02*
X115834010Y-123962010D01*
X123914510Y-122496073D02*
X122448573Y-123962010D01*
X123952000Y-121412000D02*
X123914510Y-121449490D01*
X123914510Y-121449490D02*
X123914510Y-122496073D01*
X115570000Y-123698000D02*
X97282000Y-123698000D01*
X115834010Y-123962010D02*
X115570000Y-123698000D01*
X136830000Y-74930000D02*
X133350000Y-74930000D01*
X138430000Y-81280000D02*
X138430000Y-76530000D01*
X138430000Y-76530000D02*
X136830000Y-74930000D01*
D27*
X50292000Y-110490000D02*
X48260000Y-108458000D01*
X57658000Y-110490000D02*
X50292000Y-110490000D01*
X51308000Y-105918000D02*
X48260000Y-105918000D01*
X52324000Y-106934000D02*
X51308000Y-105918000D01*
X48260000Y-103378000D02*
X56642000Y-103378000D01*
X39979369Y-83072001D02*
X41148000Y-81903370D01*
X37503999Y-83072001D02*
X39979369Y-83072001D01*
X36068000Y-81636002D02*
X37503999Y-83072001D01*
X36068000Y-80772000D02*
X36068000Y-81636002D01*
X45059369Y-83072001D02*
X46228000Y-81903370D01*
X42316631Y-83072001D02*
X45059369Y-83072001D01*
X41148000Y-81903370D02*
X42316631Y-83072001D01*
X41148000Y-80772000D02*
X41148000Y-81903370D01*
X51308000Y-81903370D02*
X51308000Y-80772000D01*
X47396631Y-83072001D02*
X50139369Y-83072001D01*
X50139369Y-83072001D02*
X51308000Y-81903370D01*
X46228000Y-81903370D02*
X47396631Y-83072001D01*
X46228000Y-80772000D02*
X46228000Y-81903370D01*
X89320001Y-74509999D02*
X90170000Y-73660000D01*
X85029999Y-78800001D02*
X89320001Y-74509999D01*
X72642442Y-78800001D02*
X85029999Y-78800001D01*
X67338422Y-84104021D02*
X72642442Y-78800001D01*
X54640021Y-84104021D02*
X67338422Y-84104021D01*
X51308000Y-80772000D02*
X54640021Y-84104021D01*
X117580000Y-80010000D02*
X119518630Y-80010000D01*
X113030000Y-75460000D02*
X117580000Y-80010000D01*
X119518630Y-80010000D02*
X120650000Y-80010000D01*
X113030000Y-73660000D02*
X113030000Y-75460000D01*
X120650000Y-80010000D02*
X120650000Y-92710000D01*
X120650000Y-92710000D02*
X120650000Y-93980000D01*
X109075787Y-92710000D02*
X120650000Y-92710000D01*
X107950000Y-91584213D02*
X109075787Y-92710000D01*
X107950000Y-90170000D02*
X107950000Y-91584213D01*
D28*
X100330000Y-80772000D02*
X95758000Y-76200000D01*
X100330000Y-90170000D02*
X100330000Y-80772000D01*
X95758000Y-74644366D02*
X95758000Y-76200000D01*
X95758000Y-72217998D02*
X95758000Y-74644366D01*
X53244850Y-67553999D02*
X91094001Y-67553999D01*
X91094001Y-67553999D02*
X95758000Y-72217998D01*
X52472849Y-68326000D02*
X53244850Y-67553999D01*
X39116000Y-68326000D02*
X52472849Y-68326000D01*
D27*
X106680000Y-106426000D02*
X106680000Y-108966000D01*
X107442000Y-107188000D02*
X106680000Y-106426000D01*
X113030000Y-107188000D02*
X107442000Y-107188000D01*
X110490000Y-99060000D02*
X113030000Y-101600000D01*
X110490000Y-95250000D02*
X110490000Y-99060000D01*
X102870000Y-80010000D02*
X110490000Y-80010000D01*
X110490000Y-80010000D02*
X110490000Y-82550000D01*
X102870000Y-82550000D02*
X102870000Y-80010000D01*
X102870000Y-80010000D02*
X102870000Y-72390000D01*
X36030001Y-102324001D02*
X36830000Y-103124000D01*
X31227999Y-97521999D02*
X36030001Y-102324001D01*
X31227999Y-75674001D02*
X31227999Y-97521999D01*
X36576000Y-70326000D02*
X31227999Y-75674001D01*
X36576000Y-68326000D02*
X36576000Y-70326000D01*
X110490000Y-90170000D02*
X110490000Y-85090000D01*
X105410000Y-87630000D02*
X102870000Y-85090000D01*
X105410000Y-90170000D02*
X105410000Y-87630000D01*
X107950000Y-102616000D02*
X106680000Y-103886000D01*
X107950000Y-95250000D02*
X107950000Y-102616000D01*
X33528000Y-79640630D02*
X33528000Y-80772000D01*
X44824000Y-71374000D02*
X43824001Y-72373999D01*
X40794631Y-72373999D02*
X33528000Y-79640630D01*
X43824001Y-72373999D02*
X40794631Y-72373999D01*
X43874621Y-74374009D02*
X60245991Y-74374009D01*
X38608000Y-80772000D02*
X38608000Y-79640630D01*
X38608000Y-79640630D02*
X43874621Y-74374009D01*
X60452000Y-74580018D02*
X60452000Y-77604000D01*
X60245991Y-74374009D02*
X60452000Y-74580018D01*
X55510630Y-98298000D02*
X56642000Y-98298000D01*
X33767999Y-89750001D02*
X42315998Y-98298000D01*
X33767999Y-88631999D02*
X33767999Y-89750001D01*
X42315998Y-98298000D02*
X55510630Y-98298000D01*
X33528000Y-88392000D02*
X33767999Y-88631999D01*
X38608000Y-91186000D02*
X43180000Y-95758000D01*
X38608000Y-88392000D02*
X38608000Y-91186000D01*
X43688000Y-88392000D02*
X43688000Y-89154000D01*
X43688000Y-89523370D02*
X47382630Y-93218000D01*
X55510630Y-93218000D02*
X56642000Y-93218000D01*
X47382630Y-93218000D02*
X55510630Y-93218000D01*
X43688000Y-88392000D02*
X43688000Y-89523370D01*
X48768000Y-89523370D02*
X48768000Y-88392000D01*
X49936631Y-90692001D02*
X48768000Y-89523370D01*
X57389999Y-90692001D02*
X49936631Y-90692001D01*
X59436000Y-88646000D02*
X57389999Y-90692001D01*
G36*
X143222001Y-129252000D02*
G01*
X28228000Y-129252000D01*
X28228000Y-121278123D01*
X64471843Y-121278123D01*
X64589604Y-121725525D01*
X64792386Y-122141357D01*
X65072397Y-122509638D01*
X65418875Y-122816215D01*
X65818506Y-123049307D01*
X66255932Y-123199956D01*
X66427877Y-123234157D01*
X66797000Y-122886494D01*
X66797000Y-120909000D01*
X64819505Y-120909000D01*
X64471843Y-121278123D01*
X28228000Y-121278123D01*
X28228000Y-118738123D01*
X55835843Y-118738123D01*
X55953604Y-119185525D01*
X56156386Y-119601357D01*
X56436397Y-119969638D01*
X56782875Y-120276215D01*
X57182506Y-120509307D01*
X57619932Y-120659956D01*
X57791877Y-120694157D01*
X58161000Y-120346494D01*
X58161000Y-118369000D01*
X56183505Y-118369000D01*
X55835843Y-118738123D01*
X28228000Y-118738123D01*
X28228000Y-116452123D01*
X46691843Y-116452123D01*
X46809604Y-116899525D01*
X47012386Y-117315357D01*
X47292397Y-117683638D01*
X47638875Y-117990215D01*
X48038506Y-118223307D01*
X48475932Y-118373956D01*
X48647877Y-118408157D01*
X49017000Y-118060494D01*
X49017000Y-116083000D01*
X47039505Y-116083000D01*
X46691843Y-116452123D01*
X28228000Y-116452123D01*
X28228000Y-75674001D01*
X29210284Y-75674001D01*
X29219999Y-75772639D01*
X29220000Y-97423351D01*
X29210284Y-97521999D01*
X29249054Y-97915636D01*
X29363874Y-98294145D01*
X29550331Y-98642981D01*
X29712335Y-98840383D01*
X29801260Y-98948739D01*
X29877876Y-99011616D01*
X34597590Y-103731331D01*
X34610696Y-103797219D01*
X34784677Y-104217248D01*
X35037260Y-104595264D01*
X35358736Y-104916740D01*
X35736752Y-105169323D01*
X36156781Y-105343304D01*
X36602682Y-105432000D01*
X37057318Y-105432000D01*
X37503219Y-105343304D01*
X37923248Y-105169323D01*
X38301264Y-104916740D01*
X38622740Y-104595264D01*
X38875323Y-104217248D01*
X39049304Y-103797219D01*
X39138000Y-103351318D01*
X39138000Y-102896682D01*
X39049304Y-102450781D01*
X38875323Y-102030752D01*
X38622740Y-101652736D01*
X38301264Y-101331260D01*
X37923248Y-101078677D01*
X37503219Y-100904696D01*
X37437331Y-100891590D01*
X33235999Y-96690259D01*
X33235999Y-92057741D01*
X40826376Y-99648118D01*
X40889258Y-99724740D01*
X41195016Y-99975669D01*
X41543852Y-100162126D01*
X41807541Y-100242115D01*
X41922360Y-100276945D01*
X41956262Y-100280284D01*
X42217360Y-100306000D01*
X42217367Y-100306000D01*
X42315997Y-100315714D01*
X42414627Y-100306000D01*
X50466704Y-100306000D01*
X50466704Y-101370000D01*
X50076046Y-101370000D01*
X49951853Y-101268077D01*
X49689879Y-101128049D01*
X49405620Y-101041820D01*
X49110000Y-101012704D01*
X47410000Y-101012704D01*
X47114380Y-101041820D01*
X46830121Y-101128049D01*
X46568147Y-101268077D01*
X46338524Y-101456524D01*
X46150077Y-101686147D01*
X46010049Y-101948121D01*
X45923820Y-102232380D01*
X45894704Y-102528000D01*
X45894704Y-104228000D01*
X45923820Y-104523620D01*
X46010049Y-104807879D01*
X46098783Y-104973889D01*
X45992617Y-105230197D01*
X45902000Y-105685757D01*
X45902000Y-106150243D01*
X45992617Y-106605803D01*
X46170368Y-107034932D01*
X46272645Y-107188000D01*
X46170368Y-107341068D01*
X45992617Y-107770197D01*
X45902000Y-108225757D01*
X45902000Y-108690243D01*
X45992617Y-109145803D01*
X46170368Y-109574932D01*
X46428422Y-109961137D01*
X46756863Y-110289578D01*
X47143068Y-110547632D01*
X47572197Y-110725383D01*
X47716308Y-110754049D01*
X48238259Y-111276000D01*
X37979106Y-111276000D01*
X37923248Y-111238677D01*
X37503219Y-111064696D01*
X37057318Y-110976000D01*
X36602682Y-110976000D01*
X36156781Y-111064696D01*
X35736752Y-111238677D01*
X35358736Y-111491260D01*
X35037260Y-111812736D01*
X34784677Y-112190752D01*
X34610696Y-112610781D01*
X34522000Y-113056682D01*
X34522000Y-113511318D01*
X34610696Y-113957219D01*
X34784677Y-114377248D01*
X35037260Y-114755264D01*
X35358736Y-115076740D01*
X35736752Y-115329323D01*
X36156781Y-115503304D01*
X36602682Y-115592000D01*
X37057318Y-115592000D01*
X37503219Y-115503304D01*
X37923248Y-115329323D01*
X37979106Y-115292000D01*
X46800253Y-115292000D01*
X46691843Y-115703877D01*
X47039505Y-116073000D01*
X49017000Y-116073000D01*
X49017000Y-116053000D01*
X49027000Y-116053000D01*
X49027000Y-116073000D01*
X49047000Y-116073000D01*
X49047000Y-116083000D01*
X49027000Y-116083000D01*
X49027000Y-118060494D01*
X49396123Y-118408157D01*
X49568068Y-118373956D01*
X49963441Y-118237790D01*
X50132121Y-118327951D01*
X50416380Y-118414180D01*
X50712000Y-118443296D01*
X52412000Y-118443296D01*
X52707620Y-118414180D01*
X52991879Y-118327951D01*
X53253853Y-118187923D01*
X53378046Y-118086000D01*
X55926377Y-118086000D01*
X56183505Y-118359000D01*
X58161000Y-118359000D01*
X58161000Y-118339000D01*
X58171000Y-118339000D01*
X58171000Y-118359000D01*
X58191000Y-118359000D01*
X58191000Y-118369000D01*
X58171000Y-118369000D01*
X58171000Y-120346494D01*
X58540123Y-120694157D01*
X58712068Y-120659956D01*
X59107441Y-120523790D01*
X59276121Y-120613951D01*
X59560380Y-120700180D01*
X59856000Y-120729296D01*
X61556000Y-120729296D01*
X61851620Y-120700180D01*
X62135879Y-120613951D01*
X62397853Y-120473923D01*
X62522046Y-120372000D01*
X64513398Y-120372000D01*
X64471843Y-120529877D01*
X64819505Y-120899000D01*
X66797000Y-120899000D01*
X66797000Y-120879000D01*
X66807000Y-120879000D01*
X66807000Y-120899000D01*
X66827000Y-120899000D01*
X66827000Y-120909000D01*
X66807000Y-120909000D01*
X66807000Y-122886494D01*
X67176123Y-123234157D01*
X67348068Y-123199956D01*
X67743441Y-123063790D01*
X67912121Y-123153951D01*
X68196380Y-123240180D01*
X68492000Y-123269296D01*
X70192000Y-123269296D01*
X70487620Y-123240180D01*
X70771879Y-123153951D01*
X71033853Y-123013923D01*
X71158046Y-122912000D01*
X72545362Y-122912000D01*
X72644000Y-122921715D01*
X73037637Y-122882945D01*
X73416146Y-122768126D01*
X73764982Y-122581669D01*
X74070740Y-122330740D01*
X74133622Y-122254118D01*
X76045331Y-120342410D01*
X76111219Y-120329304D01*
X76531248Y-120155323D01*
X76909264Y-119902740D01*
X77230740Y-119581264D01*
X77483323Y-119203248D01*
X77657304Y-118783219D01*
X77746000Y-118337318D01*
X77746000Y-117882682D01*
X77657304Y-117436781D01*
X77483323Y-117016752D01*
X77365221Y-116840000D01*
X77483323Y-116663248D01*
X77657304Y-116243219D01*
X77746000Y-115797318D01*
X77746000Y-115342682D01*
X77657304Y-114896781D01*
X77483323Y-114476752D01*
X77365221Y-114300000D01*
X77483323Y-114123248D01*
X77657304Y-113703219D01*
X77746000Y-113257318D01*
X77746000Y-112802682D01*
X77657304Y-112356781D01*
X77483323Y-111936752D01*
X77365221Y-111760000D01*
X77483323Y-111583248D01*
X77657304Y-111163219D01*
X77746000Y-110717318D01*
X77746000Y-110262682D01*
X77657304Y-109816781D01*
X77483323Y-109396752D01*
X77365221Y-109220000D01*
X77483323Y-109043248D01*
X77657304Y-108623219D01*
X77746000Y-108177318D01*
X77746000Y-107722682D01*
X77657304Y-107276781D01*
X77483323Y-106856752D01*
X77365221Y-106680000D01*
X77483323Y-106503248D01*
X77657304Y-106083219D01*
X77746000Y-105637318D01*
X77746000Y-105182682D01*
X77657304Y-104736781D01*
X77483323Y-104316752D01*
X77365221Y-104140000D01*
X77483323Y-103963248D01*
X77657304Y-103543219D01*
X77746000Y-103097318D01*
X77746000Y-102642682D01*
X77657304Y-102196781D01*
X77483323Y-101776752D01*
X77365221Y-101600000D01*
X77483323Y-101423248D01*
X77657304Y-101003219D01*
X77746000Y-100557318D01*
X77746000Y-100102682D01*
X77657304Y-99656781D01*
X77483323Y-99236752D01*
X77365221Y-99060000D01*
X77483323Y-98883248D01*
X77657304Y-98463219D01*
X77746000Y-98017318D01*
X77746000Y-97562682D01*
X77657304Y-97116781D01*
X77483323Y-96696752D01*
X77365221Y-96520000D01*
X77483323Y-96343248D01*
X77657304Y-95923219D01*
X77746000Y-95477318D01*
X77746000Y-95022682D01*
X77657304Y-94576781D01*
X77483323Y-94156752D01*
X77365221Y-93980000D01*
X77483323Y-93803248D01*
X77657304Y-93383219D01*
X77746000Y-92937318D01*
X77746000Y-92482682D01*
X77657304Y-92036781D01*
X77483323Y-91616752D01*
X77361685Y-91434709D01*
X77537899Y-91132561D01*
X77685336Y-90704396D01*
X77718773Y-90536301D01*
X77370494Y-90175000D01*
X75443000Y-90175000D01*
X75443000Y-90195000D01*
X75433000Y-90195000D01*
X75433000Y-90175000D01*
X73505506Y-90175000D01*
X73157227Y-90536301D01*
X73190664Y-90704396D01*
X73271108Y-90938011D01*
X70964638Y-90938011D01*
X70866000Y-90928296D01*
X70767363Y-90938011D01*
X70767362Y-90938011D01*
X70472363Y-90967066D01*
X70093854Y-91081885D01*
X69854168Y-91210000D01*
X67951106Y-91210000D01*
X67895248Y-91172677D01*
X67475219Y-90998696D01*
X67029318Y-90910000D01*
X66574682Y-90910000D01*
X66128781Y-90998696D01*
X65708752Y-91172677D01*
X65330736Y-91425260D01*
X65009260Y-91746736D01*
X64756677Y-92124752D01*
X64582696Y-92544781D01*
X64494000Y-92990682D01*
X64494000Y-93445318D01*
X64554606Y-93750000D01*
X58889394Y-93750000D01*
X58950000Y-93445318D01*
X58950000Y-92990682D01*
X58861304Y-92544781D01*
X58718297Y-92199530D01*
X58816739Y-92118741D01*
X58879621Y-92042119D01*
X60043330Y-90878410D01*
X60109219Y-90865304D01*
X60529248Y-90691323D01*
X60907264Y-90438740D01*
X61228740Y-90117264D01*
X61481323Y-89739248D01*
X61655304Y-89319219D01*
X61744000Y-88873318D01*
X61744000Y-88418682D01*
X61655304Y-87972781D01*
X61481323Y-87552752D01*
X61228740Y-87174736D01*
X60907264Y-86853260D01*
X60529248Y-86600677D01*
X60109219Y-86426696D01*
X59663318Y-86338000D01*
X59208682Y-86338000D01*
X58762781Y-86426696D01*
X58342752Y-86600677D01*
X57964736Y-86853260D01*
X57643260Y-87174736D01*
X57390677Y-87552752D01*
X57216696Y-87972781D01*
X57203590Y-88038670D01*
X56558259Y-88684001D01*
X53517151Y-88684001D01*
X53240495Y-88397000D01*
X51313000Y-88397000D01*
X51313000Y-88417000D01*
X51303000Y-88417000D01*
X51303000Y-88397000D01*
X51283000Y-88397000D01*
X51283000Y-88387000D01*
X51303000Y-88387000D01*
X51303000Y-86459506D01*
X51313000Y-86459506D01*
X51313000Y-88387000D01*
X53240495Y-88387000D01*
X53588773Y-88025699D01*
X53473487Y-87587781D01*
X53274982Y-87180768D01*
X53000887Y-86820302D01*
X52661736Y-86520236D01*
X52270561Y-86292101D01*
X51842396Y-86144664D01*
X51674301Y-86111227D01*
X51313000Y-86459506D01*
X51303000Y-86459506D01*
X50941699Y-86111227D01*
X50773604Y-86144664D01*
X50345439Y-86292101D01*
X50043291Y-86468315D01*
X49861248Y-86346677D01*
X49441219Y-86172696D01*
X48995318Y-86084000D01*
X48540682Y-86084000D01*
X48094781Y-86172696D01*
X47674752Y-86346677D01*
X47492709Y-86468315D01*
X47190561Y-86292101D01*
X46762396Y-86144664D01*
X46594301Y-86111227D01*
X46233000Y-86459506D01*
X46233000Y-88387000D01*
X46253000Y-88387000D01*
X46253000Y-88397000D01*
X46233000Y-88397000D01*
X46233000Y-88417000D01*
X46223000Y-88417000D01*
X46223000Y-88397000D01*
X46203000Y-88397000D01*
X46203000Y-88387000D01*
X46223000Y-88387000D01*
X46223000Y-86459506D01*
X45861699Y-86111227D01*
X45693604Y-86144664D01*
X45265439Y-86292101D01*
X44963291Y-86468315D01*
X44781248Y-86346677D01*
X44361219Y-86172696D01*
X43915318Y-86084000D01*
X43460682Y-86084000D01*
X43014781Y-86172696D01*
X42594752Y-86346677D01*
X42412709Y-86468315D01*
X42110561Y-86292101D01*
X41682396Y-86144664D01*
X41514301Y-86111227D01*
X41153000Y-86459506D01*
X41153000Y-88387000D01*
X41173000Y-88387000D01*
X41173000Y-88397000D01*
X41153000Y-88397000D01*
X41153000Y-90324494D01*
X41514301Y-90672773D01*
X41682396Y-90639336D01*
X41957091Y-90544746D01*
X42010332Y-90644352D01*
X42191663Y-90865304D01*
X42261261Y-90950110D01*
X42337877Y-91012987D01*
X45893012Y-94568123D01*
X45955890Y-94644740D01*
X46261648Y-94895669D01*
X46610484Y-95082126D01*
X46838729Y-95151363D01*
X46988992Y-95196945D01*
X47382630Y-95235715D01*
X47481268Y-95226000D01*
X51092606Y-95226000D01*
X51032000Y-95530682D01*
X51032000Y-95985318D01*
X51092606Y-96290000D01*
X45427394Y-96290000D01*
X45488000Y-95985318D01*
X45488000Y-95530682D01*
X45399304Y-95084781D01*
X45225323Y-94664752D01*
X44972740Y-94286736D01*
X44651264Y-93965260D01*
X44273248Y-93712677D01*
X43853219Y-93538696D01*
X43787331Y-93525590D01*
X40859508Y-90597768D01*
X41143000Y-90324494D01*
X41143000Y-88397000D01*
X41123000Y-88397000D01*
X41123000Y-88387000D01*
X41143000Y-88387000D01*
X41143000Y-86459506D01*
X40781699Y-86111227D01*
X40613604Y-86144664D01*
X40185439Y-86292101D01*
X39883291Y-86468315D01*
X39701248Y-86346677D01*
X39281219Y-86172696D01*
X38835318Y-86084000D01*
X38380682Y-86084000D01*
X37934781Y-86172696D01*
X37514752Y-86346677D01*
X37332709Y-86468315D01*
X37030561Y-86292101D01*
X36602396Y-86144664D01*
X36434301Y-86111227D01*
X36073000Y-86459506D01*
X36073000Y-88387000D01*
X36093000Y-88387000D01*
X36093000Y-88397000D01*
X36073000Y-88397000D01*
X36073000Y-88417000D01*
X36063000Y-88417000D01*
X36063000Y-88397000D01*
X36043000Y-88397000D01*
X36043000Y-88387000D01*
X36063000Y-88387000D01*
X36063000Y-86459506D01*
X35701699Y-86111227D01*
X35533604Y-86144664D01*
X35105439Y-86292101D01*
X35100477Y-86294995D01*
X34907879Y-86192049D01*
X34623620Y-86105820D01*
X34328000Y-86076704D01*
X33235999Y-86076704D01*
X33235999Y-83067134D01*
X33300682Y-83080000D01*
X33755318Y-83080000D01*
X34201219Y-82991304D01*
X34485870Y-82873398D01*
X34575850Y-82983038D01*
X34641261Y-83062742D01*
X34717877Y-83125619D01*
X36014381Y-84422124D01*
X36077259Y-84498741D01*
X36383017Y-84749670D01*
X36731853Y-84936127D01*
X37110362Y-85050946D01*
X37405361Y-85080001D01*
X37405370Y-85080001D01*
X37503998Y-85089715D01*
X37602626Y-85080001D01*
X39880731Y-85080001D01*
X39979369Y-85089716D01*
X40373006Y-85050946D01*
X40373009Y-85050945D01*
X40751515Y-84936127D01*
X41100351Y-84749670D01*
X41148000Y-84710565D01*
X41195649Y-84749670D01*
X41544485Y-84936127D01*
X41808174Y-85016116D01*
X41922993Y-85050946D01*
X42316631Y-85089716D01*
X42415269Y-85080001D01*
X44960731Y-85080001D01*
X45059369Y-85089716D01*
X45453006Y-85050946D01*
X45453009Y-85050945D01*
X45831515Y-84936127D01*
X46180351Y-84749670D01*
X46228000Y-84710565D01*
X46275649Y-84749670D01*
X46624485Y-84936127D01*
X46888174Y-85016116D01*
X47002993Y-85050946D01*
X47396631Y-85089716D01*
X47495269Y-85080001D01*
X50040731Y-85080001D01*
X50139369Y-85089716D01*
X50533006Y-85050946D01*
X50533009Y-85050945D01*
X50911515Y-84936127D01*
X51260351Y-84749670D01*
X51566109Y-84498741D01*
X51628991Y-84422119D01*
X51873685Y-84177425D01*
X53150403Y-85454144D01*
X53213281Y-85530761D01*
X53519039Y-85781690D01*
X53867875Y-85968147D01*
X54246384Y-86082966D01*
X54541383Y-86112021D01*
X54541392Y-86112021D01*
X54640020Y-86121735D01*
X54738648Y-86112021D01*
X67239784Y-86112021D01*
X67338422Y-86121736D01*
X67445122Y-86111227D01*
X67732059Y-86082966D01*
X68110568Y-85968147D01*
X68381376Y-85823397D01*
X68388000Y-85890648D01*
X68388000Y-86677352D01*
X68124736Y-86853260D01*
X67803260Y-87174736D01*
X67550677Y-87552752D01*
X67376696Y-87972781D01*
X67288000Y-88418682D01*
X67288000Y-88873318D01*
X67376696Y-89319219D01*
X67550677Y-89739248D01*
X67803260Y-90117264D01*
X68124736Y-90438740D01*
X68502752Y-90691323D01*
X68922781Y-90865304D01*
X69368682Y-90954000D01*
X69823318Y-90954000D01*
X70269219Y-90865304D01*
X70689248Y-90691323D01*
X71067264Y-90438740D01*
X71388740Y-90117264D01*
X71641323Y-89739248D01*
X71815304Y-89319219D01*
X71825128Y-89269830D01*
X72073668Y-88966983D01*
X72260125Y-88618147D01*
X72374944Y-88239638D01*
X72403999Y-87944639D01*
X72403999Y-87944630D01*
X72413713Y-87846002D01*
X72403999Y-87747374D01*
X72403999Y-86623741D01*
X73232118Y-85795623D01*
X73392677Y-86183248D01*
X73510779Y-86360000D01*
X73392677Y-86536752D01*
X73218696Y-86956781D01*
X73130000Y-87402682D01*
X73130000Y-87857318D01*
X73218696Y-88303219D01*
X73392677Y-88723248D01*
X73514315Y-88905291D01*
X73338101Y-89207439D01*
X73190664Y-89635604D01*
X73157227Y-89803699D01*
X73505506Y-90165000D01*
X75433000Y-90165000D01*
X75433000Y-90145000D01*
X75443000Y-90145000D01*
X75443000Y-90165000D01*
X77370494Y-90165000D01*
X77718773Y-89803699D01*
X77685336Y-89635604D01*
X77537899Y-89207439D01*
X77361685Y-88905291D01*
X77483323Y-88723248D01*
X77657304Y-88303219D01*
X77746000Y-87857318D01*
X77746000Y-87402682D01*
X77657304Y-86956781D01*
X77483323Y-86536752D01*
X77365221Y-86360000D01*
X77483323Y-86183248D01*
X77657304Y-85763219D01*
X77746000Y-85317318D01*
X77746000Y-84862682D01*
X77657304Y-84416781D01*
X77535228Y-84122061D01*
X77637951Y-83929879D01*
X77724180Y-83645620D01*
X77753296Y-83350000D01*
X77753296Y-82322682D01*
X88370000Y-82322682D01*
X88370000Y-82777318D01*
X88458696Y-83223219D01*
X88632677Y-83643248D01*
X88754315Y-83825291D01*
X88578101Y-84127439D01*
X88430664Y-84555604D01*
X88397227Y-84723699D01*
X88745506Y-85085000D01*
X90673000Y-85085000D01*
X90673000Y-85065000D01*
X90683000Y-85065000D01*
X90683000Y-85085000D01*
X92610494Y-85085000D01*
X92958773Y-84723699D01*
X92925336Y-84555604D01*
X92777899Y-84127439D01*
X92601685Y-83825291D01*
X92723323Y-83643248D01*
X92897304Y-83223219D01*
X92986000Y-82777318D01*
X92986000Y-82322682D01*
X92897304Y-81876781D01*
X92723323Y-81456752D01*
X92470740Y-81078736D01*
X92149264Y-80757260D01*
X91771248Y-80504677D01*
X91351219Y-80330696D01*
X90905318Y-80242000D01*
X90450682Y-80242000D01*
X90004781Y-80330696D01*
X89584752Y-80504677D01*
X89206736Y-80757260D01*
X88885260Y-81078736D01*
X88632677Y-81456752D01*
X88458696Y-81876781D01*
X88370000Y-82322682D01*
X77753296Y-82322682D01*
X77753296Y-81750000D01*
X77724180Y-81454380D01*
X77637951Y-81170121D01*
X77497923Y-80908147D01*
X77415735Y-80808001D01*
X84931361Y-80808001D01*
X85029999Y-80817716D01*
X85423636Y-80778946D01*
X85446537Y-80771999D01*
X85802145Y-80664127D01*
X86150981Y-80477670D01*
X86456739Y-80226741D01*
X86519621Y-80150119D01*
X90713692Y-75956049D01*
X90857803Y-75927383D01*
X91286932Y-75749632D01*
X91673137Y-75491578D01*
X92001578Y-75163137D01*
X92259632Y-74776932D01*
X92437383Y-74347803D01*
X92528000Y-73892243D01*
X92528000Y-73427757D01*
X92437383Y-72972197D01*
X92331217Y-72715889D01*
X92419951Y-72549879D01*
X92506180Y-72265620D01*
X92515697Y-72168989D01*
X93500000Y-73153292D01*
X93500000Y-74885060D01*
X93446820Y-74964649D01*
X93250224Y-75439274D01*
X93150000Y-75943134D01*
X93150000Y-76456866D01*
X93250224Y-76960726D01*
X93446820Y-77435351D01*
X93732234Y-77862503D01*
X94095497Y-78225766D01*
X94522649Y-78511180D01*
X94997274Y-78707776D01*
X95091157Y-78726451D01*
X98072001Y-81707295D01*
X98072001Y-84362190D01*
X97929476Y-84188524D01*
X97699853Y-84000077D01*
X97437879Y-83860049D01*
X97153620Y-83773820D01*
X96858000Y-83744704D01*
X94658000Y-83744704D01*
X94362380Y-83773820D01*
X94078121Y-83860049D01*
X93816147Y-84000077D01*
X93586524Y-84188524D01*
X93398077Y-84418147D01*
X93258049Y-84680121D01*
X93171820Y-84964380D01*
X93142704Y-85260000D01*
X93142704Y-85782002D01*
X92646024Y-86278682D01*
X92777899Y-86052561D01*
X92925336Y-85624396D01*
X92958773Y-85456301D01*
X92610494Y-85095000D01*
X90683000Y-85095000D01*
X90683000Y-85115000D01*
X90673000Y-85115000D01*
X90673000Y-85095000D01*
X88745506Y-85095000D01*
X88397227Y-85456301D01*
X88430664Y-85624396D01*
X88578101Y-86052561D01*
X88754315Y-86354709D01*
X88632677Y-86536752D01*
X88458696Y-86956781D01*
X88370000Y-87402682D01*
X88370000Y-87857318D01*
X88458696Y-88303219D01*
X88632677Y-88723248D01*
X88750779Y-88900000D01*
X88632677Y-89076752D01*
X88458696Y-89496781D01*
X88370000Y-89942682D01*
X88370000Y-90397318D01*
X88458696Y-90843219D01*
X88632677Y-91263248D01*
X88750779Y-91440000D01*
X88632677Y-91616752D01*
X88458696Y-92036781D01*
X88370000Y-92482682D01*
X88370000Y-92937318D01*
X88458696Y-93383219D01*
X88632677Y-93803248D01*
X88750779Y-93980000D01*
X88632677Y-94156752D01*
X88458696Y-94576781D01*
X88370000Y-95022682D01*
X88370000Y-95477318D01*
X88458696Y-95923219D01*
X88632677Y-96343248D01*
X88750779Y-96520000D01*
X88632677Y-96696752D01*
X88458696Y-97116781D01*
X88370000Y-97562682D01*
X88370000Y-98017318D01*
X88458696Y-98463219D01*
X88632677Y-98883248D01*
X88750779Y-99060000D01*
X88632677Y-99236752D01*
X88458696Y-99656781D01*
X88370000Y-100102682D01*
X88370000Y-100557318D01*
X88458696Y-101003219D01*
X88632677Y-101423248D01*
X88750779Y-101600000D01*
X88632677Y-101776752D01*
X88458696Y-102196781D01*
X88370000Y-102642682D01*
X88370000Y-103097318D01*
X88458696Y-103543219D01*
X88632677Y-103963248D01*
X88750779Y-104140000D01*
X88632677Y-104316752D01*
X88458696Y-104736781D01*
X88370000Y-105182682D01*
X88370000Y-105637318D01*
X88458696Y-106083219D01*
X88632677Y-106503248D01*
X88750779Y-106680000D01*
X88632677Y-106856752D01*
X88458696Y-107276781D01*
X88370000Y-107722682D01*
X88370000Y-108177318D01*
X88458696Y-108623219D01*
X88632677Y-109043248D01*
X88750779Y-109220000D01*
X88632677Y-109396752D01*
X88458696Y-109816781D01*
X88370000Y-110262682D01*
X88370000Y-110717318D01*
X88458696Y-111163219D01*
X88632677Y-111583248D01*
X88750779Y-111760000D01*
X88632677Y-111936752D01*
X88458696Y-112356781D01*
X88370000Y-112802682D01*
X88370000Y-113257318D01*
X88458696Y-113703219D01*
X88632677Y-114123248D01*
X88750779Y-114300000D01*
X88632677Y-114476752D01*
X88458696Y-114896781D01*
X88370000Y-115342682D01*
X88370000Y-115797318D01*
X88458696Y-116243219D01*
X88632677Y-116663248D01*
X88750779Y-116840000D01*
X88632677Y-117016752D01*
X88458696Y-117436781D01*
X88370000Y-117882682D01*
X88370000Y-118337318D01*
X88458696Y-118783219D01*
X88632677Y-119203248D01*
X88885260Y-119581264D01*
X89206736Y-119902740D01*
X89584752Y-120155323D01*
X90004781Y-120329304D01*
X90450682Y-120418000D01*
X90905318Y-120418000D01*
X91351219Y-120329304D01*
X91771248Y-120155323D01*
X92149264Y-119902740D01*
X92470740Y-119581264D01*
X92723323Y-119203248D01*
X92897304Y-118783219D01*
X92986000Y-118337318D01*
X92986000Y-117882682D01*
X92953248Y-117718024D01*
X95769047Y-117718024D01*
X95803568Y-118241393D01*
X96230623Y-118490558D01*
X96698080Y-118651620D01*
X97187977Y-118718392D01*
X97681488Y-118688306D01*
X98159647Y-118562518D01*
X98604078Y-118345864D01*
X98760432Y-118241393D01*
X98794953Y-117718024D01*
X97282000Y-116205071D01*
X95769047Y-117718024D01*
X92953248Y-117718024D01*
X92897304Y-117436781D01*
X92723323Y-117016752D01*
X92605221Y-116840000D01*
X92723323Y-116663248D01*
X92897304Y-116243219D01*
X92925001Y-116103977D01*
X94761608Y-116103977D01*
X94791694Y-116597488D01*
X94917482Y-117075647D01*
X95134136Y-117520078D01*
X95238607Y-117676432D01*
X95761976Y-117710953D01*
X97274929Y-116198000D01*
X97289071Y-116198000D01*
X98802024Y-117710953D01*
X99325393Y-117676432D01*
X99574558Y-117249377D01*
X99735620Y-116781920D01*
X99802392Y-116292023D01*
X99772306Y-115798512D01*
X99646518Y-115320353D01*
X99429864Y-114875922D01*
X99325393Y-114719568D01*
X98802024Y-114685047D01*
X97289071Y-116198000D01*
X97274929Y-116198000D01*
X95761976Y-114685047D01*
X95238607Y-114719568D01*
X94989442Y-115146623D01*
X94828380Y-115614080D01*
X94761608Y-116103977D01*
X92925001Y-116103977D01*
X92986000Y-115797318D01*
X92986000Y-115342682D01*
X92897304Y-114896781D01*
X92806673Y-114677976D01*
X95769047Y-114677976D01*
X97282000Y-116190929D01*
X98794953Y-114677976D01*
X98760432Y-114154607D01*
X98333377Y-113905442D01*
X97865920Y-113744380D01*
X97376023Y-113677608D01*
X96882512Y-113707694D01*
X96404353Y-113833482D01*
X95959922Y-114050136D01*
X95803568Y-114154607D01*
X95769047Y-114677976D01*
X92806673Y-114677976D01*
X92723323Y-114476752D01*
X92605221Y-114300000D01*
X92723323Y-114123248D01*
X92897304Y-113703219D01*
X92986000Y-113257318D01*
X92986000Y-112802682D01*
X92897304Y-112356781D01*
X92723323Y-111936752D01*
X92605221Y-111760000D01*
X92723323Y-111583248D01*
X92897304Y-111163219D01*
X92906274Y-111118123D01*
X96729843Y-111118123D01*
X96764044Y-111290068D01*
X96914693Y-111727494D01*
X97147785Y-112127125D01*
X97454362Y-112473603D01*
X97822643Y-112753614D01*
X98238475Y-112956396D01*
X98685877Y-113074157D01*
X99055000Y-112726495D01*
X99055000Y-110749000D01*
X97077506Y-110749000D01*
X96729843Y-111118123D01*
X92906274Y-111118123D01*
X92986000Y-110717318D01*
X92986000Y-110262682D01*
X92897304Y-109816781D01*
X92723323Y-109396752D01*
X92605221Y-109220000D01*
X92723323Y-109043248D01*
X92897304Y-108623219D01*
X92986000Y-108177318D01*
X92986000Y-107722682D01*
X92897304Y-107276781D01*
X92723323Y-106856752D01*
X92605221Y-106680000D01*
X92723323Y-106503248D01*
X92897304Y-106083219D01*
X92986000Y-105637318D01*
X92986000Y-105182682D01*
X92897304Y-104736781D01*
X92723323Y-104316752D01*
X92605221Y-104140000D01*
X92723323Y-103963248D01*
X92897304Y-103543219D01*
X92986000Y-103097318D01*
X92986000Y-102642682D01*
X92925394Y-102338000D01*
X92988001Y-102338000D01*
X92988001Y-103361355D01*
X92978285Y-103460002D01*
X93017055Y-103853639D01*
X93131875Y-104232148D01*
X93318332Y-104580984D01*
X93501964Y-104804740D01*
X93569261Y-104886742D01*
X93645877Y-104949619D01*
X95710380Y-107014123D01*
X95773258Y-107090740D01*
X96079016Y-107341669D01*
X96427852Y-107528126D01*
X96688588Y-107607219D01*
X96769622Y-107631801D01*
X96702000Y-107971757D01*
X96702000Y-108436243D01*
X96792617Y-108891803D01*
X96970368Y-109320932D01*
X97077534Y-109481318D01*
X96914693Y-109760506D01*
X96764044Y-110197932D01*
X96729843Y-110369877D01*
X97077506Y-110739000D01*
X99055000Y-110739000D01*
X99055000Y-110719000D01*
X99065000Y-110719000D01*
X99065000Y-110739000D01*
X99085000Y-110739000D01*
X99085000Y-110749000D01*
X99065000Y-110749000D01*
X99065000Y-112726495D01*
X99434123Y-113074157D01*
X99881525Y-112956396D01*
X100297357Y-112753614D01*
X100665638Y-112473603D01*
X100972215Y-112127125D01*
X101012597Y-112057891D01*
X101708920Y-112754214D01*
X101779629Y-112840373D01*
X102123454Y-113122543D01*
X102384360Y-113262000D01*
X102515721Y-113332214D01*
X102941355Y-113461329D01*
X102979635Y-113465099D01*
X103273078Y-113494001D01*
X103273086Y-113494001D01*
X103384001Y-113504925D01*
X103494916Y-113494001D01*
X107658688Y-113494001D01*
X107769601Y-113504925D01*
X107880514Y-113494001D01*
X107880524Y-113494001D01*
X108212246Y-113461329D01*
X108269369Y-113444001D01*
X111534001Y-113444001D01*
X111534000Y-116173587D01*
X111523076Y-116284500D01*
X111534000Y-116395413D01*
X111534000Y-116395422D01*
X111566672Y-116727144D01*
X111695787Y-117152779D01*
X111905458Y-117545047D01*
X112187628Y-117888872D01*
X112273792Y-117959585D01*
X115762213Y-121448006D01*
X115680923Y-121440000D01*
X115680913Y-121440000D01*
X115570000Y-121429076D01*
X115459087Y-121440000D01*
X98384426Y-121440000D01*
X98013557Y-121286381D01*
X97529016Y-121190000D01*
X97034984Y-121190000D01*
X96550443Y-121286381D01*
X96094017Y-121475439D01*
X95683243Y-121749909D01*
X95333909Y-122099243D01*
X95059439Y-122510017D01*
X94870381Y-122966443D01*
X94774000Y-123450984D01*
X94774000Y-123945016D01*
X94870381Y-124429557D01*
X95059439Y-124885983D01*
X95333909Y-125296757D01*
X95683243Y-125646091D01*
X96094017Y-125920561D01*
X96550443Y-126109619D01*
X97034984Y-126206000D01*
X97529016Y-126206000D01*
X98013557Y-126109619D01*
X98384426Y-125956000D01*
X114774484Y-125956000D01*
X114965730Y-126058223D01*
X115391365Y-126187338D01*
X115723087Y-126220010D01*
X115723095Y-126220010D01*
X115834010Y-126230934D01*
X115944925Y-126220010D01*
X122337660Y-126220010D01*
X122448573Y-126230934D01*
X122559486Y-126220010D01*
X122559496Y-126220010D01*
X122891218Y-126187338D01*
X123316853Y-126058223D01*
X123709120Y-125848552D01*
X124052945Y-125566382D01*
X124123658Y-125480218D01*
X124837000Y-124766876D01*
X124837000Y-126792762D01*
X132103000Y-126792762D01*
X132103000Y-113009986D01*
X132105977Y-113010392D01*
X132599488Y-112980306D01*
X133077647Y-112854518D01*
X133522078Y-112637864D01*
X133678432Y-112533393D01*
X133712953Y-112010024D01*
X132200000Y-110497071D01*
X132185858Y-110511214D01*
X132178787Y-110504143D01*
X132192929Y-110490000D01*
X132207071Y-110490000D01*
X133720024Y-112002953D01*
X134243393Y-111968432D01*
X134492558Y-111541377D01*
X134653620Y-111073920D01*
X134720392Y-110584023D01*
X134690306Y-110090512D01*
X134564518Y-109612353D01*
X134347864Y-109167922D01*
X134243393Y-109011568D01*
X133720024Y-108977047D01*
X132207071Y-110490000D01*
X132192929Y-110490000D01*
X130679976Y-108977047D01*
X130156607Y-109011568D01*
X129907442Y-109438623D01*
X129746380Y-109906080D01*
X129679608Y-110395977D01*
X129709694Y-110889488D01*
X129835482Y-111367647D01*
X130052136Y-111812078D01*
X130155809Y-111967238D01*
X126210000Y-111967238D01*
X126210000Y-108969976D01*
X130687047Y-108969976D01*
X132200000Y-110482929D01*
X133712953Y-108969976D01*
X133678432Y-108446607D01*
X133251377Y-108197442D01*
X132783920Y-108036380D01*
X132294023Y-107969608D01*
X131800512Y-107999694D01*
X131322353Y-108125482D01*
X130877922Y-108342136D01*
X130721568Y-108446607D01*
X130687047Y-108969976D01*
X126210000Y-108969976D01*
X126210000Y-107778213D01*
X126220924Y-107667298D01*
X126210000Y-107556383D01*
X126210000Y-107556375D01*
X126180958Y-107261510D01*
X126177328Y-107224652D01*
X126048213Y-106799018D01*
X125966123Y-106645439D01*
X125838542Y-106406751D01*
X125831360Y-106398000D01*
X126866655Y-106398000D01*
X127124380Y-106476180D01*
X127420000Y-106505296D01*
X129120000Y-106505296D01*
X129415620Y-106476180D01*
X129673345Y-106398000D01*
X136117328Y-106398000D01*
X136166352Y-106424204D01*
X136287730Y-106461024D01*
X137442001Y-107615295D01*
X137442000Y-109387574D01*
X137288381Y-109758443D01*
X137192000Y-110242984D01*
X137192000Y-110737016D01*
X137288381Y-111221557D01*
X137477439Y-111677983D01*
X137751909Y-112088757D01*
X138101243Y-112438091D01*
X138512017Y-112712561D01*
X138968443Y-112901619D01*
X139452984Y-112998000D01*
X139947016Y-112998000D01*
X140431557Y-112901619D01*
X140887983Y-112712561D01*
X141298757Y-112438091D01*
X141648091Y-112088757D01*
X141922561Y-111677983D01*
X142111619Y-111221557D01*
X142208000Y-110737016D01*
X142208000Y-110242984D01*
X142111619Y-109758443D01*
X141958000Y-109387574D01*
X141958000Y-106790912D01*
X141968924Y-106679999D01*
X141958000Y-106569086D01*
X141958000Y-106569077D01*
X141925328Y-106237355D01*
X141796213Y-105811720D01*
X141586542Y-105419453D01*
X141508311Y-105324128D01*
X141375081Y-105161786D01*
X141375076Y-105161781D01*
X141304372Y-105075628D01*
X141218219Y-105004924D01*
X139528524Y-103315230D01*
X139491704Y-103193852D01*
X139313156Y-102859810D01*
X139484467Y-102537738D01*
X139623659Y-102075505D01*
X139638895Y-101990158D01*
X139292494Y-101605000D01*
X137165000Y-101605000D01*
X137165000Y-101625000D01*
X137155000Y-101625000D01*
X137155000Y-101605000D01*
X135027506Y-101605000D01*
X134778379Y-101882000D01*
X130513390Y-101882000D01*
X130252494Y-101605000D01*
X128275000Y-101605000D01*
X128275000Y-101625000D01*
X128265000Y-101625000D01*
X128265000Y-101605000D01*
X126287506Y-101605000D01*
X126026610Y-101882000D01*
X121128683Y-101882000D01*
X120877318Y-101832000D01*
X120422682Y-101832000D01*
X119976781Y-101920696D01*
X119556752Y-102094677D01*
X119178736Y-102347260D01*
X118857260Y-102668736D01*
X118604677Y-103046752D01*
X118430696Y-103466781D01*
X118342000Y-103912682D01*
X118342000Y-104367318D01*
X118430696Y-104813219D01*
X118604677Y-105233248D01*
X118857260Y-105611264D01*
X119178736Y-105932740D01*
X119367196Y-106058665D01*
X119563457Y-106425844D01*
X119845627Y-106769669D01*
X119931790Y-106840381D01*
X121694000Y-108602592D01*
X121694001Y-118801068D01*
X121694000Y-118801078D01*
X121694000Y-119030379D01*
X121417000Y-119279506D01*
X121417000Y-121407000D01*
X121437000Y-121407000D01*
X121437000Y-121417000D01*
X121417000Y-121417000D01*
X121417000Y-121437000D01*
X121407000Y-121437000D01*
X121407000Y-121417000D01*
X121387000Y-121417000D01*
X121387000Y-121407000D01*
X121407000Y-121407000D01*
X121407000Y-119279506D01*
X121021842Y-118933105D01*
X120936495Y-118948341D01*
X120474262Y-119087533D01*
X120152190Y-119258844D01*
X119818148Y-119080296D01*
X119764953Y-119064160D01*
X116050000Y-115349207D01*
X116050000Y-111851295D01*
X117518202Y-110383094D01*
X117604361Y-110312385D01*
X117886531Y-109968560D01*
X118096202Y-109576293D01*
X118225317Y-109150658D01*
X118257989Y-108818936D01*
X118257989Y-108818927D01*
X118268913Y-108708014D01*
X118257989Y-108597101D01*
X118257989Y-102994597D01*
X119934587Y-101318000D01*
X126026610Y-101318000D01*
X126287506Y-101595000D01*
X128265000Y-101595000D01*
X128265000Y-101575000D01*
X128275000Y-101575000D01*
X128275000Y-101595000D01*
X130252494Y-101595000D01*
X130600157Y-101225877D01*
X130565956Y-101053932D01*
X130415307Y-100616506D01*
X130252466Y-100337318D01*
X130359632Y-100176932D01*
X130369016Y-100154277D01*
X130638207Y-99885086D01*
X130724371Y-99814373D01*
X131006541Y-99470548D01*
X131216212Y-99078281D01*
X131345327Y-98652646D01*
X131377999Y-98320924D01*
X131377999Y-98320915D01*
X131388923Y-98210002D01*
X131377999Y-98099089D01*
X131377999Y-91732973D01*
X131401909Y-91768757D01*
X131751243Y-92118091D01*
X132162017Y-92392561D01*
X132618443Y-92581619D01*
X133102984Y-92678000D01*
X133597016Y-92678000D01*
X134081557Y-92581619D01*
X134452426Y-92428000D01*
X135814704Y-92428000D01*
X135814704Y-92540000D01*
X135843820Y-92835620D01*
X135930049Y-93119879D01*
X136070077Y-93381853D01*
X136172000Y-93506047D01*
X136172001Y-96592204D01*
X136160000Y-96592204D01*
X135864380Y-96621320D01*
X135580121Y-96707549D01*
X135318147Y-96847577D01*
X135088524Y-97036024D01*
X134900077Y-97265647D01*
X134760049Y-97527621D01*
X134673820Y-97811880D01*
X134644704Y-98107500D01*
X134644704Y-100012500D01*
X134673820Y-100308120D01*
X134760049Y-100592379D01*
X134821792Y-100707893D01*
X134696341Y-101124495D01*
X134681105Y-101209842D01*
X135027506Y-101595000D01*
X137155000Y-101595000D01*
X137155000Y-101575000D01*
X137165000Y-101575000D01*
X137165000Y-101595000D01*
X139292494Y-101595000D01*
X139638895Y-101209842D01*
X139623659Y-101124495D01*
X139498208Y-100707893D01*
X139559951Y-100592379D01*
X139646180Y-100308120D01*
X139675296Y-100012500D01*
X139675296Y-99737997D01*
X139948208Y-99465085D01*
X140034372Y-99394372D01*
X140316542Y-99050547D01*
X140526213Y-98658280D01*
X140655328Y-98232645D01*
X140688000Y-97900923D01*
X140688000Y-97900914D01*
X140698924Y-97790001D01*
X140688000Y-97679088D01*
X140688000Y-93506046D01*
X140789923Y-93381853D01*
X140929951Y-93119879D01*
X141016180Y-92835620D01*
X141045296Y-92540000D01*
X141045296Y-90340000D01*
X141016180Y-90044380D01*
X140929951Y-89760121D01*
X140789923Y-89498147D01*
X140601476Y-89268524D01*
X140371853Y-89080077D01*
X140109879Y-88940049D01*
X139825620Y-88853820D01*
X139530000Y-88824704D01*
X139007997Y-88824704D01*
X138835085Y-88651792D01*
X138764372Y-88565628D01*
X138420547Y-88283458D01*
X138028280Y-88073787D01*
X137602645Y-87944672D01*
X137270923Y-87912000D01*
X137270913Y-87912000D01*
X137160000Y-87901076D01*
X137049087Y-87912000D01*
X134452426Y-87912000D01*
X134081557Y-87758381D01*
X133597016Y-87662000D01*
X133102984Y-87662000D01*
X132618443Y-87758381D01*
X132162017Y-87947439D01*
X131751243Y-88221909D01*
X131401909Y-88571243D01*
X131377999Y-88607027D01*
X131377999Y-87465127D01*
X131388923Y-87354212D01*
X131377999Y-87243297D01*
X131377999Y-87243289D01*
X131345327Y-86911567D01*
X131216212Y-86485932D01*
X131006541Y-86093665D01*
X130724371Y-85749840D01*
X130638212Y-85679131D01*
X129029105Y-84070024D01*
X131717047Y-84070024D01*
X131751568Y-84593393D01*
X132178623Y-84842558D01*
X132646080Y-85003620D01*
X133135977Y-85070392D01*
X133629488Y-85040306D01*
X134107647Y-84914518D01*
X134552078Y-84697864D01*
X134708432Y-84593393D01*
X134742953Y-84070024D01*
X133230000Y-82557071D01*
X131717047Y-84070024D01*
X129029105Y-84070024D01*
X128158047Y-83198967D01*
X128238000Y-82797016D01*
X128238000Y-82455977D01*
X130709608Y-82455977D01*
X130739694Y-82949488D01*
X130865482Y-83427647D01*
X131082136Y-83872078D01*
X131186607Y-84028432D01*
X131709976Y-84062953D01*
X133222929Y-82550000D01*
X133237071Y-82550000D01*
X134750024Y-84062953D01*
X135273393Y-84028432D01*
X135522558Y-83601377D01*
X135683620Y-83133920D01*
X135750392Y-82644023D01*
X135720306Y-82150512D01*
X135594518Y-81672353D01*
X135377864Y-81227922D01*
X135273393Y-81071568D01*
X134750024Y-81037047D01*
X133237071Y-82550000D01*
X133222929Y-82550000D01*
X131709976Y-81037047D01*
X131186607Y-81071568D01*
X130937442Y-81498623D01*
X130776380Y-81966080D01*
X130709608Y-82455977D01*
X128238000Y-82455977D01*
X128238000Y-82302984D01*
X128141619Y-81818443D01*
X127952561Y-81362017D01*
X127730699Y-81029976D01*
X131717047Y-81029976D01*
X133230000Y-82542929D01*
X134742953Y-81029976D01*
X134708432Y-80506607D01*
X134281377Y-80257442D01*
X133813920Y-80096380D01*
X133324023Y-80029608D01*
X132830512Y-80059694D01*
X132352353Y-80185482D01*
X131907922Y-80402136D01*
X131751568Y-80506607D01*
X131717047Y-81029976D01*
X127730699Y-81029976D01*
X127678091Y-80951243D01*
X127328757Y-80601909D01*
X126917983Y-80327439D01*
X126461557Y-80138381D01*
X125977016Y-80042000D01*
X125482984Y-80042000D01*
X124998443Y-80138381D01*
X124542017Y-80327439D01*
X124131243Y-80601909D01*
X123781909Y-80951243D01*
X123507439Y-81362017D01*
X123318381Y-81818443D01*
X123222000Y-82302984D01*
X123222000Y-82797016D01*
X123318381Y-83281557D01*
X123472000Y-83652426D01*
X123472000Y-83853300D01*
X123461076Y-83964213D01*
X123472000Y-84075126D01*
X123472000Y-84075136D01*
X123504672Y-84406858D01*
X123551619Y-84561619D01*
X123633787Y-84832492D01*
X123771428Y-85090000D01*
X123843459Y-85224760D01*
X124125629Y-85568585D01*
X124211787Y-85639293D01*
X126265984Y-87693491D01*
X125944023Y-87649608D01*
X125450512Y-87679694D01*
X124972353Y-87805482D01*
X124527922Y-88022136D01*
X124371568Y-88126607D01*
X124337047Y-88649976D01*
X125850000Y-90162929D01*
X125864143Y-90148787D01*
X125871214Y-90155858D01*
X125857071Y-90170000D01*
X125871214Y-90184143D01*
X125864143Y-90191214D01*
X125850000Y-90177071D01*
X124337047Y-91690024D01*
X124371568Y-92213393D01*
X124798623Y-92462558D01*
X125266080Y-92623620D01*
X125755977Y-92690392D01*
X126249488Y-92660306D01*
X126727647Y-92534518D01*
X126861999Y-92469023D01*
X126862000Y-96802000D01*
X119110205Y-96802000D01*
X118999292Y-96791076D01*
X118888379Y-96802000D01*
X118888370Y-96802000D01*
X118556648Y-96834672D01*
X118131013Y-96963787D01*
X117738746Y-97173458D01*
X117734408Y-97177018D01*
X117484234Y-97382331D01*
X117394921Y-97455628D01*
X117368548Y-97487764D01*
X117191260Y-97633260D01*
X117128378Y-97709882D01*
X115045350Y-99792910D01*
X114951476Y-99678524D01*
X114721853Y-99490077D01*
X114459879Y-99350049D01*
X114175620Y-99263820D01*
X113880000Y-99234704D01*
X113504445Y-99234704D01*
X112498000Y-98228260D01*
X112498000Y-96759097D01*
X112712561Y-96437983D01*
X112901619Y-95981557D01*
X112998000Y-95497016D01*
X112998000Y-95002984D01*
X112941313Y-94718000D01*
X118457529Y-94718000D01*
X118604677Y-95073248D01*
X118857260Y-95451264D01*
X119178736Y-95772740D01*
X119556752Y-96025323D01*
X119976781Y-96199304D01*
X120422682Y-96288000D01*
X120877318Y-96288000D01*
X121323219Y-96199304D01*
X121743248Y-96025323D01*
X122121264Y-95772740D01*
X122442740Y-95451264D01*
X122695323Y-95073248D01*
X122869304Y-94653219D01*
X122958000Y-94207318D01*
X122958000Y-93752682D01*
X122869304Y-93306781D01*
X122695323Y-92886752D01*
X122658000Y-92830894D01*
X122658000Y-92808638D01*
X122667715Y-92710000D01*
X122658000Y-92611362D01*
X122658000Y-90075977D01*
X123329608Y-90075977D01*
X123359694Y-90569488D01*
X123485482Y-91047647D01*
X123702136Y-91492078D01*
X123806607Y-91648432D01*
X124329976Y-91682953D01*
X125842929Y-90170000D01*
X124329976Y-88657047D01*
X123806607Y-88691568D01*
X123557442Y-89118623D01*
X123396380Y-89586080D01*
X123329608Y-90075977D01*
X122658000Y-90075977D01*
X122658000Y-81159106D01*
X122695323Y-81103248D01*
X122869304Y-80683219D01*
X122958000Y-80237318D01*
X122958000Y-79782682D01*
X122869304Y-79336781D01*
X122695323Y-78916752D01*
X122442740Y-78538736D01*
X122121264Y-78217260D01*
X121743248Y-77964677D01*
X121323219Y-77790696D01*
X120877318Y-77702000D01*
X120422682Y-77702000D01*
X119976781Y-77790696D01*
X119556752Y-77964677D01*
X119500894Y-78002000D01*
X118411741Y-78002000D01*
X115281078Y-74871337D01*
X115316180Y-74755620D01*
X115345296Y-74460000D01*
X115345296Y-73940000D01*
X129854704Y-73940000D01*
X129854704Y-75920000D01*
X129883820Y-76215620D01*
X129970049Y-76499879D01*
X130110077Y-76761853D01*
X130298524Y-76991476D01*
X130528147Y-77179923D01*
X130790121Y-77319951D01*
X131074380Y-77406180D01*
X131370000Y-77435296D01*
X135330000Y-77435296D01*
X135625620Y-77406180D01*
X135909879Y-77319951D01*
X135985980Y-77279274D01*
X136172001Y-77465294D01*
X136172000Y-79965059D01*
X136118820Y-80044649D01*
X135922224Y-80519274D01*
X135822000Y-81023134D01*
X135822000Y-81536866D01*
X135922224Y-82040726D01*
X136118820Y-82515351D01*
X136404234Y-82942503D01*
X136767497Y-83305766D01*
X137194649Y-83591180D01*
X137669274Y-83787776D01*
X138173134Y-83888000D01*
X138686866Y-83888000D01*
X139190726Y-83787776D01*
X139665351Y-83591180D01*
X140092503Y-83305766D01*
X140455766Y-82942503D01*
X140741180Y-82515351D01*
X140937776Y-82040726D01*
X141038000Y-81536866D01*
X141038000Y-81023134D01*
X140937776Y-80519274D01*
X140741180Y-80044649D01*
X140688000Y-79965060D01*
X140688000Y-76640915D01*
X140698924Y-76530000D01*
X140688000Y-76419085D01*
X140688000Y-76419077D01*
X140655328Y-76087355D01*
X140644506Y-76051678D01*
X140526213Y-75661720D01*
X140316542Y-75269452D01*
X140105081Y-75011787D01*
X140105080Y-75011786D01*
X140034372Y-74925628D01*
X139948213Y-74854919D01*
X138505085Y-73411791D01*
X138434372Y-73325628D01*
X138090547Y-73043458D01*
X137698280Y-72833787D01*
X137272645Y-72704672D01*
X136940923Y-72672000D01*
X136940913Y-72672000D01*
X136830000Y-72661076D01*
X136719087Y-72672000D01*
X136156742Y-72672000D01*
X135909879Y-72540049D01*
X135625620Y-72453820D01*
X135330000Y-72424704D01*
X134397691Y-72424704D01*
X134832630Y-72380988D01*
X135301328Y-72237786D01*
X135733083Y-72005897D01*
X136111303Y-71694232D01*
X136421452Y-71314769D01*
X136651613Y-70882090D01*
X136792940Y-70412823D01*
X136808434Y-70326024D01*
X136462494Y-69935000D01*
X133355000Y-69935000D01*
X133355000Y-69955000D01*
X133345000Y-69955000D01*
X133345000Y-69935000D01*
X130237506Y-69935000D01*
X129891566Y-70326024D01*
X129907060Y-70412823D01*
X130048387Y-70882090D01*
X130278548Y-71314769D01*
X130588697Y-71694232D01*
X130966917Y-72005897D01*
X131398672Y-72237786D01*
X131867370Y-72380988D01*
X132302309Y-72424704D01*
X131370000Y-72424704D01*
X131074380Y-72453820D01*
X130790121Y-72540049D01*
X130528147Y-72680077D01*
X130298524Y-72868524D01*
X130110077Y-73098147D01*
X129970049Y-73360121D01*
X129883820Y-73644380D01*
X129854704Y-73940000D01*
X115345296Y-73940000D01*
X115345296Y-72860000D01*
X115316180Y-72564380D01*
X115229951Y-72280121D01*
X115089923Y-72018147D01*
X114901476Y-71788524D01*
X114671853Y-71600077D01*
X114409879Y-71460049D01*
X114125620Y-71373820D01*
X113830000Y-71344704D01*
X112230000Y-71344704D01*
X111934380Y-71373820D01*
X111650121Y-71460049D01*
X111388147Y-71600077D01*
X111158524Y-71788524D01*
X110970077Y-72018147D01*
X110830049Y-72280121D01*
X110743820Y-72564380D01*
X110714704Y-72860000D01*
X110714704Y-74460000D01*
X110743820Y-74755620D01*
X110830049Y-75039879D01*
X110970077Y-75301853D01*
X111021669Y-75364718D01*
X111012285Y-75460000D01*
X111051055Y-75853637D01*
X111165875Y-76232146D01*
X111352332Y-76580982D01*
X111533287Y-76801476D01*
X111603261Y-76886740D01*
X111679877Y-76949617D01*
X116090382Y-81360123D01*
X116153260Y-81436740D01*
X116229877Y-81499618D01*
X116459018Y-81687669D01*
X116807853Y-81874126D01*
X117186363Y-81988945D01*
X117580000Y-82027715D01*
X117678638Y-82018000D01*
X118642000Y-82018000D01*
X118642001Y-90702000D01*
X112941313Y-90702000D01*
X112998000Y-90417016D01*
X112998000Y-89922984D01*
X112901619Y-89438443D01*
X112712561Y-88982017D01*
X112498000Y-88660903D01*
X112498000Y-86064304D01*
X112632379Y-85739884D01*
X112718000Y-85309439D01*
X112718000Y-84870561D01*
X112632379Y-84440116D01*
X112464428Y-84034646D01*
X112321006Y-83820000D01*
X112464428Y-83605354D01*
X112632379Y-83199884D01*
X112718000Y-82769439D01*
X112718000Y-82330561D01*
X112632379Y-81900116D01*
X112498000Y-81575696D01*
X112498000Y-80984304D01*
X112632379Y-80659884D01*
X112718000Y-80229439D01*
X112718000Y-79790561D01*
X112632379Y-79360116D01*
X112464428Y-78954646D01*
X112220600Y-78589733D01*
X111910267Y-78279400D01*
X111545354Y-78035572D01*
X111139884Y-77867621D01*
X110709439Y-77782000D01*
X110270561Y-77782000D01*
X109840116Y-77867621D01*
X109515696Y-78002000D01*
X104878000Y-78002000D01*
X104878000Y-74206046D01*
X104979923Y-74081853D01*
X105119951Y-73819879D01*
X105206180Y-73535620D01*
X105235296Y-73240000D01*
X105235296Y-71540000D01*
X105206180Y-71244380D01*
X105119951Y-70960121D01*
X104979923Y-70698147D01*
X104791476Y-70468524D01*
X104561853Y-70280077D01*
X104299879Y-70140049D01*
X104015620Y-70053820D01*
X103854165Y-70037918D01*
X111659153Y-70037918D01*
X111669695Y-70540806D01*
X112062760Y-70770049D01*
X112492996Y-70918204D01*
X112943867Y-70979578D01*
X113398049Y-70951811D01*
X113838087Y-70835971D01*
X114247071Y-70636511D01*
X114390305Y-70540806D01*
X114397107Y-70216301D01*
X118369227Y-70216301D01*
X118484513Y-70654219D01*
X118683018Y-71061232D01*
X118957113Y-71421698D01*
X119296264Y-71721764D01*
X119687439Y-71949899D01*
X120115604Y-72097336D01*
X120283699Y-72130773D01*
X120645000Y-71782494D01*
X120645000Y-69855000D01*
X120655000Y-69855000D01*
X120655000Y-71782494D01*
X121016301Y-72130773D01*
X121184396Y-72097336D01*
X121612561Y-71949899D01*
X122003736Y-71721764D01*
X122342887Y-71421698D01*
X122616982Y-71061232D01*
X122815487Y-70654219D01*
X122930773Y-70216301D01*
X122582495Y-69855000D01*
X120655000Y-69855000D01*
X120645000Y-69855000D01*
X118717505Y-69855000D01*
X118369227Y-70216301D01*
X114397107Y-70216301D01*
X114400847Y-70037918D01*
X113030000Y-68667071D01*
X111659153Y-70037918D01*
X103854165Y-70037918D01*
X103720000Y-70024704D01*
X102020000Y-70024704D01*
X101724380Y-70053820D01*
X101440121Y-70140049D01*
X101178147Y-70280077D01*
X100948524Y-70468524D01*
X100760077Y-70698147D01*
X100620049Y-70960121D01*
X100533820Y-71244380D01*
X100504704Y-71540000D01*
X100504704Y-73240000D01*
X100533820Y-73535620D01*
X100620049Y-73819879D01*
X100760077Y-74081853D01*
X100862001Y-74206047D01*
X100862000Y-78110706D01*
X98284451Y-75533157D01*
X98265776Y-75439274D01*
X98069180Y-74964649D01*
X98016000Y-74885060D01*
X98016000Y-72328913D01*
X98026924Y-72217998D01*
X98016000Y-72107083D01*
X98016000Y-72107075D01*
X97983328Y-71775353D01*
X97980988Y-71767637D01*
X97854213Y-71349718D01*
X97644542Y-70957451D01*
X97433081Y-70699785D01*
X97433080Y-70699784D01*
X97362372Y-70613626D01*
X97276213Y-70542917D01*
X95307163Y-68573867D01*
X110710422Y-68573867D01*
X110738189Y-69028049D01*
X110854029Y-69468087D01*
X111053489Y-69877071D01*
X111149194Y-70020305D01*
X111652082Y-70030847D01*
X113022929Y-68660000D01*
X113037071Y-68660000D01*
X114407918Y-70030847D01*
X114910806Y-70020305D01*
X115140049Y-69627240D01*
X115189478Y-69483699D01*
X118369227Y-69483699D01*
X118717505Y-69845000D01*
X120645000Y-69845000D01*
X120645000Y-67917506D01*
X120655000Y-67917506D01*
X120655000Y-69845000D01*
X122582495Y-69845000D01*
X122882308Y-69533976D01*
X129891566Y-69533976D01*
X130237506Y-69925000D01*
X133345000Y-69925000D01*
X133345000Y-67430000D01*
X133355000Y-67430000D01*
X133355000Y-69925000D01*
X136462494Y-69925000D01*
X136808434Y-69533976D01*
X136792940Y-69447177D01*
X136651613Y-68977910D01*
X136421452Y-68545231D01*
X136111303Y-68165768D01*
X135733083Y-67854103D01*
X135301328Y-67622214D01*
X134832630Y-67479012D01*
X134345000Y-67430000D01*
X133355000Y-67430000D01*
X133345000Y-67430000D01*
X132355000Y-67430000D01*
X131867370Y-67479012D01*
X131398672Y-67622214D01*
X130966917Y-67854103D01*
X130588697Y-68165768D01*
X130278548Y-68545231D01*
X130048387Y-68977910D01*
X129907060Y-69447177D01*
X129891566Y-69533976D01*
X122882308Y-69533976D01*
X122930773Y-69483699D01*
X122815487Y-69045781D01*
X122616982Y-68638768D01*
X122342887Y-68278302D01*
X122003736Y-67978236D01*
X121612561Y-67750101D01*
X121184396Y-67602664D01*
X121016301Y-67569227D01*
X120655000Y-67917506D01*
X120645000Y-67917506D01*
X120283699Y-67569227D01*
X120115604Y-67602664D01*
X119687439Y-67750101D01*
X119296264Y-67978236D01*
X118957113Y-68278302D01*
X118683018Y-68638768D01*
X118484513Y-69045781D01*
X118369227Y-69483699D01*
X115189478Y-69483699D01*
X115288204Y-69197004D01*
X115349578Y-68746133D01*
X115321811Y-68291951D01*
X115205971Y-67851913D01*
X115006511Y-67442929D01*
X114910806Y-67299695D01*
X114407918Y-67289153D01*
X113037071Y-68660000D01*
X113022929Y-68660000D01*
X111652082Y-67289153D01*
X111149194Y-67299695D01*
X110919951Y-67692760D01*
X110771796Y-68122996D01*
X110710422Y-68573867D01*
X95307163Y-68573867D01*
X94015378Y-67282082D01*
X111659153Y-67282082D01*
X113030000Y-68652929D01*
X114400847Y-67282082D01*
X114390305Y-66779194D01*
X113997240Y-66549951D01*
X113567004Y-66401796D01*
X113116133Y-66340422D01*
X112661951Y-66368189D01*
X112221913Y-66484029D01*
X111812929Y-66683489D01*
X111669695Y-66779194D01*
X111659153Y-67282082D01*
X94015378Y-67282082D01*
X92769086Y-66035791D01*
X92698373Y-65949627D01*
X92354548Y-65667457D01*
X91962281Y-65457786D01*
X91536646Y-65328671D01*
X91204924Y-65295999D01*
X91204914Y-65295999D01*
X91094001Y-65285075D01*
X90983088Y-65295999D01*
X53355762Y-65295999D01*
X53244849Y-65285075D01*
X53133936Y-65295999D01*
X53133927Y-65295999D01*
X52802205Y-65328671D01*
X52376570Y-65457786D01*
X51984303Y-65667457D01*
X51640478Y-65949627D01*
X51569765Y-66035791D01*
X51537556Y-66068000D01*
X40912696Y-66068000D01*
X40910353Y-66066077D01*
X40648379Y-65926049D01*
X40364120Y-65839820D01*
X40068500Y-65810704D01*
X38163500Y-65810704D01*
X37867880Y-65839820D01*
X37583621Y-65926049D01*
X37479911Y-65981483D01*
X37058342Y-65853602D01*
X36576000Y-65806095D01*
X36093659Y-65853602D01*
X35629853Y-65994296D01*
X35295811Y-66172844D01*
X34973738Y-66001533D01*
X34511505Y-65862341D01*
X34426158Y-65847105D01*
X34041000Y-66193506D01*
X34041000Y-68321000D01*
X34061000Y-68321000D01*
X34061000Y-68331000D01*
X34041000Y-68331000D01*
X34041000Y-68351000D01*
X34031000Y-68351000D01*
X34031000Y-68331000D01*
X31573500Y-68331000D01*
X31573500Y-68378500D01*
X31621792Y-68858814D01*
X31762860Y-69320477D01*
X31991284Y-69745749D01*
X32298285Y-70118286D01*
X32672066Y-70423772D01*
X33098262Y-70650467D01*
X33339230Y-70723030D01*
X29877881Y-74184379D01*
X29801259Y-74247261D01*
X29550330Y-74553019D01*
X29363873Y-74901856D01*
X29313971Y-75066363D01*
X29249054Y-75280364D01*
X29210284Y-75674001D01*
X28228000Y-75674001D01*
X28228000Y-68273500D01*
X31573500Y-68273500D01*
X31573500Y-68321000D01*
X34031000Y-68321000D01*
X34031000Y-66193506D01*
X33645842Y-65847105D01*
X33560495Y-65862341D01*
X33098262Y-66001533D01*
X32672066Y-66228228D01*
X32298285Y-66533714D01*
X31991284Y-66906251D01*
X31762860Y-67331523D01*
X31621792Y-67793186D01*
X31573500Y-68273500D01*
X28228000Y-68273500D01*
X28228000Y-65058000D01*
X143222000Y-65058000D01*
X143222001Y-129252000D01*
G37*
X143222001Y-129252000D02*
X28228000Y-129252000D01*
X28228000Y-121278123D01*
X64471843Y-121278123D01*
X64589604Y-121725525D01*
X64792386Y-122141357D01*
X65072397Y-122509638D01*
X65418875Y-122816215D01*
X65818506Y-123049307D01*
X66255932Y-123199956D01*
X66427877Y-123234157D01*
X66797000Y-122886494D01*
X66797000Y-120909000D01*
X64819505Y-120909000D01*
X64471843Y-121278123D01*
X28228000Y-121278123D01*
X28228000Y-118738123D01*
X55835843Y-118738123D01*
X55953604Y-119185525D01*
X56156386Y-119601357D01*
X56436397Y-119969638D01*
X56782875Y-120276215D01*
X57182506Y-120509307D01*
X57619932Y-120659956D01*
X57791877Y-120694157D01*
X58161000Y-120346494D01*
X58161000Y-118369000D01*
X56183505Y-118369000D01*
X55835843Y-118738123D01*
X28228000Y-118738123D01*
X28228000Y-116452123D01*
X46691843Y-116452123D01*
X46809604Y-116899525D01*
X47012386Y-117315357D01*
X47292397Y-117683638D01*
X47638875Y-117990215D01*
X48038506Y-118223307D01*
X48475932Y-118373956D01*
X48647877Y-118408157D01*
X49017000Y-118060494D01*
X49017000Y-116083000D01*
X47039505Y-116083000D01*
X46691843Y-116452123D01*
X28228000Y-116452123D01*
X28228000Y-75674001D01*
X29210284Y-75674001D01*
X29219999Y-75772639D01*
X29220000Y-97423351D01*
X29210284Y-97521999D01*
X29249054Y-97915636D01*
X29363874Y-98294145D01*
X29550331Y-98642981D01*
X29712335Y-98840383D01*
X29801260Y-98948739D01*
X29877876Y-99011616D01*
X34597590Y-103731331D01*
X34610696Y-103797219D01*
X34784677Y-104217248D01*
X35037260Y-104595264D01*
X35358736Y-104916740D01*
X35736752Y-105169323D01*
X36156781Y-105343304D01*
X36602682Y-105432000D01*
X37057318Y-105432000D01*
X37503219Y-105343304D01*
X37923248Y-105169323D01*
X38301264Y-104916740D01*
X38622740Y-104595264D01*
X38875323Y-104217248D01*
X39049304Y-103797219D01*
X39138000Y-103351318D01*
X39138000Y-102896682D01*
X39049304Y-102450781D01*
X38875323Y-102030752D01*
X38622740Y-101652736D01*
X38301264Y-101331260D01*
X37923248Y-101078677D01*
X37503219Y-100904696D01*
X37437331Y-100891590D01*
X33235999Y-96690259D01*
X33235999Y-92057741D01*
X40826376Y-99648118D01*
X40889258Y-99724740D01*
X41195016Y-99975669D01*
X41543852Y-100162126D01*
X41807541Y-100242115D01*
X41922360Y-100276945D01*
X41956262Y-100280284D01*
X42217360Y-100306000D01*
X42217367Y-100306000D01*
X42315997Y-100315714D01*
X42414627Y-100306000D01*
X50466704Y-100306000D01*
X50466704Y-101370000D01*
X50076046Y-101370000D01*
X49951853Y-101268077D01*
X49689879Y-101128049D01*
X49405620Y-101041820D01*
X49110000Y-101012704D01*
X47410000Y-101012704D01*
X47114380Y-101041820D01*
X46830121Y-101128049D01*
X46568147Y-101268077D01*
X46338524Y-101456524D01*
X46150077Y-101686147D01*
X46010049Y-101948121D01*
X45923820Y-102232380D01*
X45894704Y-102528000D01*
X45894704Y-104228000D01*
X45923820Y-104523620D01*
X46010049Y-104807879D01*
X46098783Y-104973889D01*
X45992617Y-105230197D01*
X45902000Y-105685757D01*
X45902000Y-106150243D01*
X45992617Y-106605803D01*
X46170368Y-107034932D01*
X46272645Y-107188000D01*
X46170368Y-107341068D01*
X45992617Y-107770197D01*
X45902000Y-108225757D01*
X45902000Y-108690243D01*
X45992617Y-109145803D01*
X46170368Y-109574932D01*
X46428422Y-109961137D01*
X46756863Y-110289578D01*
X47143068Y-110547632D01*
X47572197Y-110725383D01*
X47716308Y-110754049D01*
X48238259Y-111276000D01*
X37979106Y-111276000D01*
X37923248Y-111238677D01*
X37503219Y-111064696D01*
X37057318Y-110976000D01*
X36602682Y-110976000D01*
X36156781Y-111064696D01*
X35736752Y-111238677D01*
X35358736Y-111491260D01*
X35037260Y-111812736D01*
X34784677Y-112190752D01*
X34610696Y-112610781D01*
X34522000Y-113056682D01*
X34522000Y-113511318D01*
X34610696Y-113957219D01*
X34784677Y-114377248D01*
X35037260Y-114755264D01*
X35358736Y-115076740D01*
X35736752Y-115329323D01*
X36156781Y-115503304D01*
X36602682Y-115592000D01*
X37057318Y-115592000D01*
X37503219Y-115503304D01*
X37923248Y-115329323D01*
X37979106Y-115292000D01*
X46800253Y-115292000D01*
X46691843Y-115703877D01*
X47039505Y-116073000D01*
X49017000Y-116073000D01*
X49017000Y-116053000D01*
X49027000Y-116053000D01*
X49027000Y-116073000D01*
X49047000Y-116073000D01*
X49047000Y-116083000D01*
X49027000Y-116083000D01*
X49027000Y-118060494D01*
X49396123Y-118408157D01*
X49568068Y-118373956D01*
X49963441Y-118237790D01*
X50132121Y-118327951D01*
X50416380Y-118414180D01*
X50712000Y-118443296D01*
X52412000Y-118443296D01*
X52707620Y-118414180D01*
X52991879Y-118327951D01*
X53253853Y-118187923D01*
X53378046Y-118086000D01*
X55926377Y-118086000D01*
X56183505Y-118359000D01*
X58161000Y-118359000D01*
X58161000Y-118339000D01*
X58171000Y-118339000D01*
X58171000Y-118359000D01*
X58191000Y-118359000D01*
X58191000Y-118369000D01*
X58171000Y-118369000D01*
X58171000Y-120346494D01*
X58540123Y-120694157D01*
X58712068Y-120659956D01*
X59107441Y-120523790D01*
X59276121Y-120613951D01*
X59560380Y-120700180D01*
X59856000Y-120729296D01*
X61556000Y-120729296D01*
X61851620Y-120700180D01*
X62135879Y-120613951D01*
X62397853Y-120473923D01*
X62522046Y-120372000D01*
X64513398Y-120372000D01*
X64471843Y-120529877D01*
X64819505Y-120899000D01*
X66797000Y-120899000D01*
X66797000Y-120879000D01*
X66807000Y-120879000D01*
X66807000Y-120899000D01*
X66827000Y-120899000D01*
X66827000Y-120909000D01*
X66807000Y-120909000D01*
X66807000Y-122886494D01*
X67176123Y-123234157D01*
X67348068Y-123199956D01*
X67743441Y-123063790D01*
X67912121Y-123153951D01*
X68196380Y-123240180D01*
X68492000Y-123269296D01*
X70192000Y-123269296D01*
X70487620Y-123240180D01*
X70771879Y-123153951D01*
X71033853Y-123013923D01*
X71158046Y-122912000D01*
X72545362Y-122912000D01*
X72644000Y-122921715D01*
X73037637Y-122882945D01*
X73416146Y-122768126D01*
X73764982Y-122581669D01*
X74070740Y-122330740D01*
X74133622Y-122254118D01*
X76045331Y-120342410D01*
X76111219Y-120329304D01*
X76531248Y-120155323D01*
X76909264Y-119902740D01*
X77230740Y-119581264D01*
X77483323Y-119203248D01*
X77657304Y-118783219D01*
X77746000Y-118337318D01*
X77746000Y-117882682D01*
X77657304Y-117436781D01*
X77483323Y-117016752D01*
X77365221Y-116840000D01*
X77483323Y-116663248D01*
X77657304Y-116243219D01*
X77746000Y-115797318D01*
X77746000Y-115342682D01*
X77657304Y-114896781D01*
X77483323Y-114476752D01*
X77365221Y-114300000D01*
X77483323Y-114123248D01*
X77657304Y-113703219D01*
X77746000Y-113257318D01*
X77746000Y-112802682D01*
X77657304Y-112356781D01*
X77483323Y-111936752D01*
X77365221Y-111760000D01*
X77483323Y-111583248D01*
X77657304Y-111163219D01*
X77746000Y-110717318D01*
X77746000Y-110262682D01*
X77657304Y-109816781D01*
X77483323Y-109396752D01*
X77365221Y-109220000D01*
X77483323Y-109043248D01*
X77657304Y-108623219D01*
X77746000Y-108177318D01*
X77746000Y-107722682D01*
X77657304Y-107276781D01*
X77483323Y-106856752D01*
X77365221Y-106680000D01*
X77483323Y-106503248D01*
X77657304Y-106083219D01*
X77746000Y-105637318D01*
X77746000Y-105182682D01*
X77657304Y-104736781D01*
X77483323Y-104316752D01*
X77365221Y-104140000D01*
X77483323Y-103963248D01*
X77657304Y-103543219D01*
X77746000Y-103097318D01*
X77746000Y-102642682D01*
X77657304Y-102196781D01*
X77483323Y-101776752D01*
X77365221Y-101600000D01*
X77483323Y-101423248D01*
X77657304Y-101003219D01*
X77746000Y-100557318D01*
X77746000Y-100102682D01*
X77657304Y-99656781D01*
X77483323Y-99236752D01*
X77365221Y-99060000D01*
X77483323Y-98883248D01*
X77657304Y-98463219D01*
X77746000Y-98017318D01*
X77746000Y-97562682D01*
X77657304Y-97116781D01*
X77483323Y-96696752D01*
X77365221Y-96520000D01*
X77483323Y-96343248D01*
X77657304Y-95923219D01*
X77746000Y-95477318D01*
X77746000Y-95022682D01*
X77657304Y-94576781D01*
X77483323Y-94156752D01*
X77365221Y-93980000D01*
X77483323Y-93803248D01*
X77657304Y-93383219D01*
X77746000Y-92937318D01*
X77746000Y-92482682D01*
X77657304Y-92036781D01*
X77483323Y-91616752D01*
X77361685Y-91434709D01*
X77537899Y-91132561D01*
X77685336Y-90704396D01*
X77718773Y-90536301D01*
X77370494Y-90175000D01*
X75443000Y-90175000D01*
X75443000Y-90195000D01*
X75433000Y-90195000D01*
X75433000Y-90175000D01*
X73505506Y-90175000D01*
X73157227Y-90536301D01*
X73190664Y-90704396D01*
X73271108Y-90938011D01*
X70964638Y-90938011D01*
X70866000Y-90928296D01*
X70767363Y-90938011D01*
X70767362Y-90938011D01*
X70472363Y-90967066D01*
X70093854Y-91081885D01*
X69854168Y-91210000D01*
X67951106Y-91210000D01*
X67895248Y-91172677D01*
X67475219Y-90998696D01*
X67029318Y-90910000D01*
X66574682Y-90910000D01*
X66128781Y-90998696D01*
X65708752Y-91172677D01*
X65330736Y-91425260D01*
X65009260Y-91746736D01*
X64756677Y-92124752D01*
X64582696Y-92544781D01*
X64494000Y-92990682D01*
X64494000Y-93445318D01*
X64554606Y-93750000D01*
X58889394Y-93750000D01*
X58950000Y-93445318D01*
X58950000Y-92990682D01*
X58861304Y-92544781D01*
X58718297Y-92199530D01*
X58816739Y-92118741D01*
X58879621Y-92042119D01*
X60043330Y-90878410D01*
X60109219Y-90865304D01*
X60529248Y-90691323D01*
X60907264Y-90438740D01*
X61228740Y-90117264D01*
X61481323Y-89739248D01*
X61655304Y-89319219D01*
X61744000Y-88873318D01*
X61744000Y-88418682D01*
X61655304Y-87972781D01*
X61481323Y-87552752D01*
X61228740Y-87174736D01*
X60907264Y-86853260D01*
X60529248Y-86600677D01*
X60109219Y-86426696D01*
X59663318Y-86338000D01*
X59208682Y-86338000D01*
X58762781Y-86426696D01*
X58342752Y-86600677D01*
X57964736Y-86853260D01*
X57643260Y-87174736D01*
X57390677Y-87552752D01*
X57216696Y-87972781D01*
X57203590Y-88038670D01*
X56558259Y-88684001D01*
X53517151Y-88684001D01*
X53240495Y-88397000D01*
X51313000Y-88397000D01*
X51313000Y-88417000D01*
X51303000Y-88417000D01*
X51303000Y-88397000D01*
X51283000Y-88397000D01*
X51283000Y-88387000D01*
X51303000Y-88387000D01*
X51303000Y-86459506D01*
X51313000Y-86459506D01*
X51313000Y-88387000D01*
X53240495Y-88387000D01*
X53588773Y-88025699D01*
X53473487Y-87587781D01*
X53274982Y-87180768D01*
X53000887Y-86820302D01*
X52661736Y-86520236D01*
X52270561Y-86292101D01*
X51842396Y-86144664D01*
X51674301Y-86111227D01*
X51313000Y-86459506D01*
X51303000Y-86459506D01*
X50941699Y-86111227D01*
X50773604Y-86144664D01*
X50345439Y-86292101D01*
X50043291Y-86468315D01*
X49861248Y-86346677D01*
X49441219Y-86172696D01*
X48995318Y-86084000D01*
X48540682Y-86084000D01*
X48094781Y-86172696D01*
X47674752Y-86346677D01*
X47492709Y-86468315D01*
X47190561Y-86292101D01*
X46762396Y-86144664D01*
X46594301Y-86111227D01*
X46233000Y-86459506D01*
X46233000Y-88387000D01*
X46253000Y-88387000D01*
X46253000Y-88397000D01*
X46233000Y-88397000D01*
X46233000Y-88417000D01*
X46223000Y-88417000D01*
X46223000Y-88397000D01*
X46203000Y-88397000D01*
X46203000Y-88387000D01*
X46223000Y-88387000D01*
X46223000Y-86459506D01*
X45861699Y-86111227D01*
X45693604Y-86144664D01*
X45265439Y-86292101D01*
X44963291Y-86468315D01*
X44781248Y-86346677D01*
X44361219Y-86172696D01*
X43915318Y-86084000D01*
X43460682Y-86084000D01*
X43014781Y-86172696D01*
X42594752Y-86346677D01*
X42412709Y-86468315D01*
X42110561Y-86292101D01*
X41682396Y-86144664D01*
X41514301Y-86111227D01*
X41153000Y-86459506D01*
X41153000Y-88387000D01*
X41173000Y-88387000D01*
X41173000Y-88397000D01*
X41153000Y-88397000D01*
X41153000Y-90324494D01*
X41514301Y-90672773D01*
X41682396Y-90639336D01*
X41957091Y-90544746D01*
X42010332Y-90644352D01*
X42191663Y-90865304D01*
X42261261Y-90950110D01*
X42337877Y-91012987D01*
X45893012Y-94568123D01*
X45955890Y-94644740D01*
X46261648Y-94895669D01*
X46610484Y-95082126D01*
X46838729Y-95151363D01*
X46988992Y-95196945D01*
X47382630Y-95235715D01*
X47481268Y-95226000D01*
X51092606Y-95226000D01*
X51032000Y-95530682D01*
X51032000Y-95985318D01*
X51092606Y-96290000D01*
X45427394Y-96290000D01*
X45488000Y-95985318D01*
X45488000Y-95530682D01*
X45399304Y-95084781D01*
X45225323Y-94664752D01*
X44972740Y-94286736D01*
X44651264Y-93965260D01*
X44273248Y-93712677D01*
X43853219Y-93538696D01*
X43787331Y-93525590D01*
X40859508Y-90597768D01*
X41143000Y-90324494D01*
X41143000Y-88397000D01*
X41123000Y-88397000D01*
X41123000Y-88387000D01*
X41143000Y-88387000D01*
X41143000Y-86459506D01*
X40781699Y-86111227D01*
X40613604Y-86144664D01*
X40185439Y-86292101D01*
X39883291Y-86468315D01*
X39701248Y-86346677D01*
X39281219Y-86172696D01*
X38835318Y-86084000D01*
X38380682Y-86084000D01*
X37934781Y-86172696D01*
X37514752Y-86346677D01*
X37332709Y-86468315D01*
X37030561Y-86292101D01*
X36602396Y-86144664D01*
X36434301Y-86111227D01*
X36073000Y-86459506D01*
X36073000Y-88387000D01*
X36093000Y-88387000D01*
X36093000Y-88397000D01*
X36073000Y-88397000D01*
X36073000Y-88417000D01*
X36063000Y-88417000D01*
X36063000Y-88397000D01*
X36043000Y-88397000D01*
X36043000Y-88387000D01*
X36063000Y-88387000D01*
X36063000Y-86459506D01*
X35701699Y-86111227D01*
X35533604Y-86144664D01*
X35105439Y-86292101D01*
X35100477Y-86294995D01*
X34907879Y-86192049D01*
X34623620Y-86105820D01*
X34328000Y-86076704D01*
X33235999Y-86076704D01*
X33235999Y-83067134D01*
X33300682Y-83080000D01*
X33755318Y-83080000D01*
X34201219Y-82991304D01*
X34485870Y-82873398D01*
X34575850Y-82983038D01*
X34641261Y-83062742D01*
X34717877Y-83125619D01*
X36014381Y-84422124D01*
X36077259Y-84498741D01*
X36383017Y-84749670D01*
X36731853Y-84936127D01*
X37110362Y-85050946D01*
X37405361Y-85080001D01*
X37405370Y-85080001D01*
X37503998Y-85089715D01*
X37602626Y-85080001D01*
X39880731Y-85080001D01*
X39979369Y-85089716D01*
X40373006Y-85050946D01*
X40373009Y-85050945D01*
X40751515Y-84936127D01*
X41100351Y-84749670D01*
X41148000Y-84710565D01*
X41195649Y-84749670D01*
X41544485Y-84936127D01*
X41808174Y-85016116D01*
X41922993Y-85050946D01*
X42316631Y-85089716D01*
X42415269Y-85080001D01*
X44960731Y-85080001D01*
X45059369Y-85089716D01*
X45453006Y-85050946D01*
X45453009Y-85050945D01*
X45831515Y-84936127D01*
X46180351Y-84749670D01*
X46228000Y-84710565D01*
X46275649Y-84749670D01*
X46624485Y-84936127D01*
X46888174Y-85016116D01*
X47002993Y-85050946D01*
X47396631Y-85089716D01*
X47495269Y-85080001D01*
X50040731Y-85080001D01*
X50139369Y-85089716D01*
X50533006Y-85050946D01*
X50533009Y-85050945D01*
X50911515Y-84936127D01*
X51260351Y-84749670D01*
X51566109Y-84498741D01*
X51628991Y-84422119D01*
X51873685Y-84177425D01*
X53150403Y-85454144D01*
X53213281Y-85530761D01*
X53519039Y-85781690D01*
X53867875Y-85968147D01*
X54246384Y-86082966D01*
X54541383Y-86112021D01*
X54541392Y-86112021D01*
X54640020Y-86121735D01*
X54738648Y-86112021D01*
X67239784Y-86112021D01*
X67338422Y-86121736D01*
X67445122Y-86111227D01*
X67732059Y-86082966D01*
X68110568Y-85968147D01*
X68381376Y-85823397D01*
X68388000Y-85890648D01*
X68388000Y-86677352D01*
X68124736Y-86853260D01*
X67803260Y-87174736D01*
X67550677Y-87552752D01*
X67376696Y-87972781D01*
X67288000Y-88418682D01*
X67288000Y-88873318D01*
X67376696Y-89319219D01*
X67550677Y-89739248D01*
X67803260Y-90117264D01*
X68124736Y-90438740D01*
X68502752Y-90691323D01*
X68922781Y-90865304D01*
X69368682Y-90954000D01*
X69823318Y-90954000D01*
X70269219Y-90865304D01*
X70689248Y-90691323D01*
X71067264Y-90438740D01*
X71388740Y-90117264D01*
X71641323Y-89739248D01*
X71815304Y-89319219D01*
X71825128Y-89269830D01*
X72073668Y-88966983D01*
X72260125Y-88618147D01*
X72374944Y-88239638D01*
X72403999Y-87944639D01*
X72403999Y-87944630D01*
X72413713Y-87846002D01*
X72403999Y-87747374D01*
X72403999Y-86623741D01*
X73232118Y-85795623D01*
X73392677Y-86183248D01*
X73510779Y-86360000D01*
X73392677Y-86536752D01*
X73218696Y-86956781D01*
X73130000Y-87402682D01*
X73130000Y-87857318D01*
X73218696Y-88303219D01*
X73392677Y-88723248D01*
X73514315Y-88905291D01*
X73338101Y-89207439D01*
X73190664Y-89635604D01*
X73157227Y-89803699D01*
X73505506Y-90165000D01*
X75433000Y-90165000D01*
X75433000Y-90145000D01*
X75443000Y-90145000D01*
X75443000Y-90165000D01*
X77370494Y-90165000D01*
X77718773Y-89803699D01*
X77685336Y-89635604D01*
X77537899Y-89207439D01*
X77361685Y-88905291D01*
X77483323Y-88723248D01*
X77657304Y-88303219D01*
X77746000Y-87857318D01*
X77746000Y-87402682D01*
X77657304Y-86956781D01*
X77483323Y-86536752D01*
X77365221Y-86360000D01*
X77483323Y-86183248D01*
X77657304Y-85763219D01*
X77746000Y-85317318D01*
X77746000Y-84862682D01*
X77657304Y-84416781D01*
X77535228Y-84122061D01*
X77637951Y-83929879D01*
X77724180Y-83645620D01*
X77753296Y-83350000D01*
X77753296Y-82322682D01*
X88370000Y-82322682D01*
X88370000Y-82777318D01*
X88458696Y-83223219D01*
X88632677Y-83643248D01*
X88754315Y-83825291D01*
X88578101Y-84127439D01*
X88430664Y-84555604D01*
X88397227Y-84723699D01*
X88745506Y-85085000D01*
X90673000Y-85085000D01*
X90673000Y-85065000D01*
X90683000Y-85065000D01*
X90683000Y-85085000D01*
X92610494Y-85085000D01*
X92958773Y-84723699D01*
X92925336Y-84555604D01*
X92777899Y-84127439D01*
X92601685Y-83825291D01*
X92723323Y-83643248D01*
X92897304Y-83223219D01*
X92986000Y-82777318D01*
X92986000Y-82322682D01*
X92897304Y-81876781D01*
X92723323Y-81456752D01*
X92470740Y-81078736D01*
X92149264Y-80757260D01*
X91771248Y-80504677D01*
X91351219Y-80330696D01*
X90905318Y-80242000D01*
X90450682Y-80242000D01*
X90004781Y-80330696D01*
X89584752Y-80504677D01*
X89206736Y-80757260D01*
X88885260Y-81078736D01*
X88632677Y-81456752D01*
X88458696Y-81876781D01*
X88370000Y-82322682D01*
X77753296Y-82322682D01*
X77753296Y-81750000D01*
X77724180Y-81454380D01*
X77637951Y-81170121D01*
X77497923Y-80908147D01*
X77415735Y-80808001D01*
X84931361Y-80808001D01*
X85029999Y-80817716D01*
X85423636Y-80778946D01*
X85446537Y-80771999D01*
X85802145Y-80664127D01*
X86150981Y-80477670D01*
X86456739Y-80226741D01*
X86519621Y-80150119D01*
X90713692Y-75956049D01*
X90857803Y-75927383D01*
X91286932Y-75749632D01*
X91673137Y-75491578D01*
X92001578Y-75163137D01*
X92259632Y-74776932D01*
X92437383Y-74347803D01*
X92528000Y-73892243D01*
X92528000Y-73427757D01*
X92437383Y-72972197D01*
X92331217Y-72715889D01*
X92419951Y-72549879D01*
X92506180Y-72265620D01*
X92515697Y-72168989D01*
X93500000Y-73153292D01*
X93500000Y-74885060D01*
X93446820Y-74964649D01*
X93250224Y-75439274D01*
X93150000Y-75943134D01*
X93150000Y-76456866D01*
X93250224Y-76960726D01*
X93446820Y-77435351D01*
X93732234Y-77862503D01*
X94095497Y-78225766D01*
X94522649Y-78511180D01*
X94997274Y-78707776D01*
X95091157Y-78726451D01*
X98072001Y-81707295D01*
X98072001Y-84362190D01*
X97929476Y-84188524D01*
X97699853Y-84000077D01*
X97437879Y-83860049D01*
X97153620Y-83773820D01*
X96858000Y-83744704D01*
X94658000Y-83744704D01*
X94362380Y-83773820D01*
X94078121Y-83860049D01*
X93816147Y-84000077D01*
X93586524Y-84188524D01*
X93398077Y-84418147D01*
X93258049Y-84680121D01*
X93171820Y-84964380D01*
X93142704Y-85260000D01*
X93142704Y-85782002D01*
X92646024Y-86278682D01*
X92777899Y-86052561D01*
X92925336Y-85624396D01*
X92958773Y-85456301D01*
X92610494Y-85095000D01*
X90683000Y-85095000D01*
X90683000Y-85115000D01*
X90673000Y-85115000D01*
X90673000Y-85095000D01*
X88745506Y-85095000D01*
X88397227Y-85456301D01*
X88430664Y-85624396D01*
X88578101Y-86052561D01*
X88754315Y-86354709D01*
X88632677Y-86536752D01*
X88458696Y-86956781D01*
X88370000Y-87402682D01*
X88370000Y-87857318D01*
X88458696Y-88303219D01*
X88632677Y-88723248D01*
X88750779Y-88900000D01*
X88632677Y-89076752D01*
X88458696Y-89496781D01*
X88370000Y-89942682D01*
X88370000Y-90397318D01*
X88458696Y-90843219D01*
X88632677Y-91263248D01*
X88750779Y-91440000D01*
X88632677Y-91616752D01*
X88458696Y-92036781D01*
X88370000Y-92482682D01*
X88370000Y-92937318D01*
X88458696Y-93383219D01*
X88632677Y-93803248D01*
X88750779Y-93980000D01*
X88632677Y-94156752D01*
X88458696Y-94576781D01*
X88370000Y-95022682D01*
X88370000Y-95477318D01*
X88458696Y-95923219D01*
X88632677Y-96343248D01*
X88750779Y-96520000D01*
X88632677Y-96696752D01*
X88458696Y-97116781D01*
X88370000Y-97562682D01*
X88370000Y-98017318D01*
X88458696Y-98463219D01*
X88632677Y-98883248D01*
X88750779Y-99060000D01*
X88632677Y-99236752D01*
X88458696Y-99656781D01*
X88370000Y-100102682D01*
X88370000Y-100557318D01*
X88458696Y-101003219D01*
X88632677Y-101423248D01*
X88750779Y-101600000D01*
X88632677Y-101776752D01*
X88458696Y-102196781D01*
X88370000Y-102642682D01*
X88370000Y-103097318D01*
X88458696Y-103543219D01*
X88632677Y-103963248D01*
X88750779Y-104140000D01*
X88632677Y-104316752D01*
X88458696Y-104736781D01*
X88370000Y-105182682D01*
X88370000Y-105637318D01*
X88458696Y-106083219D01*
X88632677Y-106503248D01*
X88750779Y-106680000D01*
X88632677Y-106856752D01*
X88458696Y-107276781D01*
X88370000Y-107722682D01*
X88370000Y-108177318D01*
X88458696Y-108623219D01*
X88632677Y-109043248D01*
X88750779Y-109220000D01*
X88632677Y-109396752D01*
X88458696Y-109816781D01*
X88370000Y-110262682D01*
X88370000Y-110717318D01*
X88458696Y-111163219D01*
X88632677Y-111583248D01*
X88750779Y-111760000D01*
X88632677Y-111936752D01*
X88458696Y-112356781D01*
X88370000Y-112802682D01*
X88370000Y-113257318D01*
X88458696Y-113703219D01*
X88632677Y-114123248D01*
X88750779Y-114300000D01*
X88632677Y-114476752D01*
X88458696Y-114896781D01*
X88370000Y-115342682D01*
X88370000Y-115797318D01*
X88458696Y-116243219D01*
X88632677Y-116663248D01*
X88750779Y-116840000D01*
X88632677Y-117016752D01*
X88458696Y-117436781D01*
X88370000Y-117882682D01*
X88370000Y-118337318D01*
X88458696Y-118783219D01*
X88632677Y-119203248D01*
X88885260Y-119581264D01*
X89206736Y-119902740D01*
X89584752Y-120155323D01*
X90004781Y-120329304D01*
X90450682Y-120418000D01*
X90905318Y-120418000D01*
X91351219Y-120329304D01*
X91771248Y-120155323D01*
X92149264Y-119902740D01*
X92470740Y-119581264D01*
X92723323Y-119203248D01*
X92897304Y-118783219D01*
X92986000Y-118337318D01*
X92986000Y-117882682D01*
X92953248Y-117718024D01*
X95769047Y-117718024D01*
X95803568Y-118241393D01*
X96230623Y-118490558D01*
X96698080Y-118651620D01*
X97187977Y-118718392D01*
X97681488Y-118688306D01*
X98159647Y-118562518D01*
X98604078Y-118345864D01*
X98760432Y-118241393D01*
X98794953Y-117718024D01*
X97282000Y-116205071D01*
X95769047Y-117718024D01*
X92953248Y-117718024D01*
X92897304Y-117436781D01*
X92723323Y-117016752D01*
X92605221Y-116840000D01*
X92723323Y-116663248D01*
X92897304Y-116243219D01*
X92925001Y-116103977D01*
X94761608Y-116103977D01*
X94791694Y-116597488D01*
X94917482Y-117075647D01*
X95134136Y-117520078D01*
X95238607Y-117676432D01*
X95761976Y-117710953D01*
X97274929Y-116198000D01*
X97289071Y-116198000D01*
X98802024Y-117710953D01*
X99325393Y-117676432D01*
X99574558Y-117249377D01*
X99735620Y-116781920D01*
X99802392Y-116292023D01*
X99772306Y-115798512D01*
X99646518Y-115320353D01*
X99429864Y-114875922D01*
X99325393Y-114719568D01*
X98802024Y-114685047D01*
X97289071Y-116198000D01*
X97274929Y-116198000D01*
X95761976Y-114685047D01*
X95238607Y-114719568D01*
X94989442Y-115146623D01*
X94828380Y-115614080D01*
X94761608Y-116103977D01*
X92925001Y-116103977D01*
X92986000Y-115797318D01*
X92986000Y-115342682D01*
X92897304Y-114896781D01*
X92806673Y-114677976D01*
X95769047Y-114677976D01*
X97282000Y-116190929D01*
X98794953Y-114677976D01*
X98760432Y-114154607D01*
X98333377Y-113905442D01*
X97865920Y-113744380D01*
X97376023Y-113677608D01*
X96882512Y-113707694D01*
X96404353Y-113833482D01*
X95959922Y-114050136D01*
X95803568Y-114154607D01*
X95769047Y-114677976D01*
X92806673Y-114677976D01*
X92723323Y-114476752D01*
X92605221Y-114300000D01*
X92723323Y-114123248D01*
X92897304Y-113703219D01*
X92986000Y-113257318D01*
X92986000Y-112802682D01*
X92897304Y-112356781D01*
X92723323Y-111936752D01*
X92605221Y-111760000D01*
X92723323Y-111583248D01*
X92897304Y-111163219D01*
X92906274Y-111118123D01*
X96729843Y-111118123D01*
X96764044Y-111290068D01*
X96914693Y-111727494D01*
X97147785Y-112127125D01*
X97454362Y-112473603D01*
X97822643Y-112753614D01*
X98238475Y-112956396D01*
X98685877Y-113074157D01*
X99055000Y-112726495D01*
X99055000Y-110749000D01*
X97077506Y-110749000D01*
X96729843Y-111118123D01*
X92906274Y-111118123D01*
X92986000Y-110717318D01*
X92986000Y-110262682D01*
X92897304Y-109816781D01*
X92723323Y-109396752D01*
X92605221Y-109220000D01*
X92723323Y-109043248D01*
X92897304Y-108623219D01*
X92986000Y-108177318D01*
X92986000Y-107722682D01*
X92897304Y-107276781D01*
X92723323Y-106856752D01*
X92605221Y-106680000D01*
X92723323Y-106503248D01*
X92897304Y-106083219D01*
X92986000Y-105637318D01*
X92986000Y-105182682D01*
X92897304Y-104736781D01*
X92723323Y-104316752D01*
X92605221Y-104140000D01*
X92723323Y-103963248D01*
X92897304Y-103543219D01*
X92986000Y-103097318D01*
X92986000Y-102642682D01*
X92925394Y-102338000D01*
X92988001Y-102338000D01*
X92988001Y-103361355D01*
X92978285Y-103460002D01*
X93017055Y-103853639D01*
X93131875Y-104232148D01*
X93318332Y-104580984D01*
X93501964Y-104804740D01*
X93569261Y-104886742D01*
X93645877Y-104949619D01*
X95710380Y-107014123D01*
X95773258Y-107090740D01*
X96079016Y-107341669D01*
X96427852Y-107528126D01*
X96688588Y-107607219D01*
X96769622Y-107631801D01*
X96702000Y-107971757D01*
X96702000Y-108436243D01*
X96792617Y-108891803D01*
X96970368Y-109320932D01*
X97077534Y-109481318D01*
X96914693Y-109760506D01*
X96764044Y-110197932D01*
X96729843Y-110369877D01*
X97077506Y-110739000D01*
X99055000Y-110739000D01*
X99055000Y-110719000D01*
X99065000Y-110719000D01*
X99065000Y-110739000D01*
X99085000Y-110739000D01*
X99085000Y-110749000D01*
X99065000Y-110749000D01*
X99065000Y-112726495D01*
X99434123Y-113074157D01*
X99881525Y-112956396D01*
X100297357Y-112753614D01*
X100665638Y-112473603D01*
X100972215Y-112127125D01*
X101012597Y-112057891D01*
X101708920Y-112754214D01*
X101779629Y-112840373D01*
X102123454Y-113122543D01*
X102384360Y-113262000D01*
X102515721Y-113332214D01*
X102941355Y-113461329D01*
X102979635Y-113465099D01*
X103273078Y-113494001D01*
X103273086Y-113494001D01*
X103384001Y-113504925D01*
X103494916Y-113494001D01*
X107658688Y-113494001D01*
X107769601Y-113504925D01*
X107880514Y-113494001D01*
X107880524Y-113494001D01*
X108212246Y-113461329D01*
X108269369Y-113444001D01*
X111534001Y-113444001D01*
X111534000Y-116173587D01*
X111523076Y-116284500D01*
X111534000Y-116395413D01*
X111534000Y-116395422D01*
X111566672Y-116727144D01*
X111695787Y-117152779D01*
X111905458Y-117545047D01*
X112187628Y-117888872D01*
X112273792Y-117959585D01*
X115762213Y-121448006D01*
X115680923Y-121440000D01*
X115680913Y-121440000D01*
X115570000Y-121429076D01*
X115459087Y-121440000D01*
X98384426Y-121440000D01*
X98013557Y-121286381D01*
X97529016Y-121190000D01*
X97034984Y-121190000D01*
X96550443Y-121286381D01*
X96094017Y-121475439D01*
X95683243Y-121749909D01*
X95333909Y-122099243D01*
X95059439Y-122510017D01*
X94870381Y-122966443D01*
X94774000Y-123450984D01*
X94774000Y-123945016D01*
X94870381Y-124429557D01*
X95059439Y-124885983D01*
X95333909Y-125296757D01*
X95683243Y-125646091D01*
X96094017Y-125920561D01*
X96550443Y-126109619D01*
X97034984Y-126206000D01*
X97529016Y-126206000D01*
X98013557Y-126109619D01*
X98384426Y-125956000D01*
X114774484Y-125956000D01*
X114965730Y-126058223D01*
X115391365Y-126187338D01*
X115723087Y-126220010D01*
X115723095Y-126220010D01*
X115834010Y-126230934D01*
X115944925Y-126220010D01*
X122337660Y-126220010D01*
X122448573Y-126230934D01*
X122559486Y-126220010D01*
X122559496Y-126220010D01*
X122891218Y-126187338D01*
X123316853Y-126058223D01*
X123709120Y-125848552D01*
X124052945Y-125566382D01*
X124123658Y-125480218D01*
X124837000Y-124766876D01*
X124837000Y-126792762D01*
X132103000Y-126792762D01*
X132103000Y-113009986D01*
X132105977Y-113010392D01*
X132599488Y-112980306D01*
X133077647Y-112854518D01*
X133522078Y-112637864D01*
X133678432Y-112533393D01*
X133712953Y-112010024D01*
X132200000Y-110497071D01*
X132185858Y-110511214D01*
X132178787Y-110504143D01*
X132192929Y-110490000D01*
X132207071Y-110490000D01*
X133720024Y-112002953D01*
X134243393Y-111968432D01*
X134492558Y-111541377D01*
X134653620Y-111073920D01*
X134720392Y-110584023D01*
X134690306Y-110090512D01*
X134564518Y-109612353D01*
X134347864Y-109167922D01*
X134243393Y-109011568D01*
X133720024Y-108977047D01*
X132207071Y-110490000D01*
X132192929Y-110490000D01*
X130679976Y-108977047D01*
X130156607Y-109011568D01*
X129907442Y-109438623D01*
X129746380Y-109906080D01*
X129679608Y-110395977D01*
X129709694Y-110889488D01*
X129835482Y-111367647D01*
X130052136Y-111812078D01*
X130155809Y-111967238D01*
X126210000Y-111967238D01*
X126210000Y-108969976D01*
X130687047Y-108969976D01*
X132200000Y-110482929D01*
X133712953Y-108969976D01*
X133678432Y-108446607D01*
X133251377Y-108197442D01*
X132783920Y-108036380D01*
X132294023Y-107969608D01*
X131800512Y-107999694D01*
X131322353Y-108125482D01*
X130877922Y-108342136D01*
X130721568Y-108446607D01*
X130687047Y-108969976D01*
X126210000Y-108969976D01*
X126210000Y-107778213D01*
X126220924Y-107667298D01*
X126210000Y-107556383D01*
X126210000Y-107556375D01*
X126180958Y-107261510D01*
X126177328Y-107224652D01*
X126048213Y-106799018D01*
X125966123Y-106645439D01*
X125838542Y-106406751D01*
X125831360Y-106398000D01*
X126866655Y-106398000D01*
X127124380Y-106476180D01*
X127420000Y-106505296D01*
X129120000Y-106505296D01*
X129415620Y-106476180D01*
X129673345Y-106398000D01*
X136117328Y-106398000D01*
X136166352Y-106424204D01*
X136287730Y-106461024D01*
X137442001Y-107615295D01*
X137442000Y-109387574D01*
X137288381Y-109758443D01*
X137192000Y-110242984D01*
X137192000Y-110737016D01*
X137288381Y-111221557D01*
X137477439Y-111677983D01*
X137751909Y-112088757D01*
X138101243Y-112438091D01*
X138512017Y-112712561D01*
X138968443Y-112901619D01*
X139452984Y-112998000D01*
X139947016Y-112998000D01*
X140431557Y-112901619D01*
X140887983Y-112712561D01*
X141298757Y-112438091D01*
X141648091Y-112088757D01*
X141922561Y-111677983D01*
X142111619Y-111221557D01*
X142208000Y-110737016D01*
X142208000Y-110242984D01*
X142111619Y-109758443D01*
X141958000Y-109387574D01*
X141958000Y-106790912D01*
X141968924Y-106679999D01*
X141958000Y-106569086D01*
X141958000Y-106569077D01*
X141925328Y-106237355D01*
X141796213Y-105811720D01*
X141586542Y-105419453D01*
X141508311Y-105324128D01*
X141375081Y-105161786D01*
X141375076Y-105161781D01*
X141304372Y-105075628D01*
X141218219Y-105004924D01*
X139528524Y-103315230D01*
X139491704Y-103193852D01*
X139313156Y-102859810D01*
X139484467Y-102537738D01*
X139623659Y-102075505D01*
X139638895Y-101990158D01*
X139292494Y-101605000D01*
X137165000Y-101605000D01*
X137165000Y-101625000D01*
X137155000Y-101625000D01*
X137155000Y-101605000D01*
X135027506Y-101605000D01*
X134778379Y-101882000D01*
X130513390Y-101882000D01*
X130252494Y-101605000D01*
X128275000Y-101605000D01*
X128275000Y-101625000D01*
X128265000Y-101625000D01*
X128265000Y-101605000D01*
X126287506Y-101605000D01*
X126026610Y-101882000D01*
X121128683Y-101882000D01*
X120877318Y-101832000D01*
X120422682Y-101832000D01*
X119976781Y-101920696D01*
X119556752Y-102094677D01*
X119178736Y-102347260D01*
X118857260Y-102668736D01*
X118604677Y-103046752D01*
X118430696Y-103466781D01*
X118342000Y-103912682D01*
X118342000Y-104367318D01*
X118430696Y-104813219D01*
X118604677Y-105233248D01*
X118857260Y-105611264D01*
X119178736Y-105932740D01*
X119367196Y-106058665D01*
X119563457Y-106425844D01*
X119845627Y-106769669D01*
X119931790Y-106840381D01*
X121694000Y-108602592D01*
X121694001Y-118801068D01*
X121694000Y-118801078D01*
X121694000Y-119030379D01*
X121417000Y-119279506D01*
X121417000Y-121407000D01*
X121437000Y-121407000D01*
X121437000Y-121417000D01*
X121417000Y-121417000D01*
X121417000Y-121437000D01*
X121407000Y-121437000D01*
X121407000Y-121417000D01*
X121387000Y-121417000D01*
X121387000Y-121407000D01*
X121407000Y-121407000D01*
X121407000Y-119279506D01*
X121021842Y-118933105D01*
X120936495Y-118948341D01*
X120474262Y-119087533D01*
X120152190Y-119258844D01*
X119818148Y-119080296D01*
X119764953Y-119064160D01*
X116050000Y-115349207D01*
X116050000Y-111851295D01*
X117518202Y-110383094D01*
X117604361Y-110312385D01*
X117886531Y-109968560D01*
X118096202Y-109576293D01*
X118225317Y-109150658D01*
X118257989Y-108818936D01*
X118257989Y-108818927D01*
X118268913Y-108708014D01*
X118257989Y-108597101D01*
X118257989Y-102994597D01*
X119934587Y-101318000D01*
X126026610Y-101318000D01*
X126287506Y-101595000D01*
X128265000Y-101595000D01*
X128265000Y-101575000D01*
X128275000Y-101575000D01*
X128275000Y-101595000D01*
X130252494Y-101595000D01*
X130600157Y-101225877D01*
X130565956Y-101053932D01*
X130415307Y-100616506D01*
X130252466Y-100337318D01*
X130359632Y-100176932D01*
X130369016Y-100154277D01*
X130638207Y-99885086D01*
X130724371Y-99814373D01*
X131006541Y-99470548D01*
X131216212Y-99078281D01*
X131345327Y-98652646D01*
X131377999Y-98320924D01*
X131377999Y-98320915D01*
X131388923Y-98210002D01*
X131377999Y-98099089D01*
X131377999Y-91732973D01*
X131401909Y-91768757D01*
X131751243Y-92118091D01*
X132162017Y-92392561D01*
X132618443Y-92581619D01*
X133102984Y-92678000D01*
X133597016Y-92678000D01*
X134081557Y-92581619D01*
X134452426Y-92428000D01*
X135814704Y-92428000D01*
X135814704Y-92540000D01*
X135843820Y-92835620D01*
X135930049Y-93119879D01*
X136070077Y-93381853D01*
X136172000Y-93506047D01*
X136172001Y-96592204D01*
X136160000Y-96592204D01*
X135864380Y-96621320D01*
X135580121Y-96707549D01*
X135318147Y-96847577D01*
X135088524Y-97036024D01*
X134900077Y-97265647D01*
X134760049Y-97527621D01*
X134673820Y-97811880D01*
X134644704Y-98107500D01*
X134644704Y-100012500D01*
X134673820Y-100308120D01*
X134760049Y-100592379D01*
X134821792Y-100707893D01*
X134696341Y-101124495D01*
X134681105Y-101209842D01*
X135027506Y-101595000D01*
X137155000Y-101595000D01*
X137155000Y-101575000D01*
X137165000Y-101575000D01*
X137165000Y-101595000D01*
X139292494Y-101595000D01*
X139638895Y-101209842D01*
X139623659Y-101124495D01*
X139498208Y-100707893D01*
X139559951Y-100592379D01*
X139646180Y-100308120D01*
X139675296Y-100012500D01*
X139675296Y-99737997D01*
X139948208Y-99465085D01*
X140034372Y-99394372D01*
X140316542Y-99050547D01*
X140526213Y-98658280D01*
X140655328Y-98232645D01*
X140688000Y-97900923D01*
X140688000Y-97900914D01*
X140698924Y-97790001D01*
X140688000Y-97679088D01*
X140688000Y-93506046D01*
X140789923Y-93381853D01*
X140929951Y-93119879D01*
X141016180Y-92835620D01*
X141045296Y-92540000D01*
X141045296Y-90340000D01*
X141016180Y-90044380D01*
X140929951Y-89760121D01*
X140789923Y-89498147D01*
X140601476Y-89268524D01*
X140371853Y-89080077D01*
X140109879Y-88940049D01*
X139825620Y-88853820D01*
X139530000Y-88824704D01*
X139007997Y-88824704D01*
X138835085Y-88651792D01*
X138764372Y-88565628D01*
X138420547Y-88283458D01*
X138028280Y-88073787D01*
X137602645Y-87944672D01*
X137270923Y-87912000D01*
X137270913Y-87912000D01*
X137160000Y-87901076D01*
X137049087Y-87912000D01*
X134452426Y-87912000D01*
X134081557Y-87758381D01*
X133597016Y-87662000D01*
X133102984Y-87662000D01*
X132618443Y-87758381D01*
X132162017Y-87947439D01*
X131751243Y-88221909D01*
X131401909Y-88571243D01*
X131377999Y-88607027D01*
X131377999Y-87465127D01*
X131388923Y-87354212D01*
X131377999Y-87243297D01*
X131377999Y-87243289D01*
X131345327Y-86911567D01*
X131216212Y-86485932D01*
X131006541Y-86093665D01*
X130724371Y-85749840D01*
X130638212Y-85679131D01*
X129029105Y-84070024D01*
X131717047Y-84070024D01*
X131751568Y-84593393D01*
X132178623Y-84842558D01*
X132646080Y-85003620D01*
X133135977Y-85070392D01*
X133629488Y-85040306D01*
X134107647Y-84914518D01*
X134552078Y-84697864D01*
X134708432Y-84593393D01*
X134742953Y-84070024D01*
X133230000Y-82557071D01*
X131717047Y-84070024D01*
X129029105Y-84070024D01*
X128158047Y-83198967D01*
X128238000Y-82797016D01*
X128238000Y-82455977D01*
X130709608Y-82455977D01*
X130739694Y-82949488D01*
X130865482Y-83427647D01*
X131082136Y-83872078D01*
X131186607Y-84028432D01*
X131709976Y-84062953D01*
X133222929Y-82550000D01*
X133237071Y-82550000D01*
X134750024Y-84062953D01*
X135273393Y-84028432D01*
X135522558Y-83601377D01*
X135683620Y-83133920D01*
X135750392Y-82644023D01*
X135720306Y-82150512D01*
X135594518Y-81672353D01*
X135377864Y-81227922D01*
X135273393Y-81071568D01*
X134750024Y-81037047D01*
X133237071Y-82550000D01*
X133222929Y-82550000D01*
X131709976Y-81037047D01*
X131186607Y-81071568D01*
X130937442Y-81498623D01*
X130776380Y-81966080D01*
X130709608Y-82455977D01*
X128238000Y-82455977D01*
X128238000Y-82302984D01*
X128141619Y-81818443D01*
X127952561Y-81362017D01*
X127730699Y-81029976D01*
X131717047Y-81029976D01*
X133230000Y-82542929D01*
X134742953Y-81029976D01*
X134708432Y-80506607D01*
X134281377Y-80257442D01*
X133813920Y-80096380D01*
X133324023Y-80029608D01*
X132830512Y-80059694D01*
X132352353Y-80185482D01*
X131907922Y-80402136D01*
X131751568Y-80506607D01*
X131717047Y-81029976D01*
X127730699Y-81029976D01*
X127678091Y-80951243D01*
X127328757Y-80601909D01*
X126917983Y-80327439D01*
X126461557Y-80138381D01*
X125977016Y-80042000D01*
X125482984Y-80042000D01*
X124998443Y-80138381D01*
X124542017Y-80327439D01*
X124131243Y-80601909D01*
X123781909Y-80951243D01*
X123507439Y-81362017D01*
X123318381Y-81818443D01*
X123222000Y-82302984D01*
X123222000Y-82797016D01*
X123318381Y-83281557D01*
X123472000Y-83652426D01*
X123472000Y-83853300D01*
X123461076Y-83964213D01*
X123472000Y-84075126D01*
X123472000Y-84075136D01*
X123504672Y-84406858D01*
X123551619Y-84561619D01*
X123633787Y-84832492D01*
X123771428Y-85090000D01*
X123843459Y-85224760D01*
X124125629Y-85568585D01*
X124211787Y-85639293D01*
X126265984Y-87693491D01*
X125944023Y-87649608D01*
X125450512Y-87679694D01*
X124972353Y-87805482D01*
X124527922Y-88022136D01*
X124371568Y-88126607D01*
X124337047Y-88649976D01*
X125850000Y-90162929D01*
X125864143Y-90148787D01*
X125871214Y-90155858D01*
X125857071Y-90170000D01*
X125871214Y-90184143D01*
X125864143Y-90191214D01*
X125850000Y-90177071D01*
X124337047Y-91690024D01*
X124371568Y-92213393D01*
X124798623Y-92462558D01*
X125266080Y-92623620D01*
X125755977Y-92690392D01*
X126249488Y-92660306D01*
X126727647Y-92534518D01*
X126861999Y-92469023D01*
X126862000Y-96802000D01*
X119110205Y-96802000D01*
X118999292Y-96791076D01*
X118888379Y-96802000D01*
X118888370Y-96802000D01*
X118556648Y-96834672D01*
X118131013Y-96963787D01*
X117738746Y-97173458D01*
X117734408Y-97177018D01*
X117484234Y-97382331D01*
X117394921Y-97455628D01*
X117368548Y-97487764D01*
X117191260Y-97633260D01*
X117128378Y-97709882D01*
X115045350Y-99792910D01*
X114951476Y-99678524D01*
X114721853Y-99490077D01*
X114459879Y-99350049D01*
X114175620Y-99263820D01*
X113880000Y-99234704D01*
X113504445Y-99234704D01*
X112498000Y-98228260D01*
X112498000Y-96759097D01*
X112712561Y-96437983D01*
X112901619Y-95981557D01*
X112998000Y-95497016D01*
X112998000Y-95002984D01*
X112941313Y-94718000D01*
X118457529Y-94718000D01*
X118604677Y-95073248D01*
X118857260Y-95451264D01*
X119178736Y-95772740D01*
X119556752Y-96025323D01*
X119976781Y-96199304D01*
X120422682Y-96288000D01*
X120877318Y-96288000D01*
X121323219Y-96199304D01*
X121743248Y-96025323D01*
X122121264Y-95772740D01*
X122442740Y-95451264D01*
X122695323Y-95073248D01*
X122869304Y-94653219D01*
X122958000Y-94207318D01*
X122958000Y-93752682D01*
X122869304Y-93306781D01*
X122695323Y-92886752D01*
X122658000Y-92830894D01*
X122658000Y-92808638D01*
X122667715Y-92710000D01*
X122658000Y-92611362D01*
X122658000Y-90075977D01*
X123329608Y-90075977D01*
X123359694Y-90569488D01*
X123485482Y-91047647D01*
X123702136Y-91492078D01*
X123806607Y-91648432D01*
X124329976Y-91682953D01*
X125842929Y-90170000D01*
X124329976Y-88657047D01*
X123806607Y-88691568D01*
X123557442Y-89118623D01*
X123396380Y-89586080D01*
X123329608Y-90075977D01*
X122658000Y-90075977D01*
X122658000Y-81159106D01*
X122695323Y-81103248D01*
X122869304Y-80683219D01*
X122958000Y-80237318D01*
X122958000Y-79782682D01*
X122869304Y-79336781D01*
X122695323Y-78916752D01*
X122442740Y-78538736D01*
X122121264Y-78217260D01*
X121743248Y-77964677D01*
X121323219Y-77790696D01*
X120877318Y-77702000D01*
X120422682Y-77702000D01*
X119976781Y-77790696D01*
X119556752Y-77964677D01*
X119500894Y-78002000D01*
X118411741Y-78002000D01*
X115281078Y-74871337D01*
X115316180Y-74755620D01*
X115345296Y-74460000D01*
X115345296Y-73940000D01*
X129854704Y-73940000D01*
X129854704Y-75920000D01*
X129883820Y-76215620D01*
X129970049Y-76499879D01*
X130110077Y-76761853D01*
X130298524Y-76991476D01*
X130528147Y-77179923D01*
X130790121Y-77319951D01*
X131074380Y-77406180D01*
X131370000Y-77435296D01*
X135330000Y-77435296D01*
X135625620Y-77406180D01*
X135909879Y-77319951D01*
X135985980Y-77279274D01*
X136172001Y-77465294D01*
X136172000Y-79965059D01*
X136118820Y-80044649D01*
X135922224Y-80519274D01*
X135822000Y-81023134D01*
X135822000Y-81536866D01*
X135922224Y-82040726D01*
X136118820Y-82515351D01*
X136404234Y-82942503D01*
X136767497Y-83305766D01*
X137194649Y-83591180D01*
X137669274Y-83787776D01*
X138173134Y-83888000D01*
X138686866Y-83888000D01*
X139190726Y-83787776D01*
X139665351Y-83591180D01*
X140092503Y-83305766D01*
X140455766Y-82942503D01*
X140741180Y-82515351D01*
X140937776Y-82040726D01*
X141038000Y-81536866D01*
X141038000Y-81023134D01*
X140937776Y-80519274D01*
X140741180Y-80044649D01*
X140688000Y-79965060D01*
X140688000Y-76640915D01*
X140698924Y-76530000D01*
X140688000Y-76419085D01*
X140688000Y-76419077D01*
X140655328Y-76087355D01*
X140644506Y-76051678D01*
X140526213Y-75661720D01*
X140316542Y-75269452D01*
X140105081Y-75011787D01*
X140105080Y-75011786D01*
X140034372Y-74925628D01*
X139948213Y-74854919D01*
X138505085Y-73411791D01*
X138434372Y-73325628D01*
X138090547Y-73043458D01*
X137698280Y-72833787D01*
X137272645Y-72704672D01*
X136940923Y-72672000D01*
X136940913Y-72672000D01*
X136830000Y-72661076D01*
X136719087Y-72672000D01*
X136156742Y-72672000D01*
X135909879Y-72540049D01*
X135625620Y-72453820D01*
X135330000Y-72424704D01*
X134397691Y-72424704D01*
X134832630Y-72380988D01*
X135301328Y-72237786D01*
X135733083Y-72005897D01*
X136111303Y-71694232D01*
X136421452Y-71314769D01*
X136651613Y-70882090D01*
X136792940Y-70412823D01*
X136808434Y-70326024D01*
X136462494Y-69935000D01*
X133355000Y-69935000D01*
X133355000Y-69955000D01*
X133345000Y-69955000D01*
X133345000Y-69935000D01*
X130237506Y-69935000D01*
X129891566Y-70326024D01*
X129907060Y-70412823D01*
X130048387Y-70882090D01*
X130278548Y-71314769D01*
X130588697Y-71694232D01*
X130966917Y-72005897D01*
X131398672Y-72237786D01*
X131867370Y-72380988D01*
X132302309Y-72424704D01*
X131370000Y-72424704D01*
X131074380Y-72453820D01*
X130790121Y-72540049D01*
X130528147Y-72680077D01*
X130298524Y-72868524D01*
X130110077Y-73098147D01*
X129970049Y-73360121D01*
X129883820Y-73644380D01*
X129854704Y-73940000D01*
X115345296Y-73940000D01*
X115345296Y-72860000D01*
X115316180Y-72564380D01*
X115229951Y-72280121D01*
X115089923Y-72018147D01*
X114901476Y-71788524D01*
X114671853Y-71600077D01*
X114409879Y-71460049D01*
X114125620Y-71373820D01*
X113830000Y-71344704D01*
X112230000Y-71344704D01*
X111934380Y-71373820D01*
X111650121Y-71460049D01*
X111388147Y-71600077D01*
X111158524Y-71788524D01*
X110970077Y-72018147D01*
X110830049Y-72280121D01*
X110743820Y-72564380D01*
X110714704Y-72860000D01*
X110714704Y-74460000D01*
X110743820Y-74755620D01*
X110830049Y-75039879D01*
X110970077Y-75301853D01*
X111021669Y-75364718D01*
X111012285Y-75460000D01*
X111051055Y-75853637D01*
X111165875Y-76232146D01*
X111352332Y-76580982D01*
X111533287Y-76801476D01*
X111603261Y-76886740D01*
X111679877Y-76949617D01*
X116090382Y-81360123D01*
X116153260Y-81436740D01*
X116229877Y-81499618D01*
X116459018Y-81687669D01*
X116807853Y-81874126D01*
X117186363Y-81988945D01*
X117580000Y-82027715D01*
X117678638Y-82018000D01*
X118642000Y-82018000D01*
X118642001Y-90702000D01*
X112941313Y-90702000D01*
X112998000Y-90417016D01*
X112998000Y-89922984D01*
X112901619Y-89438443D01*
X112712561Y-88982017D01*
X112498000Y-88660903D01*
X112498000Y-86064304D01*
X112632379Y-85739884D01*
X112718000Y-85309439D01*
X112718000Y-84870561D01*
X112632379Y-84440116D01*
X112464428Y-84034646D01*
X112321006Y-83820000D01*
X112464428Y-83605354D01*
X112632379Y-83199884D01*
X112718000Y-82769439D01*
X112718000Y-82330561D01*
X112632379Y-81900116D01*
X112498000Y-81575696D01*
X112498000Y-80984304D01*
X112632379Y-80659884D01*
X112718000Y-80229439D01*
X112718000Y-79790561D01*
X112632379Y-79360116D01*
X112464428Y-78954646D01*
X112220600Y-78589733D01*
X111910267Y-78279400D01*
X111545354Y-78035572D01*
X111139884Y-77867621D01*
X110709439Y-77782000D01*
X110270561Y-77782000D01*
X109840116Y-77867621D01*
X109515696Y-78002000D01*
X104878000Y-78002000D01*
X104878000Y-74206046D01*
X104979923Y-74081853D01*
X105119951Y-73819879D01*
X105206180Y-73535620D01*
X105235296Y-73240000D01*
X105235296Y-71540000D01*
X105206180Y-71244380D01*
X105119951Y-70960121D01*
X104979923Y-70698147D01*
X104791476Y-70468524D01*
X104561853Y-70280077D01*
X104299879Y-70140049D01*
X104015620Y-70053820D01*
X103854165Y-70037918D01*
X111659153Y-70037918D01*
X111669695Y-70540806D01*
X112062760Y-70770049D01*
X112492996Y-70918204D01*
X112943867Y-70979578D01*
X113398049Y-70951811D01*
X113838087Y-70835971D01*
X114247071Y-70636511D01*
X114390305Y-70540806D01*
X114397107Y-70216301D01*
X118369227Y-70216301D01*
X118484513Y-70654219D01*
X118683018Y-71061232D01*
X118957113Y-71421698D01*
X119296264Y-71721764D01*
X119687439Y-71949899D01*
X120115604Y-72097336D01*
X120283699Y-72130773D01*
X120645000Y-71782494D01*
X120645000Y-69855000D01*
X120655000Y-69855000D01*
X120655000Y-71782494D01*
X121016301Y-72130773D01*
X121184396Y-72097336D01*
X121612561Y-71949899D01*
X122003736Y-71721764D01*
X122342887Y-71421698D01*
X122616982Y-71061232D01*
X122815487Y-70654219D01*
X122930773Y-70216301D01*
X122582495Y-69855000D01*
X120655000Y-69855000D01*
X120645000Y-69855000D01*
X118717505Y-69855000D01*
X118369227Y-70216301D01*
X114397107Y-70216301D01*
X114400847Y-70037918D01*
X113030000Y-68667071D01*
X111659153Y-70037918D01*
X103854165Y-70037918D01*
X103720000Y-70024704D01*
X102020000Y-70024704D01*
X101724380Y-70053820D01*
X101440121Y-70140049D01*
X101178147Y-70280077D01*
X100948524Y-70468524D01*
X100760077Y-70698147D01*
X100620049Y-70960121D01*
X100533820Y-71244380D01*
X100504704Y-71540000D01*
X100504704Y-73240000D01*
X100533820Y-73535620D01*
X100620049Y-73819879D01*
X100760077Y-74081853D01*
X100862001Y-74206047D01*
X100862000Y-78110706D01*
X98284451Y-75533157D01*
X98265776Y-75439274D01*
X98069180Y-74964649D01*
X98016000Y-74885060D01*
X98016000Y-72328913D01*
X98026924Y-72217998D01*
X98016000Y-72107083D01*
X98016000Y-72107075D01*
X97983328Y-71775353D01*
X97980988Y-71767637D01*
X97854213Y-71349718D01*
X97644542Y-70957451D01*
X97433081Y-70699785D01*
X97433080Y-70699784D01*
X97362372Y-70613626D01*
X97276213Y-70542917D01*
X95307163Y-68573867D01*
X110710422Y-68573867D01*
X110738189Y-69028049D01*
X110854029Y-69468087D01*
X111053489Y-69877071D01*
X111149194Y-70020305D01*
X111652082Y-70030847D01*
X113022929Y-68660000D01*
X113037071Y-68660000D01*
X114407918Y-70030847D01*
X114910806Y-70020305D01*
X115140049Y-69627240D01*
X115189478Y-69483699D01*
X118369227Y-69483699D01*
X118717505Y-69845000D01*
X120645000Y-69845000D01*
X120645000Y-67917506D01*
X120655000Y-67917506D01*
X120655000Y-69845000D01*
X122582495Y-69845000D01*
X122882308Y-69533976D01*
X129891566Y-69533976D01*
X130237506Y-69925000D01*
X133345000Y-69925000D01*
X133345000Y-67430000D01*
X133355000Y-67430000D01*
X133355000Y-69925000D01*
X136462494Y-69925000D01*
X136808434Y-69533976D01*
X136792940Y-69447177D01*
X136651613Y-68977910D01*
X136421452Y-68545231D01*
X136111303Y-68165768D01*
X135733083Y-67854103D01*
X135301328Y-67622214D01*
X134832630Y-67479012D01*
X134345000Y-67430000D01*
X133355000Y-67430000D01*
X133345000Y-67430000D01*
X132355000Y-67430000D01*
X131867370Y-67479012D01*
X131398672Y-67622214D01*
X130966917Y-67854103D01*
X130588697Y-68165768D01*
X130278548Y-68545231D01*
X130048387Y-68977910D01*
X129907060Y-69447177D01*
X129891566Y-69533976D01*
X122882308Y-69533976D01*
X122930773Y-69483699D01*
X122815487Y-69045781D01*
X122616982Y-68638768D01*
X122342887Y-68278302D01*
X122003736Y-67978236D01*
X121612561Y-67750101D01*
X121184396Y-67602664D01*
X121016301Y-67569227D01*
X120655000Y-67917506D01*
X120645000Y-67917506D01*
X120283699Y-67569227D01*
X120115604Y-67602664D01*
X119687439Y-67750101D01*
X119296264Y-67978236D01*
X118957113Y-68278302D01*
X118683018Y-68638768D01*
X118484513Y-69045781D01*
X118369227Y-69483699D01*
X115189478Y-69483699D01*
X115288204Y-69197004D01*
X115349578Y-68746133D01*
X115321811Y-68291951D01*
X115205971Y-67851913D01*
X115006511Y-67442929D01*
X114910806Y-67299695D01*
X114407918Y-67289153D01*
X113037071Y-68660000D01*
X113022929Y-68660000D01*
X111652082Y-67289153D01*
X111149194Y-67299695D01*
X110919951Y-67692760D01*
X110771796Y-68122996D01*
X110710422Y-68573867D01*
X95307163Y-68573867D01*
X94015378Y-67282082D01*
X111659153Y-67282082D01*
X113030000Y-68652929D01*
X114400847Y-67282082D01*
X114390305Y-66779194D01*
X113997240Y-66549951D01*
X113567004Y-66401796D01*
X113116133Y-66340422D01*
X112661951Y-66368189D01*
X112221913Y-66484029D01*
X111812929Y-66683489D01*
X111669695Y-66779194D01*
X111659153Y-67282082D01*
X94015378Y-67282082D01*
X92769086Y-66035791D01*
X92698373Y-65949627D01*
X92354548Y-65667457D01*
X91962281Y-65457786D01*
X91536646Y-65328671D01*
X91204924Y-65295999D01*
X91204914Y-65295999D01*
X91094001Y-65285075D01*
X90983088Y-65295999D01*
X53355762Y-65295999D01*
X53244849Y-65285075D01*
X53133936Y-65295999D01*
X53133927Y-65295999D01*
X52802205Y-65328671D01*
X52376570Y-65457786D01*
X51984303Y-65667457D01*
X51640478Y-65949627D01*
X51569765Y-66035791D01*
X51537556Y-66068000D01*
X40912696Y-66068000D01*
X40910353Y-66066077D01*
X40648379Y-65926049D01*
X40364120Y-65839820D01*
X40068500Y-65810704D01*
X38163500Y-65810704D01*
X37867880Y-65839820D01*
X37583621Y-65926049D01*
X37479911Y-65981483D01*
X37058342Y-65853602D01*
X36576000Y-65806095D01*
X36093659Y-65853602D01*
X35629853Y-65994296D01*
X35295811Y-66172844D01*
X34973738Y-66001533D01*
X34511505Y-65862341D01*
X34426158Y-65847105D01*
X34041000Y-66193506D01*
X34041000Y-68321000D01*
X34061000Y-68321000D01*
X34061000Y-68331000D01*
X34041000Y-68331000D01*
X34041000Y-68351000D01*
X34031000Y-68351000D01*
X34031000Y-68331000D01*
X31573500Y-68331000D01*
X31573500Y-68378500D01*
X31621792Y-68858814D01*
X31762860Y-69320477D01*
X31991284Y-69745749D01*
X32298285Y-70118286D01*
X32672066Y-70423772D01*
X33098262Y-70650467D01*
X33339230Y-70723030D01*
X29877881Y-74184379D01*
X29801259Y-74247261D01*
X29550330Y-74553019D01*
X29363873Y-74901856D01*
X29313971Y-75066363D01*
X29249054Y-75280364D01*
X29210284Y-75674001D01*
X28228000Y-75674001D01*
X28228000Y-68273500D01*
X31573500Y-68273500D01*
X31573500Y-68321000D01*
X34031000Y-68321000D01*
X34031000Y-66193506D01*
X33645842Y-65847105D01*
X33560495Y-65862341D01*
X33098262Y-66001533D01*
X32672066Y-66228228D01*
X32298285Y-66533714D01*
X31991284Y-66906251D01*
X31762860Y-67331523D01*
X31621792Y-67793186D01*
X31573500Y-68273500D01*
X28228000Y-68273500D01*
X28228000Y-65058000D01*
X143222000Y-65058000D01*
X143222001Y-129252000D01*
M02*
