G04 #@! TF.GenerationSoftware,KiCad,Pcbnew,(5.1.5)-3*
G04 #@! TF.CreationDate,2020-03-25T21:09:59+01:00*
G04 #@! TF.ProjectId,FunctiongeneratorMK3PowerControl,46756e63-7469-46f6-9e67-656e65726174,rev?*
G04 #@! TF.SameCoordinates,Original*
G04 #@! TF.FileFunction,Soldermask,Bot*
G04 #@! TF.FilePolarity,Negative*
%FSLAX46Y46*%
G04 Gerber Fmt 4.6, Leading zero omitted, Abs format (unit mm)*
G04 Created by KiCad (PCBNEW (5.1.5)-3) date 2020-03-25 21:09:59*
%MOMM*%
%LPD*%
G04 APERTURE LIST*
%ADD10C,0.100000*%
G04 APERTURE END LIST*
D10*
G36*
X97588564Y-122687389D02*
G01*
X97779833Y-122766615D01*
X97779835Y-122766616D01*
X97951973Y-122881635D01*
X98098365Y-123028027D01*
X98213385Y-123200167D01*
X98292611Y-123391436D01*
X98333000Y-123594484D01*
X98333000Y-123801516D01*
X98292611Y-124004564D01*
X98213385Y-124195833D01*
X98213384Y-124195835D01*
X98098365Y-124367973D01*
X97951973Y-124514365D01*
X97779835Y-124629384D01*
X97779834Y-124629385D01*
X97779833Y-124629385D01*
X97588564Y-124708611D01*
X97385516Y-124749000D01*
X97178484Y-124749000D01*
X96975436Y-124708611D01*
X96784167Y-124629385D01*
X96784166Y-124629385D01*
X96784165Y-124629384D01*
X96612027Y-124514365D01*
X96465635Y-124367973D01*
X96350616Y-124195835D01*
X96350615Y-124195833D01*
X96271389Y-124004564D01*
X96231000Y-123801516D01*
X96231000Y-123594484D01*
X96271389Y-123391436D01*
X96350615Y-123200167D01*
X96465635Y-123028027D01*
X96612027Y-122881635D01*
X96784165Y-122766616D01*
X96784167Y-122766615D01*
X96975436Y-122687389D01*
X97178484Y-122647000D01*
X97385516Y-122647000D01*
X97588564Y-122687389D01*
G37*
G36*
X119068720Y-120375520D02*
G01*
X119257881Y-120432901D01*
X119432212Y-120526083D01*
X119585015Y-120651485D01*
X119710417Y-120804288D01*
X119716281Y-120815259D01*
X119803598Y-120978617D01*
X119803599Y-120978620D01*
X119860980Y-121167781D01*
X119875500Y-121315207D01*
X119875500Y-121508794D01*
X119860980Y-121656220D01*
X119803599Y-121845381D01*
X119710417Y-122019712D01*
X119585015Y-122172515D01*
X119432212Y-122297917D01*
X119350333Y-122341682D01*
X119257883Y-122391098D01*
X119257880Y-122391099D01*
X119068719Y-122448480D01*
X118872000Y-122467855D01*
X118675280Y-122448480D01*
X118486119Y-122391099D01*
X118311788Y-122297917D01*
X118158985Y-122172515D01*
X118033583Y-122019712D01*
X117989818Y-121937833D01*
X117940402Y-121845383D01*
X117897046Y-121702456D01*
X117883020Y-121656219D01*
X117868500Y-121508793D01*
X117868500Y-121315206D01*
X117883020Y-121167780D01*
X117940401Y-120978619D01*
X118033583Y-120804288D01*
X118158985Y-120651485D01*
X118311788Y-120526083D01*
X118486120Y-120432901D01*
X118675281Y-120375520D01*
X118872000Y-120356145D01*
X119068720Y-120375520D01*
G37*
G36*
X121608720Y-120375520D02*
G01*
X121797881Y-120432901D01*
X121972212Y-120526083D01*
X122125015Y-120651485D01*
X122250417Y-120804288D01*
X122256281Y-120815259D01*
X122343598Y-120978617D01*
X122343599Y-120978620D01*
X122400980Y-121167781D01*
X122415500Y-121315207D01*
X122415500Y-121508794D01*
X122400980Y-121656220D01*
X122343599Y-121845381D01*
X122250417Y-122019712D01*
X122125015Y-122172515D01*
X121972212Y-122297917D01*
X121890333Y-122341682D01*
X121797883Y-122391098D01*
X121797880Y-122391099D01*
X121608719Y-122448480D01*
X121412000Y-122467855D01*
X121215280Y-122448480D01*
X121026119Y-122391099D01*
X120851788Y-122297917D01*
X120698985Y-122172515D01*
X120573583Y-122019712D01*
X120529818Y-121937833D01*
X120480402Y-121845383D01*
X120437046Y-121702456D01*
X120423020Y-121656219D01*
X120408500Y-121508793D01*
X120408500Y-121315206D01*
X120423020Y-121167780D01*
X120480401Y-120978619D01*
X120573583Y-120804288D01*
X120698985Y-120651485D01*
X120851788Y-120526083D01*
X121026120Y-120432901D01*
X121215281Y-120375520D01*
X121412000Y-120356145D01*
X121608720Y-120375520D01*
G37*
G36*
X124955500Y-122463000D02*
G01*
X122948500Y-122463000D01*
X122948500Y-120361000D01*
X124955500Y-120361000D01*
X124955500Y-122463000D01*
G37*
G36*
X70243000Y-121805000D02*
G01*
X68441000Y-121805000D01*
X68441000Y-120003000D01*
X70243000Y-120003000D01*
X70243000Y-121805000D01*
G37*
G36*
X66915512Y-120007927D02*
G01*
X67064812Y-120037624D01*
X67228784Y-120105544D01*
X67376354Y-120204147D01*
X67501853Y-120329646D01*
X67600456Y-120477216D01*
X67668376Y-120641188D01*
X67703000Y-120815259D01*
X67703000Y-120992741D01*
X67668376Y-121166812D01*
X67600456Y-121330784D01*
X67501853Y-121478354D01*
X67376354Y-121603853D01*
X67228784Y-121702456D01*
X67064812Y-121770376D01*
X66915512Y-121800073D01*
X66890742Y-121805000D01*
X66713258Y-121805000D01*
X66688488Y-121800073D01*
X66539188Y-121770376D01*
X66375216Y-121702456D01*
X66227646Y-121603853D01*
X66102147Y-121478354D01*
X66003544Y-121330784D01*
X65935624Y-121166812D01*
X65901000Y-120992741D01*
X65901000Y-120815259D01*
X65935624Y-120641188D01*
X66003544Y-120477216D01*
X66102147Y-120329646D01*
X66227646Y-120204147D01*
X66375216Y-120105544D01*
X66539188Y-120037624D01*
X66688488Y-120007927D01*
X66713258Y-120003000D01*
X66890742Y-120003000D01*
X66915512Y-120007927D01*
G37*
G36*
X61607000Y-119265000D02*
G01*
X59805000Y-119265000D01*
X59805000Y-117463000D01*
X61607000Y-117463000D01*
X61607000Y-119265000D01*
G37*
G36*
X58279512Y-117467927D02*
G01*
X58428812Y-117497624D01*
X58592784Y-117565544D01*
X58740354Y-117664147D01*
X58865853Y-117789646D01*
X58964456Y-117937216D01*
X59032376Y-118101188D01*
X59067000Y-118275259D01*
X59067000Y-118452741D01*
X59032376Y-118626812D01*
X58964456Y-118790784D01*
X58865853Y-118938354D01*
X58740354Y-119063853D01*
X58592784Y-119162456D01*
X58428812Y-119230376D01*
X58279512Y-119260073D01*
X58254742Y-119265000D01*
X58077258Y-119265000D01*
X58052488Y-119260073D01*
X57903188Y-119230376D01*
X57739216Y-119162456D01*
X57591646Y-119063853D01*
X57466147Y-118938354D01*
X57367544Y-118790784D01*
X57299624Y-118626812D01*
X57265000Y-118452741D01*
X57265000Y-118275259D01*
X57299624Y-118101188D01*
X57367544Y-117937216D01*
X57466147Y-117789646D01*
X57591646Y-117664147D01*
X57739216Y-117565544D01*
X57903188Y-117497624D01*
X58052488Y-117467927D01*
X58077258Y-117463000D01*
X58254742Y-117463000D01*
X58279512Y-117467927D01*
G37*
G36*
X75686228Y-117291703D02*
G01*
X75841100Y-117355853D01*
X75980481Y-117448985D01*
X76099015Y-117567519D01*
X76192147Y-117706900D01*
X76256297Y-117861772D01*
X76289000Y-118026184D01*
X76289000Y-118193816D01*
X76256297Y-118358228D01*
X76192147Y-118513100D01*
X76099015Y-118652481D01*
X75980481Y-118771015D01*
X75841100Y-118864147D01*
X75686228Y-118928297D01*
X75521816Y-118961000D01*
X75354184Y-118961000D01*
X75189772Y-118928297D01*
X75034900Y-118864147D01*
X74895519Y-118771015D01*
X74776985Y-118652481D01*
X74683853Y-118513100D01*
X74619703Y-118358228D01*
X74587000Y-118193816D01*
X74587000Y-118026184D01*
X74619703Y-117861772D01*
X74683853Y-117706900D01*
X74776985Y-117567519D01*
X74895519Y-117448985D01*
X75034900Y-117355853D01*
X75189772Y-117291703D01*
X75354184Y-117259000D01*
X75521816Y-117259000D01*
X75686228Y-117291703D01*
G37*
G36*
X90926228Y-117291703D02*
G01*
X91081100Y-117355853D01*
X91220481Y-117448985D01*
X91339015Y-117567519D01*
X91432147Y-117706900D01*
X91496297Y-117861772D01*
X91529000Y-118026184D01*
X91529000Y-118193816D01*
X91496297Y-118358228D01*
X91432147Y-118513100D01*
X91339015Y-118652481D01*
X91220481Y-118771015D01*
X91081100Y-118864147D01*
X90926228Y-118928297D01*
X90761816Y-118961000D01*
X90594184Y-118961000D01*
X90429772Y-118928297D01*
X90274900Y-118864147D01*
X90135519Y-118771015D01*
X90016985Y-118652481D01*
X89923853Y-118513100D01*
X89859703Y-118358228D01*
X89827000Y-118193816D01*
X89827000Y-118026184D01*
X89859703Y-117861772D01*
X89923853Y-117706900D01*
X90016985Y-117567519D01*
X90135519Y-117448985D01*
X90274900Y-117355853D01*
X90429772Y-117291703D01*
X90594184Y-117259000D01*
X90761816Y-117259000D01*
X90926228Y-117291703D01*
G37*
G36*
X97588564Y-115187389D02*
G01*
X97779833Y-115266615D01*
X97779835Y-115266616D01*
X97951973Y-115381635D01*
X98098365Y-115528027D01*
X98182415Y-115653816D01*
X98213385Y-115700167D01*
X98292611Y-115891436D01*
X98333000Y-116094484D01*
X98333000Y-116301516D01*
X98292611Y-116504564D01*
X98213385Y-116695833D01*
X98213384Y-116695835D01*
X98098365Y-116867973D01*
X97951973Y-117014365D01*
X97779835Y-117129384D01*
X97779834Y-117129385D01*
X97779833Y-117129385D01*
X97588564Y-117208611D01*
X97385516Y-117249000D01*
X97178484Y-117249000D01*
X96975436Y-117208611D01*
X96784167Y-117129385D01*
X96784166Y-117129385D01*
X96784165Y-117129384D01*
X96612027Y-117014365D01*
X96465635Y-116867973D01*
X96350616Y-116695835D01*
X96350615Y-116695833D01*
X96271389Y-116504564D01*
X96231000Y-116301516D01*
X96231000Y-116094484D01*
X96271389Y-115891436D01*
X96350615Y-115700167D01*
X96381586Y-115653816D01*
X96465635Y-115528027D01*
X96612027Y-115381635D01*
X96784165Y-115266616D01*
X96784167Y-115266615D01*
X96975436Y-115187389D01*
X97178484Y-115147000D01*
X97385516Y-115147000D01*
X97588564Y-115187389D01*
G37*
G36*
X49135512Y-115181927D02*
G01*
X49284812Y-115211624D01*
X49448784Y-115279544D01*
X49596354Y-115378147D01*
X49721853Y-115503646D01*
X49820456Y-115651216D01*
X49888376Y-115815188D01*
X49923000Y-115989259D01*
X49923000Y-116166741D01*
X49888376Y-116340812D01*
X49820456Y-116504784D01*
X49721853Y-116652354D01*
X49596354Y-116777853D01*
X49448784Y-116876456D01*
X49284812Y-116944376D01*
X49135512Y-116974073D01*
X49110742Y-116979000D01*
X48933258Y-116979000D01*
X48908488Y-116974073D01*
X48759188Y-116944376D01*
X48595216Y-116876456D01*
X48447646Y-116777853D01*
X48322147Y-116652354D01*
X48223544Y-116504784D01*
X48155624Y-116340812D01*
X48121000Y-116166741D01*
X48121000Y-115989259D01*
X48155624Y-115815188D01*
X48223544Y-115651216D01*
X48322147Y-115503646D01*
X48447646Y-115378147D01*
X48595216Y-115279544D01*
X48759188Y-115211624D01*
X48908488Y-115181927D01*
X48933258Y-115177000D01*
X49110742Y-115177000D01*
X49135512Y-115181927D01*
G37*
G36*
X52463000Y-116979000D02*
G01*
X50661000Y-116979000D01*
X50661000Y-115177000D01*
X52463000Y-115177000D01*
X52463000Y-116979000D01*
G37*
G36*
X90926228Y-114751703D02*
G01*
X91081100Y-114815853D01*
X91220481Y-114908985D01*
X91339015Y-115027519D01*
X91432147Y-115166900D01*
X91496297Y-115321772D01*
X91529000Y-115486184D01*
X91529000Y-115653816D01*
X91496297Y-115818228D01*
X91432147Y-115973100D01*
X91339015Y-116112481D01*
X91220481Y-116231015D01*
X91081100Y-116324147D01*
X90926228Y-116388297D01*
X90761816Y-116421000D01*
X90594184Y-116421000D01*
X90429772Y-116388297D01*
X90274900Y-116324147D01*
X90135519Y-116231015D01*
X90016985Y-116112481D01*
X89923853Y-115973100D01*
X89859703Y-115818228D01*
X89827000Y-115653816D01*
X89827000Y-115486184D01*
X89859703Y-115321772D01*
X89923853Y-115166900D01*
X90016985Y-115027519D01*
X90135519Y-114908985D01*
X90274900Y-114815853D01*
X90429772Y-114751703D01*
X90594184Y-114719000D01*
X90761816Y-114719000D01*
X90926228Y-114751703D01*
G37*
G36*
X75686228Y-114751703D02*
G01*
X75841100Y-114815853D01*
X75980481Y-114908985D01*
X76099015Y-115027519D01*
X76192147Y-115166900D01*
X76256297Y-115321772D01*
X76289000Y-115486184D01*
X76289000Y-115653816D01*
X76256297Y-115818228D01*
X76192147Y-115973100D01*
X76099015Y-116112481D01*
X75980481Y-116231015D01*
X75841100Y-116324147D01*
X75686228Y-116388297D01*
X75521816Y-116421000D01*
X75354184Y-116421000D01*
X75189772Y-116388297D01*
X75034900Y-116324147D01*
X74895519Y-116231015D01*
X74776985Y-116112481D01*
X74683853Y-115973100D01*
X74619703Y-115818228D01*
X74587000Y-115653816D01*
X74587000Y-115486184D01*
X74619703Y-115321772D01*
X74683853Y-115166900D01*
X74776985Y-115027519D01*
X74895519Y-114908985D01*
X75034900Y-114815853D01*
X75189772Y-114751703D01*
X75354184Y-114719000D01*
X75521816Y-114719000D01*
X75686228Y-114751703D01*
G37*
G36*
X37078228Y-112465703D02*
G01*
X37233100Y-112529853D01*
X37372481Y-112622985D01*
X37491015Y-112741519D01*
X37584147Y-112880900D01*
X37648297Y-113035772D01*
X37681000Y-113200184D01*
X37681000Y-113367816D01*
X37648297Y-113532228D01*
X37584147Y-113687100D01*
X37491015Y-113826481D01*
X37372481Y-113945015D01*
X37233100Y-114038147D01*
X37078228Y-114102297D01*
X36913816Y-114135000D01*
X36746184Y-114135000D01*
X36581772Y-114102297D01*
X36426900Y-114038147D01*
X36287519Y-113945015D01*
X36168985Y-113826481D01*
X36075853Y-113687100D01*
X36011703Y-113532228D01*
X35979000Y-113367816D01*
X35979000Y-113200184D01*
X36011703Y-113035772D01*
X36075853Y-112880900D01*
X36168985Y-112741519D01*
X36287519Y-112622985D01*
X36426900Y-112529853D01*
X36581772Y-112465703D01*
X36746184Y-112433000D01*
X36913816Y-112433000D01*
X37078228Y-112465703D01*
G37*
G36*
X75686228Y-112211703D02*
G01*
X75841100Y-112275853D01*
X75980481Y-112368985D01*
X76099015Y-112487519D01*
X76192147Y-112626900D01*
X76256297Y-112781772D01*
X76289000Y-112946184D01*
X76289000Y-113113816D01*
X76256297Y-113278228D01*
X76192147Y-113433100D01*
X76099015Y-113572481D01*
X75980481Y-113691015D01*
X75841100Y-113784147D01*
X75686228Y-113848297D01*
X75521816Y-113881000D01*
X75354184Y-113881000D01*
X75189772Y-113848297D01*
X75034900Y-113784147D01*
X74895519Y-113691015D01*
X74776985Y-113572481D01*
X74683853Y-113433100D01*
X74619703Y-113278228D01*
X74587000Y-113113816D01*
X74587000Y-112946184D01*
X74619703Y-112781772D01*
X74683853Y-112626900D01*
X74776985Y-112487519D01*
X74895519Y-112368985D01*
X75034900Y-112275853D01*
X75189772Y-112211703D01*
X75354184Y-112179000D01*
X75521816Y-112179000D01*
X75686228Y-112211703D01*
G37*
G36*
X90926228Y-112211703D02*
G01*
X91081100Y-112275853D01*
X91220481Y-112368985D01*
X91339015Y-112487519D01*
X91432147Y-112626900D01*
X91496297Y-112781772D01*
X91529000Y-112946184D01*
X91529000Y-113113816D01*
X91496297Y-113278228D01*
X91432147Y-113433100D01*
X91339015Y-113572481D01*
X91220481Y-113691015D01*
X91081100Y-113784147D01*
X90926228Y-113848297D01*
X90761816Y-113881000D01*
X90594184Y-113881000D01*
X90429772Y-113848297D01*
X90274900Y-113784147D01*
X90135519Y-113691015D01*
X90016985Y-113572481D01*
X89923853Y-113433100D01*
X89859703Y-113278228D01*
X89827000Y-113113816D01*
X89827000Y-112946184D01*
X89859703Y-112781772D01*
X89923853Y-112626900D01*
X90016985Y-112487519D01*
X90135519Y-112368985D01*
X90274900Y-112275853D01*
X90429772Y-112211703D01*
X90594184Y-112179000D01*
X90761816Y-112179000D01*
X90926228Y-112211703D01*
G37*
G36*
X99173512Y-109847927D02*
G01*
X99322812Y-109877624D01*
X99486784Y-109945544D01*
X99634354Y-110044147D01*
X99759853Y-110169646D01*
X99858456Y-110317216D01*
X99926376Y-110481188D01*
X99961000Y-110655259D01*
X99961000Y-110832741D01*
X99926376Y-111006812D01*
X99858456Y-111170784D01*
X99759853Y-111318354D01*
X99634354Y-111443853D01*
X99486784Y-111542456D01*
X99322812Y-111610376D01*
X99173512Y-111640073D01*
X99148742Y-111645000D01*
X98971258Y-111645000D01*
X98946488Y-111640073D01*
X98797188Y-111610376D01*
X98633216Y-111542456D01*
X98485646Y-111443853D01*
X98360147Y-111318354D01*
X98261544Y-111170784D01*
X98193624Y-111006812D01*
X98159000Y-110832741D01*
X98159000Y-110655259D01*
X98193624Y-110481188D01*
X98261544Y-110317216D01*
X98360147Y-110169646D01*
X98485646Y-110044147D01*
X98633216Y-109945544D01*
X98797188Y-109877624D01*
X98946488Y-109847927D01*
X98971258Y-109843000D01*
X99148742Y-109843000D01*
X99173512Y-109847927D01*
G37*
G36*
X140006564Y-109479389D02*
G01*
X140197833Y-109558615D01*
X140197835Y-109558616D01*
X140207202Y-109564875D01*
X140369973Y-109673635D01*
X140516365Y-109820027D01*
X140631385Y-109992167D01*
X140710611Y-110183436D01*
X140751000Y-110386484D01*
X140751000Y-110593516D01*
X140710611Y-110796564D01*
X140631385Y-110987833D01*
X140631384Y-110987835D01*
X140516365Y-111159973D01*
X140369973Y-111306365D01*
X140197835Y-111421384D01*
X140197834Y-111421385D01*
X140197833Y-111421385D01*
X140006564Y-111500611D01*
X139803516Y-111541000D01*
X139596484Y-111541000D01*
X139393436Y-111500611D01*
X139202167Y-111421385D01*
X139202166Y-111421385D01*
X139202165Y-111421384D01*
X139030027Y-111306365D01*
X138883635Y-111159973D01*
X138768616Y-110987835D01*
X138768615Y-110987833D01*
X138689389Y-110796564D01*
X138649000Y-110593516D01*
X138649000Y-110386484D01*
X138689389Y-110183436D01*
X138768615Y-109992167D01*
X138883635Y-109820027D01*
X139030027Y-109673635D01*
X139192798Y-109564875D01*
X139202165Y-109558616D01*
X139202167Y-109558615D01*
X139393436Y-109479389D01*
X139596484Y-109439000D01*
X139803516Y-109439000D01*
X140006564Y-109479389D01*
G37*
G36*
X132506564Y-109479389D02*
G01*
X132697833Y-109558615D01*
X132697835Y-109558616D01*
X132707202Y-109564875D01*
X132869973Y-109673635D01*
X133016365Y-109820027D01*
X133131385Y-109992167D01*
X133210611Y-110183436D01*
X133251000Y-110386484D01*
X133251000Y-110593516D01*
X133210611Y-110796564D01*
X133131385Y-110987833D01*
X133131384Y-110987835D01*
X133016365Y-111159973D01*
X132869973Y-111306365D01*
X132697835Y-111421384D01*
X132697834Y-111421385D01*
X132697833Y-111421385D01*
X132506564Y-111500611D01*
X132303516Y-111541000D01*
X132096484Y-111541000D01*
X131893436Y-111500611D01*
X131702167Y-111421385D01*
X131702166Y-111421385D01*
X131702165Y-111421384D01*
X131530027Y-111306365D01*
X131383635Y-111159973D01*
X131268616Y-110987835D01*
X131268615Y-110987833D01*
X131189389Y-110796564D01*
X131149000Y-110593516D01*
X131149000Y-110386484D01*
X131189389Y-110183436D01*
X131268615Y-109992167D01*
X131383635Y-109820027D01*
X131530027Y-109673635D01*
X131692798Y-109564875D01*
X131702165Y-109558616D01*
X131702167Y-109558615D01*
X131893436Y-109479389D01*
X132096484Y-109439000D01*
X132303516Y-109439000D01*
X132506564Y-109479389D01*
G37*
G36*
X68066228Y-109671703D02*
G01*
X68221100Y-109735853D01*
X68360481Y-109828985D01*
X68479015Y-109947519D01*
X68572147Y-110086900D01*
X68636297Y-110241772D01*
X68669000Y-110406184D01*
X68669000Y-110573816D01*
X68636297Y-110738228D01*
X68572147Y-110893100D01*
X68479015Y-111032481D01*
X68360481Y-111151015D01*
X68221100Y-111244147D01*
X68066228Y-111308297D01*
X67901816Y-111341000D01*
X67734184Y-111341000D01*
X67569772Y-111308297D01*
X67414900Y-111244147D01*
X67275519Y-111151015D01*
X67156985Y-111032481D01*
X67063853Y-110893100D01*
X66999703Y-110738228D01*
X66967000Y-110573816D01*
X66967000Y-110406184D01*
X66999703Y-110241772D01*
X67063853Y-110086900D01*
X67156985Y-109947519D01*
X67275519Y-109828985D01*
X67414900Y-109735853D01*
X67569772Y-109671703D01*
X67734184Y-109639000D01*
X67901816Y-109639000D01*
X68066228Y-109671703D01*
G37*
G36*
X57906228Y-109671703D02*
G01*
X58061100Y-109735853D01*
X58200481Y-109828985D01*
X58319015Y-109947519D01*
X58412147Y-110086900D01*
X58476297Y-110241772D01*
X58509000Y-110406184D01*
X58509000Y-110573816D01*
X58476297Y-110738228D01*
X58412147Y-110893100D01*
X58319015Y-111032481D01*
X58200481Y-111151015D01*
X58061100Y-111244147D01*
X57906228Y-111308297D01*
X57741816Y-111341000D01*
X57574184Y-111341000D01*
X57409772Y-111308297D01*
X57254900Y-111244147D01*
X57115519Y-111151015D01*
X56996985Y-111032481D01*
X56903853Y-110893100D01*
X56839703Y-110738228D01*
X56807000Y-110573816D01*
X56807000Y-110406184D01*
X56839703Y-110241772D01*
X56903853Y-110086900D01*
X56996985Y-109947519D01*
X57115519Y-109828985D01*
X57254900Y-109735853D01*
X57409772Y-109671703D01*
X57574184Y-109639000D01*
X57741816Y-109639000D01*
X57906228Y-109671703D01*
G37*
G36*
X90926228Y-109671703D02*
G01*
X91081100Y-109735853D01*
X91220481Y-109828985D01*
X91339015Y-109947519D01*
X91432147Y-110086900D01*
X91496297Y-110241772D01*
X91529000Y-110406184D01*
X91529000Y-110573816D01*
X91496297Y-110738228D01*
X91432147Y-110893100D01*
X91339015Y-111032481D01*
X91220481Y-111151015D01*
X91081100Y-111244147D01*
X90926228Y-111308297D01*
X90761816Y-111341000D01*
X90594184Y-111341000D01*
X90429772Y-111308297D01*
X90274900Y-111244147D01*
X90135519Y-111151015D01*
X90016985Y-111032481D01*
X89923853Y-110893100D01*
X89859703Y-110738228D01*
X89827000Y-110573816D01*
X89827000Y-110406184D01*
X89859703Y-110241772D01*
X89923853Y-110086900D01*
X90016985Y-109947519D01*
X90135519Y-109828985D01*
X90274900Y-109735853D01*
X90429772Y-109671703D01*
X90594184Y-109639000D01*
X90761816Y-109639000D01*
X90926228Y-109671703D01*
G37*
G36*
X75686228Y-109671703D02*
G01*
X75841100Y-109735853D01*
X75980481Y-109828985D01*
X76099015Y-109947519D01*
X76192147Y-110086900D01*
X76256297Y-110241772D01*
X76289000Y-110406184D01*
X76289000Y-110573816D01*
X76256297Y-110738228D01*
X76192147Y-110893100D01*
X76099015Y-111032481D01*
X75980481Y-111151015D01*
X75841100Y-111244147D01*
X75686228Y-111308297D01*
X75521816Y-111341000D01*
X75354184Y-111341000D01*
X75189772Y-111308297D01*
X75034900Y-111244147D01*
X74895519Y-111151015D01*
X74776985Y-111032481D01*
X74683853Y-110893100D01*
X74619703Y-110738228D01*
X74587000Y-110573816D01*
X74587000Y-110406184D01*
X74619703Y-110241772D01*
X74683853Y-110086900D01*
X74776985Y-109947519D01*
X74895519Y-109828985D01*
X75034900Y-109735853D01*
X75189772Y-109671703D01*
X75354184Y-109639000D01*
X75521816Y-109639000D01*
X75686228Y-109671703D01*
G37*
G36*
X106805589Y-108204876D02*
G01*
X106904893Y-108224629D01*
X107045206Y-108282748D01*
X107171484Y-108367125D01*
X107278875Y-108474516D01*
X107363252Y-108600794D01*
X107421371Y-108741107D01*
X107451000Y-108890063D01*
X107451000Y-109041937D01*
X107421371Y-109190893D01*
X107363252Y-109331206D01*
X107278875Y-109457484D01*
X107171484Y-109564875D01*
X107045206Y-109649252D01*
X106904893Y-109707371D01*
X106805589Y-109727124D01*
X106755938Y-109737000D01*
X106604062Y-109737000D01*
X106554411Y-109727124D01*
X106455107Y-109707371D01*
X106314794Y-109649252D01*
X106188516Y-109564875D01*
X106081125Y-109457484D01*
X105996748Y-109331206D01*
X105938629Y-109190893D01*
X105909000Y-109041937D01*
X105909000Y-108890063D01*
X105938629Y-108741107D01*
X105996748Y-108600794D01*
X106081125Y-108474516D01*
X106188516Y-108367125D01*
X106314794Y-108282748D01*
X106455107Y-108224629D01*
X106554411Y-108204876D01*
X106604062Y-108195000D01*
X106755938Y-108195000D01*
X106805589Y-108204876D01*
G37*
G36*
X48373512Y-107561927D02*
G01*
X48522812Y-107591624D01*
X48686784Y-107659544D01*
X48834354Y-107758147D01*
X48959853Y-107883646D01*
X49058456Y-108031216D01*
X49126376Y-108195188D01*
X49161000Y-108369259D01*
X49161000Y-108546741D01*
X49126376Y-108720812D01*
X49058456Y-108884784D01*
X48959853Y-109032354D01*
X48834354Y-109157853D01*
X48686784Y-109256456D01*
X48522812Y-109324376D01*
X48373512Y-109354073D01*
X48348742Y-109359000D01*
X48171258Y-109359000D01*
X48146488Y-109354073D01*
X47997188Y-109324376D01*
X47833216Y-109256456D01*
X47685646Y-109157853D01*
X47560147Y-109032354D01*
X47461544Y-108884784D01*
X47393624Y-108720812D01*
X47359000Y-108546741D01*
X47359000Y-108369259D01*
X47393624Y-108195188D01*
X47461544Y-108031216D01*
X47560147Y-107883646D01*
X47685646Y-107758147D01*
X47833216Y-107659544D01*
X47997188Y-107591624D01*
X48146488Y-107561927D01*
X48171258Y-107557000D01*
X48348742Y-107557000D01*
X48373512Y-107561927D01*
G37*
G36*
X99173512Y-107307927D02*
G01*
X99322812Y-107337624D01*
X99486784Y-107405544D01*
X99634354Y-107504147D01*
X99759853Y-107629646D01*
X99858456Y-107777216D01*
X99926376Y-107941188D01*
X99961000Y-108115259D01*
X99961000Y-108292741D01*
X99926376Y-108466812D01*
X99858456Y-108630784D01*
X99759853Y-108778354D01*
X99634354Y-108903853D01*
X99486784Y-109002456D01*
X99322812Y-109070376D01*
X99173512Y-109100073D01*
X99148742Y-109105000D01*
X98971258Y-109105000D01*
X98946488Y-109100073D01*
X98797188Y-109070376D01*
X98633216Y-109002456D01*
X98485646Y-108903853D01*
X98360147Y-108778354D01*
X98261544Y-108630784D01*
X98193624Y-108466812D01*
X98159000Y-108292741D01*
X98159000Y-108115259D01*
X98193624Y-107941188D01*
X98261544Y-107777216D01*
X98360147Y-107629646D01*
X98485646Y-107504147D01*
X98633216Y-107405544D01*
X98797188Y-107337624D01*
X98946488Y-107307927D01*
X98971258Y-107303000D01*
X99148742Y-107303000D01*
X99173512Y-107307927D01*
G37*
G36*
X90926228Y-107131703D02*
G01*
X91081100Y-107195853D01*
X91220481Y-107288985D01*
X91339015Y-107407519D01*
X91432147Y-107546900D01*
X91496297Y-107701772D01*
X91529000Y-107866184D01*
X91529000Y-108033816D01*
X91496297Y-108198228D01*
X91432147Y-108353100D01*
X91339015Y-108492481D01*
X91220481Y-108611015D01*
X91081100Y-108704147D01*
X90926228Y-108768297D01*
X90761816Y-108801000D01*
X90594184Y-108801000D01*
X90429772Y-108768297D01*
X90274900Y-108704147D01*
X90135519Y-108611015D01*
X90016985Y-108492481D01*
X89923853Y-108353100D01*
X89859703Y-108198228D01*
X89827000Y-108033816D01*
X89827000Y-107866184D01*
X89859703Y-107701772D01*
X89923853Y-107546900D01*
X90016985Y-107407519D01*
X90135519Y-107288985D01*
X90274900Y-107195853D01*
X90429772Y-107131703D01*
X90594184Y-107099000D01*
X90761816Y-107099000D01*
X90926228Y-107131703D01*
G37*
G36*
X75686228Y-107131703D02*
G01*
X75841100Y-107195853D01*
X75980481Y-107288985D01*
X76099015Y-107407519D01*
X76192147Y-107546900D01*
X76256297Y-107701772D01*
X76289000Y-107866184D01*
X76289000Y-108033816D01*
X76256297Y-108198228D01*
X76192147Y-108353100D01*
X76099015Y-108492481D01*
X75980481Y-108611015D01*
X75841100Y-108704147D01*
X75686228Y-108768297D01*
X75521816Y-108801000D01*
X75354184Y-108801000D01*
X75189772Y-108768297D01*
X75034900Y-108704147D01*
X74895519Y-108611015D01*
X74776985Y-108492481D01*
X74683853Y-108353100D01*
X74619703Y-108198228D01*
X74587000Y-108033816D01*
X74587000Y-107866184D01*
X74619703Y-107701772D01*
X74683853Y-107546900D01*
X74776985Y-107407519D01*
X74895519Y-107288985D01*
X75034900Y-107195853D01*
X75189772Y-107131703D01*
X75354184Y-107099000D01*
X75521816Y-107099000D01*
X75686228Y-107131703D01*
G37*
G36*
X113931000Y-108089000D02*
G01*
X112129000Y-108089000D01*
X112129000Y-106287000D01*
X113931000Y-106287000D01*
X113931000Y-108089000D01*
G37*
G36*
X52572228Y-106115703D02*
G01*
X52727100Y-106179853D01*
X52866481Y-106272985D01*
X52985015Y-106391519D01*
X53078147Y-106530900D01*
X53142297Y-106685772D01*
X53175000Y-106850184D01*
X53175000Y-107017816D01*
X53142297Y-107182228D01*
X53078147Y-107337100D01*
X52985015Y-107476481D01*
X52866481Y-107595015D01*
X52727100Y-107688147D01*
X52572228Y-107752297D01*
X52407816Y-107785000D01*
X52240184Y-107785000D01*
X52075772Y-107752297D01*
X51920900Y-107688147D01*
X51781519Y-107595015D01*
X51662985Y-107476481D01*
X51569853Y-107337100D01*
X51505703Y-107182228D01*
X51473000Y-107017816D01*
X51473000Y-106850184D01*
X51505703Y-106685772D01*
X51569853Y-106530900D01*
X51662985Y-106391519D01*
X51781519Y-106272985D01*
X51920900Y-106179853D01*
X52075772Y-106115703D01*
X52240184Y-106083000D01*
X52407816Y-106083000D01*
X52572228Y-106115703D01*
G37*
G36*
X62732228Y-106115703D02*
G01*
X62887100Y-106179853D01*
X63026481Y-106272985D01*
X63145015Y-106391519D01*
X63238147Y-106530900D01*
X63302297Y-106685772D01*
X63335000Y-106850184D01*
X63335000Y-107017816D01*
X63302297Y-107182228D01*
X63238147Y-107337100D01*
X63145015Y-107476481D01*
X63026481Y-107595015D01*
X62887100Y-107688147D01*
X62732228Y-107752297D01*
X62567816Y-107785000D01*
X62400184Y-107785000D01*
X62235772Y-107752297D01*
X62080900Y-107688147D01*
X61941519Y-107595015D01*
X61822985Y-107476481D01*
X61729853Y-107337100D01*
X61665703Y-107182228D01*
X61633000Y-107017816D01*
X61633000Y-106850184D01*
X61665703Y-106685772D01*
X61729853Y-106530900D01*
X61822985Y-106391519D01*
X61941519Y-106272985D01*
X62080900Y-106179853D01*
X62235772Y-106115703D01*
X62400184Y-106083000D01*
X62567816Y-106083000D01*
X62732228Y-106115703D01*
G37*
G36*
X106805589Y-105664876D02*
G01*
X106904893Y-105684629D01*
X107045206Y-105742748D01*
X107171484Y-105827125D01*
X107278875Y-105934516D01*
X107363252Y-106060794D01*
X107421371Y-106201107D01*
X107451000Y-106350063D01*
X107451000Y-106501937D01*
X107421371Y-106650893D01*
X107363252Y-106791206D01*
X107278875Y-106917484D01*
X107171484Y-107024875D01*
X107045206Y-107109252D01*
X106904893Y-107167371D01*
X106830201Y-107182228D01*
X106755938Y-107197000D01*
X106604062Y-107197000D01*
X106529799Y-107182228D01*
X106455107Y-107167371D01*
X106314794Y-107109252D01*
X106188516Y-107024875D01*
X106081125Y-106917484D01*
X105996748Y-106791206D01*
X105938629Y-106650893D01*
X105909000Y-106501937D01*
X105909000Y-106350063D01*
X105938629Y-106201107D01*
X105996748Y-106060794D01*
X106081125Y-105934516D01*
X106188516Y-105827125D01*
X106314794Y-105742748D01*
X106455107Y-105684629D01*
X106554411Y-105664876D01*
X106604062Y-105655000D01*
X106755938Y-105655000D01*
X106805589Y-105664876D01*
G37*
G36*
X48373512Y-105021927D02*
G01*
X48522812Y-105051624D01*
X48686784Y-105119544D01*
X48834354Y-105218147D01*
X48959853Y-105343646D01*
X49058456Y-105491216D01*
X49126376Y-105655188D01*
X49161000Y-105829259D01*
X49161000Y-106006741D01*
X49126376Y-106180812D01*
X49058456Y-106344784D01*
X48959853Y-106492354D01*
X48834354Y-106617853D01*
X48686784Y-106716456D01*
X48522812Y-106784376D01*
X48373512Y-106814073D01*
X48348742Y-106819000D01*
X48171258Y-106819000D01*
X48146488Y-106814073D01*
X47997188Y-106784376D01*
X47833216Y-106716456D01*
X47685646Y-106617853D01*
X47560147Y-106492354D01*
X47461544Y-106344784D01*
X47393624Y-106180812D01*
X47359000Y-106006741D01*
X47359000Y-105829259D01*
X47393624Y-105655188D01*
X47461544Y-105491216D01*
X47560147Y-105343646D01*
X47685646Y-105218147D01*
X47833216Y-105119544D01*
X47997188Y-105051624D01*
X48146488Y-105021927D01*
X48171258Y-105017000D01*
X48348742Y-105017000D01*
X48373512Y-105021927D01*
G37*
G36*
X99173512Y-104767927D02*
G01*
X99322812Y-104797624D01*
X99486784Y-104865544D01*
X99634354Y-104964147D01*
X99759853Y-105089646D01*
X99858456Y-105237216D01*
X99926376Y-105401188D01*
X99961000Y-105575259D01*
X99961000Y-105752741D01*
X99926376Y-105926812D01*
X99858456Y-106090784D01*
X99759853Y-106238354D01*
X99634354Y-106363853D01*
X99486784Y-106462456D01*
X99322812Y-106530376D01*
X99173512Y-106560073D01*
X99148742Y-106565000D01*
X98971258Y-106565000D01*
X98946488Y-106560073D01*
X98797188Y-106530376D01*
X98633216Y-106462456D01*
X98485646Y-106363853D01*
X98360147Y-106238354D01*
X98261544Y-106090784D01*
X98193624Y-105926812D01*
X98159000Y-105752741D01*
X98159000Y-105575259D01*
X98193624Y-105401188D01*
X98261544Y-105237216D01*
X98360147Y-105089646D01*
X98485646Y-104964147D01*
X98633216Y-104865544D01*
X98797188Y-104797624D01*
X98946488Y-104767927D01*
X98971258Y-104763000D01*
X99148742Y-104763000D01*
X99173512Y-104767927D01*
G37*
G36*
X90926228Y-104591703D02*
G01*
X91081100Y-104655853D01*
X91220481Y-104748985D01*
X91339015Y-104867519D01*
X91432147Y-105006900D01*
X91496297Y-105161772D01*
X91529000Y-105326184D01*
X91529000Y-105493816D01*
X91496297Y-105658228D01*
X91432147Y-105813100D01*
X91339015Y-105952481D01*
X91220481Y-106071015D01*
X91081100Y-106164147D01*
X90926228Y-106228297D01*
X90761816Y-106261000D01*
X90594184Y-106261000D01*
X90429772Y-106228297D01*
X90274900Y-106164147D01*
X90135519Y-106071015D01*
X90016985Y-105952481D01*
X89923853Y-105813100D01*
X89859703Y-105658228D01*
X89827000Y-105493816D01*
X89827000Y-105326184D01*
X89859703Y-105161772D01*
X89923853Y-105006900D01*
X90016985Y-104867519D01*
X90135519Y-104748985D01*
X90274900Y-104655853D01*
X90429772Y-104591703D01*
X90594184Y-104559000D01*
X90761816Y-104559000D01*
X90926228Y-104591703D01*
G37*
G36*
X75686228Y-104591703D02*
G01*
X75841100Y-104655853D01*
X75980481Y-104748985D01*
X76099015Y-104867519D01*
X76192147Y-105006900D01*
X76256297Y-105161772D01*
X76289000Y-105326184D01*
X76289000Y-105493816D01*
X76256297Y-105658228D01*
X76192147Y-105813100D01*
X76099015Y-105952481D01*
X75980481Y-106071015D01*
X75841100Y-106164147D01*
X75686228Y-106228297D01*
X75521816Y-106261000D01*
X75354184Y-106261000D01*
X75189772Y-106228297D01*
X75034900Y-106164147D01*
X74895519Y-106071015D01*
X74776985Y-105952481D01*
X74683853Y-105813100D01*
X74619703Y-105658228D01*
X74587000Y-105493816D01*
X74587000Y-105326184D01*
X74619703Y-105161772D01*
X74683853Y-105006900D01*
X74776985Y-104867519D01*
X74895519Y-104748985D01*
X75034900Y-104655853D01*
X75189772Y-104591703D01*
X75354184Y-104559000D01*
X75521816Y-104559000D01*
X75686228Y-104591703D01*
G37*
G36*
X137305936Y-103141340D02*
G01*
X137404220Y-103151020D01*
X137593381Y-103208401D01*
X137767712Y-103301583D01*
X137920515Y-103426985D01*
X138045917Y-103579788D01*
X138139099Y-103754119D01*
X138196480Y-103943280D01*
X138215855Y-104140000D01*
X138196480Y-104336720D01*
X138139099Y-104525881D01*
X138045917Y-104700212D01*
X137920515Y-104853015D01*
X137767712Y-104978417D01*
X137593381Y-105071599D01*
X137404220Y-105128980D01*
X137305936Y-105138660D01*
X137256795Y-105143500D01*
X137063205Y-105143500D01*
X137014064Y-105138660D01*
X136915780Y-105128980D01*
X136726619Y-105071599D01*
X136552288Y-104978417D01*
X136399485Y-104853015D01*
X136274083Y-104700212D01*
X136180901Y-104525881D01*
X136123520Y-104336720D01*
X136104145Y-104140000D01*
X136123520Y-103943280D01*
X136180901Y-103754119D01*
X136274083Y-103579788D01*
X136399485Y-103426985D01*
X136552288Y-103301583D01*
X136726619Y-103208401D01*
X136915780Y-103151020D01*
X137014064Y-103141340D01*
X137063205Y-103136500D01*
X137256795Y-103136500D01*
X137305936Y-103141340D01*
G37*
G36*
X129171000Y-105041000D02*
G01*
X127369000Y-105041000D01*
X127369000Y-103239000D01*
X129171000Y-103239000D01*
X129171000Y-105041000D01*
G37*
G36*
X120898228Y-103321703D02*
G01*
X121053100Y-103385853D01*
X121192481Y-103478985D01*
X121311015Y-103597519D01*
X121404147Y-103736900D01*
X121468297Y-103891772D01*
X121501000Y-104056184D01*
X121501000Y-104223816D01*
X121468297Y-104388228D01*
X121404147Y-104543100D01*
X121311015Y-104682481D01*
X121192481Y-104801015D01*
X121053100Y-104894147D01*
X120898228Y-104958297D01*
X120733816Y-104991000D01*
X120566184Y-104991000D01*
X120401772Y-104958297D01*
X120246900Y-104894147D01*
X120107519Y-104801015D01*
X119988985Y-104682481D01*
X119895853Y-104543100D01*
X119831703Y-104388228D01*
X119799000Y-104223816D01*
X119799000Y-104056184D01*
X119831703Y-103891772D01*
X119895853Y-103736900D01*
X119988985Y-103597519D01*
X120107519Y-103478985D01*
X120246900Y-103385853D01*
X120401772Y-103321703D01*
X120566184Y-103289000D01*
X120733816Y-103289000D01*
X120898228Y-103321703D01*
G37*
G36*
X106805589Y-103124876D02*
G01*
X106904893Y-103144629D01*
X107045206Y-103202748D01*
X107171484Y-103287125D01*
X107278875Y-103394516D01*
X107363252Y-103520794D01*
X107421371Y-103661107D01*
X107451000Y-103810063D01*
X107451000Y-103961937D01*
X107421371Y-104110893D01*
X107363252Y-104251206D01*
X107278875Y-104377484D01*
X107171484Y-104484875D01*
X107045206Y-104569252D01*
X106904893Y-104627371D01*
X106805589Y-104647124D01*
X106755938Y-104657000D01*
X106604062Y-104657000D01*
X106554411Y-104647124D01*
X106455107Y-104627371D01*
X106314794Y-104569252D01*
X106188516Y-104484875D01*
X106081125Y-104377484D01*
X105996748Y-104251206D01*
X105938629Y-104110893D01*
X105909000Y-103961937D01*
X105909000Y-103810063D01*
X105938629Y-103661107D01*
X105996748Y-103520794D01*
X106081125Y-103394516D01*
X106188516Y-103287125D01*
X106314794Y-103202748D01*
X106455107Y-103144629D01*
X106554411Y-103124876D01*
X106604062Y-103115000D01*
X106755938Y-103115000D01*
X106805589Y-103124876D01*
G37*
G36*
X49161000Y-104279000D02*
G01*
X47359000Y-104279000D01*
X47359000Y-102477000D01*
X49161000Y-102477000D01*
X49161000Y-104279000D01*
G37*
G36*
X67050228Y-102559703D02*
G01*
X67205100Y-102623853D01*
X67344481Y-102716985D01*
X67463015Y-102835519D01*
X67556147Y-102974900D01*
X67620297Y-103129772D01*
X67653000Y-103294184D01*
X67653000Y-103461816D01*
X67620297Y-103626228D01*
X67556147Y-103781100D01*
X67463015Y-103920481D01*
X67344481Y-104039015D01*
X67205100Y-104132147D01*
X67050228Y-104196297D01*
X66885816Y-104229000D01*
X66718184Y-104229000D01*
X66553772Y-104196297D01*
X66398900Y-104132147D01*
X66259519Y-104039015D01*
X66140985Y-103920481D01*
X66047853Y-103781100D01*
X65983703Y-103626228D01*
X65951000Y-103461816D01*
X65951000Y-103294184D01*
X65983703Y-103129772D01*
X66047853Y-102974900D01*
X66140985Y-102835519D01*
X66259519Y-102716985D01*
X66398900Y-102623853D01*
X66553772Y-102559703D01*
X66718184Y-102527000D01*
X66885816Y-102527000D01*
X67050228Y-102559703D01*
G37*
G36*
X56890228Y-102559703D02*
G01*
X57045100Y-102623853D01*
X57184481Y-102716985D01*
X57303015Y-102835519D01*
X57396147Y-102974900D01*
X57460297Y-103129772D01*
X57493000Y-103294184D01*
X57493000Y-103461816D01*
X57460297Y-103626228D01*
X57396147Y-103781100D01*
X57303015Y-103920481D01*
X57184481Y-104039015D01*
X57045100Y-104132147D01*
X56890228Y-104196297D01*
X56725816Y-104229000D01*
X56558184Y-104229000D01*
X56393772Y-104196297D01*
X56238900Y-104132147D01*
X56099519Y-104039015D01*
X55980985Y-103920481D01*
X55887853Y-103781100D01*
X55823703Y-103626228D01*
X55791000Y-103461816D01*
X55791000Y-103294184D01*
X55823703Y-103129772D01*
X55887853Y-102974900D01*
X55980985Y-102835519D01*
X56099519Y-102716985D01*
X56238900Y-102623853D01*
X56393772Y-102559703D01*
X56558184Y-102527000D01*
X56725816Y-102527000D01*
X56890228Y-102559703D01*
G37*
G36*
X99961000Y-104025000D02*
G01*
X98159000Y-104025000D01*
X98159000Y-102223000D01*
X99961000Y-102223000D01*
X99961000Y-104025000D01*
G37*
G36*
X37078228Y-102305703D02*
G01*
X37233100Y-102369853D01*
X37372481Y-102462985D01*
X37491015Y-102581519D01*
X37584147Y-102720900D01*
X37648297Y-102875772D01*
X37681000Y-103040184D01*
X37681000Y-103207816D01*
X37648297Y-103372228D01*
X37584147Y-103527100D01*
X37491015Y-103666481D01*
X37372481Y-103785015D01*
X37233100Y-103878147D01*
X37078228Y-103942297D01*
X36913816Y-103975000D01*
X36746184Y-103975000D01*
X36581772Y-103942297D01*
X36426900Y-103878147D01*
X36287519Y-103785015D01*
X36168985Y-103666481D01*
X36075853Y-103527100D01*
X36011703Y-103372228D01*
X35979000Y-103207816D01*
X35979000Y-103040184D01*
X36011703Y-102875772D01*
X36075853Y-102720900D01*
X36168985Y-102581519D01*
X36287519Y-102462985D01*
X36426900Y-102369853D01*
X36581772Y-102305703D01*
X36746184Y-102273000D01*
X36913816Y-102273000D01*
X37078228Y-102305703D01*
G37*
G36*
X75686228Y-102051703D02*
G01*
X75841100Y-102115853D01*
X75980481Y-102208985D01*
X76099015Y-102327519D01*
X76192147Y-102466900D01*
X76256297Y-102621772D01*
X76289000Y-102786184D01*
X76289000Y-102953816D01*
X76256297Y-103118228D01*
X76192147Y-103273100D01*
X76099015Y-103412481D01*
X75980481Y-103531015D01*
X75841100Y-103624147D01*
X75686228Y-103688297D01*
X75521816Y-103721000D01*
X75354184Y-103721000D01*
X75189772Y-103688297D01*
X75034900Y-103624147D01*
X74895519Y-103531015D01*
X74776985Y-103412481D01*
X74683853Y-103273100D01*
X74619703Y-103118228D01*
X74587000Y-102953816D01*
X74587000Y-102786184D01*
X74619703Y-102621772D01*
X74683853Y-102466900D01*
X74776985Y-102327519D01*
X74895519Y-102208985D01*
X75034900Y-102115853D01*
X75189772Y-102051703D01*
X75354184Y-102019000D01*
X75521816Y-102019000D01*
X75686228Y-102051703D01*
G37*
G36*
X90926228Y-102051703D02*
G01*
X91081100Y-102115853D01*
X91220481Y-102208985D01*
X91339015Y-102327519D01*
X91432147Y-102466900D01*
X91496297Y-102621772D01*
X91529000Y-102786184D01*
X91529000Y-102953816D01*
X91496297Y-103118228D01*
X91432147Y-103273100D01*
X91339015Y-103412481D01*
X91220481Y-103531015D01*
X91081100Y-103624147D01*
X90926228Y-103688297D01*
X90761816Y-103721000D01*
X90594184Y-103721000D01*
X90429772Y-103688297D01*
X90274900Y-103624147D01*
X90135519Y-103531015D01*
X90016985Y-103412481D01*
X89923853Y-103273100D01*
X89859703Y-103118228D01*
X89827000Y-102953816D01*
X89827000Y-102786184D01*
X89859703Y-102621772D01*
X89923853Y-102466900D01*
X90016985Y-102327519D01*
X90135519Y-102208985D01*
X90274900Y-102115853D01*
X90429772Y-102051703D01*
X90594184Y-102019000D01*
X90761816Y-102019000D01*
X90926228Y-102051703D01*
G37*
G36*
X137305936Y-100601340D02*
G01*
X137404220Y-100611020D01*
X137593381Y-100668401D01*
X137767712Y-100761583D01*
X137920515Y-100886985D01*
X138045917Y-101039788D01*
X138139099Y-101214119D01*
X138196480Y-101403280D01*
X138215855Y-101600000D01*
X138196480Y-101796720D01*
X138139099Y-101985881D01*
X138045917Y-102160212D01*
X137920515Y-102313015D01*
X137767712Y-102438417D01*
X137593381Y-102531599D01*
X137404220Y-102588980D01*
X137305936Y-102598660D01*
X137256795Y-102603500D01*
X137063205Y-102603500D01*
X137014064Y-102598660D01*
X136915780Y-102588980D01*
X136726619Y-102531599D01*
X136552288Y-102438417D01*
X136399485Y-102313015D01*
X136274083Y-102160212D01*
X136180901Y-101985881D01*
X136123520Y-101796720D01*
X136104145Y-101600000D01*
X136123520Y-101403280D01*
X136180901Y-101214119D01*
X136274083Y-101039788D01*
X136399485Y-100886985D01*
X136552288Y-100761583D01*
X136726619Y-100668401D01*
X136915780Y-100611020D01*
X137014064Y-100601340D01*
X137063205Y-100596500D01*
X137256795Y-100596500D01*
X137305936Y-100601340D01*
G37*
G36*
X128383512Y-100703927D02*
G01*
X128532812Y-100733624D01*
X128696784Y-100801544D01*
X128844354Y-100900147D01*
X128969853Y-101025646D01*
X129068456Y-101173216D01*
X129136376Y-101337188D01*
X129171000Y-101511259D01*
X129171000Y-101688741D01*
X129136376Y-101862812D01*
X129068456Y-102026784D01*
X128969853Y-102174354D01*
X128844354Y-102299853D01*
X128696784Y-102398456D01*
X128532812Y-102466376D01*
X128383512Y-102496073D01*
X128358742Y-102501000D01*
X128181258Y-102501000D01*
X128156488Y-102496073D01*
X128007188Y-102466376D01*
X127843216Y-102398456D01*
X127695646Y-102299853D01*
X127570147Y-102174354D01*
X127471544Y-102026784D01*
X127403624Y-101862812D01*
X127369000Y-101688741D01*
X127369000Y-101511259D01*
X127403624Y-101337188D01*
X127471544Y-101173216D01*
X127570147Y-101025646D01*
X127695646Y-100900147D01*
X127843216Y-100801544D01*
X128007188Y-100733624D01*
X128156488Y-100703927D01*
X128181258Y-100699000D01*
X128358742Y-100699000D01*
X128383512Y-100703927D01*
G37*
G36*
X113931000Y-102501000D02*
G01*
X112129000Y-102501000D01*
X112129000Y-100699000D01*
X113931000Y-100699000D01*
X113931000Y-102501000D01*
G37*
G36*
X53733000Y-101739000D02*
G01*
X51931000Y-101739000D01*
X51931000Y-99937000D01*
X53733000Y-99937000D01*
X53733000Y-101739000D01*
G37*
G36*
X75686228Y-99511703D02*
G01*
X75841100Y-99575853D01*
X75980481Y-99668985D01*
X76099015Y-99787519D01*
X76192147Y-99926900D01*
X76256297Y-100081772D01*
X76289000Y-100246184D01*
X76289000Y-100413816D01*
X76256297Y-100578228D01*
X76192147Y-100733100D01*
X76099015Y-100872481D01*
X75980481Y-100991015D01*
X75841100Y-101084147D01*
X75686228Y-101148297D01*
X75521816Y-101181000D01*
X75354184Y-101181000D01*
X75189772Y-101148297D01*
X75034900Y-101084147D01*
X74895519Y-100991015D01*
X74776985Y-100872481D01*
X74683853Y-100733100D01*
X74619703Y-100578228D01*
X74587000Y-100413816D01*
X74587000Y-100246184D01*
X74619703Y-100081772D01*
X74683853Y-99926900D01*
X74776985Y-99787519D01*
X74895519Y-99668985D01*
X75034900Y-99575853D01*
X75189772Y-99511703D01*
X75354184Y-99479000D01*
X75521816Y-99479000D01*
X75686228Y-99511703D01*
G37*
G36*
X90926228Y-99511703D02*
G01*
X91081100Y-99575853D01*
X91220481Y-99668985D01*
X91339015Y-99787519D01*
X91432147Y-99926900D01*
X91496297Y-100081772D01*
X91529000Y-100246184D01*
X91529000Y-100413816D01*
X91496297Y-100578228D01*
X91432147Y-100733100D01*
X91339015Y-100872481D01*
X91220481Y-100991015D01*
X91081100Y-101084147D01*
X90926228Y-101148297D01*
X90761816Y-101181000D01*
X90594184Y-101181000D01*
X90429772Y-101148297D01*
X90274900Y-101084147D01*
X90135519Y-100991015D01*
X90016985Y-100872481D01*
X89923853Y-100733100D01*
X89859703Y-100578228D01*
X89827000Y-100413816D01*
X89827000Y-100246184D01*
X89859703Y-100081772D01*
X89923853Y-99926900D01*
X90016985Y-99787519D01*
X90135519Y-99668985D01*
X90274900Y-99575853D01*
X90429772Y-99511703D01*
X90594184Y-99479000D01*
X90761816Y-99479000D01*
X90926228Y-99511703D01*
G37*
G36*
X138211000Y-100063500D02*
G01*
X136109000Y-100063500D01*
X136109000Y-98056500D01*
X138211000Y-98056500D01*
X138211000Y-100063500D01*
G37*
G36*
X128383512Y-98163927D02*
G01*
X128532812Y-98193624D01*
X128696784Y-98261544D01*
X128844354Y-98360147D01*
X128969853Y-98485646D01*
X129068456Y-98633216D01*
X129136376Y-98797188D01*
X129166073Y-98946488D01*
X129171000Y-98971258D01*
X129171000Y-99148742D01*
X129166073Y-99173512D01*
X129136376Y-99322812D01*
X129068456Y-99486784D01*
X128969853Y-99634354D01*
X128844354Y-99759853D01*
X128696784Y-99858456D01*
X128532812Y-99926376D01*
X128383512Y-99956073D01*
X128358742Y-99961000D01*
X128181258Y-99961000D01*
X128156488Y-99956073D01*
X128007188Y-99926376D01*
X127843216Y-99858456D01*
X127695646Y-99759853D01*
X127570147Y-99634354D01*
X127471544Y-99486784D01*
X127403624Y-99322812D01*
X127373927Y-99173512D01*
X127369000Y-99148742D01*
X127369000Y-98971258D01*
X127373927Y-98946488D01*
X127403624Y-98797188D01*
X127471544Y-98633216D01*
X127570147Y-98485646D01*
X127695646Y-98360147D01*
X127843216Y-98261544D01*
X128007188Y-98193624D01*
X128156488Y-98163927D01*
X128181258Y-98159000D01*
X128358742Y-98159000D01*
X128383512Y-98163927D01*
G37*
G36*
X67050228Y-97479703D02*
G01*
X67205100Y-97543853D01*
X67344481Y-97636985D01*
X67463015Y-97755519D01*
X67556147Y-97894900D01*
X67620297Y-98049772D01*
X67653000Y-98214184D01*
X67653000Y-98381816D01*
X67620297Y-98546228D01*
X67556147Y-98701100D01*
X67463015Y-98840481D01*
X67344481Y-98959015D01*
X67205100Y-99052147D01*
X67050228Y-99116297D01*
X66885816Y-99149000D01*
X66718184Y-99149000D01*
X66553772Y-99116297D01*
X66398900Y-99052147D01*
X66259519Y-98959015D01*
X66140985Y-98840481D01*
X66047853Y-98701100D01*
X65983703Y-98546228D01*
X65951000Y-98381816D01*
X65951000Y-98214184D01*
X65983703Y-98049772D01*
X66047853Y-97894900D01*
X66140985Y-97755519D01*
X66259519Y-97636985D01*
X66398900Y-97543853D01*
X66553772Y-97479703D01*
X66718184Y-97447000D01*
X66885816Y-97447000D01*
X67050228Y-97479703D01*
G37*
G36*
X56890228Y-97479703D02*
G01*
X57045100Y-97543853D01*
X57184481Y-97636985D01*
X57303015Y-97755519D01*
X57396147Y-97894900D01*
X57460297Y-98049772D01*
X57493000Y-98214184D01*
X57493000Y-98381816D01*
X57460297Y-98546228D01*
X57396147Y-98701100D01*
X57303015Y-98840481D01*
X57184481Y-98959015D01*
X57045100Y-99052147D01*
X56890228Y-99116297D01*
X56725816Y-99149000D01*
X56558184Y-99149000D01*
X56393772Y-99116297D01*
X56238900Y-99052147D01*
X56099519Y-98959015D01*
X55980985Y-98840481D01*
X55887853Y-98701100D01*
X55823703Y-98546228D01*
X55791000Y-98381816D01*
X55791000Y-98214184D01*
X55823703Y-98049772D01*
X55887853Y-97894900D01*
X55980985Y-97755519D01*
X56099519Y-97636985D01*
X56238900Y-97543853D01*
X56393772Y-97479703D01*
X56558184Y-97447000D01*
X56725816Y-97447000D01*
X56890228Y-97479703D01*
G37*
G36*
X90926228Y-96971703D02*
G01*
X91081100Y-97035853D01*
X91220481Y-97128985D01*
X91339015Y-97247519D01*
X91432147Y-97386900D01*
X91496297Y-97541772D01*
X91529000Y-97706184D01*
X91529000Y-97873816D01*
X91496297Y-98038228D01*
X91432147Y-98193100D01*
X91339015Y-98332481D01*
X91220481Y-98451015D01*
X91081100Y-98544147D01*
X90926228Y-98608297D01*
X90761816Y-98641000D01*
X90594184Y-98641000D01*
X90429772Y-98608297D01*
X90274900Y-98544147D01*
X90135519Y-98451015D01*
X90016985Y-98332481D01*
X89923853Y-98193100D01*
X89859703Y-98038228D01*
X89827000Y-97873816D01*
X89827000Y-97706184D01*
X89859703Y-97541772D01*
X89923853Y-97386900D01*
X90016985Y-97247519D01*
X90135519Y-97128985D01*
X90274900Y-97035853D01*
X90429772Y-96971703D01*
X90594184Y-96939000D01*
X90761816Y-96939000D01*
X90926228Y-96971703D01*
G37*
G36*
X75686228Y-96971703D02*
G01*
X75841100Y-97035853D01*
X75980481Y-97128985D01*
X76099015Y-97247519D01*
X76192147Y-97386900D01*
X76256297Y-97541772D01*
X76289000Y-97706184D01*
X76289000Y-97873816D01*
X76256297Y-98038228D01*
X76192147Y-98193100D01*
X76099015Y-98332481D01*
X75980481Y-98451015D01*
X75841100Y-98544147D01*
X75686228Y-98608297D01*
X75521816Y-98641000D01*
X75354184Y-98641000D01*
X75189772Y-98608297D01*
X75034900Y-98544147D01*
X74895519Y-98451015D01*
X74776985Y-98332481D01*
X74683853Y-98193100D01*
X74619703Y-98038228D01*
X74587000Y-97873816D01*
X74587000Y-97706184D01*
X74619703Y-97541772D01*
X74683853Y-97386900D01*
X74776985Y-97247519D01*
X74895519Y-97128985D01*
X75034900Y-97035853D01*
X75189772Y-96971703D01*
X75354184Y-96939000D01*
X75521816Y-96939000D01*
X75686228Y-96971703D01*
G37*
G36*
X53588228Y-94939703D02*
G01*
X53743100Y-95003853D01*
X53882481Y-95096985D01*
X54001015Y-95215519D01*
X54094147Y-95354900D01*
X54158297Y-95509772D01*
X54191000Y-95674184D01*
X54191000Y-95841816D01*
X54158297Y-96006228D01*
X54094147Y-96161100D01*
X54001015Y-96300481D01*
X53882481Y-96419015D01*
X53743100Y-96512147D01*
X53588228Y-96576297D01*
X53423816Y-96609000D01*
X53256184Y-96609000D01*
X53091772Y-96576297D01*
X52936900Y-96512147D01*
X52797519Y-96419015D01*
X52678985Y-96300481D01*
X52585853Y-96161100D01*
X52521703Y-96006228D01*
X52489000Y-95841816D01*
X52489000Y-95674184D01*
X52521703Y-95509772D01*
X52585853Y-95354900D01*
X52678985Y-95215519D01*
X52797519Y-95096985D01*
X52936900Y-95003853D01*
X53091772Y-94939703D01*
X53256184Y-94907000D01*
X53423816Y-94907000D01*
X53588228Y-94939703D01*
G37*
G36*
X43428228Y-94939703D02*
G01*
X43583100Y-95003853D01*
X43722481Y-95096985D01*
X43841015Y-95215519D01*
X43934147Y-95354900D01*
X43998297Y-95509772D01*
X44031000Y-95674184D01*
X44031000Y-95841816D01*
X43998297Y-96006228D01*
X43934147Y-96161100D01*
X43841015Y-96300481D01*
X43722481Y-96419015D01*
X43583100Y-96512147D01*
X43428228Y-96576297D01*
X43263816Y-96609000D01*
X43096184Y-96609000D01*
X42931772Y-96576297D01*
X42776900Y-96512147D01*
X42637519Y-96419015D01*
X42518985Y-96300481D01*
X42425853Y-96161100D01*
X42361703Y-96006228D01*
X42329000Y-95841816D01*
X42329000Y-95674184D01*
X42361703Y-95509772D01*
X42425853Y-95354900D01*
X42518985Y-95215519D01*
X42637519Y-95096985D01*
X42776900Y-95003853D01*
X42931772Y-94939703D01*
X43096184Y-94907000D01*
X43263816Y-94907000D01*
X43428228Y-94939703D01*
G37*
G36*
X110796564Y-94239389D02*
G01*
X110987833Y-94318615D01*
X110987835Y-94318616D01*
X111159973Y-94433635D01*
X111306365Y-94580027D01*
X111409345Y-94734147D01*
X111421385Y-94752167D01*
X111500611Y-94943436D01*
X111541000Y-95146484D01*
X111541000Y-95353516D01*
X111500611Y-95556564D01*
X111451891Y-95674184D01*
X111421384Y-95747835D01*
X111306365Y-95919973D01*
X111159973Y-96066365D01*
X110987835Y-96181384D01*
X110987834Y-96181385D01*
X110987833Y-96181385D01*
X110796564Y-96260611D01*
X110593516Y-96301000D01*
X110386484Y-96301000D01*
X110183436Y-96260611D01*
X109992167Y-96181385D01*
X109992166Y-96181385D01*
X109992165Y-96181384D01*
X109820027Y-96066365D01*
X109673635Y-95919973D01*
X109558616Y-95747835D01*
X109528109Y-95674184D01*
X109479389Y-95556564D01*
X109439000Y-95353516D01*
X109439000Y-95146484D01*
X109479389Y-94943436D01*
X109558615Y-94752167D01*
X109570656Y-94734147D01*
X109673635Y-94580027D01*
X109820027Y-94433635D01*
X109992165Y-94318616D01*
X109992167Y-94318615D01*
X110183436Y-94239389D01*
X110386484Y-94199000D01*
X110593516Y-94199000D01*
X110796564Y-94239389D01*
G37*
G36*
X108256564Y-94239389D02*
G01*
X108447833Y-94318615D01*
X108447835Y-94318616D01*
X108619973Y-94433635D01*
X108766365Y-94580027D01*
X108869345Y-94734147D01*
X108881385Y-94752167D01*
X108960611Y-94943436D01*
X109001000Y-95146484D01*
X109001000Y-95353516D01*
X108960611Y-95556564D01*
X108911891Y-95674184D01*
X108881384Y-95747835D01*
X108766365Y-95919973D01*
X108619973Y-96066365D01*
X108447835Y-96181384D01*
X108447834Y-96181385D01*
X108447833Y-96181385D01*
X108256564Y-96260611D01*
X108053516Y-96301000D01*
X107846484Y-96301000D01*
X107643436Y-96260611D01*
X107452167Y-96181385D01*
X107452166Y-96181385D01*
X107452165Y-96181384D01*
X107280027Y-96066365D01*
X107133635Y-95919973D01*
X107018616Y-95747835D01*
X106988109Y-95674184D01*
X106939389Y-95556564D01*
X106899000Y-95353516D01*
X106899000Y-95146484D01*
X106939389Y-94943436D01*
X107018615Y-94752167D01*
X107030656Y-94734147D01*
X107133635Y-94580027D01*
X107280027Y-94433635D01*
X107452165Y-94318616D01*
X107452167Y-94318615D01*
X107643436Y-94239389D01*
X107846484Y-94199000D01*
X108053516Y-94199000D01*
X108256564Y-94239389D01*
G37*
G36*
X105716564Y-94239389D02*
G01*
X105907833Y-94318615D01*
X105907835Y-94318616D01*
X106079973Y-94433635D01*
X106226365Y-94580027D01*
X106329345Y-94734147D01*
X106341385Y-94752167D01*
X106420611Y-94943436D01*
X106461000Y-95146484D01*
X106461000Y-95353516D01*
X106420611Y-95556564D01*
X106371891Y-95674184D01*
X106341384Y-95747835D01*
X106226365Y-95919973D01*
X106079973Y-96066365D01*
X105907835Y-96181384D01*
X105907834Y-96181385D01*
X105907833Y-96181385D01*
X105716564Y-96260611D01*
X105513516Y-96301000D01*
X105306484Y-96301000D01*
X105103436Y-96260611D01*
X104912167Y-96181385D01*
X104912166Y-96181385D01*
X104912165Y-96181384D01*
X104740027Y-96066365D01*
X104593635Y-95919973D01*
X104478616Y-95747835D01*
X104448109Y-95674184D01*
X104399389Y-95556564D01*
X104359000Y-95353516D01*
X104359000Y-95146484D01*
X104399389Y-94943436D01*
X104478615Y-94752167D01*
X104490656Y-94734147D01*
X104593635Y-94580027D01*
X104740027Y-94433635D01*
X104912165Y-94318616D01*
X104912167Y-94318615D01*
X105103436Y-94239389D01*
X105306484Y-94199000D01*
X105513516Y-94199000D01*
X105716564Y-94239389D01*
G37*
G36*
X101381000Y-96301000D02*
G01*
X99279000Y-96301000D01*
X99279000Y-94199000D01*
X101381000Y-94199000D01*
X101381000Y-96301000D01*
G37*
G36*
X90926228Y-94431703D02*
G01*
X91081100Y-94495853D01*
X91220481Y-94588985D01*
X91339015Y-94707519D01*
X91432147Y-94846900D01*
X91496297Y-95001772D01*
X91529000Y-95166184D01*
X91529000Y-95333816D01*
X91496297Y-95498228D01*
X91432147Y-95653100D01*
X91339015Y-95792481D01*
X91220481Y-95911015D01*
X91081100Y-96004147D01*
X90926228Y-96068297D01*
X90761816Y-96101000D01*
X90594184Y-96101000D01*
X90429772Y-96068297D01*
X90274900Y-96004147D01*
X90135519Y-95911015D01*
X90016985Y-95792481D01*
X89923853Y-95653100D01*
X89859703Y-95498228D01*
X89827000Y-95333816D01*
X89827000Y-95166184D01*
X89859703Y-95001772D01*
X89923853Y-94846900D01*
X90016985Y-94707519D01*
X90135519Y-94588985D01*
X90274900Y-94495853D01*
X90429772Y-94431703D01*
X90594184Y-94399000D01*
X90761816Y-94399000D01*
X90926228Y-94431703D01*
G37*
G36*
X75686228Y-94431703D02*
G01*
X75841100Y-94495853D01*
X75980481Y-94588985D01*
X76099015Y-94707519D01*
X76192147Y-94846900D01*
X76256297Y-95001772D01*
X76289000Y-95166184D01*
X76289000Y-95333816D01*
X76256297Y-95498228D01*
X76192147Y-95653100D01*
X76099015Y-95792481D01*
X75980481Y-95911015D01*
X75841100Y-96004147D01*
X75686228Y-96068297D01*
X75521816Y-96101000D01*
X75354184Y-96101000D01*
X75189772Y-96068297D01*
X75034900Y-96004147D01*
X74895519Y-95911015D01*
X74776985Y-95792481D01*
X74683853Y-95653100D01*
X74619703Y-95498228D01*
X74587000Y-95333816D01*
X74587000Y-95166184D01*
X74619703Y-95001772D01*
X74683853Y-94846900D01*
X74776985Y-94707519D01*
X74895519Y-94588985D01*
X75034900Y-94495853D01*
X75189772Y-94431703D01*
X75354184Y-94399000D01*
X75521816Y-94399000D01*
X75686228Y-94431703D01*
G37*
G36*
X120898228Y-93161703D02*
G01*
X121053100Y-93225853D01*
X121192481Y-93318985D01*
X121311015Y-93437519D01*
X121404147Y-93576900D01*
X121468297Y-93731772D01*
X121501000Y-93896184D01*
X121501000Y-94063816D01*
X121468297Y-94228228D01*
X121404147Y-94383100D01*
X121311015Y-94522481D01*
X121192481Y-94641015D01*
X121053100Y-94734147D01*
X120898228Y-94798297D01*
X120733816Y-94831000D01*
X120566184Y-94831000D01*
X120401772Y-94798297D01*
X120246900Y-94734147D01*
X120107519Y-94641015D01*
X119988985Y-94522481D01*
X119895853Y-94383100D01*
X119831703Y-94228228D01*
X119799000Y-94063816D01*
X119799000Y-93896184D01*
X119831703Y-93731772D01*
X119895853Y-93576900D01*
X119988985Y-93437519D01*
X120107519Y-93318985D01*
X120246900Y-93225853D01*
X120401772Y-93161703D01*
X120566184Y-93129000D01*
X120733816Y-93129000D01*
X120898228Y-93161703D01*
G37*
G36*
X56890228Y-92399703D02*
G01*
X57045100Y-92463853D01*
X57184481Y-92556985D01*
X57303015Y-92675519D01*
X57396147Y-92814900D01*
X57460297Y-92969772D01*
X57493000Y-93134184D01*
X57493000Y-93301816D01*
X57460297Y-93466228D01*
X57396147Y-93621100D01*
X57303015Y-93760481D01*
X57184481Y-93879015D01*
X57045100Y-93972147D01*
X56890228Y-94036297D01*
X56725816Y-94069000D01*
X56558184Y-94069000D01*
X56393772Y-94036297D01*
X56238900Y-93972147D01*
X56099519Y-93879015D01*
X55980985Y-93760481D01*
X55887853Y-93621100D01*
X55823703Y-93466228D01*
X55791000Y-93301816D01*
X55791000Y-93134184D01*
X55823703Y-92969772D01*
X55887853Y-92814900D01*
X55980985Y-92675519D01*
X56099519Y-92556985D01*
X56238900Y-92463853D01*
X56393772Y-92399703D01*
X56558184Y-92367000D01*
X56725816Y-92367000D01*
X56890228Y-92399703D01*
G37*
G36*
X67050228Y-92399703D02*
G01*
X67205100Y-92463853D01*
X67344481Y-92556985D01*
X67463015Y-92675519D01*
X67556147Y-92814900D01*
X67620297Y-92969772D01*
X67653000Y-93134184D01*
X67653000Y-93301816D01*
X67620297Y-93466228D01*
X67556147Y-93621100D01*
X67463015Y-93760481D01*
X67344481Y-93879015D01*
X67205100Y-93972147D01*
X67050228Y-94036297D01*
X66885816Y-94069000D01*
X66718184Y-94069000D01*
X66553772Y-94036297D01*
X66398900Y-93972147D01*
X66259519Y-93879015D01*
X66140985Y-93760481D01*
X66047853Y-93621100D01*
X65983703Y-93466228D01*
X65951000Y-93301816D01*
X65951000Y-93134184D01*
X65983703Y-92969772D01*
X66047853Y-92814900D01*
X66140985Y-92675519D01*
X66259519Y-92556985D01*
X66398900Y-92463853D01*
X66553772Y-92399703D01*
X66718184Y-92367000D01*
X66885816Y-92367000D01*
X67050228Y-92399703D01*
G37*
G36*
X75686228Y-91891703D02*
G01*
X75841100Y-91955853D01*
X75980481Y-92048985D01*
X76099015Y-92167519D01*
X76192147Y-92306900D01*
X76256297Y-92461772D01*
X76289000Y-92626184D01*
X76289000Y-92793816D01*
X76256297Y-92958228D01*
X76192147Y-93113100D01*
X76099015Y-93252481D01*
X75980481Y-93371015D01*
X75841100Y-93464147D01*
X75686228Y-93528297D01*
X75521816Y-93561000D01*
X75354184Y-93561000D01*
X75189772Y-93528297D01*
X75034900Y-93464147D01*
X74895519Y-93371015D01*
X74776985Y-93252481D01*
X74683853Y-93113100D01*
X74619703Y-92958228D01*
X74587000Y-92793816D01*
X74587000Y-92626184D01*
X74619703Y-92461772D01*
X74683853Y-92306900D01*
X74776985Y-92167519D01*
X74895519Y-92048985D01*
X75034900Y-91955853D01*
X75189772Y-91891703D01*
X75354184Y-91859000D01*
X75521816Y-91859000D01*
X75686228Y-91891703D01*
G37*
G36*
X90926228Y-91891703D02*
G01*
X91081100Y-91955853D01*
X91220481Y-92048985D01*
X91339015Y-92167519D01*
X91432147Y-92306900D01*
X91496297Y-92461772D01*
X91529000Y-92626184D01*
X91529000Y-92793816D01*
X91496297Y-92958228D01*
X91432147Y-93113100D01*
X91339015Y-93252481D01*
X91220481Y-93371015D01*
X91081100Y-93464147D01*
X90926228Y-93528297D01*
X90761816Y-93561000D01*
X90594184Y-93561000D01*
X90429772Y-93528297D01*
X90274900Y-93464147D01*
X90135519Y-93371015D01*
X90016985Y-93252481D01*
X89923853Y-93113100D01*
X89859703Y-92958228D01*
X89827000Y-92793816D01*
X89827000Y-92626184D01*
X89859703Y-92461772D01*
X89923853Y-92306900D01*
X90016985Y-92167519D01*
X90135519Y-92048985D01*
X90274900Y-91955853D01*
X90429772Y-91891703D01*
X90594184Y-91859000D01*
X90761816Y-91859000D01*
X90926228Y-91891703D01*
G37*
G36*
X139581000Y-92591000D02*
G01*
X137279000Y-92591000D01*
X137279000Y-90289000D01*
X139581000Y-90289000D01*
X139581000Y-92591000D01*
G37*
G36*
X133656564Y-89159389D02*
G01*
X133847833Y-89238615D01*
X133847835Y-89238616D01*
X133854396Y-89243000D01*
X134019973Y-89353635D01*
X134166365Y-89500027D01*
X134281385Y-89672167D01*
X134360611Y-89863436D01*
X134401000Y-90066484D01*
X134401000Y-90273516D01*
X134360611Y-90476564D01*
X134281385Y-90667833D01*
X134281384Y-90667835D01*
X134166365Y-90839973D01*
X134019973Y-90986365D01*
X133847835Y-91101384D01*
X133847834Y-91101385D01*
X133847833Y-91101385D01*
X133656564Y-91180611D01*
X133453516Y-91221000D01*
X133246484Y-91221000D01*
X133043436Y-91180611D01*
X132852167Y-91101385D01*
X132852166Y-91101385D01*
X132852165Y-91101384D01*
X132680027Y-90986365D01*
X132533635Y-90839973D01*
X132418616Y-90667835D01*
X132418615Y-90667833D01*
X132339389Y-90476564D01*
X132299000Y-90273516D01*
X132299000Y-90066484D01*
X132339389Y-89863436D01*
X132418615Y-89672167D01*
X132533635Y-89500027D01*
X132680027Y-89353635D01*
X132845604Y-89243000D01*
X132852165Y-89238616D01*
X132852167Y-89238615D01*
X133043436Y-89159389D01*
X133246484Y-89119000D01*
X133453516Y-89119000D01*
X133656564Y-89159389D01*
G37*
G36*
X108256564Y-89159389D02*
G01*
X108447833Y-89238615D01*
X108447835Y-89238616D01*
X108454396Y-89243000D01*
X108619973Y-89353635D01*
X108766365Y-89500027D01*
X108881385Y-89672167D01*
X108960611Y-89863436D01*
X109001000Y-90066484D01*
X109001000Y-90273516D01*
X108960611Y-90476564D01*
X108881385Y-90667833D01*
X108881384Y-90667835D01*
X108766365Y-90839973D01*
X108619973Y-90986365D01*
X108447835Y-91101384D01*
X108447834Y-91101385D01*
X108447833Y-91101385D01*
X108256564Y-91180611D01*
X108053516Y-91221000D01*
X107846484Y-91221000D01*
X107643436Y-91180611D01*
X107452167Y-91101385D01*
X107452166Y-91101385D01*
X107452165Y-91101384D01*
X107280027Y-90986365D01*
X107133635Y-90839973D01*
X107018616Y-90667835D01*
X107018615Y-90667833D01*
X106939389Y-90476564D01*
X106899000Y-90273516D01*
X106899000Y-90066484D01*
X106939389Y-89863436D01*
X107018615Y-89672167D01*
X107133635Y-89500027D01*
X107280027Y-89353635D01*
X107445604Y-89243000D01*
X107452165Y-89238616D01*
X107452167Y-89238615D01*
X107643436Y-89159389D01*
X107846484Y-89119000D01*
X108053516Y-89119000D01*
X108256564Y-89159389D01*
G37*
G36*
X126156564Y-89159389D02*
G01*
X126347833Y-89238615D01*
X126347835Y-89238616D01*
X126354396Y-89243000D01*
X126519973Y-89353635D01*
X126666365Y-89500027D01*
X126781385Y-89672167D01*
X126860611Y-89863436D01*
X126901000Y-90066484D01*
X126901000Y-90273516D01*
X126860611Y-90476564D01*
X126781385Y-90667833D01*
X126781384Y-90667835D01*
X126666365Y-90839973D01*
X126519973Y-90986365D01*
X126347835Y-91101384D01*
X126347834Y-91101385D01*
X126347833Y-91101385D01*
X126156564Y-91180611D01*
X125953516Y-91221000D01*
X125746484Y-91221000D01*
X125543436Y-91180611D01*
X125352167Y-91101385D01*
X125352166Y-91101385D01*
X125352165Y-91101384D01*
X125180027Y-90986365D01*
X125033635Y-90839973D01*
X124918616Y-90667835D01*
X124918615Y-90667833D01*
X124839389Y-90476564D01*
X124799000Y-90273516D01*
X124799000Y-90066484D01*
X124839389Y-89863436D01*
X124918615Y-89672167D01*
X125033635Y-89500027D01*
X125180027Y-89353635D01*
X125345604Y-89243000D01*
X125352165Y-89238616D01*
X125352167Y-89238615D01*
X125543436Y-89159389D01*
X125746484Y-89119000D01*
X125953516Y-89119000D01*
X126156564Y-89159389D01*
G37*
G36*
X110796564Y-89159389D02*
G01*
X110987833Y-89238615D01*
X110987835Y-89238616D01*
X110994396Y-89243000D01*
X111159973Y-89353635D01*
X111306365Y-89500027D01*
X111421385Y-89672167D01*
X111500611Y-89863436D01*
X111541000Y-90066484D01*
X111541000Y-90273516D01*
X111500611Y-90476564D01*
X111421385Y-90667833D01*
X111421384Y-90667835D01*
X111306365Y-90839973D01*
X111159973Y-90986365D01*
X110987835Y-91101384D01*
X110987834Y-91101385D01*
X110987833Y-91101385D01*
X110796564Y-91180611D01*
X110593516Y-91221000D01*
X110386484Y-91221000D01*
X110183436Y-91180611D01*
X109992167Y-91101385D01*
X109992166Y-91101385D01*
X109992165Y-91101384D01*
X109820027Y-90986365D01*
X109673635Y-90839973D01*
X109558616Y-90667835D01*
X109558615Y-90667833D01*
X109479389Y-90476564D01*
X109439000Y-90273516D01*
X109439000Y-90066484D01*
X109479389Y-89863436D01*
X109558615Y-89672167D01*
X109673635Y-89500027D01*
X109820027Y-89353635D01*
X109985604Y-89243000D01*
X109992165Y-89238616D01*
X109992167Y-89238615D01*
X110183436Y-89159389D01*
X110386484Y-89119000D01*
X110593516Y-89119000D01*
X110796564Y-89159389D01*
G37*
G36*
X105716564Y-89159389D02*
G01*
X105907833Y-89238615D01*
X105907835Y-89238616D01*
X105914396Y-89243000D01*
X106079973Y-89353635D01*
X106226365Y-89500027D01*
X106341385Y-89672167D01*
X106420611Y-89863436D01*
X106461000Y-90066484D01*
X106461000Y-90273516D01*
X106420611Y-90476564D01*
X106341385Y-90667833D01*
X106341384Y-90667835D01*
X106226365Y-90839973D01*
X106079973Y-90986365D01*
X105907835Y-91101384D01*
X105907834Y-91101385D01*
X105907833Y-91101385D01*
X105716564Y-91180611D01*
X105513516Y-91221000D01*
X105306484Y-91221000D01*
X105103436Y-91180611D01*
X104912167Y-91101385D01*
X104912166Y-91101385D01*
X104912165Y-91101384D01*
X104740027Y-90986365D01*
X104593635Y-90839973D01*
X104478616Y-90667835D01*
X104478615Y-90667833D01*
X104399389Y-90476564D01*
X104359000Y-90273516D01*
X104359000Y-90066484D01*
X104399389Y-89863436D01*
X104478615Y-89672167D01*
X104593635Y-89500027D01*
X104740027Y-89353635D01*
X104905604Y-89243000D01*
X104912165Y-89238616D01*
X104912167Y-89238615D01*
X105103436Y-89159389D01*
X105306484Y-89119000D01*
X105513516Y-89119000D01*
X105716564Y-89159389D01*
G37*
G36*
X100636564Y-89159389D02*
G01*
X100827833Y-89238615D01*
X100827835Y-89238616D01*
X100834396Y-89243000D01*
X100999973Y-89353635D01*
X101146365Y-89500027D01*
X101261385Y-89672167D01*
X101340611Y-89863436D01*
X101381000Y-90066484D01*
X101381000Y-90273516D01*
X101340611Y-90476564D01*
X101261385Y-90667833D01*
X101261384Y-90667835D01*
X101146365Y-90839973D01*
X100999973Y-90986365D01*
X100827835Y-91101384D01*
X100827834Y-91101385D01*
X100827833Y-91101385D01*
X100636564Y-91180611D01*
X100433516Y-91221000D01*
X100226484Y-91221000D01*
X100023436Y-91180611D01*
X99832167Y-91101385D01*
X99832166Y-91101385D01*
X99832165Y-91101384D01*
X99660027Y-90986365D01*
X99513635Y-90839973D01*
X99398616Y-90667835D01*
X99398615Y-90667833D01*
X99319389Y-90476564D01*
X99279000Y-90273516D01*
X99279000Y-90066484D01*
X99319389Y-89863436D01*
X99398615Y-89672167D01*
X99513635Y-89500027D01*
X99660027Y-89353635D01*
X99825604Y-89243000D01*
X99832165Y-89238616D01*
X99832167Y-89238615D01*
X100023436Y-89159389D01*
X100226484Y-89119000D01*
X100433516Y-89119000D01*
X100636564Y-89159389D01*
G37*
G36*
X75686228Y-89351703D02*
G01*
X75841100Y-89415853D01*
X75980481Y-89508985D01*
X76099015Y-89627519D01*
X76192147Y-89766900D01*
X76256297Y-89921772D01*
X76289000Y-90086184D01*
X76289000Y-90253816D01*
X76256297Y-90418228D01*
X76192147Y-90573100D01*
X76099015Y-90712481D01*
X75980481Y-90831015D01*
X75841100Y-90924147D01*
X75686228Y-90988297D01*
X75521816Y-91021000D01*
X75354184Y-91021000D01*
X75189772Y-90988297D01*
X75034900Y-90924147D01*
X74895519Y-90831015D01*
X74776985Y-90712481D01*
X74683853Y-90573100D01*
X74619703Y-90418228D01*
X74587000Y-90253816D01*
X74587000Y-90086184D01*
X74619703Y-89921772D01*
X74683853Y-89766900D01*
X74776985Y-89627519D01*
X74895519Y-89508985D01*
X75034900Y-89415853D01*
X75189772Y-89351703D01*
X75354184Y-89319000D01*
X75521816Y-89319000D01*
X75686228Y-89351703D01*
G37*
G36*
X90926228Y-89351703D02*
G01*
X91081100Y-89415853D01*
X91220481Y-89508985D01*
X91339015Y-89627519D01*
X91432147Y-89766900D01*
X91496297Y-89921772D01*
X91529000Y-90086184D01*
X91529000Y-90253816D01*
X91496297Y-90418228D01*
X91432147Y-90573100D01*
X91339015Y-90712481D01*
X91220481Y-90831015D01*
X91081100Y-90924147D01*
X90926228Y-90988297D01*
X90761816Y-91021000D01*
X90594184Y-91021000D01*
X90429772Y-90988297D01*
X90274900Y-90924147D01*
X90135519Y-90831015D01*
X90016985Y-90712481D01*
X89923853Y-90573100D01*
X89859703Y-90418228D01*
X89827000Y-90253816D01*
X89827000Y-90086184D01*
X89859703Y-89921772D01*
X89923853Y-89766900D01*
X90016985Y-89627519D01*
X90135519Y-89508985D01*
X90274900Y-89415853D01*
X90429772Y-89351703D01*
X90594184Y-89319000D01*
X90761816Y-89319000D01*
X90926228Y-89351703D01*
G37*
G36*
X59684228Y-87827703D02*
G01*
X59839100Y-87891853D01*
X59978481Y-87984985D01*
X60097015Y-88103519D01*
X60190147Y-88242900D01*
X60254297Y-88397772D01*
X60287000Y-88562184D01*
X60287000Y-88729816D01*
X60254297Y-88894228D01*
X60190147Y-89049100D01*
X60097015Y-89188481D01*
X59978481Y-89307015D01*
X59839100Y-89400147D01*
X59684228Y-89464297D01*
X59519816Y-89497000D01*
X59352184Y-89497000D01*
X59187772Y-89464297D01*
X59032900Y-89400147D01*
X58893519Y-89307015D01*
X58774985Y-89188481D01*
X58681853Y-89049100D01*
X58617703Y-88894228D01*
X58585000Y-88729816D01*
X58585000Y-88562184D01*
X58617703Y-88397772D01*
X58681853Y-88242900D01*
X58774985Y-88103519D01*
X58893519Y-87984985D01*
X59032900Y-87891853D01*
X59187772Y-87827703D01*
X59352184Y-87795000D01*
X59519816Y-87795000D01*
X59684228Y-87827703D01*
G37*
G36*
X69844228Y-87827703D02*
G01*
X69999100Y-87891853D01*
X70138481Y-87984985D01*
X70257015Y-88103519D01*
X70350147Y-88242900D01*
X70414297Y-88397772D01*
X70447000Y-88562184D01*
X70447000Y-88729816D01*
X70414297Y-88894228D01*
X70350147Y-89049100D01*
X70257015Y-89188481D01*
X70138481Y-89307015D01*
X69999100Y-89400147D01*
X69844228Y-89464297D01*
X69679816Y-89497000D01*
X69512184Y-89497000D01*
X69347772Y-89464297D01*
X69192900Y-89400147D01*
X69053519Y-89307015D01*
X68934985Y-89188481D01*
X68841853Y-89049100D01*
X68777703Y-88894228D01*
X68745000Y-88729816D01*
X68745000Y-88562184D01*
X68777703Y-88397772D01*
X68841853Y-88242900D01*
X68934985Y-88103519D01*
X69053519Y-87984985D01*
X69192900Y-87891853D01*
X69347772Y-87827703D01*
X69512184Y-87795000D01*
X69679816Y-87795000D01*
X69844228Y-87827703D01*
G37*
G36*
X41396228Y-87573703D02*
G01*
X41551100Y-87637853D01*
X41690481Y-87730985D01*
X41809015Y-87849519D01*
X41902147Y-87988900D01*
X41966297Y-88143772D01*
X41999000Y-88308184D01*
X41999000Y-88475816D01*
X41966297Y-88640228D01*
X41902147Y-88795100D01*
X41809015Y-88934481D01*
X41690481Y-89053015D01*
X41551100Y-89146147D01*
X41396228Y-89210297D01*
X41231816Y-89243000D01*
X41064184Y-89243000D01*
X40899772Y-89210297D01*
X40744900Y-89146147D01*
X40605519Y-89053015D01*
X40486985Y-88934481D01*
X40393853Y-88795100D01*
X40329703Y-88640228D01*
X40297000Y-88475816D01*
X40297000Y-88308184D01*
X40329703Y-88143772D01*
X40393853Y-87988900D01*
X40486985Y-87849519D01*
X40605519Y-87730985D01*
X40744900Y-87637853D01*
X40899772Y-87573703D01*
X41064184Y-87541000D01*
X41231816Y-87541000D01*
X41396228Y-87573703D01*
G37*
G36*
X38856228Y-87573703D02*
G01*
X39011100Y-87637853D01*
X39150481Y-87730985D01*
X39269015Y-87849519D01*
X39362147Y-87988900D01*
X39426297Y-88143772D01*
X39459000Y-88308184D01*
X39459000Y-88475816D01*
X39426297Y-88640228D01*
X39362147Y-88795100D01*
X39269015Y-88934481D01*
X39150481Y-89053015D01*
X39011100Y-89146147D01*
X38856228Y-89210297D01*
X38691816Y-89243000D01*
X38524184Y-89243000D01*
X38359772Y-89210297D01*
X38204900Y-89146147D01*
X38065519Y-89053015D01*
X37946985Y-88934481D01*
X37853853Y-88795100D01*
X37789703Y-88640228D01*
X37757000Y-88475816D01*
X37757000Y-88308184D01*
X37789703Y-88143772D01*
X37853853Y-87988900D01*
X37946985Y-87849519D01*
X38065519Y-87730985D01*
X38204900Y-87637853D01*
X38359772Y-87573703D01*
X38524184Y-87541000D01*
X38691816Y-87541000D01*
X38856228Y-87573703D01*
G37*
G36*
X43936228Y-87573703D02*
G01*
X44091100Y-87637853D01*
X44230481Y-87730985D01*
X44349015Y-87849519D01*
X44442147Y-87988900D01*
X44506297Y-88143772D01*
X44539000Y-88308184D01*
X44539000Y-88475816D01*
X44506297Y-88640228D01*
X44442147Y-88795100D01*
X44349015Y-88934481D01*
X44230481Y-89053015D01*
X44091100Y-89146147D01*
X43936228Y-89210297D01*
X43771816Y-89243000D01*
X43604184Y-89243000D01*
X43439772Y-89210297D01*
X43284900Y-89146147D01*
X43145519Y-89053015D01*
X43026985Y-88934481D01*
X42933853Y-88795100D01*
X42869703Y-88640228D01*
X42837000Y-88475816D01*
X42837000Y-88308184D01*
X42869703Y-88143772D01*
X42933853Y-87988900D01*
X43026985Y-87849519D01*
X43145519Y-87730985D01*
X43284900Y-87637853D01*
X43439772Y-87573703D01*
X43604184Y-87541000D01*
X43771816Y-87541000D01*
X43936228Y-87573703D01*
G37*
G36*
X46476228Y-87573703D02*
G01*
X46631100Y-87637853D01*
X46770481Y-87730985D01*
X46889015Y-87849519D01*
X46982147Y-87988900D01*
X47046297Y-88143772D01*
X47079000Y-88308184D01*
X47079000Y-88475816D01*
X47046297Y-88640228D01*
X46982147Y-88795100D01*
X46889015Y-88934481D01*
X46770481Y-89053015D01*
X46631100Y-89146147D01*
X46476228Y-89210297D01*
X46311816Y-89243000D01*
X46144184Y-89243000D01*
X45979772Y-89210297D01*
X45824900Y-89146147D01*
X45685519Y-89053015D01*
X45566985Y-88934481D01*
X45473853Y-88795100D01*
X45409703Y-88640228D01*
X45377000Y-88475816D01*
X45377000Y-88308184D01*
X45409703Y-88143772D01*
X45473853Y-87988900D01*
X45566985Y-87849519D01*
X45685519Y-87730985D01*
X45824900Y-87637853D01*
X45979772Y-87573703D01*
X46144184Y-87541000D01*
X46311816Y-87541000D01*
X46476228Y-87573703D01*
G37*
G36*
X36316228Y-87573703D02*
G01*
X36471100Y-87637853D01*
X36610481Y-87730985D01*
X36729015Y-87849519D01*
X36822147Y-87988900D01*
X36886297Y-88143772D01*
X36919000Y-88308184D01*
X36919000Y-88475816D01*
X36886297Y-88640228D01*
X36822147Y-88795100D01*
X36729015Y-88934481D01*
X36610481Y-89053015D01*
X36471100Y-89146147D01*
X36316228Y-89210297D01*
X36151816Y-89243000D01*
X35984184Y-89243000D01*
X35819772Y-89210297D01*
X35664900Y-89146147D01*
X35525519Y-89053015D01*
X35406985Y-88934481D01*
X35313853Y-88795100D01*
X35249703Y-88640228D01*
X35217000Y-88475816D01*
X35217000Y-88308184D01*
X35249703Y-88143772D01*
X35313853Y-87988900D01*
X35406985Y-87849519D01*
X35525519Y-87730985D01*
X35664900Y-87637853D01*
X35819772Y-87573703D01*
X35984184Y-87541000D01*
X36151816Y-87541000D01*
X36316228Y-87573703D01*
G37*
G36*
X34379000Y-89243000D02*
G01*
X32677000Y-89243000D01*
X32677000Y-87541000D01*
X34379000Y-87541000D01*
X34379000Y-89243000D01*
G37*
G36*
X51556228Y-87573703D02*
G01*
X51711100Y-87637853D01*
X51850481Y-87730985D01*
X51969015Y-87849519D01*
X52062147Y-87988900D01*
X52126297Y-88143772D01*
X52159000Y-88308184D01*
X52159000Y-88475816D01*
X52126297Y-88640228D01*
X52062147Y-88795100D01*
X51969015Y-88934481D01*
X51850481Y-89053015D01*
X51711100Y-89146147D01*
X51556228Y-89210297D01*
X51391816Y-89243000D01*
X51224184Y-89243000D01*
X51059772Y-89210297D01*
X50904900Y-89146147D01*
X50765519Y-89053015D01*
X50646985Y-88934481D01*
X50553853Y-88795100D01*
X50489703Y-88640228D01*
X50457000Y-88475816D01*
X50457000Y-88308184D01*
X50489703Y-88143772D01*
X50553853Y-87988900D01*
X50646985Y-87849519D01*
X50765519Y-87730985D01*
X50904900Y-87637853D01*
X51059772Y-87573703D01*
X51224184Y-87541000D01*
X51391816Y-87541000D01*
X51556228Y-87573703D01*
G37*
G36*
X49016228Y-87573703D02*
G01*
X49171100Y-87637853D01*
X49310481Y-87730985D01*
X49429015Y-87849519D01*
X49522147Y-87988900D01*
X49586297Y-88143772D01*
X49619000Y-88308184D01*
X49619000Y-88475816D01*
X49586297Y-88640228D01*
X49522147Y-88795100D01*
X49429015Y-88934481D01*
X49310481Y-89053015D01*
X49171100Y-89146147D01*
X49016228Y-89210297D01*
X48851816Y-89243000D01*
X48684184Y-89243000D01*
X48519772Y-89210297D01*
X48364900Y-89146147D01*
X48225519Y-89053015D01*
X48106985Y-88934481D01*
X48013853Y-88795100D01*
X47949703Y-88640228D01*
X47917000Y-88475816D01*
X47917000Y-88308184D01*
X47949703Y-88143772D01*
X48013853Y-87988900D01*
X48106985Y-87849519D01*
X48225519Y-87730985D01*
X48364900Y-87637853D01*
X48519772Y-87573703D01*
X48684184Y-87541000D01*
X48851816Y-87541000D01*
X49016228Y-87573703D01*
G37*
G36*
X75686228Y-86811703D02*
G01*
X75841100Y-86875853D01*
X75980481Y-86968985D01*
X76099015Y-87087519D01*
X76192147Y-87226900D01*
X76256297Y-87381772D01*
X76289000Y-87546184D01*
X76289000Y-87713816D01*
X76256297Y-87878228D01*
X76192147Y-88033100D01*
X76099015Y-88172481D01*
X75980481Y-88291015D01*
X75841100Y-88384147D01*
X75686228Y-88448297D01*
X75521816Y-88481000D01*
X75354184Y-88481000D01*
X75189772Y-88448297D01*
X75034900Y-88384147D01*
X74895519Y-88291015D01*
X74776985Y-88172481D01*
X74683853Y-88033100D01*
X74619703Y-87878228D01*
X74587000Y-87713816D01*
X74587000Y-87546184D01*
X74619703Y-87381772D01*
X74683853Y-87226900D01*
X74776985Y-87087519D01*
X74895519Y-86968985D01*
X75034900Y-86875853D01*
X75189772Y-86811703D01*
X75354184Y-86779000D01*
X75521816Y-86779000D01*
X75686228Y-86811703D01*
G37*
G36*
X90926228Y-86811703D02*
G01*
X91081100Y-86875853D01*
X91220481Y-86968985D01*
X91339015Y-87087519D01*
X91432147Y-87226900D01*
X91496297Y-87381772D01*
X91529000Y-87546184D01*
X91529000Y-87713816D01*
X91496297Y-87878228D01*
X91432147Y-88033100D01*
X91339015Y-88172481D01*
X91220481Y-88291015D01*
X91081100Y-88384147D01*
X90926228Y-88448297D01*
X90761816Y-88481000D01*
X90594184Y-88481000D01*
X90429772Y-88448297D01*
X90274900Y-88384147D01*
X90135519Y-88291015D01*
X90016985Y-88172481D01*
X89923853Y-88033100D01*
X89859703Y-87878228D01*
X89827000Y-87713816D01*
X89827000Y-87546184D01*
X89859703Y-87381772D01*
X89923853Y-87226900D01*
X90016985Y-87087519D01*
X90135519Y-86968985D01*
X90274900Y-86875853D01*
X90429772Y-86811703D01*
X90594184Y-86779000D01*
X90761816Y-86779000D01*
X90926228Y-86811703D01*
G37*
G36*
X96909000Y-87511000D02*
G01*
X94607000Y-87511000D01*
X94607000Y-85209000D01*
X96909000Y-85209000D01*
X96909000Y-87511000D01*
G37*
G36*
X75686228Y-84271703D02*
G01*
X75841100Y-84335853D01*
X75980481Y-84428985D01*
X76099015Y-84547519D01*
X76192147Y-84686900D01*
X76256297Y-84841772D01*
X76289000Y-85006184D01*
X76289000Y-85173816D01*
X76256297Y-85338228D01*
X76192147Y-85493100D01*
X76099015Y-85632481D01*
X75980481Y-85751015D01*
X75841100Y-85844147D01*
X75686228Y-85908297D01*
X75521816Y-85941000D01*
X75354184Y-85941000D01*
X75189772Y-85908297D01*
X75034900Y-85844147D01*
X74895519Y-85751015D01*
X74776985Y-85632481D01*
X74683853Y-85493100D01*
X74619703Y-85338228D01*
X74587000Y-85173816D01*
X74587000Y-85006184D01*
X74619703Y-84841772D01*
X74683853Y-84686900D01*
X74776985Y-84547519D01*
X74895519Y-84428985D01*
X75034900Y-84335853D01*
X75189772Y-84271703D01*
X75354184Y-84239000D01*
X75521816Y-84239000D01*
X75686228Y-84271703D01*
G37*
G36*
X90926228Y-84271703D02*
G01*
X91081100Y-84335853D01*
X91220481Y-84428985D01*
X91339015Y-84547519D01*
X91432147Y-84686900D01*
X91496297Y-84841772D01*
X91529000Y-85006184D01*
X91529000Y-85173816D01*
X91496297Y-85338228D01*
X91432147Y-85493100D01*
X91339015Y-85632481D01*
X91220481Y-85751015D01*
X91081100Y-85844147D01*
X90926228Y-85908297D01*
X90761816Y-85941000D01*
X90594184Y-85941000D01*
X90429772Y-85908297D01*
X90274900Y-85844147D01*
X90135519Y-85751015D01*
X90016985Y-85632481D01*
X89923853Y-85493100D01*
X89859703Y-85338228D01*
X89827000Y-85173816D01*
X89827000Y-85006184D01*
X89859703Y-84841772D01*
X89923853Y-84686900D01*
X90016985Y-84547519D01*
X90135519Y-84428985D01*
X90274900Y-84335853D01*
X90429772Y-84271703D01*
X90594184Y-84239000D01*
X90761816Y-84239000D01*
X90926228Y-84271703D01*
G37*
G36*
X102995589Y-84328876D02*
G01*
X103094893Y-84348629D01*
X103235206Y-84406748D01*
X103361484Y-84491125D01*
X103468875Y-84598516D01*
X103553252Y-84724794D01*
X103611371Y-84865107D01*
X103641000Y-85014063D01*
X103641000Y-85165937D01*
X103611371Y-85314893D01*
X103553252Y-85455206D01*
X103468875Y-85581484D01*
X103361484Y-85688875D01*
X103235206Y-85773252D01*
X103094893Y-85831371D01*
X103030663Y-85844147D01*
X102945938Y-85861000D01*
X102794062Y-85861000D01*
X102709337Y-85844147D01*
X102645107Y-85831371D01*
X102504794Y-85773252D01*
X102378516Y-85688875D01*
X102271125Y-85581484D01*
X102186748Y-85455206D01*
X102128629Y-85314893D01*
X102099000Y-85165937D01*
X102099000Y-85014063D01*
X102128629Y-84865107D01*
X102186748Y-84724794D01*
X102271125Y-84598516D01*
X102378516Y-84491125D01*
X102504794Y-84406748D01*
X102645107Y-84348629D01*
X102744411Y-84328876D01*
X102794062Y-84319000D01*
X102945938Y-84319000D01*
X102995589Y-84328876D01*
G37*
G36*
X110615589Y-84328876D02*
G01*
X110714893Y-84348629D01*
X110855206Y-84406748D01*
X110981484Y-84491125D01*
X111088875Y-84598516D01*
X111173252Y-84724794D01*
X111231371Y-84865107D01*
X111261000Y-85014063D01*
X111261000Y-85165937D01*
X111231371Y-85314893D01*
X111173252Y-85455206D01*
X111088875Y-85581484D01*
X110981484Y-85688875D01*
X110855206Y-85773252D01*
X110714893Y-85831371D01*
X110650663Y-85844147D01*
X110565938Y-85861000D01*
X110414062Y-85861000D01*
X110329337Y-85844147D01*
X110265107Y-85831371D01*
X110124794Y-85773252D01*
X109998516Y-85688875D01*
X109891125Y-85581484D01*
X109806748Y-85455206D01*
X109748629Y-85314893D01*
X109719000Y-85165937D01*
X109719000Y-85014063D01*
X109748629Y-84865107D01*
X109806748Y-84724794D01*
X109891125Y-84598516D01*
X109998516Y-84491125D01*
X110124794Y-84406748D01*
X110265107Y-84348629D01*
X110364411Y-84328876D01*
X110414062Y-84319000D01*
X110565938Y-84319000D01*
X110615589Y-84328876D01*
G37*
G36*
X133536564Y-81539389D02*
G01*
X133727833Y-81618615D01*
X133727835Y-81618616D01*
X133734396Y-81623000D01*
X133899973Y-81733635D01*
X134046365Y-81880027D01*
X134161385Y-82052167D01*
X134240611Y-82243436D01*
X134281000Y-82446484D01*
X134281000Y-82653516D01*
X134240611Y-82856564D01*
X134164015Y-83041483D01*
X134161384Y-83047835D01*
X134046365Y-83219973D01*
X133899973Y-83366365D01*
X133727835Y-83481384D01*
X133727834Y-83481385D01*
X133727833Y-83481385D01*
X133536564Y-83560611D01*
X133333516Y-83601000D01*
X133126484Y-83601000D01*
X132923436Y-83560611D01*
X132732167Y-83481385D01*
X132732166Y-83481385D01*
X132732165Y-83481384D01*
X132560027Y-83366365D01*
X132413635Y-83219973D01*
X132298616Y-83047835D01*
X132295985Y-83041483D01*
X132219389Y-82856564D01*
X132179000Y-82653516D01*
X132179000Y-82446484D01*
X132219389Y-82243436D01*
X132298615Y-82052167D01*
X132413635Y-81880027D01*
X132560027Y-81733635D01*
X132725604Y-81623000D01*
X132732165Y-81618616D01*
X132732167Y-81618615D01*
X132923436Y-81539389D01*
X133126484Y-81499000D01*
X133333516Y-81499000D01*
X133536564Y-81539389D01*
G37*
G36*
X126036564Y-81539389D02*
G01*
X126227833Y-81618615D01*
X126227835Y-81618616D01*
X126234396Y-81623000D01*
X126399973Y-81733635D01*
X126546365Y-81880027D01*
X126661385Y-82052167D01*
X126740611Y-82243436D01*
X126781000Y-82446484D01*
X126781000Y-82653516D01*
X126740611Y-82856564D01*
X126664015Y-83041483D01*
X126661384Y-83047835D01*
X126546365Y-83219973D01*
X126399973Y-83366365D01*
X126227835Y-83481384D01*
X126227834Y-83481385D01*
X126227833Y-83481385D01*
X126036564Y-83560611D01*
X125833516Y-83601000D01*
X125626484Y-83601000D01*
X125423436Y-83560611D01*
X125232167Y-83481385D01*
X125232166Y-83481385D01*
X125232165Y-83481384D01*
X125060027Y-83366365D01*
X124913635Y-83219973D01*
X124798616Y-83047835D01*
X124795985Y-83041483D01*
X124719389Y-82856564D01*
X124679000Y-82653516D01*
X124679000Y-82446484D01*
X124719389Y-82243436D01*
X124798615Y-82052167D01*
X124913635Y-81880027D01*
X125060027Y-81733635D01*
X125225604Y-81623000D01*
X125232165Y-81618616D01*
X125232167Y-81618615D01*
X125423436Y-81539389D01*
X125626484Y-81499000D01*
X125833516Y-81499000D01*
X126036564Y-81539389D01*
G37*
G36*
X76289000Y-83401000D02*
G01*
X74587000Y-83401000D01*
X74587000Y-81699000D01*
X76289000Y-81699000D01*
X76289000Y-83401000D01*
G37*
G36*
X90926228Y-81731703D02*
G01*
X91081100Y-81795853D01*
X91220481Y-81888985D01*
X91339015Y-82007519D01*
X91432147Y-82146900D01*
X91496297Y-82301772D01*
X91529000Y-82466184D01*
X91529000Y-82633816D01*
X91496297Y-82798228D01*
X91432147Y-82953100D01*
X91339015Y-83092481D01*
X91220481Y-83211015D01*
X91081100Y-83304147D01*
X90926228Y-83368297D01*
X90761816Y-83401000D01*
X90594184Y-83401000D01*
X90429772Y-83368297D01*
X90274900Y-83304147D01*
X90135519Y-83211015D01*
X90016985Y-83092481D01*
X89923853Y-82953100D01*
X89859703Y-82798228D01*
X89827000Y-82633816D01*
X89827000Y-82466184D01*
X89859703Y-82301772D01*
X89923853Y-82146900D01*
X90016985Y-82007519D01*
X90135519Y-81888985D01*
X90274900Y-81795853D01*
X90429772Y-81731703D01*
X90594184Y-81699000D01*
X90761816Y-81699000D01*
X90926228Y-81731703D01*
G37*
G36*
X110615589Y-81788876D02*
G01*
X110714893Y-81808629D01*
X110855206Y-81866748D01*
X110981484Y-81951125D01*
X111088875Y-82058516D01*
X111173252Y-82184794D01*
X111231371Y-82325107D01*
X111261000Y-82474063D01*
X111261000Y-82625937D01*
X111231371Y-82774893D01*
X111173252Y-82915206D01*
X111088875Y-83041484D01*
X110981484Y-83148875D01*
X110855206Y-83233252D01*
X110714893Y-83291371D01*
X110650663Y-83304147D01*
X110565938Y-83321000D01*
X110414062Y-83321000D01*
X110329337Y-83304147D01*
X110265107Y-83291371D01*
X110124794Y-83233252D01*
X109998516Y-83148875D01*
X109891125Y-83041484D01*
X109806748Y-82915206D01*
X109748629Y-82774893D01*
X109719000Y-82625937D01*
X109719000Y-82474063D01*
X109748629Y-82325107D01*
X109806748Y-82184794D01*
X109891125Y-82058516D01*
X109998516Y-81951125D01*
X110124794Y-81866748D01*
X110265107Y-81808629D01*
X110364411Y-81788876D01*
X110414062Y-81779000D01*
X110565938Y-81779000D01*
X110615589Y-81788876D01*
G37*
G36*
X102995589Y-81788876D02*
G01*
X103094893Y-81808629D01*
X103235206Y-81866748D01*
X103361484Y-81951125D01*
X103468875Y-82058516D01*
X103553252Y-82184794D01*
X103611371Y-82325107D01*
X103641000Y-82474063D01*
X103641000Y-82625937D01*
X103611371Y-82774893D01*
X103553252Y-82915206D01*
X103468875Y-83041484D01*
X103361484Y-83148875D01*
X103235206Y-83233252D01*
X103094893Y-83291371D01*
X103030663Y-83304147D01*
X102945938Y-83321000D01*
X102794062Y-83321000D01*
X102709337Y-83304147D01*
X102645107Y-83291371D01*
X102504794Y-83233252D01*
X102378516Y-83148875D01*
X102271125Y-83041484D01*
X102186748Y-82915206D01*
X102128629Y-82774893D01*
X102099000Y-82625937D01*
X102099000Y-82474063D01*
X102128629Y-82325107D01*
X102186748Y-82184794D01*
X102271125Y-82058516D01*
X102378516Y-81951125D01*
X102504794Y-81866748D01*
X102645107Y-81808629D01*
X102744411Y-81788876D01*
X102794062Y-81779000D01*
X102945938Y-81779000D01*
X102995589Y-81788876D01*
G37*
G36*
X138654549Y-80151116D02*
G01*
X138765734Y-80173232D01*
X138901623Y-80229519D01*
X138970933Y-80258228D01*
X138975203Y-80259997D01*
X139163720Y-80385960D01*
X139324040Y-80546280D01*
X139450003Y-80734797D01*
X139536768Y-80944266D01*
X139581000Y-81166636D01*
X139581000Y-81393364D01*
X139536768Y-81615734D01*
X139450003Y-81825203D01*
X139324040Y-82013720D01*
X139163720Y-82174040D01*
X138975203Y-82300003D01*
X138975202Y-82300004D01*
X138975201Y-82300004D01*
X138914597Y-82325107D01*
X138765734Y-82386768D01*
X138654549Y-82408884D01*
X138543365Y-82431000D01*
X138316635Y-82431000D01*
X138205451Y-82408884D01*
X138094266Y-82386768D01*
X137945403Y-82325107D01*
X137884799Y-82300004D01*
X137884798Y-82300004D01*
X137884797Y-82300003D01*
X137696280Y-82174040D01*
X137535960Y-82013720D01*
X137409997Y-81825203D01*
X137323232Y-81615734D01*
X137279000Y-81393364D01*
X137279000Y-81166636D01*
X137323232Y-80944266D01*
X137409997Y-80734797D01*
X137535960Y-80546280D01*
X137696280Y-80385960D01*
X137884797Y-80259997D01*
X137889068Y-80258228D01*
X137958377Y-80229519D01*
X138094266Y-80173232D01*
X138205451Y-80151116D01*
X138316635Y-80129000D01*
X138543365Y-80129000D01*
X138654549Y-80151116D01*
G37*
G36*
X36316228Y-79953703D02*
G01*
X36471100Y-80017853D01*
X36610481Y-80110985D01*
X36729015Y-80229519D01*
X36822147Y-80368900D01*
X36886297Y-80523772D01*
X36919000Y-80688184D01*
X36919000Y-80855816D01*
X36886297Y-81020228D01*
X36822147Y-81175100D01*
X36729015Y-81314481D01*
X36610481Y-81433015D01*
X36471100Y-81526147D01*
X36316228Y-81590297D01*
X36151816Y-81623000D01*
X35984184Y-81623000D01*
X35819772Y-81590297D01*
X35664900Y-81526147D01*
X35525519Y-81433015D01*
X35406985Y-81314481D01*
X35313853Y-81175100D01*
X35249703Y-81020228D01*
X35217000Y-80855816D01*
X35217000Y-80688184D01*
X35249703Y-80523772D01*
X35313853Y-80368900D01*
X35406985Y-80229519D01*
X35525519Y-80110985D01*
X35664900Y-80017853D01*
X35819772Y-79953703D01*
X35984184Y-79921000D01*
X36151816Y-79921000D01*
X36316228Y-79953703D01*
G37*
G36*
X33776228Y-79953703D02*
G01*
X33931100Y-80017853D01*
X34070481Y-80110985D01*
X34189015Y-80229519D01*
X34282147Y-80368900D01*
X34346297Y-80523772D01*
X34379000Y-80688184D01*
X34379000Y-80855816D01*
X34346297Y-81020228D01*
X34282147Y-81175100D01*
X34189015Y-81314481D01*
X34070481Y-81433015D01*
X33931100Y-81526147D01*
X33776228Y-81590297D01*
X33611816Y-81623000D01*
X33444184Y-81623000D01*
X33279772Y-81590297D01*
X33124900Y-81526147D01*
X32985519Y-81433015D01*
X32866985Y-81314481D01*
X32773853Y-81175100D01*
X32709703Y-81020228D01*
X32677000Y-80855816D01*
X32677000Y-80688184D01*
X32709703Y-80523772D01*
X32773853Y-80368900D01*
X32866985Y-80229519D01*
X32985519Y-80110985D01*
X33124900Y-80017853D01*
X33279772Y-79953703D01*
X33444184Y-79921000D01*
X33611816Y-79921000D01*
X33776228Y-79953703D01*
G37*
G36*
X51556228Y-79953703D02*
G01*
X51711100Y-80017853D01*
X51850481Y-80110985D01*
X51969015Y-80229519D01*
X52062147Y-80368900D01*
X52126297Y-80523772D01*
X52159000Y-80688184D01*
X52159000Y-80855816D01*
X52126297Y-81020228D01*
X52062147Y-81175100D01*
X51969015Y-81314481D01*
X51850481Y-81433015D01*
X51711100Y-81526147D01*
X51556228Y-81590297D01*
X51391816Y-81623000D01*
X51224184Y-81623000D01*
X51059772Y-81590297D01*
X50904900Y-81526147D01*
X50765519Y-81433015D01*
X50646985Y-81314481D01*
X50553853Y-81175100D01*
X50489703Y-81020228D01*
X50457000Y-80855816D01*
X50457000Y-80688184D01*
X50489703Y-80523772D01*
X50553853Y-80368900D01*
X50646985Y-80229519D01*
X50765519Y-80110985D01*
X50904900Y-80017853D01*
X51059772Y-79953703D01*
X51224184Y-79921000D01*
X51391816Y-79921000D01*
X51556228Y-79953703D01*
G37*
G36*
X49016228Y-79953703D02*
G01*
X49171100Y-80017853D01*
X49310481Y-80110985D01*
X49429015Y-80229519D01*
X49522147Y-80368900D01*
X49586297Y-80523772D01*
X49619000Y-80688184D01*
X49619000Y-80855816D01*
X49586297Y-81020228D01*
X49522147Y-81175100D01*
X49429015Y-81314481D01*
X49310481Y-81433015D01*
X49171100Y-81526147D01*
X49016228Y-81590297D01*
X48851816Y-81623000D01*
X48684184Y-81623000D01*
X48519772Y-81590297D01*
X48364900Y-81526147D01*
X48225519Y-81433015D01*
X48106985Y-81314481D01*
X48013853Y-81175100D01*
X47949703Y-81020228D01*
X47917000Y-80855816D01*
X47917000Y-80688184D01*
X47949703Y-80523772D01*
X48013853Y-80368900D01*
X48106985Y-80229519D01*
X48225519Y-80110985D01*
X48364900Y-80017853D01*
X48519772Y-79953703D01*
X48684184Y-79921000D01*
X48851816Y-79921000D01*
X49016228Y-79953703D01*
G37*
G36*
X46476228Y-79953703D02*
G01*
X46631100Y-80017853D01*
X46770481Y-80110985D01*
X46889015Y-80229519D01*
X46982147Y-80368900D01*
X47046297Y-80523772D01*
X47079000Y-80688184D01*
X47079000Y-80855816D01*
X47046297Y-81020228D01*
X46982147Y-81175100D01*
X46889015Y-81314481D01*
X46770481Y-81433015D01*
X46631100Y-81526147D01*
X46476228Y-81590297D01*
X46311816Y-81623000D01*
X46144184Y-81623000D01*
X45979772Y-81590297D01*
X45824900Y-81526147D01*
X45685519Y-81433015D01*
X45566985Y-81314481D01*
X45473853Y-81175100D01*
X45409703Y-81020228D01*
X45377000Y-80855816D01*
X45377000Y-80688184D01*
X45409703Y-80523772D01*
X45473853Y-80368900D01*
X45566985Y-80229519D01*
X45685519Y-80110985D01*
X45824900Y-80017853D01*
X45979772Y-79953703D01*
X46144184Y-79921000D01*
X46311816Y-79921000D01*
X46476228Y-79953703D01*
G37*
G36*
X43936228Y-79953703D02*
G01*
X44091100Y-80017853D01*
X44230481Y-80110985D01*
X44349015Y-80229519D01*
X44442147Y-80368900D01*
X44506297Y-80523772D01*
X44539000Y-80688184D01*
X44539000Y-80855816D01*
X44506297Y-81020228D01*
X44442147Y-81175100D01*
X44349015Y-81314481D01*
X44230481Y-81433015D01*
X44091100Y-81526147D01*
X43936228Y-81590297D01*
X43771816Y-81623000D01*
X43604184Y-81623000D01*
X43439772Y-81590297D01*
X43284900Y-81526147D01*
X43145519Y-81433015D01*
X43026985Y-81314481D01*
X42933853Y-81175100D01*
X42869703Y-81020228D01*
X42837000Y-80855816D01*
X42837000Y-80688184D01*
X42869703Y-80523772D01*
X42933853Y-80368900D01*
X43026985Y-80229519D01*
X43145519Y-80110985D01*
X43284900Y-80017853D01*
X43439772Y-79953703D01*
X43604184Y-79921000D01*
X43771816Y-79921000D01*
X43936228Y-79953703D01*
G37*
G36*
X41396228Y-79953703D02*
G01*
X41551100Y-80017853D01*
X41690481Y-80110985D01*
X41809015Y-80229519D01*
X41902147Y-80368900D01*
X41966297Y-80523772D01*
X41999000Y-80688184D01*
X41999000Y-80855816D01*
X41966297Y-81020228D01*
X41902147Y-81175100D01*
X41809015Y-81314481D01*
X41690481Y-81433015D01*
X41551100Y-81526147D01*
X41396228Y-81590297D01*
X41231816Y-81623000D01*
X41064184Y-81623000D01*
X40899772Y-81590297D01*
X40744900Y-81526147D01*
X40605519Y-81433015D01*
X40486985Y-81314481D01*
X40393853Y-81175100D01*
X40329703Y-81020228D01*
X40297000Y-80855816D01*
X40297000Y-80688184D01*
X40329703Y-80523772D01*
X40393853Y-80368900D01*
X40486985Y-80229519D01*
X40605519Y-80110985D01*
X40744900Y-80017853D01*
X40899772Y-79953703D01*
X41064184Y-79921000D01*
X41231816Y-79921000D01*
X41396228Y-79953703D01*
G37*
G36*
X38856228Y-79953703D02*
G01*
X39011100Y-80017853D01*
X39150481Y-80110985D01*
X39269015Y-80229519D01*
X39362147Y-80368900D01*
X39426297Y-80523772D01*
X39459000Y-80688184D01*
X39459000Y-80855816D01*
X39426297Y-81020228D01*
X39362147Y-81175100D01*
X39269015Y-81314481D01*
X39150481Y-81433015D01*
X39011100Y-81526147D01*
X38856228Y-81590297D01*
X38691816Y-81623000D01*
X38524184Y-81623000D01*
X38359772Y-81590297D01*
X38204900Y-81526147D01*
X38065519Y-81433015D01*
X37946985Y-81314481D01*
X37853853Y-81175100D01*
X37789703Y-81020228D01*
X37757000Y-80855816D01*
X37757000Y-80688184D01*
X37789703Y-80523772D01*
X37853853Y-80368900D01*
X37946985Y-80229519D01*
X38065519Y-80110985D01*
X38204900Y-80017853D01*
X38359772Y-79953703D01*
X38524184Y-79921000D01*
X38691816Y-79921000D01*
X38856228Y-79953703D01*
G37*
G36*
X120898228Y-79191703D02*
G01*
X121053100Y-79255853D01*
X121192481Y-79348985D01*
X121311015Y-79467519D01*
X121404147Y-79606900D01*
X121468297Y-79761772D01*
X121501000Y-79926184D01*
X121501000Y-80093816D01*
X121468297Y-80258228D01*
X121404147Y-80413100D01*
X121311015Y-80552481D01*
X121192481Y-80671015D01*
X121053100Y-80764147D01*
X120898228Y-80828297D01*
X120733816Y-80861000D01*
X120566184Y-80861000D01*
X120401772Y-80828297D01*
X120246900Y-80764147D01*
X120107519Y-80671015D01*
X119988985Y-80552481D01*
X119895853Y-80413100D01*
X119831703Y-80258228D01*
X119799000Y-80093816D01*
X119799000Y-79926184D01*
X119831703Y-79761772D01*
X119895853Y-79606900D01*
X119988985Y-79467519D01*
X120107519Y-79348985D01*
X120246900Y-79255853D01*
X120401772Y-79191703D01*
X120566184Y-79159000D01*
X120733816Y-79159000D01*
X120898228Y-79191703D01*
G37*
G36*
X110615589Y-79248876D02*
G01*
X110714893Y-79268629D01*
X110855206Y-79326748D01*
X110981484Y-79411125D01*
X111088875Y-79518516D01*
X111173252Y-79644794D01*
X111231371Y-79785107D01*
X111261000Y-79934063D01*
X111261000Y-80085937D01*
X111231371Y-80234893D01*
X111173252Y-80375206D01*
X111088875Y-80501484D01*
X110981484Y-80608875D01*
X110855206Y-80693252D01*
X110714893Y-80751371D01*
X110650663Y-80764147D01*
X110565938Y-80781000D01*
X110414062Y-80781000D01*
X110329337Y-80764147D01*
X110265107Y-80751371D01*
X110124794Y-80693252D01*
X109998516Y-80608875D01*
X109891125Y-80501484D01*
X109806748Y-80375206D01*
X109748629Y-80234893D01*
X109719000Y-80085937D01*
X109719000Y-79934063D01*
X109748629Y-79785107D01*
X109806748Y-79644794D01*
X109891125Y-79518516D01*
X109998516Y-79411125D01*
X110124794Y-79326748D01*
X110265107Y-79268629D01*
X110364411Y-79248876D01*
X110414062Y-79239000D01*
X110565938Y-79239000D01*
X110615589Y-79248876D01*
G37*
G36*
X102995589Y-79248876D02*
G01*
X103094893Y-79268629D01*
X103235206Y-79326748D01*
X103361484Y-79411125D01*
X103468875Y-79518516D01*
X103553252Y-79644794D01*
X103611371Y-79785107D01*
X103641000Y-79934063D01*
X103641000Y-80085937D01*
X103611371Y-80234893D01*
X103553252Y-80375206D01*
X103468875Y-80501484D01*
X103361484Y-80608875D01*
X103235206Y-80693252D01*
X103094893Y-80751371D01*
X103030663Y-80764147D01*
X102945938Y-80781000D01*
X102794062Y-80781000D01*
X102709337Y-80764147D01*
X102645107Y-80751371D01*
X102504794Y-80693252D01*
X102378516Y-80608875D01*
X102271125Y-80501484D01*
X102186748Y-80375206D01*
X102128629Y-80234893D01*
X102099000Y-80085937D01*
X102099000Y-79934063D01*
X102128629Y-79785107D01*
X102186748Y-79644794D01*
X102271125Y-79518516D01*
X102378516Y-79411125D01*
X102504794Y-79326748D01*
X102645107Y-79268629D01*
X102744411Y-79248876D01*
X102794062Y-79239000D01*
X102945938Y-79239000D01*
X102995589Y-79248876D01*
G37*
G36*
X67616564Y-76593389D02*
G01*
X67807833Y-76672615D01*
X67807835Y-76672616D01*
X67916466Y-76745201D01*
X67979973Y-76787635D01*
X68126365Y-76934027D01*
X68241385Y-77106167D01*
X68320611Y-77297436D01*
X68361000Y-77500484D01*
X68361000Y-77707516D01*
X68320611Y-77910564D01*
X68241385Y-78101833D01*
X68241384Y-78101835D01*
X68126365Y-78273973D01*
X67979973Y-78420365D01*
X67807835Y-78535384D01*
X67807834Y-78535385D01*
X67807833Y-78535385D01*
X67616564Y-78614611D01*
X67413516Y-78655000D01*
X67206484Y-78655000D01*
X67003436Y-78614611D01*
X66812167Y-78535385D01*
X66812166Y-78535385D01*
X66812165Y-78535384D01*
X66640027Y-78420365D01*
X66493635Y-78273973D01*
X66378616Y-78101835D01*
X66378615Y-78101833D01*
X66299389Y-77910564D01*
X66259000Y-77707516D01*
X66259000Y-77500484D01*
X66299389Y-77297436D01*
X66378615Y-77106167D01*
X66493635Y-76934027D01*
X66640027Y-76787635D01*
X66703534Y-76745201D01*
X66812165Y-76672616D01*
X66812167Y-76672615D01*
X67003436Y-76593389D01*
X67206484Y-76553000D01*
X67413516Y-76553000D01*
X67616564Y-76593389D01*
G37*
G36*
X60758564Y-76593389D02*
G01*
X60949833Y-76672615D01*
X60949835Y-76672616D01*
X61058466Y-76745201D01*
X61121973Y-76787635D01*
X61268365Y-76934027D01*
X61383385Y-77106167D01*
X61462611Y-77297436D01*
X61503000Y-77500484D01*
X61503000Y-77707516D01*
X61462611Y-77910564D01*
X61383385Y-78101833D01*
X61383384Y-78101835D01*
X61268365Y-78273973D01*
X61121973Y-78420365D01*
X60949835Y-78535384D01*
X60949834Y-78535385D01*
X60949833Y-78535385D01*
X60758564Y-78614611D01*
X60555516Y-78655000D01*
X60348484Y-78655000D01*
X60145436Y-78614611D01*
X59954167Y-78535385D01*
X59954166Y-78535385D01*
X59954165Y-78535384D01*
X59782027Y-78420365D01*
X59635635Y-78273973D01*
X59520616Y-78101835D01*
X59520615Y-78101833D01*
X59441389Y-77910564D01*
X59401000Y-77707516D01*
X59401000Y-77500484D01*
X59441389Y-77297436D01*
X59520615Y-77106167D01*
X59635635Y-76934027D01*
X59782027Y-76787635D01*
X59845534Y-76745201D01*
X59954165Y-76672616D01*
X59954167Y-76672615D01*
X60145436Y-76593389D01*
X60348484Y-76553000D01*
X60555516Y-76553000D01*
X60758564Y-76593389D01*
G37*
G36*
X95982549Y-75071116D02*
G01*
X96093734Y-75093232D01*
X96303203Y-75179997D01*
X96491720Y-75305960D01*
X96652040Y-75466280D01*
X96778003Y-75654797D01*
X96864768Y-75864266D01*
X96909000Y-76086636D01*
X96909000Y-76313364D01*
X96864768Y-76535734D01*
X96778003Y-76745203D01*
X96652040Y-76933720D01*
X96491720Y-77094040D01*
X96303203Y-77220003D01*
X96093734Y-77306768D01*
X95982549Y-77328884D01*
X95871365Y-77351000D01*
X95644635Y-77351000D01*
X95533451Y-77328884D01*
X95422266Y-77306768D01*
X95212797Y-77220003D01*
X95024280Y-77094040D01*
X94863960Y-76933720D01*
X94737997Y-76745203D01*
X94651232Y-76535734D01*
X94607000Y-76313364D01*
X94607000Y-76086636D01*
X94651232Y-75864266D01*
X94737997Y-75654797D01*
X94863960Y-75466280D01*
X95024280Y-75305960D01*
X95212797Y-75179997D01*
X95422266Y-75093232D01*
X95533451Y-75071116D01*
X95644635Y-75049000D01*
X95871365Y-75049000D01*
X95982549Y-75071116D01*
G37*
G36*
X135381000Y-75971000D02*
G01*
X131319000Y-75971000D01*
X131319000Y-73889000D01*
X135381000Y-73889000D01*
X135381000Y-75971000D01*
G37*
G36*
X82893000Y-75781000D02*
G01*
X81191000Y-75781000D01*
X81191000Y-74079000D01*
X82893000Y-74079000D01*
X82893000Y-75781000D01*
G37*
G36*
X90283512Y-72763927D02*
G01*
X90432812Y-72793624D01*
X90596784Y-72861544D01*
X90744354Y-72960147D01*
X90869853Y-73085646D01*
X90968456Y-73233216D01*
X91036376Y-73397188D01*
X91071000Y-73571259D01*
X91071000Y-73748741D01*
X91036376Y-73922812D01*
X90968456Y-74086784D01*
X90869853Y-74234354D01*
X90744354Y-74359853D01*
X90596784Y-74458456D01*
X90432812Y-74526376D01*
X90283512Y-74556073D01*
X90258742Y-74561000D01*
X90081258Y-74561000D01*
X90056488Y-74556073D01*
X89907188Y-74526376D01*
X89743216Y-74458456D01*
X89595646Y-74359853D01*
X89470147Y-74234354D01*
X89371544Y-74086784D01*
X89303624Y-73922812D01*
X89269000Y-73748741D01*
X89269000Y-73571259D01*
X89303624Y-73397188D01*
X89371544Y-73233216D01*
X89470147Y-73085646D01*
X89595646Y-72960147D01*
X89743216Y-72861544D01*
X89907188Y-72793624D01*
X90056488Y-72763927D01*
X90081258Y-72759000D01*
X90258742Y-72759000D01*
X90283512Y-72763927D01*
G37*
G36*
X113881000Y-74511000D02*
G01*
X112179000Y-74511000D01*
X112179000Y-72809000D01*
X113881000Y-72809000D01*
X113881000Y-74511000D01*
G37*
G36*
X103771000Y-73291000D02*
G01*
X101969000Y-73291000D01*
X101969000Y-71489000D01*
X103771000Y-71489000D01*
X103771000Y-73291000D01*
G37*
G36*
X45130564Y-70363389D02*
G01*
X45321833Y-70442615D01*
X45321835Y-70442616D01*
X45366531Y-70472481D01*
X45493973Y-70557635D01*
X45640365Y-70704027D01*
X45755385Y-70876167D01*
X45834611Y-71067436D01*
X45875000Y-71270484D01*
X45875000Y-71477516D01*
X45834611Y-71680564D01*
X45755385Y-71871833D01*
X45755384Y-71871835D01*
X45640365Y-72043973D01*
X45493973Y-72190365D01*
X45321835Y-72305384D01*
X45321834Y-72305385D01*
X45321833Y-72305385D01*
X45130564Y-72384611D01*
X44927516Y-72425000D01*
X44720484Y-72425000D01*
X44517436Y-72384611D01*
X44326167Y-72305385D01*
X44326166Y-72305385D01*
X44326165Y-72305384D01*
X44154027Y-72190365D01*
X44007635Y-72043973D01*
X43892616Y-71871835D01*
X43892615Y-71871833D01*
X43813389Y-71680564D01*
X43773000Y-71477516D01*
X43773000Y-71270484D01*
X43813389Y-71067436D01*
X43892615Y-70876167D01*
X44007635Y-70704027D01*
X44154027Y-70557635D01*
X44281469Y-70472481D01*
X44326165Y-70442616D01*
X44326167Y-70442615D01*
X44517436Y-70363389D01*
X44720484Y-70323000D01*
X44927516Y-70323000D01*
X45130564Y-70363389D01*
G37*
G36*
X52630564Y-70363389D02*
G01*
X52821833Y-70442615D01*
X52821835Y-70442616D01*
X52866531Y-70472481D01*
X52993973Y-70557635D01*
X53140365Y-70704027D01*
X53255385Y-70876167D01*
X53334611Y-71067436D01*
X53375000Y-71270484D01*
X53375000Y-71477516D01*
X53334611Y-71680564D01*
X53255385Y-71871833D01*
X53255384Y-71871835D01*
X53140365Y-72043973D01*
X52993973Y-72190365D01*
X52821835Y-72305384D01*
X52821834Y-72305385D01*
X52821833Y-72305385D01*
X52630564Y-72384611D01*
X52427516Y-72425000D01*
X52220484Y-72425000D01*
X52017436Y-72384611D01*
X51826167Y-72305385D01*
X51826166Y-72305385D01*
X51826165Y-72305384D01*
X51654027Y-72190365D01*
X51507635Y-72043973D01*
X51392616Y-71871835D01*
X51392615Y-71871833D01*
X51313389Y-71680564D01*
X51273000Y-71477516D01*
X51273000Y-71270484D01*
X51313389Y-71067436D01*
X51392615Y-70876167D01*
X51507635Y-70704027D01*
X51654027Y-70557635D01*
X51781469Y-70472481D01*
X51826165Y-70442616D01*
X51826167Y-70442615D01*
X52017436Y-70363389D01*
X52220484Y-70323000D01*
X52427516Y-70323000D01*
X52630564Y-70363389D01*
G37*
G36*
X91071000Y-72021000D02*
G01*
X89269000Y-72021000D01*
X89269000Y-70219000D01*
X91071000Y-70219000D01*
X91071000Y-72021000D01*
G37*
G36*
X67616564Y-69093389D02*
G01*
X67807833Y-69172615D01*
X67807835Y-69172616D01*
X67979973Y-69287635D01*
X68126365Y-69434027D01*
X68238449Y-69601772D01*
X68241385Y-69606167D01*
X68320611Y-69797436D01*
X68361000Y-70000484D01*
X68361000Y-70207516D01*
X68320611Y-70410564D01*
X68259692Y-70557635D01*
X68241384Y-70601835D01*
X68126365Y-70773973D01*
X67979973Y-70920365D01*
X67807835Y-71035384D01*
X67807834Y-71035385D01*
X67807833Y-71035385D01*
X67616564Y-71114611D01*
X67413516Y-71155000D01*
X67206484Y-71155000D01*
X67003436Y-71114611D01*
X66812167Y-71035385D01*
X66812166Y-71035385D01*
X66812165Y-71035384D01*
X66640027Y-70920365D01*
X66493635Y-70773973D01*
X66378616Y-70601835D01*
X66360308Y-70557635D01*
X66299389Y-70410564D01*
X66259000Y-70207516D01*
X66259000Y-70000484D01*
X66299389Y-69797436D01*
X66378615Y-69606167D01*
X66381552Y-69601772D01*
X66493635Y-69434027D01*
X66640027Y-69287635D01*
X66812165Y-69172616D01*
X66812167Y-69172615D01*
X67003436Y-69093389D01*
X67206484Y-69053000D01*
X67413516Y-69053000D01*
X67616564Y-69093389D01*
G37*
G36*
X60758564Y-69093389D02*
G01*
X60949833Y-69172615D01*
X60949835Y-69172616D01*
X61121973Y-69287635D01*
X61268365Y-69434027D01*
X61380449Y-69601772D01*
X61383385Y-69606167D01*
X61462611Y-69797436D01*
X61503000Y-70000484D01*
X61503000Y-70207516D01*
X61462611Y-70410564D01*
X61401692Y-70557635D01*
X61383384Y-70601835D01*
X61268365Y-70773973D01*
X61121973Y-70920365D01*
X60949835Y-71035384D01*
X60949834Y-71035385D01*
X60949833Y-71035385D01*
X60758564Y-71114611D01*
X60555516Y-71155000D01*
X60348484Y-71155000D01*
X60145436Y-71114611D01*
X59954167Y-71035385D01*
X59954166Y-71035385D01*
X59954165Y-71035384D01*
X59782027Y-70920365D01*
X59635635Y-70773973D01*
X59520616Y-70601835D01*
X59502308Y-70557635D01*
X59441389Y-70410564D01*
X59401000Y-70207516D01*
X59401000Y-70000484D01*
X59441389Y-69797436D01*
X59520615Y-69606167D01*
X59523552Y-69601772D01*
X59635635Y-69434027D01*
X59782027Y-69287635D01*
X59954165Y-69172616D01*
X59954167Y-69172615D01*
X60145436Y-69093389D01*
X60348484Y-69053000D01*
X60555516Y-69053000D01*
X60758564Y-69093389D01*
G37*
G36*
X134442112Y-68894021D02*
G01*
X134544072Y-68904063D01*
X134740301Y-68963589D01*
X134740303Y-68963590D01*
X134921145Y-69060252D01*
X135079660Y-69190340D01*
X135209748Y-69348855D01*
X135278935Y-69478295D01*
X135306411Y-69529699D01*
X135365937Y-69725928D01*
X135386036Y-69930000D01*
X135365937Y-70134072D01*
X135306411Y-70330301D01*
X135306410Y-70330303D01*
X135209748Y-70511145D01*
X135079660Y-70669660D01*
X134921145Y-70799748D01*
X134778175Y-70876167D01*
X134740301Y-70896411D01*
X134544072Y-70955937D01*
X134442112Y-70965979D01*
X134391133Y-70971000D01*
X132308867Y-70971000D01*
X132257888Y-70965979D01*
X132155928Y-70955937D01*
X131959699Y-70896411D01*
X131921825Y-70876167D01*
X131778855Y-70799748D01*
X131620340Y-70669660D01*
X131490252Y-70511145D01*
X131393590Y-70330303D01*
X131393589Y-70330301D01*
X131334063Y-70134072D01*
X131313964Y-69930000D01*
X131334063Y-69725928D01*
X131393589Y-69529699D01*
X131421065Y-69478295D01*
X131490252Y-69348855D01*
X131620340Y-69190340D01*
X131778855Y-69060252D01*
X131959697Y-68963590D01*
X131959699Y-68963589D01*
X132155928Y-68904063D01*
X132257888Y-68894021D01*
X132308867Y-68889000D01*
X134391133Y-68889000D01*
X134442112Y-68894021D01*
G37*
G36*
X82290228Y-69111703D02*
G01*
X82445100Y-69175853D01*
X82584481Y-69268985D01*
X82703015Y-69387519D01*
X82796147Y-69526900D01*
X82860297Y-69681772D01*
X82893000Y-69846184D01*
X82893000Y-70013816D01*
X82860297Y-70178228D01*
X82796147Y-70333100D01*
X82703015Y-70472481D01*
X82584481Y-70591015D01*
X82445100Y-70684147D01*
X82290228Y-70748297D01*
X82125816Y-70781000D01*
X81958184Y-70781000D01*
X81793772Y-70748297D01*
X81638900Y-70684147D01*
X81499519Y-70591015D01*
X81380985Y-70472481D01*
X81287853Y-70333100D01*
X81223703Y-70178228D01*
X81191000Y-70013816D01*
X81191000Y-69846184D01*
X81223703Y-69681772D01*
X81287853Y-69526900D01*
X81380985Y-69387519D01*
X81499519Y-69268985D01*
X81638900Y-69175853D01*
X81793772Y-69111703D01*
X81958184Y-69079000D01*
X82125816Y-69079000D01*
X82290228Y-69111703D01*
G37*
G36*
X120898228Y-69031703D02*
G01*
X121053100Y-69095853D01*
X121192481Y-69188985D01*
X121311015Y-69307519D01*
X121404147Y-69446900D01*
X121468297Y-69601772D01*
X121501000Y-69766184D01*
X121501000Y-69933816D01*
X121468297Y-70098228D01*
X121404147Y-70253100D01*
X121311015Y-70392481D01*
X121192481Y-70511015D01*
X121053100Y-70604147D01*
X120898228Y-70668297D01*
X120733816Y-70701000D01*
X120566184Y-70701000D01*
X120401772Y-70668297D01*
X120246900Y-70604147D01*
X120107519Y-70511015D01*
X119988985Y-70392481D01*
X119895853Y-70253100D01*
X119831703Y-70098228D01*
X119799000Y-69933816D01*
X119799000Y-69766184D01*
X119831703Y-69601772D01*
X119895853Y-69446900D01*
X119988985Y-69307519D01*
X120107519Y-69188985D01*
X120246900Y-69095853D01*
X120401772Y-69031703D01*
X120566184Y-68999000D01*
X120733816Y-68999000D01*
X120898228Y-69031703D01*
G37*
G36*
X113278228Y-67841703D02*
G01*
X113433100Y-67905853D01*
X113572481Y-67998985D01*
X113691015Y-68117519D01*
X113784147Y-68256900D01*
X113848297Y-68411772D01*
X113881000Y-68576184D01*
X113881000Y-68743816D01*
X113848297Y-68908228D01*
X113784147Y-69063100D01*
X113691015Y-69202481D01*
X113572481Y-69321015D01*
X113433100Y-69414147D01*
X113278228Y-69478297D01*
X113113816Y-69511000D01*
X112946184Y-69511000D01*
X112781772Y-69478297D01*
X112626900Y-69414147D01*
X112487519Y-69321015D01*
X112368985Y-69202481D01*
X112275853Y-69063100D01*
X112211703Y-68908228D01*
X112179000Y-68743816D01*
X112179000Y-68576184D01*
X112211703Y-68411772D01*
X112275853Y-68256900D01*
X112368985Y-68117519D01*
X112487519Y-67998985D01*
X112626900Y-67905853D01*
X112781772Y-67841703D01*
X112946184Y-67809000D01*
X113113816Y-67809000D01*
X113278228Y-67841703D01*
G37*
G36*
X36772720Y-67289520D02*
G01*
X36961881Y-67346901D01*
X37136212Y-67440083D01*
X37289015Y-67565485D01*
X37414417Y-67718288D01*
X37458182Y-67800167D01*
X37507598Y-67892617D01*
X37507599Y-67892620D01*
X37564980Y-68081781D01*
X37579500Y-68229207D01*
X37579500Y-68422794D01*
X37564980Y-68570220D01*
X37507599Y-68759381D01*
X37414417Y-68933712D01*
X37289015Y-69086515D01*
X37136212Y-69211917D01*
X37054333Y-69255682D01*
X36961883Y-69305098D01*
X36961880Y-69305099D01*
X36772719Y-69362480D01*
X36576000Y-69381855D01*
X36379280Y-69362480D01*
X36190119Y-69305099D01*
X36015788Y-69211917D01*
X35862985Y-69086515D01*
X35737583Y-68933712D01*
X35693818Y-68851833D01*
X35644402Y-68759383D01*
X35639680Y-68743816D01*
X35587020Y-68570219D01*
X35572500Y-68422793D01*
X35572500Y-68229206D01*
X35587020Y-68081780D01*
X35644401Y-67892619D01*
X35737583Y-67718288D01*
X35862985Y-67565485D01*
X36015788Y-67440083D01*
X36190120Y-67346901D01*
X36379281Y-67289520D01*
X36576000Y-67270145D01*
X36772720Y-67289520D01*
G37*
G36*
X34232720Y-67289520D02*
G01*
X34421881Y-67346901D01*
X34596212Y-67440083D01*
X34749015Y-67565485D01*
X34874417Y-67718288D01*
X34918182Y-67800167D01*
X34967598Y-67892617D01*
X34967599Y-67892620D01*
X35024980Y-68081781D01*
X35039500Y-68229207D01*
X35039500Y-68422794D01*
X35024980Y-68570220D01*
X34967599Y-68759381D01*
X34874417Y-68933712D01*
X34749015Y-69086515D01*
X34596212Y-69211917D01*
X34514333Y-69255682D01*
X34421883Y-69305098D01*
X34421880Y-69305099D01*
X34232719Y-69362480D01*
X34036000Y-69381855D01*
X33839280Y-69362480D01*
X33650119Y-69305099D01*
X33475788Y-69211917D01*
X33322985Y-69086515D01*
X33197583Y-68933712D01*
X33153818Y-68851833D01*
X33104402Y-68759383D01*
X33099680Y-68743816D01*
X33047020Y-68570219D01*
X33032500Y-68422793D01*
X33032500Y-68229206D01*
X33047020Y-68081780D01*
X33104401Y-67892619D01*
X33197583Y-67718288D01*
X33322985Y-67565485D01*
X33475788Y-67440083D01*
X33650120Y-67346901D01*
X33839281Y-67289520D01*
X34036000Y-67270145D01*
X34232720Y-67289520D01*
G37*
G36*
X40119500Y-69377000D02*
G01*
X38112500Y-69377000D01*
X38112500Y-67275000D01*
X40119500Y-67275000D01*
X40119500Y-69377000D01*
G37*
M02*
