G04 #@! TF.GenerationSoftware,KiCad,Pcbnew,(5.1.5)-3*
G04 #@! TF.CreationDate,2020-03-25T20:54:11+01:00*
G04 #@! TF.ProjectId,FunctiongeneratorMK3Frequency,46756e63-7469-46f6-9e67-656e65726174,rev?*
G04 #@! TF.SameCoordinates,Original*
G04 #@! TF.FileFunction,Other,Fab,Top*
%FSLAX46Y46*%
G04 Gerber Fmt 4.6, Leading zero omitted, Abs format (unit mm)*
G04 Created by KiCad (PCBNEW (5.1.5)-3) date 2020-03-25 20:54:11*
%MOMM*%
%LPD*%
G04 APERTURE LIST*
%ADD10C,0.100000*%
%ADD11C,0.152400*%
%ADD12C,0.150000*%
%ADD13C,0.015000*%
G04 APERTURE END LIST*
D10*
X129437000Y-87964000D02*
X129436000Y-89727000D01*
X129437000Y-87964000D02*
X129436000Y-89727000D01*
X128217000Y-92076000D02*
X134927000Y-92076000D01*
X128217000Y-87576000D02*
X128217000Y-92076000D01*
X134927000Y-87576000D02*
X128217000Y-87576000D01*
X134927000Y-92076000D02*
X134927000Y-87576000D01*
X130327000Y-88846000D02*
G75*
G03X130327000Y-88846000I-890000J0D01*
G01*
X145542000Y-92329000D02*
X146177000Y-91694000D01*
X145542000Y-94234000D02*
X145542000Y-92329000D01*
X148082000Y-94234000D02*
X145542000Y-94234000D01*
X148082000Y-91694000D02*
X148082000Y-94234000D01*
X146177000Y-91694000D02*
X148082000Y-91694000D01*
X143510000Y-116459000D02*
X144145000Y-115824000D01*
X143510000Y-118364000D02*
X143510000Y-116459000D01*
X146050000Y-118364000D02*
X143510000Y-118364000D01*
X146050000Y-115824000D02*
X146050000Y-118364000D01*
X144145000Y-115824000D02*
X146050000Y-115824000D01*
X139192000Y-114173000D02*
X139827000Y-113538000D01*
X139192000Y-116078000D02*
X139192000Y-114173000D01*
X141732000Y-116078000D02*
X139192000Y-116078000D01*
X141732000Y-113538000D02*
X141732000Y-116078000D01*
X139827000Y-113538000D02*
X141732000Y-113538000D01*
X169672000Y-120599200D02*
G75*
G02X169672000Y-121208800I0J-304800D01*
G01*
D11*
X169672000Y-124206000D02*
X179832000Y-124206000D01*
X169672000Y-121208800D02*
X169672000Y-124206000D01*
X169672000Y-120599200D02*
X169672000Y-121208800D01*
X169672000Y-117602000D02*
X169672000Y-120599200D01*
X179832000Y-117602000D02*
X169672000Y-117602000D01*
X179832000Y-124206000D02*
X179832000Y-117602000D01*
X170383200Y-116535200D02*
X170383200Y-117602000D01*
X171500800Y-116535200D02*
X170383200Y-116535200D01*
X171500800Y-117602000D02*
X171500800Y-116535200D01*
X170383200Y-117602000D02*
X171500800Y-117602000D01*
X172923200Y-116535200D02*
X172923200Y-117602000D01*
X174040800Y-116535200D02*
X172923200Y-116535200D01*
X174040800Y-117602000D02*
X174040800Y-116535200D01*
X172923200Y-117602000D02*
X174040800Y-117602000D01*
X175463200Y-116535200D02*
X175463200Y-117602000D01*
X176580800Y-116535200D02*
X175463200Y-116535200D01*
X176580800Y-117602000D02*
X176580800Y-116535200D01*
X175463200Y-117602000D02*
X176580800Y-117602000D01*
X178003200Y-116535200D02*
X178003200Y-117602000D01*
X179120800Y-116535200D02*
X178003200Y-116535200D01*
X179120800Y-117602000D02*
X179120800Y-116535200D01*
X178003200Y-117602000D02*
X179120800Y-117602000D01*
X179120800Y-125272800D02*
X179120800Y-124206000D01*
X178003200Y-125272800D02*
X179120800Y-125272800D01*
X178003200Y-124206000D02*
X178003200Y-125272800D01*
X179120800Y-124206000D02*
X178003200Y-124206000D01*
X176580800Y-125272800D02*
X176580800Y-124206000D01*
X175463200Y-125272800D02*
X176580800Y-125272800D01*
X175463200Y-124206000D02*
X175463200Y-125272800D01*
X176580800Y-124206000D02*
X175463200Y-124206000D01*
X174040800Y-125272800D02*
X174040800Y-124206000D01*
X172923200Y-125272800D02*
X174040800Y-125272800D01*
X172923200Y-124206000D02*
X172923200Y-125272800D01*
X174040800Y-124206000D02*
X172923200Y-124206000D01*
X171500800Y-125272800D02*
X171500800Y-124206000D01*
X170383200Y-125272800D02*
X171500800Y-125272800D01*
X170383200Y-124206000D02*
X170383200Y-125272800D01*
X171500800Y-124206000D02*
X170383200Y-124206000D01*
D10*
X190804800Y-80772000D02*
G75*
G02X190195200Y-80772000I-304800J0D01*
G01*
D11*
X187198000Y-80772000D02*
X187198000Y-90932000D01*
X190195200Y-80772000D02*
X187198000Y-80772000D01*
X190804800Y-80772000D02*
X190195200Y-80772000D01*
X193802000Y-80772000D02*
X190804800Y-80772000D01*
X193802000Y-90932000D02*
X193802000Y-80772000D01*
X187198000Y-90932000D02*
X193802000Y-90932000D01*
X194868800Y-81483200D02*
X193802000Y-81483200D01*
X194868800Y-82600800D02*
X194868800Y-81483200D01*
X193802000Y-82600800D02*
X194868800Y-82600800D01*
X193802000Y-81483200D02*
X193802000Y-82600800D01*
X194868800Y-84023200D02*
X193802000Y-84023200D01*
X194868800Y-85140800D02*
X194868800Y-84023200D01*
X193802000Y-85140800D02*
X194868800Y-85140800D01*
X193802000Y-84023200D02*
X193802000Y-85140800D01*
X194868800Y-86563200D02*
X193802000Y-86563200D01*
X194868800Y-87680800D02*
X194868800Y-86563200D01*
X193802000Y-87680800D02*
X194868800Y-87680800D01*
X193802000Y-86563200D02*
X193802000Y-87680800D01*
X194868800Y-89103200D02*
X193802000Y-89103200D01*
X194868800Y-90220800D02*
X194868800Y-89103200D01*
X193802000Y-90220800D02*
X194868800Y-90220800D01*
X193802000Y-89103200D02*
X193802000Y-90220800D01*
X186131200Y-90220800D02*
X187198000Y-90220800D01*
X186131200Y-89103200D02*
X186131200Y-90220800D01*
X187198000Y-89103200D02*
X186131200Y-89103200D01*
X187198000Y-90220800D02*
X187198000Y-89103200D01*
X186131200Y-87680800D02*
X187198000Y-87680800D01*
X186131200Y-86563200D02*
X186131200Y-87680800D01*
X187198000Y-86563200D02*
X186131200Y-86563200D01*
X187198000Y-87680800D02*
X187198000Y-86563200D01*
X186131200Y-85140800D02*
X187198000Y-85140800D01*
X186131200Y-84023200D02*
X186131200Y-85140800D01*
X187198000Y-84023200D02*
X186131200Y-84023200D01*
X187198000Y-85140800D02*
X187198000Y-84023200D01*
X186131200Y-82600800D02*
X187198000Y-82600800D01*
X186131200Y-81483200D02*
X186131200Y-82600800D01*
X187198000Y-81483200D02*
X186131200Y-81483200D01*
X187198000Y-82600800D02*
X187198000Y-81483200D01*
D10*
X160985200Y-70662800D02*
G75*
G02X160985200Y-70053200I0J304800D01*
G01*
D11*
X160985200Y-67056000D02*
X141274800Y-67056000D01*
X160985200Y-70053200D02*
X160985200Y-67056000D01*
X160985200Y-70662800D02*
X160985200Y-70053200D01*
X160985200Y-73660000D02*
X160985200Y-70662800D01*
X141274800Y-73660000D02*
X160985200Y-73660000D01*
X141274800Y-67056000D02*
X141274800Y-73660000D01*
X159308800Y-74726800D02*
X159308800Y-73660000D01*
X158191200Y-74726800D02*
X159308800Y-74726800D01*
X158191200Y-73660000D02*
X158191200Y-74726800D01*
X159308800Y-73660000D02*
X158191200Y-73660000D01*
X156768800Y-74726800D02*
X156768800Y-73660000D01*
X155651200Y-74726800D02*
X156768800Y-74726800D01*
X155651200Y-73660000D02*
X155651200Y-74726800D01*
X156768800Y-73660000D02*
X155651200Y-73660000D01*
X154228800Y-74726800D02*
X154228800Y-73660000D01*
X153111200Y-74726800D02*
X154228800Y-74726800D01*
X153111200Y-73660000D02*
X153111200Y-74726800D01*
X154228800Y-73660000D02*
X153111200Y-73660000D01*
X151688800Y-74726800D02*
X151688800Y-73660000D01*
X150571200Y-74726800D02*
X151688800Y-74726800D01*
X150571200Y-73660000D02*
X150571200Y-74726800D01*
X151688800Y-73660000D02*
X150571200Y-73660000D01*
X149148800Y-74726800D02*
X149148800Y-73660000D01*
X148031200Y-74726800D02*
X149148800Y-74726800D01*
X148031200Y-73660000D02*
X148031200Y-74726800D01*
X149148800Y-73660000D02*
X148031200Y-73660000D01*
X146608800Y-74726800D02*
X146608800Y-73660000D01*
X145491200Y-74726800D02*
X146608800Y-74726800D01*
X145491200Y-73660000D02*
X145491200Y-74726800D01*
X146608800Y-73660000D02*
X145491200Y-73660000D01*
X144068800Y-74726800D02*
X144068800Y-73660000D01*
X142951200Y-74726800D02*
X144068800Y-74726800D01*
X142951200Y-73660000D02*
X142951200Y-74726800D01*
X144068800Y-73660000D02*
X142951200Y-73660000D01*
X142951200Y-65989200D02*
X142951200Y-67056000D01*
X144068800Y-65989200D02*
X142951200Y-65989200D01*
X144068800Y-67056000D02*
X144068800Y-65989200D01*
X142951200Y-67056000D02*
X144068800Y-67056000D01*
X145491200Y-65989200D02*
X145491200Y-67056000D01*
X146608800Y-65989200D02*
X145491200Y-65989200D01*
X146608800Y-67056000D02*
X146608800Y-65989200D01*
X145491200Y-67056000D02*
X146608800Y-67056000D01*
X148031200Y-65989200D02*
X148031200Y-67056000D01*
X149148800Y-65989200D02*
X148031200Y-65989200D01*
X149148800Y-67056000D02*
X149148800Y-65989200D01*
X148031200Y-67056000D02*
X149148800Y-67056000D01*
X150571200Y-65989200D02*
X150571200Y-67056000D01*
X151688800Y-65989200D02*
X150571200Y-65989200D01*
X151688800Y-67056000D02*
X151688800Y-65989200D01*
X150571200Y-67056000D02*
X151688800Y-67056000D01*
X153111200Y-65989200D02*
X153111200Y-67056000D01*
X154228800Y-65989200D02*
X153111200Y-65989200D01*
X154228800Y-67056000D02*
X154228800Y-65989200D01*
X153111200Y-67056000D02*
X154228800Y-67056000D01*
X155651200Y-65989200D02*
X155651200Y-67056000D01*
X156768800Y-65989200D02*
X155651200Y-65989200D01*
X156768800Y-67056000D02*
X156768800Y-65989200D01*
X155651200Y-67056000D02*
X156768800Y-67056000D01*
X158191200Y-65989200D02*
X158191200Y-67056000D01*
X159308800Y-65989200D02*
X158191200Y-65989200D01*
X159308800Y-67056000D02*
X159308800Y-65989200D01*
X158191200Y-67056000D02*
X159308800Y-67056000D01*
D10*
X150063200Y-101396800D02*
G75*
G02X150063200Y-100787200I0J304800D01*
G01*
X150063200Y-97536000D02*
X130352800Y-97536000D01*
X150063200Y-100787200D02*
X150063200Y-97536000D01*
X150063200Y-101396800D02*
X150063200Y-100787200D01*
X150063200Y-104648000D02*
X150063200Y-101396800D01*
X130352800Y-104648000D02*
X150063200Y-104648000D01*
X130352800Y-97536000D02*
X130352800Y-104648000D01*
X149656800Y-105460800D02*
X149656800Y-104648000D01*
X148539200Y-105460800D02*
X149656800Y-105460800D01*
X148539200Y-104648000D02*
X148539200Y-105460800D01*
X149656800Y-104648000D02*
X148539200Y-104648000D01*
X147116800Y-105460800D02*
X147116800Y-104648000D01*
X145999200Y-105460800D02*
X147116800Y-105460800D01*
X145999200Y-104648000D02*
X145999200Y-105460800D01*
X147116800Y-104648000D02*
X145999200Y-104648000D01*
X144576800Y-105460800D02*
X144576800Y-104648000D01*
X143459200Y-105460800D02*
X144576800Y-105460800D01*
X143459200Y-104648000D02*
X143459200Y-105460800D01*
X144576800Y-104648000D02*
X143459200Y-104648000D01*
X142036800Y-105460800D02*
X142036800Y-104648000D01*
X140919200Y-105460800D02*
X142036800Y-105460800D01*
X140919200Y-104648000D02*
X140919200Y-105460800D01*
X142036800Y-104648000D02*
X140919200Y-104648000D01*
X139496800Y-105460800D02*
X139496800Y-104648000D01*
X138379200Y-105460800D02*
X139496800Y-105460800D01*
X138379200Y-104648000D02*
X138379200Y-105460800D01*
X139496800Y-104648000D02*
X138379200Y-104648000D01*
X136956800Y-105460800D02*
X136956800Y-104648000D01*
X135839200Y-105460800D02*
X136956800Y-105460800D01*
X135839200Y-104648000D02*
X135839200Y-105460800D01*
X136956800Y-104648000D02*
X135839200Y-104648000D01*
X134416800Y-105460800D02*
X134416800Y-104648000D01*
X133299200Y-105460800D02*
X134416800Y-105460800D01*
X133299200Y-104648000D02*
X133299200Y-105460800D01*
X134416800Y-104648000D02*
X133299200Y-104648000D01*
X131876800Y-105460800D02*
X131876800Y-104648000D01*
X130759200Y-105460800D02*
X131876800Y-105460800D01*
X130759200Y-104648000D02*
X130759200Y-105460800D01*
X131876800Y-104648000D02*
X130759200Y-104648000D01*
X130759200Y-96723200D02*
X130759200Y-97536000D01*
X131876800Y-96723200D02*
X130759200Y-96723200D01*
X131876800Y-97536000D02*
X131876800Y-96723200D01*
X130759200Y-97536000D02*
X131876800Y-97536000D01*
X133299200Y-96723200D02*
X133299200Y-97536000D01*
X134416800Y-96723200D02*
X133299200Y-96723200D01*
X134416800Y-97536000D02*
X134416800Y-96723200D01*
X133299200Y-97536000D02*
X134416800Y-97536000D01*
X135839200Y-96723200D02*
X135839200Y-97536000D01*
X136956800Y-96723200D02*
X135839200Y-96723200D01*
X136956800Y-97536000D02*
X136956800Y-96723200D01*
X135839200Y-97536000D02*
X136956800Y-97536000D01*
X138379200Y-96723200D02*
X138379200Y-97536000D01*
X139496800Y-96723200D02*
X138379200Y-96723200D01*
X139496800Y-97536000D02*
X139496800Y-96723200D01*
X138379200Y-97536000D02*
X139496800Y-97536000D01*
X140919200Y-96723200D02*
X140919200Y-97536000D01*
X142036800Y-96723200D02*
X140919200Y-96723200D01*
X142036800Y-97536000D02*
X142036800Y-96723200D01*
X140919200Y-97536000D02*
X142036800Y-97536000D01*
X143459200Y-96723200D02*
X143459200Y-97536000D01*
X144576800Y-96723200D02*
X143459200Y-96723200D01*
X144576800Y-97536000D02*
X144576800Y-96723200D01*
X143459200Y-97536000D02*
X144576800Y-97536000D01*
X145999200Y-96723200D02*
X145999200Y-97536000D01*
X147116800Y-96723200D02*
X145999200Y-96723200D01*
X147116800Y-97536000D02*
X147116800Y-96723200D01*
X145999200Y-97536000D02*
X147116800Y-97536000D01*
X148539200Y-96723200D02*
X148539200Y-97536000D01*
X149656800Y-96723200D02*
X148539200Y-96723200D01*
X149656800Y-97536000D02*
X149656800Y-96723200D01*
X148539200Y-97536000D02*
X149656800Y-97536000D01*
X177927000Y-111014000D02*
X176927000Y-112014000D01*
X177927000Y-91694000D02*
X177927000Y-111014000D01*
X171577000Y-91694000D02*
X177927000Y-91694000D01*
X171577000Y-112014000D02*
X171577000Y-91694000D01*
X176927000Y-112014000D02*
X171577000Y-112014000D01*
X208360000Y-86971000D02*
X210123000Y-86972000D01*
X208360000Y-86971000D02*
X210123000Y-86972000D01*
X212472000Y-88191000D02*
X212472000Y-81481000D01*
X207972000Y-88191000D02*
X212472000Y-88191000D01*
X207972000Y-81481000D02*
X207972000Y-88191000D01*
X212472000Y-81481000D02*
X207972000Y-81481000D01*
X210132000Y-86971000D02*
G75*
G03X210132000Y-86971000I-890000J0D01*
G01*
X181022000Y-82447000D02*
X179259000Y-82446000D01*
X181022000Y-82447000D02*
X179259000Y-82446000D01*
X176910000Y-81227000D02*
X176910000Y-87937000D01*
X181410000Y-81227000D02*
X176910000Y-81227000D01*
X181410000Y-87937000D02*
X181410000Y-81227000D01*
X176910000Y-87937000D02*
X181410000Y-87937000D01*
X181030000Y-82447000D02*
G75*
G03X181030000Y-82447000I-890000J0D01*
G01*
X157908000Y-105307000D02*
X156145000Y-105306000D01*
X157908000Y-105307000D02*
X156145000Y-105306000D01*
X153796000Y-104087000D02*
X153796000Y-110797000D01*
X158296000Y-104087000D02*
X153796000Y-104087000D01*
X158296000Y-110797000D02*
X158296000Y-104087000D01*
X153796000Y-110797000D02*
X158296000Y-110797000D01*
X157916000Y-105307000D02*
G75*
G03X157916000Y-105307000I-890000J0D01*
G01*
X212598000Y-74930000D02*
X210668000Y-74930000D01*
X202438000Y-74930000D02*
X204368000Y-74930000D01*
X210668000Y-73680000D02*
X204368000Y-73680000D01*
X210668000Y-76180000D02*
X210668000Y-73680000D01*
X204368000Y-76180000D02*
X210668000Y-76180000D01*
X204368000Y-73680000D02*
X204368000Y-76180000D01*
X197612000Y-74930000D02*
X195682000Y-74930000D01*
X187452000Y-74930000D02*
X189382000Y-74930000D01*
X195682000Y-73680000D02*
X189382000Y-73680000D01*
X195682000Y-76180000D02*
X195682000Y-73680000D01*
X189382000Y-76180000D02*
X195682000Y-76180000D01*
X189382000Y-73680000D02*
X189382000Y-76180000D01*
X201930000Y-97536000D02*
X201930000Y-99466000D01*
X201930000Y-107696000D02*
X201930000Y-105766000D01*
X200680000Y-99466000D02*
X200680000Y-105766000D01*
X203180000Y-99466000D02*
X200680000Y-99466000D01*
X203180000Y-105766000D02*
X203180000Y-99466000D01*
X200680000Y-105766000D02*
X203180000Y-105766000D01*
X197612000Y-96012000D02*
X195682000Y-96012000D01*
X187452000Y-96012000D02*
X189382000Y-96012000D01*
X195682000Y-94762000D02*
X189382000Y-94762000D01*
X195682000Y-97262000D02*
X195682000Y-94762000D01*
X189382000Y-97262000D02*
X195682000Y-97262000D01*
X189382000Y-94762000D02*
X189382000Y-97262000D01*
X206502000Y-129540000D02*
X206502000Y-127610000D01*
X206502000Y-119380000D02*
X206502000Y-121310000D01*
X207752000Y-127610000D02*
X207752000Y-121310000D01*
X205252000Y-127610000D02*
X207752000Y-127610000D01*
X205252000Y-121310000D02*
X205252000Y-127610000D01*
X207752000Y-121310000D02*
X205252000Y-121310000D01*
X206502000Y-107696000D02*
X206502000Y-105766000D01*
X206502000Y-97536000D02*
X206502000Y-99466000D01*
X207752000Y-105766000D02*
X207752000Y-99466000D01*
X205252000Y-105766000D02*
X207752000Y-105766000D01*
X205252000Y-99466000D02*
X205252000Y-105766000D01*
X207752000Y-99466000D02*
X205252000Y-99466000D01*
X182626000Y-113284000D02*
X182626000Y-115214000D01*
X182626000Y-123444000D02*
X182626000Y-121514000D01*
X181376000Y-115214000D02*
X181376000Y-121514000D01*
X183876000Y-115214000D02*
X181376000Y-115214000D01*
X183876000Y-121514000D02*
X183876000Y-115214000D01*
X181376000Y-121514000D02*
X183876000Y-121514000D01*
X186436000Y-113284000D02*
X186436000Y-115214000D01*
X186436000Y-123444000D02*
X186436000Y-121514000D01*
X185186000Y-115214000D02*
X185186000Y-121514000D01*
X187686000Y-115214000D02*
X185186000Y-115214000D01*
X187686000Y-121514000D02*
X187686000Y-115214000D01*
X185186000Y-121514000D02*
X187686000Y-121514000D01*
X162814000Y-95758000D02*
X162814000Y-97688000D01*
X162814000Y-105918000D02*
X162814000Y-103988000D01*
X161564000Y-97688000D02*
X161564000Y-103988000D01*
X164064000Y-97688000D02*
X161564000Y-97688000D01*
X164064000Y-103988000D02*
X164064000Y-97688000D01*
X161564000Y-103988000D02*
X164064000Y-103988000D01*
X168910000Y-65786000D02*
X168910000Y-67716000D01*
X168910000Y-75946000D02*
X168910000Y-74016000D01*
X167660000Y-67716000D02*
X167660000Y-74016000D01*
X170160000Y-67716000D02*
X167660000Y-67716000D01*
X170160000Y-74016000D02*
X170160000Y-67716000D01*
X167660000Y-74016000D02*
X170160000Y-74016000D01*
X177800000Y-66040000D02*
X177800000Y-67970000D01*
X177800000Y-76200000D02*
X177800000Y-74270000D01*
X176550000Y-67970000D02*
X176550000Y-74270000D01*
X179050000Y-67970000D02*
X176550000Y-67970000D01*
X179050000Y-74270000D02*
X179050000Y-67970000D01*
X176550000Y-74270000D02*
X179050000Y-74270000D01*
X140970000Y-62230000D02*
X142900000Y-62230000D01*
X151130000Y-62230000D02*
X149200000Y-62230000D01*
X142900000Y-63480000D02*
X149200000Y-63480000D01*
X142900000Y-60980000D02*
X142900000Y-63480000D01*
X149200000Y-60980000D02*
X142900000Y-60980000D01*
X149200000Y-63480000D02*
X149200000Y-60980000D01*
X178562000Y-61976000D02*
X176632000Y-61976000D01*
X168402000Y-61976000D02*
X170332000Y-61976000D01*
X176632000Y-60726000D02*
X170332000Y-60726000D01*
X176632000Y-63226000D02*
X176632000Y-60726000D01*
X170332000Y-63226000D02*
X176632000Y-63226000D01*
X170332000Y-60726000D02*
X170332000Y-63226000D01*
X148082000Y-113284000D02*
X150012000Y-113284000D01*
X158242000Y-113284000D02*
X156312000Y-113284000D01*
X150012000Y-114534000D02*
X156312000Y-114534000D01*
X150012000Y-112034000D02*
X150012000Y-114534000D01*
X156312000Y-112034000D02*
X150012000Y-112034000D01*
X156312000Y-114534000D02*
X156312000Y-112034000D01*
X160020000Y-129159000D02*
X159385000Y-129794000D01*
X160020000Y-122174000D02*
X160020000Y-129159000D01*
X157480000Y-122174000D02*
X160020000Y-122174000D01*
X157480000Y-129794000D02*
X157480000Y-122174000D01*
X159385000Y-129794000D02*
X157480000Y-129794000D01*
X192493028Y-119147301D02*
G75*
G03X192636000Y-120076000I432972J-408699D01*
G01*
X195595976Y-119134466D02*
G75*
G03X192436000Y-119206000I-1549976J-1361534D01*
G01*
X192596171Y-120047418D02*
G75*
G03X195586000Y-120086000I1519829J1911418D01*
G01*
X195541620Y-120119996D02*
G75*
G03X195586000Y-119156000I-455620J503996D01*
G01*
X197493028Y-119147301D02*
G75*
G03X197636000Y-120076000I432972J-408699D01*
G01*
X200594239Y-119144313D02*
G75*
G03X197446000Y-119206000I-1548239J-1351687D01*
G01*
X197603667Y-120037737D02*
G75*
G03X200586000Y-120086000I1522333J1901737D01*
G01*
X200541532Y-120129995D02*
G75*
G03X200596000Y-119156000I-455532J513995D01*
G01*
X197416000Y-123956000D02*
X200726000Y-123956000D01*
X197036000Y-123956000D02*
X197416000Y-123956000D01*
X201106000Y-123956000D02*
X200726000Y-123956000D01*
X200726000Y-123566000D02*
X197416000Y-123566000D01*
X201666000Y-123566000D02*
X200726000Y-123566000D01*
X195716000Y-123566000D02*
X197416000Y-123566000D01*
X192416000Y-123566000D02*
X195716000Y-123566000D01*
X191476000Y-123566000D02*
X192416000Y-123566000D01*
X195716000Y-123956000D02*
X192416000Y-123956000D01*
X196096000Y-123956000D02*
X195716000Y-123956000D01*
X192036000Y-123956000D02*
X192416000Y-123956000D01*
X192566000Y-119886000D02*
X195616000Y-119256000D01*
X192436000Y-119756000D02*
X195496000Y-119126000D01*
X197576000Y-119886000D02*
X200616000Y-119256000D01*
X197446000Y-119756000D02*
X200496000Y-119126000D01*
X196096000Y-118236000D02*
X192036000Y-118236000D01*
X192036000Y-120776000D02*
X192036000Y-118236000D01*
X196096000Y-120776000D02*
X192036000Y-120776000D01*
X196096000Y-120776000D02*
X196096000Y-118236000D01*
X201106000Y-120776000D02*
X197036000Y-120776000D01*
X201106000Y-118236000D02*
X201106000Y-120776000D01*
X197036000Y-118236000D02*
X201106000Y-118236000D01*
X197036000Y-120776000D02*
X197036000Y-118236000D01*
X201666000Y-121036000D02*
X201666000Y-122556000D01*
X191476000Y-121036000D02*
X191476000Y-117986000D01*
X191476000Y-121036000D02*
X201666000Y-121036000D01*
X201666000Y-123566000D02*
X201666000Y-128266000D01*
X201666000Y-122556000D02*
X201666000Y-123566000D01*
X191476000Y-123566000D02*
X191476000Y-121036000D01*
X191476000Y-130426000D02*
X191476000Y-123566000D01*
X200726000Y-124716000D02*
X200336000Y-124716000D01*
X197416000Y-124716000D02*
X197796000Y-124716000D01*
X195716000Y-124716000D02*
X195336000Y-124716000D01*
X192416000Y-124716000D02*
X192796000Y-124716000D01*
X192416000Y-127886000D02*
X192416000Y-124716000D01*
X195716000Y-127886000D02*
X192416000Y-127886000D01*
X195716000Y-127886000D02*
X195716000Y-124716000D01*
X197416000Y-127886000D02*
X197416000Y-124716000D01*
X200726000Y-127886000D02*
X197416000Y-127886000D01*
X200726000Y-127886000D02*
X200726000Y-124716000D01*
X192036000Y-128526000D02*
X192036000Y-130426000D01*
X196096000Y-128526000D02*
X196096000Y-123956000D01*
X196096000Y-128526000D02*
X192036000Y-128526000D01*
X201106000Y-128526000D02*
X201106000Y-130426000D01*
X197036000Y-128526000D02*
X197036000Y-123956000D01*
X197036000Y-128526000D02*
X201106000Y-128526000D01*
X192036000Y-130426000D02*
X196096000Y-130426000D01*
X191476000Y-130426000D02*
X192036000Y-130426000D01*
X192036000Y-123956000D02*
X192036000Y-128526000D01*
X196096000Y-130426000D02*
X197036000Y-130426000D01*
X196096000Y-130426000D02*
X196096000Y-128526000D01*
X201106000Y-130426000D02*
X201666000Y-130426000D01*
X197036000Y-130426000D02*
X201106000Y-130426000D01*
X201106000Y-123956000D02*
X201106000Y-128526000D01*
X197036000Y-130426000D02*
X197036000Y-128526000D01*
X202166000Y-128016000D02*
X202166000Y-129666000D01*
X201666000Y-128266000D02*
X201666000Y-129416000D01*
X202166000Y-128016000D02*
X201666000Y-128266000D01*
X201666000Y-129416000D02*
X201666000Y-130426000D01*
X202166000Y-129666000D02*
X201666000Y-129416000D01*
X202166000Y-122806000D02*
X201666000Y-122556000D01*
X202166000Y-117986000D02*
X202166000Y-122806000D01*
X201666000Y-117986000D02*
X202166000Y-117986000D01*
X201666000Y-117986000D02*
X191476000Y-117986000D01*
X201666000Y-117986000D02*
X201666000Y-121036000D01*
X197796000Y-126746000D02*
X197796000Y-123956000D01*
X197796000Y-123956000D02*
X200336000Y-123956000D01*
X200336000Y-126746000D02*
X200336000Y-123956000D01*
X197796000Y-126746000D02*
X200336000Y-126746000D01*
X192796000Y-126746000D02*
X192796000Y-123956000D01*
X192796000Y-123956000D02*
X195336000Y-123956000D01*
X195336000Y-126746000D02*
X195336000Y-123956000D01*
X192796000Y-126746000D02*
X195336000Y-126746000D01*
X132842000Y-77089000D02*
X133477000Y-76454000D01*
X132842000Y-84074000D02*
X132842000Y-77089000D01*
X135382000Y-84074000D02*
X132842000Y-84074000D01*
X135382000Y-76454000D02*
X135382000Y-84074000D01*
X133477000Y-76454000D02*
X135382000Y-76454000D01*
X128270000Y-77089000D02*
X128905000Y-76454000D01*
X128270000Y-84074000D02*
X128270000Y-77089000D01*
X130810000Y-84074000D02*
X128270000Y-84074000D01*
X130810000Y-76454000D02*
X130810000Y-84074000D01*
X128905000Y-76454000D02*
X130810000Y-76454000D01*
X161544000Y-109855000D02*
X162179000Y-109220000D01*
X161544000Y-116840000D02*
X161544000Y-109855000D01*
X164084000Y-116840000D02*
X161544000Y-116840000D01*
X164084000Y-109220000D02*
X164084000Y-116840000D01*
X162179000Y-109220000D02*
X164084000Y-109220000D01*
X193548000Y-109093000D02*
X192913000Y-109728000D01*
X193548000Y-102108000D02*
X193548000Y-109093000D01*
X191008000Y-102108000D02*
X193548000Y-102108000D01*
X191008000Y-109728000D02*
X191008000Y-102108000D01*
X192913000Y-109728000D02*
X191008000Y-109728000D01*
X134912972Y-71352699D02*
G75*
G03X134770000Y-70424000I-432972J408699D01*
G01*
X131810024Y-71365534D02*
G75*
G03X134970000Y-71294000I1549976J1361534D01*
G01*
X134809829Y-70452582D02*
G75*
G03X131820000Y-70414000I-1519829J-1911418D01*
G01*
X131864380Y-70380004D02*
G75*
G03X131820000Y-71344000I455620J-503996D01*
G01*
X129912972Y-71352699D02*
G75*
G03X129770000Y-70424000I-432972J408699D01*
G01*
X126811761Y-71355687D02*
G75*
G03X129960000Y-71294000I1548239J1351687D01*
G01*
X129802333Y-70462263D02*
G75*
G03X126820000Y-70414000I-1522333J-1901737D01*
G01*
X126864468Y-70370005D02*
G75*
G03X126810000Y-71344000I455532J-513995D01*
G01*
X129990000Y-66544000D02*
X126680000Y-66544000D01*
X130370000Y-66544000D02*
X129990000Y-66544000D01*
X126300000Y-66544000D02*
X126680000Y-66544000D01*
X126680000Y-66934000D02*
X129990000Y-66934000D01*
X125740000Y-66934000D02*
X126680000Y-66934000D01*
X131690000Y-66934000D02*
X129990000Y-66934000D01*
X134990000Y-66934000D02*
X131690000Y-66934000D01*
X135930000Y-66934000D02*
X134990000Y-66934000D01*
X131690000Y-66544000D02*
X134990000Y-66544000D01*
X131310000Y-66544000D02*
X131690000Y-66544000D01*
X135370000Y-66544000D02*
X134990000Y-66544000D01*
X134840000Y-70614000D02*
X131790000Y-71244000D01*
X134970000Y-70744000D02*
X131910000Y-71374000D01*
X129830000Y-70614000D02*
X126790000Y-71244000D01*
X129960000Y-70744000D02*
X126910000Y-71374000D01*
X131310000Y-72264000D02*
X135370000Y-72264000D01*
X135370000Y-69724000D02*
X135370000Y-72264000D01*
X131310000Y-69724000D02*
X135370000Y-69724000D01*
X131310000Y-69724000D02*
X131310000Y-72264000D01*
X126300000Y-69724000D02*
X130370000Y-69724000D01*
X126300000Y-72264000D02*
X126300000Y-69724000D01*
X130370000Y-72264000D02*
X126300000Y-72264000D01*
X130370000Y-69724000D02*
X130370000Y-72264000D01*
X125740000Y-69464000D02*
X125740000Y-67944000D01*
X135930000Y-69464000D02*
X135930000Y-72514000D01*
X135930000Y-69464000D02*
X125740000Y-69464000D01*
X125740000Y-66934000D02*
X125740000Y-62234000D01*
X125740000Y-67944000D02*
X125740000Y-66934000D01*
X135930000Y-66934000D02*
X135930000Y-69464000D01*
X135930000Y-60074000D02*
X135930000Y-66934000D01*
X126680000Y-65784000D02*
X127070000Y-65784000D01*
X129990000Y-65784000D02*
X129610000Y-65784000D01*
X131690000Y-65784000D02*
X132070000Y-65784000D01*
X134990000Y-65784000D02*
X134610000Y-65784000D01*
X134990000Y-62614000D02*
X134990000Y-65784000D01*
X131690000Y-62614000D02*
X134990000Y-62614000D01*
X131690000Y-62614000D02*
X131690000Y-65784000D01*
X129990000Y-62614000D02*
X129990000Y-65784000D01*
X126680000Y-62614000D02*
X129990000Y-62614000D01*
X126680000Y-62614000D02*
X126680000Y-65784000D01*
X135370000Y-61974000D02*
X135370000Y-60074000D01*
X131310000Y-61974000D02*
X131310000Y-66544000D01*
X131310000Y-61974000D02*
X135370000Y-61974000D01*
X126300000Y-61974000D02*
X126300000Y-60074000D01*
X130370000Y-61974000D02*
X130370000Y-66544000D01*
X130370000Y-61974000D02*
X126300000Y-61974000D01*
X135370000Y-60074000D02*
X131310000Y-60074000D01*
X135930000Y-60074000D02*
X135370000Y-60074000D01*
X135370000Y-66544000D02*
X135370000Y-61974000D01*
X131310000Y-60074000D02*
X130370000Y-60074000D01*
X131310000Y-60074000D02*
X131310000Y-61974000D01*
X126300000Y-60074000D02*
X125740000Y-60074000D01*
X130370000Y-60074000D02*
X126300000Y-60074000D01*
X126300000Y-66544000D02*
X126300000Y-61974000D01*
X130370000Y-60074000D02*
X130370000Y-61974000D01*
X125240000Y-62484000D02*
X125240000Y-60834000D01*
X125740000Y-62234000D02*
X125740000Y-61084000D01*
X125240000Y-62484000D02*
X125740000Y-62234000D01*
X125740000Y-61084000D02*
X125740000Y-60074000D01*
X125240000Y-60834000D02*
X125740000Y-61084000D01*
X125240000Y-67694000D02*
X125740000Y-67944000D01*
X125240000Y-72514000D02*
X125240000Y-67694000D01*
X125740000Y-72514000D02*
X125240000Y-72514000D01*
X125740000Y-72514000D02*
X135930000Y-72514000D01*
X125740000Y-72514000D02*
X125740000Y-69464000D01*
X129610000Y-63754000D02*
X129610000Y-66544000D01*
X129610000Y-66544000D02*
X127070000Y-66544000D01*
X127070000Y-63754000D02*
X127070000Y-66544000D01*
X129610000Y-63754000D02*
X127070000Y-63754000D01*
X134610000Y-63754000D02*
X134610000Y-66544000D01*
X134610000Y-66544000D02*
X132070000Y-66544000D01*
X132070000Y-63754000D02*
X132070000Y-66544000D01*
X134610000Y-63754000D02*
X132070000Y-63754000D01*
X155956000Y-61341000D02*
X156591000Y-60706000D01*
X155956000Y-63246000D02*
X155956000Y-61341000D01*
X158496000Y-63246000D02*
X155956000Y-63246000D01*
X158496000Y-60706000D02*
X158496000Y-63246000D01*
X156591000Y-60706000D02*
X158496000Y-60706000D01*
X146685000Y-83820000D02*
X146050000Y-83185000D01*
X153670000Y-83820000D02*
X146685000Y-83820000D01*
X153670000Y-81280000D02*
X153670000Y-83820000D01*
X146050000Y-81280000D02*
X153670000Y-81280000D01*
X146050000Y-83185000D02*
X146050000Y-81280000D01*
X142621000Y-81788000D02*
X143256000Y-82423000D01*
X138176000Y-81788000D02*
X142621000Y-81788000D01*
X138176000Y-84328000D02*
X138176000Y-81788000D01*
X143256000Y-84328000D02*
X138176000Y-84328000D01*
X143256000Y-82423000D02*
X143256000Y-84328000D01*
X200446000Y-80396000D02*
X200446000Y-89396000D01*
X205446000Y-80396000D02*
X200446000Y-80396000D01*
X205446000Y-89396000D02*
X205446000Y-80396000D01*
X200446000Y-89396000D02*
X205446000Y-89396000D01*
X216015500Y-113265241D02*
X215215500Y-113265241D01*
X215615500Y-112865241D02*
X215615500Y-113665241D01*
X217868000Y-116292000D02*
G75*
G03X217868000Y-116292000I-4000000J0D01*
G01*
X216015500Y-101835241D02*
X215215500Y-101835241D01*
X215615500Y-101435241D02*
X215615500Y-102235241D01*
X217868000Y-104862000D02*
G75*
G03X217868000Y-104862000I-4000000J0D01*
G01*
X159493241Y-86752500D02*
X159493241Y-87552500D01*
X159093241Y-87152500D02*
X159893241Y-87152500D01*
X166520000Y-88900000D02*
G75*
G03X166520000Y-88900000I-4000000J0D01*
G01*
X196457500Y-65005241D02*
X195657500Y-65005241D01*
X196057500Y-64605241D02*
X196057500Y-65405241D01*
X198310000Y-68032000D02*
G75*
G03X198310000Y-68032000I-4000000J0D01*
G01*
X134227500Y-112503241D02*
X133427500Y-112503241D01*
X133827500Y-112103241D02*
X133827500Y-112903241D01*
X136080000Y-115530000D02*
G75*
G03X136080000Y-115530000I-4000000J0D01*
G01*
X139578000Y-90638000D02*
X148578000Y-90638000D01*
X139578000Y-85638000D02*
X139578000Y-90638000D01*
X148578000Y-85638000D02*
X139578000Y-85638000D01*
X148578000Y-90638000D02*
X148578000Y-85638000D01*
D12*
X130929142Y-85778380D02*
X130452952Y-85778380D01*
X130405333Y-86254571D01*
X130452952Y-86206952D01*
X130548190Y-86159333D01*
X130786285Y-86159333D01*
X130881523Y-86206952D01*
X130929142Y-86254571D01*
X130976761Y-86349809D01*
X130976761Y-86587904D01*
X130929142Y-86683142D01*
X130881523Y-86730761D01*
X130786285Y-86778380D01*
X130548190Y-86778380D01*
X130452952Y-86730761D01*
X130405333Y-86683142D01*
X131595809Y-85778380D02*
X131691047Y-85778380D01*
X131786285Y-85826000D01*
X131833904Y-85873619D01*
X131881523Y-85968857D01*
X131929142Y-86159333D01*
X131929142Y-86397428D01*
X131881523Y-86587904D01*
X131833904Y-86683142D01*
X131786285Y-86730761D01*
X131691047Y-86778380D01*
X131595809Y-86778380D01*
X131500571Y-86730761D01*
X131452952Y-86683142D01*
X131405333Y-86587904D01*
X131357714Y-86397428D01*
X131357714Y-86159333D01*
X131405333Y-85968857D01*
X131452952Y-85873619D01*
X131500571Y-85826000D01*
X131595809Y-85778380D01*
X132357714Y-86778380D02*
X132357714Y-85778380D01*
X132452952Y-86397428D02*
X132738666Y-86778380D01*
X132738666Y-86111714D02*
X132357714Y-86492666D01*
X131634380Y-90242190D02*
X131327714Y-89804095D01*
X131108666Y-90242190D02*
X131108666Y-89322190D01*
X131459142Y-89322190D01*
X131546761Y-89366000D01*
X131590571Y-89409809D01*
X131634380Y-89497428D01*
X131634380Y-89628857D01*
X131590571Y-89716476D01*
X131546761Y-89760285D01*
X131459142Y-89804095D01*
X131108666Y-89804095D01*
X131897238Y-89322190D02*
X132203904Y-90242190D01*
X132510571Y-89322190D01*
X132773428Y-89409809D02*
X132817238Y-89366000D01*
X132904857Y-89322190D01*
X133123904Y-89322190D01*
X133211523Y-89366000D01*
X133255333Y-89409809D01*
X133299142Y-89497428D01*
X133299142Y-89585047D01*
X133255333Y-89716476D01*
X132729619Y-90242190D01*
X133299142Y-90242190D01*
X148748857Y-93416380D02*
X148748857Y-92416380D01*
X149082190Y-93130666D01*
X149415523Y-92416380D01*
X149415523Y-93416380D01*
X150082190Y-92416380D02*
X150272666Y-92416380D01*
X150367904Y-92464000D01*
X150463142Y-92559238D01*
X150510761Y-92749714D01*
X150510761Y-93083047D01*
X150463142Y-93273523D01*
X150367904Y-93368761D01*
X150272666Y-93416380D01*
X150082190Y-93416380D01*
X149986952Y-93368761D01*
X149891714Y-93273523D01*
X149844095Y-93083047D01*
X149844095Y-92749714D01*
X149891714Y-92559238D01*
X149986952Y-92464000D01*
X150082190Y-92416380D01*
X146264380Y-93773523D02*
X146978666Y-93773523D01*
X147121523Y-93821142D01*
X147216761Y-93916380D01*
X147264380Y-94059238D01*
X147264380Y-94154476D01*
X147264380Y-92773523D02*
X147264380Y-93344952D01*
X147264380Y-93059238D02*
X146264380Y-93059238D01*
X146407238Y-93154476D01*
X146502476Y-93249714D01*
X146550095Y-93344952D01*
X146264380Y-92440190D02*
X146264380Y-91821142D01*
X146645333Y-92154476D01*
X146645333Y-92011619D01*
X146692952Y-91916380D01*
X146740571Y-91868761D01*
X146835809Y-91821142D01*
X147073904Y-91821142D01*
X147169142Y-91868761D01*
X147216761Y-91916380D01*
X147264380Y-92011619D01*
X147264380Y-92297333D01*
X147216761Y-92392571D01*
X147169142Y-92440190D01*
X142184761Y-118876380D02*
X142422857Y-119876380D01*
X142613333Y-119162095D01*
X142803809Y-119876380D01*
X143041904Y-118876380D01*
X143851428Y-119876380D02*
X143851428Y-119352571D01*
X143803809Y-119257333D01*
X143708571Y-119209714D01*
X143518095Y-119209714D01*
X143422857Y-119257333D01*
X143851428Y-119828761D02*
X143756190Y-119876380D01*
X143518095Y-119876380D01*
X143422857Y-119828761D01*
X143375238Y-119733523D01*
X143375238Y-119638285D01*
X143422857Y-119543047D01*
X143518095Y-119495428D01*
X143756190Y-119495428D01*
X143851428Y-119447809D01*
X144232380Y-119209714D02*
X144470476Y-119876380D01*
X144708571Y-119209714D01*
X145470476Y-119828761D02*
X145375238Y-119876380D01*
X145184761Y-119876380D01*
X145089523Y-119828761D01*
X145041904Y-119733523D01*
X145041904Y-119352571D01*
X145089523Y-119257333D01*
X145184761Y-119209714D01*
X145375238Y-119209714D01*
X145470476Y-119257333D01*
X145518095Y-119352571D01*
X145518095Y-119447809D01*
X145041904Y-119543047D01*
X145899047Y-119590666D02*
X146375238Y-119590666D01*
X145803809Y-119876380D02*
X146137142Y-118876380D01*
X146470476Y-119876380D01*
X146756190Y-118971619D02*
X146803809Y-118924000D01*
X146899047Y-118876380D01*
X147137142Y-118876380D01*
X147232380Y-118924000D01*
X147280000Y-118971619D01*
X147327619Y-119066857D01*
X147327619Y-119162095D01*
X147280000Y-119304952D01*
X146708571Y-119876380D01*
X147327619Y-119876380D01*
X144232380Y-117903523D02*
X144946666Y-117903523D01*
X145089523Y-117951142D01*
X145184761Y-118046380D01*
X145232380Y-118189238D01*
X145232380Y-118284476D01*
X145232380Y-116903523D02*
X145232380Y-117474952D01*
X145232380Y-117189238D02*
X144232380Y-117189238D01*
X144375238Y-117284476D01*
X144470476Y-117379714D01*
X144518095Y-117474952D01*
X144327619Y-116522571D02*
X144280000Y-116474952D01*
X144232380Y-116379714D01*
X144232380Y-116141619D01*
X144280000Y-116046380D01*
X144327619Y-115998761D01*
X144422857Y-115951142D01*
X144518095Y-115951142D01*
X144660952Y-115998761D01*
X145232380Y-116570190D01*
X145232380Y-115951142D01*
X137866761Y-116590380D02*
X138104857Y-117590380D01*
X138295333Y-116876095D01*
X138485809Y-117590380D01*
X138723904Y-116590380D01*
X139533428Y-117590380D02*
X139533428Y-117066571D01*
X139485809Y-116971333D01*
X139390571Y-116923714D01*
X139200095Y-116923714D01*
X139104857Y-116971333D01*
X139533428Y-117542761D02*
X139438190Y-117590380D01*
X139200095Y-117590380D01*
X139104857Y-117542761D01*
X139057238Y-117447523D01*
X139057238Y-117352285D01*
X139104857Y-117257047D01*
X139200095Y-117209428D01*
X139438190Y-117209428D01*
X139533428Y-117161809D01*
X139914380Y-116923714D02*
X140152476Y-117590380D01*
X140390571Y-116923714D01*
X141152476Y-117542761D02*
X141057238Y-117590380D01*
X140866761Y-117590380D01*
X140771523Y-117542761D01*
X140723904Y-117447523D01*
X140723904Y-117066571D01*
X140771523Y-116971333D01*
X140866761Y-116923714D01*
X141057238Y-116923714D01*
X141152476Y-116971333D01*
X141200095Y-117066571D01*
X141200095Y-117161809D01*
X140723904Y-117257047D01*
X141581047Y-117304666D02*
X142057238Y-117304666D01*
X141485809Y-117590380D02*
X141819142Y-116590380D01*
X142152476Y-117590380D01*
X143009619Y-117590380D02*
X142438190Y-117590380D01*
X142723904Y-117590380D02*
X142723904Y-116590380D01*
X142628666Y-116733238D01*
X142533428Y-116828476D01*
X142438190Y-116876095D01*
X139914380Y-115141333D02*
X140628666Y-115141333D01*
X140771523Y-115188952D01*
X140866761Y-115284190D01*
X140914380Y-115427047D01*
X140914380Y-115522285D01*
X140009619Y-114712761D02*
X139962000Y-114665142D01*
X139914380Y-114569904D01*
X139914380Y-114331809D01*
X139962000Y-114236571D01*
X140009619Y-114188952D01*
X140104857Y-114141333D01*
X140200095Y-114141333D01*
X140342952Y-114188952D01*
X140914380Y-114760380D01*
X140914380Y-114141333D01*
D13*
X170416091Y-121646182D02*
X170416091Y-120005568D01*
X171353585Y-121646182D01*
X171353585Y-120005568D01*
X172134830Y-120786813D02*
X172681701Y-120786813D01*
X172916074Y-121646182D02*
X172134830Y-121646182D01*
X172134830Y-120005568D01*
X172916074Y-120005568D01*
X174400439Y-120005568D02*
X173619195Y-120005568D01*
X173541070Y-120786813D01*
X173619195Y-120708688D01*
X173775444Y-120630564D01*
X174166066Y-120630564D01*
X174322315Y-120708688D01*
X174400439Y-120786813D01*
X174478564Y-120943062D01*
X174478564Y-121333684D01*
X174400439Y-121489933D01*
X174322315Y-121568058D01*
X174166066Y-121646182D01*
X173775444Y-121646182D01*
X173619195Y-121568058D01*
X173541070Y-121489933D01*
X175962929Y-120005568D02*
X175181684Y-120005568D01*
X175103560Y-120786813D01*
X175181684Y-120708688D01*
X175337933Y-120630564D01*
X175728555Y-120630564D01*
X175884804Y-120708688D01*
X175962929Y-120786813D01*
X176041053Y-120943062D01*
X176041053Y-121333684D01*
X175962929Y-121489933D01*
X175884804Y-121568058D01*
X175728555Y-121646182D01*
X175337933Y-121646182D01*
X175181684Y-121568058D01*
X175103560Y-121489933D01*
X176587925Y-120005568D02*
X177603543Y-120005568D01*
X177056672Y-120630564D01*
X177291045Y-120630564D01*
X177447294Y-120708688D01*
X177525418Y-120786813D01*
X177603543Y-120943062D01*
X177603543Y-121333684D01*
X177525418Y-121489933D01*
X177447294Y-121568058D01*
X177291045Y-121646182D01*
X176822298Y-121646182D01*
X176666049Y-121568058D01*
X176587925Y-121489933D01*
X178228539Y-120161817D02*
X178306663Y-120083693D01*
X178462912Y-120005568D01*
X178853535Y-120005568D01*
X179009783Y-120083693D01*
X179087908Y-120161817D01*
X179166032Y-120318066D01*
X179166032Y-120474315D01*
X179087908Y-120708688D01*
X178150414Y-121646182D01*
X179166032Y-121646182D01*
X191496182Y-90441908D02*
X189855568Y-90441908D01*
X191496182Y-89504414D01*
X189855568Y-89504414D01*
X190636813Y-88723169D02*
X190636813Y-88176298D01*
X191496182Y-87941925D02*
X191496182Y-88723169D01*
X189855568Y-88723169D01*
X189855568Y-87941925D01*
X189855568Y-86457560D02*
X189855568Y-87238804D01*
X190636813Y-87316929D01*
X190558688Y-87238804D01*
X190480564Y-87082555D01*
X190480564Y-86691933D01*
X190558688Y-86535684D01*
X190636813Y-86457560D01*
X190793062Y-86379435D01*
X191183684Y-86379435D01*
X191339933Y-86457560D01*
X191418058Y-86535684D01*
X191496182Y-86691933D01*
X191496182Y-87082555D01*
X191418058Y-87238804D01*
X191339933Y-87316929D01*
X189855568Y-84895070D02*
X189855568Y-85676315D01*
X190636813Y-85754439D01*
X190558688Y-85676315D01*
X190480564Y-85520066D01*
X190480564Y-85129444D01*
X190558688Y-84973195D01*
X190636813Y-84895070D01*
X190793062Y-84816946D01*
X191183684Y-84816946D01*
X191339933Y-84895070D01*
X191418058Y-84973195D01*
X191496182Y-85129444D01*
X191496182Y-85520066D01*
X191418058Y-85676315D01*
X191339933Y-85754439D01*
X189855568Y-84270074D02*
X189855568Y-83254456D01*
X190480564Y-83801327D01*
X190480564Y-83566954D01*
X190558688Y-83410705D01*
X190636813Y-83332581D01*
X190793062Y-83254456D01*
X191183684Y-83254456D01*
X191339933Y-83332581D01*
X191418058Y-83410705D01*
X191496182Y-83566954D01*
X191496182Y-84035701D01*
X191418058Y-84191950D01*
X191339933Y-84270074D01*
X190011817Y-82629460D02*
X189933693Y-82551336D01*
X189855568Y-82395087D01*
X189855568Y-82004465D01*
X189933693Y-81848216D01*
X190011817Y-81770091D01*
X190168066Y-81691967D01*
X190324315Y-81691967D01*
X190558688Y-81770091D01*
X191496182Y-82707585D01*
X191496182Y-81691967D01*
X138742348Y-86837018D02*
X138742348Y-85741674D01*
X140385364Y-86445823D01*
X139290020Y-84411613D02*
X140385364Y-84411613D01*
X138664109Y-84802807D02*
X139837692Y-85194002D01*
X139837692Y-84176897D01*
X140385364Y-83550986D02*
X138742348Y-83550986D01*
X139524736Y-83550986D02*
X139524736Y-82612119D01*
X140385364Y-82612119D02*
X138742348Y-82612119D01*
X140228886Y-80890865D02*
X140307125Y-80969103D01*
X140385364Y-81203820D01*
X140385364Y-81360298D01*
X140307125Y-81595014D01*
X140150647Y-81751492D01*
X139994169Y-81829731D01*
X139681214Y-81907970D01*
X139446497Y-81907970D01*
X139133542Y-81829731D01*
X138977064Y-81751492D01*
X138820587Y-81595014D01*
X138742348Y-81360298D01*
X138742348Y-81203820D01*
X138820587Y-80969103D01*
X138898825Y-80890865D01*
X140385364Y-79326087D02*
X140385364Y-80264954D01*
X140385364Y-79795521D02*
X138742348Y-79795521D01*
X138977064Y-79951998D01*
X139133542Y-80108476D01*
X139211781Y-80264954D01*
X139290020Y-77917788D02*
X140385364Y-77917788D01*
X138664109Y-78308982D02*
X139837692Y-78700177D01*
X139837692Y-77683071D01*
X132860307Y-100193089D02*
X133954632Y-101834577D01*
X133954632Y-100193089D02*
X132860307Y-101834577D01*
X135517954Y-101834577D02*
X134970792Y-101052916D01*
X134579961Y-101834577D02*
X134579961Y-100193089D01*
X135205290Y-100193089D01*
X135361622Y-100271256D01*
X135439788Y-100349422D01*
X135517954Y-100505754D01*
X135517954Y-100740252D01*
X135439788Y-100896584D01*
X135361622Y-100974750D01*
X135205290Y-101052916D01*
X134579961Y-101052916D01*
X136143283Y-100349422D02*
X136221449Y-100271256D01*
X136377781Y-100193089D01*
X136768612Y-100193089D01*
X136924944Y-100271256D01*
X137003110Y-100349422D01*
X137081276Y-100505754D01*
X137081276Y-100662086D01*
X137003110Y-100896584D01*
X136065117Y-101834577D01*
X137081276Y-101834577D01*
X137706605Y-100349422D02*
X137784771Y-100271256D01*
X137941103Y-100193089D01*
X138331934Y-100193089D01*
X138488266Y-100271256D01*
X138566432Y-100349422D01*
X138644598Y-100505754D01*
X138644598Y-100662086D01*
X138566432Y-100896584D01*
X137628439Y-101834577D01*
X138644598Y-101834577D01*
X139660757Y-100193089D02*
X139817089Y-100193089D01*
X139973422Y-100271256D01*
X140051588Y-100349422D01*
X140129754Y-100505754D01*
X140207920Y-100818418D01*
X140207920Y-101209249D01*
X140129754Y-101521913D01*
X140051588Y-101678245D01*
X139973422Y-101756411D01*
X139817089Y-101834577D01*
X139660757Y-101834577D01*
X139504425Y-101756411D01*
X139426259Y-101678245D01*
X139348093Y-101521913D01*
X139269927Y-101209249D01*
X139269927Y-100818418D01*
X139348093Y-100505754D01*
X139426259Y-100349422D01*
X139504425Y-100271256D01*
X139660757Y-100193089D01*
X141614910Y-100193089D02*
X141302245Y-100193089D01*
X141145913Y-100271256D01*
X141067747Y-100349422D01*
X140911415Y-100583920D01*
X140833249Y-100896584D01*
X140833249Y-101521913D01*
X140911415Y-101678245D01*
X140989581Y-101756411D01*
X141145913Y-101834577D01*
X141458577Y-101834577D01*
X141614910Y-101756411D01*
X141693076Y-101678245D01*
X141771242Y-101521913D01*
X141771242Y-101131083D01*
X141693076Y-100974750D01*
X141614910Y-100896584D01*
X141458577Y-100818418D01*
X141145913Y-100818418D01*
X140989581Y-100896584D01*
X140911415Y-100974750D01*
X140833249Y-101131083D01*
X143412730Y-101678245D02*
X143334564Y-101756411D01*
X143100065Y-101834577D01*
X142943733Y-101834577D01*
X142709235Y-101756411D01*
X142552903Y-101600079D01*
X142474737Y-101443747D01*
X142396571Y-101131083D01*
X142396571Y-100896584D01*
X142474737Y-100583920D01*
X142552903Y-100427588D01*
X142709235Y-100271256D01*
X142943733Y-100193089D01*
X143100065Y-100193089D01*
X143334564Y-100271256D01*
X143412730Y-100349422D01*
X144116225Y-101834577D02*
X144116225Y-100193089D01*
X144741553Y-100193089D01*
X144897886Y-100271256D01*
X144976052Y-100349422D01*
X145054218Y-100505754D01*
X145054218Y-100740252D01*
X144976052Y-100896584D01*
X144897886Y-100974750D01*
X144741553Y-101052916D01*
X144116225Y-101052916D01*
X145757713Y-101209249D02*
X147008370Y-101209249D01*
X148337194Y-100974750D02*
X147790031Y-100974750D01*
X147790031Y-101834577D02*
X147790031Y-100193089D01*
X148571692Y-100193089D01*
D12*
X175204380Y-98305619D02*
X175204380Y-98781809D01*
X174204380Y-98781809D01*
X174204380Y-98115142D02*
X174204380Y-97543714D01*
X175204380Y-97829428D02*
X174204380Y-97829428D01*
X174204380Y-97353238D02*
X175204380Y-97019904D01*
X174204380Y-96686571D01*
X174823428Y-96353238D02*
X174823428Y-95591333D01*
X174632952Y-94972285D02*
X174585333Y-95067523D01*
X174537714Y-95115142D01*
X174442476Y-95162761D01*
X174394857Y-95162761D01*
X174299619Y-95115142D01*
X174252000Y-95067523D01*
X174204380Y-94972285D01*
X174204380Y-94781809D01*
X174252000Y-94686571D01*
X174299619Y-94638952D01*
X174394857Y-94591333D01*
X174442476Y-94591333D01*
X174537714Y-94638952D01*
X174585333Y-94686571D01*
X174632952Y-94781809D01*
X174632952Y-94972285D01*
X174680571Y-95067523D01*
X174728190Y-95115142D01*
X174823428Y-95162761D01*
X175013904Y-95162761D01*
X175109142Y-95115142D01*
X175156761Y-95067523D01*
X175204380Y-94972285D01*
X175204380Y-94781809D01*
X175156761Y-94686571D01*
X175109142Y-94638952D01*
X175013904Y-94591333D01*
X174823428Y-94591333D01*
X174728190Y-94638952D01*
X174680571Y-94686571D01*
X174632952Y-94781809D01*
X174537714Y-93734190D02*
X175204380Y-93734190D01*
X174156761Y-93972285D02*
X174871047Y-94210380D01*
X174871047Y-93591333D01*
X174204380Y-93305619D02*
X174204380Y-92638952D01*
X175204380Y-93067523D01*
X173990095Y-101306380D02*
X173990095Y-102115904D01*
X174037714Y-102211142D01*
X174085333Y-102258761D01*
X174180571Y-102306380D01*
X174371047Y-102306380D01*
X174466285Y-102258761D01*
X174513904Y-102211142D01*
X174561523Y-102115904D01*
X174561523Y-101306380D01*
X175561523Y-102306380D02*
X174990095Y-102306380D01*
X175275809Y-102306380D02*
X175275809Y-101306380D01*
X175180571Y-101449238D01*
X175085333Y-101544476D01*
X174990095Y-101592095D01*
X213161619Y-82446666D02*
X213114000Y-82399047D01*
X213066380Y-82303809D01*
X213066380Y-82065714D01*
X213114000Y-81970476D01*
X213161619Y-81922857D01*
X213256857Y-81875238D01*
X213352095Y-81875238D01*
X213494952Y-81922857D01*
X214066380Y-82494285D01*
X214066380Y-81875238D01*
X213066380Y-81256190D02*
X213066380Y-81160952D01*
X213114000Y-81065714D01*
X213161619Y-81018095D01*
X213256857Y-80970476D01*
X213447333Y-80922857D01*
X213685428Y-80922857D01*
X213875904Y-80970476D01*
X213971142Y-81018095D01*
X214018761Y-81065714D01*
X214066380Y-81160952D01*
X214066380Y-81256190D01*
X214018761Y-81351428D01*
X213971142Y-81399047D01*
X213875904Y-81446666D01*
X213685428Y-81494285D01*
X213447333Y-81494285D01*
X213256857Y-81446666D01*
X213161619Y-81399047D01*
X213114000Y-81351428D01*
X213066380Y-81256190D01*
X214066380Y-80494285D02*
X213066380Y-80494285D01*
X213685428Y-80399047D02*
X214066380Y-80113333D01*
X213399714Y-80113333D02*
X213780666Y-80494285D01*
X210638190Y-84773619D02*
X210200095Y-85080285D01*
X210638190Y-85299333D02*
X209718190Y-85299333D01*
X209718190Y-84948857D01*
X209762000Y-84861238D01*
X209805809Y-84817428D01*
X209893428Y-84773619D01*
X210024857Y-84773619D01*
X210112476Y-84817428D01*
X210156285Y-84861238D01*
X210200095Y-84948857D01*
X210200095Y-85299333D01*
X209718190Y-84510761D02*
X210638190Y-84204095D01*
X209718190Y-83897428D01*
X209718190Y-83196476D02*
X209718190Y-83371714D01*
X209762000Y-83459333D01*
X209805809Y-83503142D01*
X209937238Y-83590761D01*
X210112476Y-83634571D01*
X210462952Y-83634571D01*
X210550571Y-83590761D01*
X210594380Y-83546952D01*
X210638190Y-83459333D01*
X210638190Y-83284095D01*
X210594380Y-83196476D01*
X210550571Y-83152666D01*
X210462952Y-83108857D01*
X210243904Y-83108857D01*
X210156285Y-83152666D01*
X210112476Y-83196476D01*
X210068666Y-83284095D01*
X210068666Y-83459333D01*
X210112476Y-83546952D01*
X210156285Y-83590761D01*
X210243904Y-83634571D01*
X182207619Y-85748666D02*
X182160000Y-85701047D01*
X182112380Y-85605809D01*
X182112380Y-85367714D01*
X182160000Y-85272476D01*
X182207619Y-85224857D01*
X182302857Y-85177238D01*
X182398095Y-85177238D01*
X182540952Y-85224857D01*
X183112380Y-85796285D01*
X183112380Y-85177238D01*
X182112380Y-84558190D02*
X182112380Y-84462952D01*
X182160000Y-84367714D01*
X182207619Y-84320095D01*
X182302857Y-84272476D01*
X182493333Y-84224857D01*
X182731428Y-84224857D01*
X182921904Y-84272476D01*
X183017142Y-84320095D01*
X183064761Y-84367714D01*
X183112380Y-84462952D01*
X183112380Y-84558190D01*
X183064761Y-84653428D01*
X183017142Y-84701047D01*
X182921904Y-84748666D01*
X182731428Y-84796285D01*
X182493333Y-84796285D01*
X182302857Y-84748666D01*
X182207619Y-84701047D01*
X182160000Y-84653428D01*
X182112380Y-84558190D01*
X183112380Y-83796285D02*
X182112380Y-83796285D01*
X182731428Y-83701047D02*
X183112380Y-83415333D01*
X182445714Y-83415333D02*
X182826666Y-83796285D01*
X179576190Y-85739619D02*
X179138095Y-86046285D01*
X179576190Y-86265333D02*
X178656190Y-86265333D01*
X178656190Y-85914857D01*
X178700000Y-85827238D01*
X178743809Y-85783428D01*
X178831428Y-85739619D01*
X178962857Y-85739619D01*
X179050476Y-85783428D01*
X179094285Y-85827238D01*
X179138095Y-85914857D01*
X179138095Y-86265333D01*
X178656190Y-85476761D02*
X179576190Y-85170095D01*
X178656190Y-84863428D01*
X178656190Y-84118666D02*
X178656190Y-84556761D01*
X179094285Y-84600571D01*
X179050476Y-84556761D01*
X179006666Y-84469142D01*
X179006666Y-84250095D01*
X179050476Y-84162476D01*
X179094285Y-84118666D01*
X179181904Y-84074857D01*
X179400952Y-84074857D01*
X179488571Y-84118666D01*
X179532380Y-84162476D01*
X179576190Y-84250095D01*
X179576190Y-84469142D01*
X179532380Y-84556761D01*
X179488571Y-84600571D01*
X159093619Y-108608666D02*
X159046000Y-108561047D01*
X158998380Y-108465809D01*
X158998380Y-108227714D01*
X159046000Y-108132476D01*
X159093619Y-108084857D01*
X159188857Y-108037238D01*
X159284095Y-108037238D01*
X159426952Y-108084857D01*
X159998380Y-108656285D01*
X159998380Y-108037238D01*
X158998380Y-107418190D02*
X158998380Y-107322952D01*
X159046000Y-107227714D01*
X159093619Y-107180095D01*
X159188857Y-107132476D01*
X159379333Y-107084857D01*
X159617428Y-107084857D01*
X159807904Y-107132476D01*
X159903142Y-107180095D01*
X159950761Y-107227714D01*
X159998380Y-107322952D01*
X159998380Y-107418190D01*
X159950761Y-107513428D01*
X159903142Y-107561047D01*
X159807904Y-107608666D01*
X159617428Y-107656285D01*
X159379333Y-107656285D01*
X159188857Y-107608666D01*
X159093619Y-107561047D01*
X159046000Y-107513428D01*
X158998380Y-107418190D01*
X159998380Y-106656285D02*
X158998380Y-106656285D01*
X159617428Y-106561047D02*
X159998380Y-106275333D01*
X159331714Y-106275333D02*
X159712666Y-106656285D01*
X156462190Y-108599619D02*
X156024095Y-108906285D01*
X156462190Y-109125333D02*
X155542190Y-109125333D01*
X155542190Y-108774857D01*
X155586000Y-108687238D01*
X155629809Y-108643428D01*
X155717428Y-108599619D01*
X155848857Y-108599619D01*
X155936476Y-108643428D01*
X155980285Y-108687238D01*
X156024095Y-108774857D01*
X156024095Y-109125333D01*
X155542190Y-108336761D02*
X156462190Y-108030095D01*
X155542190Y-107723428D01*
X156462190Y-106934857D02*
X156462190Y-107460571D01*
X156462190Y-107197714D02*
X155542190Y-107197714D01*
X155673619Y-107285333D01*
X155761238Y-107372952D01*
X155805047Y-107460571D01*
X206922761Y-77752380D02*
X206351333Y-77752380D01*
X206637047Y-77752380D02*
X206637047Y-76752380D01*
X206541809Y-76895238D01*
X206446571Y-76990476D01*
X206351333Y-77038095D01*
X207541809Y-76752380D02*
X207637047Y-76752380D01*
X207732285Y-76800000D01*
X207779904Y-76847619D01*
X207827523Y-76942857D01*
X207875142Y-77133333D01*
X207875142Y-77371428D01*
X207827523Y-77561904D01*
X207779904Y-77657142D01*
X207732285Y-77704761D01*
X207637047Y-77752380D01*
X207541809Y-77752380D01*
X207446571Y-77704761D01*
X207398952Y-77657142D01*
X207351333Y-77561904D01*
X207303714Y-77371428D01*
X207303714Y-77133333D01*
X207351333Y-76942857D01*
X207398952Y-76847619D01*
X207446571Y-76800000D01*
X207541809Y-76752380D01*
X208303714Y-77752380D02*
X208303714Y-76752380D01*
X208398952Y-77371428D02*
X208684666Y-77752380D01*
X208684666Y-77085714D02*
X208303714Y-77466666D01*
X206875142Y-75382380D02*
X206541809Y-74906190D01*
X206303714Y-75382380D02*
X206303714Y-74382380D01*
X206684666Y-74382380D01*
X206779904Y-74430000D01*
X206827523Y-74477619D01*
X206875142Y-74572857D01*
X206875142Y-74715714D01*
X206827523Y-74810952D01*
X206779904Y-74858571D01*
X206684666Y-74906190D01*
X206303714Y-74906190D01*
X207827523Y-75382380D02*
X207256095Y-75382380D01*
X207541809Y-75382380D02*
X207541809Y-74382380D01*
X207446571Y-74525238D01*
X207351333Y-74620476D01*
X207256095Y-74668095D01*
X208398952Y-74810952D02*
X208303714Y-74763333D01*
X208256095Y-74715714D01*
X208208476Y-74620476D01*
X208208476Y-74572857D01*
X208256095Y-74477619D01*
X208303714Y-74430000D01*
X208398952Y-74382380D01*
X208589428Y-74382380D01*
X208684666Y-74430000D01*
X208732285Y-74477619D01*
X208779904Y-74572857D01*
X208779904Y-74620476D01*
X208732285Y-74715714D01*
X208684666Y-74763333D01*
X208589428Y-74810952D01*
X208398952Y-74810952D01*
X208303714Y-74858571D01*
X208256095Y-74906190D01*
X208208476Y-75001428D01*
X208208476Y-75191904D01*
X208256095Y-75287142D01*
X208303714Y-75334761D01*
X208398952Y-75382380D01*
X208589428Y-75382380D01*
X208684666Y-75334761D01*
X208732285Y-75287142D01*
X208779904Y-75191904D01*
X208779904Y-75001428D01*
X208732285Y-74906190D01*
X208684666Y-74858571D01*
X208589428Y-74810952D01*
X191936761Y-77752380D02*
X191365333Y-77752380D01*
X191651047Y-77752380D02*
X191651047Y-76752380D01*
X191555809Y-76895238D01*
X191460571Y-76990476D01*
X191365333Y-77038095D01*
X192555809Y-76752380D02*
X192651047Y-76752380D01*
X192746285Y-76800000D01*
X192793904Y-76847619D01*
X192841523Y-76942857D01*
X192889142Y-77133333D01*
X192889142Y-77371428D01*
X192841523Y-77561904D01*
X192793904Y-77657142D01*
X192746285Y-77704761D01*
X192651047Y-77752380D01*
X192555809Y-77752380D01*
X192460571Y-77704761D01*
X192412952Y-77657142D01*
X192365333Y-77561904D01*
X192317714Y-77371428D01*
X192317714Y-77133333D01*
X192365333Y-76942857D01*
X192412952Y-76847619D01*
X192460571Y-76800000D01*
X192555809Y-76752380D01*
X193317714Y-77752380D02*
X193317714Y-76752380D01*
X193412952Y-77371428D02*
X193698666Y-77752380D01*
X193698666Y-77085714D02*
X193317714Y-77466666D01*
X191889142Y-75382380D02*
X191555809Y-74906190D01*
X191317714Y-75382380D02*
X191317714Y-74382380D01*
X191698666Y-74382380D01*
X191793904Y-74430000D01*
X191841523Y-74477619D01*
X191889142Y-74572857D01*
X191889142Y-74715714D01*
X191841523Y-74810952D01*
X191793904Y-74858571D01*
X191698666Y-74906190D01*
X191317714Y-74906190D01*
X192841523Y-75382380D02*
X192270095Y-75382380D01*
X192555809Y-75382380D02*
X192555809Y-74382380D01*
X192460571Y-74525238D01*
X192365333Y-74620476D01*
X192270095Y-74668095D01*
X193174857Y-74382380D02*
X193841523Y-74382380D01*
X193412952Y-75382380D01*
X199429714Y-106862476D02*
X200096380Y-106862476D01*
X199048761Y-107100571D02*
X199763047Y-107338666D01*
X199763047Y-106719619D01*
X199096380Y-106433904D02*
X199096380Y-105767238D01*
X200096380Y-106195809D01*
X200096380Y-105386285D02*
X199096380Y-105386285D01*
X199715428Y-105291047D02*
X200096380Y-105005333D01*
X199429714Y-105005333D02*
X199810666Y-105386285D01*
X202382380Y-103258857D02*
X201906190Y-103592190D01*
X202382380Y-103830285D02*
X201382380Y-103830285D01*
X201382380Y-103449333D01*
X201430000Y-103354095D01*
X201477619Y-103306476D01*
X201572857Y-103258857D01*
X201715714Y-103258857D01*
X201810952Y-103306476D01*
X201858571Y-103354095D01*
X201906190Y-103449333D01*
X201906190Y-103830285D01*
X202382380Y-102306476D02*
X202382380Y-102877904D01*
X202382380Y-102592190D02*
X201382380Y-102592190D01*
X201525238Y-102687428D01*
X201620476Y-102782666D01*
X201668095Y-102877904D01*
X201382380Y-101449333D02*
X201382380Y-101639809D01*
X201430000Y-101735047D01*
X201477619Y-101782666D01*
X201620476Y-101877904D01*
X201810952Y-101925523D01*
X202191904Y-101925523D01*
X202287142Y-101877904D01*
X202334761Y-101830285D01*
X202382380Y-101735047D01*
X202382380Y-101544571D01*
X202334761Y-101449333D01*
X202287142Y-101401714D01*
X202191904Y-101354095D01*
X201953809Y-101354095D01*
X201858571Y-101401714D01*
X201810952Y-101449333D01*
X201763333Y-101544571D01*
X201763333Y-101735047D01*
X201810952Y-101830285D01*
X201858571Y-101877904D01*
X201953809Y-101925523D01*
X191841523Y-98167714D02*
X191841523Y-98834380D01*
X191603428Y-97786761D02*
X191365333Y-98501047D01*
X191984380Y-98501047D01*
X192270095Y-97834380D02*
X192936761Y-97834380D01*
X192508190Y-98834380D01*
X193317714Y-98834380D02*
X193317714Y-97834380D01*
X193412952Y-98453428D02*
X193698666Y-98834380D01*
X193698666Y-98167714D02*
X193317714Y-98548666D01*
X191889142Y-96464380D02*
X191555809Y-95988190D01*
X191317714Y-96464380D02*
X191317714Y-95464380D01*
X191698666Y-95464380D01*
X191793904Y-95512000D01*
X191841523Y-95559619D01*
X191889142Y-95654857D01*
X191889142Y-95797714D01*
X191841523Y-95892952D01*
X191793904Y-95940571D01*
X191698666Y-95988190D01*
X191317714Y-95988190D01*
X192841523Y-96464380D02*
X192270095Y-96464380D01*
X192555809Y-96464380D02*
X192555809Y-95464380D01*
X192460571Y-95607238D01*
X192365333Y-95702476D01*
X192270095Y-95750095D01*
X193746285Y-95464380D02*
X193270095Y-95464380D01*
X193222476Y-95940571D01*
X193270095Y-95892952D01*
X193365333Y-95845333D01*
X193603428Y-95845333D01*
X193698666Y-95892952D01*
X193746285Y-95940571D01*
X193793904Y-96035809D01*
X193793904Y-96273904D01*
X193746285Y-96369142D01*
X193698666Y-96416761D01*
X193603428Y-96464380D01*
X193365333Y-96464380D01*
X193270095Y-96416761D01*
X193222476Y-96369142D01*
X204584380Y-124579047D02*
X204584380Y-125150476D01*
X204584380Y-124864761D02*
X203584380Y-124864761D01*
X203727238Y-124960000D01*
X203822476Y-125055238D01*
X203870095Y-125150476D01*
X204584380Y-124150476D02*
X203584380Y-124150476D01*
X204203428Y-124055238D02*
X204584380Y-123769523D01*
X203917714Y-123769523D02*
X204298666Y-124150476D01*
X206954380Y-125102857D02*
X206478190Y-125436190D01*
X206954380Y-125674285D02*
X205954380Y-125674285D01*
X205954380Y-125293333D01*
X206002000Y-125198095D01*
X206049619Y-125150476D01*
X206144857Y-125102857D01*
X206287714Y-125102857D01*
X206382952Y-125150476D01*
X206430571Y-125198095D01*
X206478190Y-125293333D01*
X206478190Y-125674285D01*
X206954380Y-124150476D02*
X206954380Y-124721904D01*
X206954380Y-124436190D02*
X205954380Y-124436190D01*
X206097238Y-124531428D01*
X206192476Y-124626666D01*
X206240095Y-124721904D01*
X206287714Y-123293333D02*
X206954380Y-123293333D01*
X205906761Y-123531428D02*
X206621047Y-123769523D01*
X206621047Y-123150476D01*
X204584380Y-102735047D02*
X204584380Y-103306476D01*
X204584380Y-103020761D02*
X203584380Y-103020761D01*
X203727238Y-103116000D01*
X203822476Y-103211238D01*
X203870095Y-103306476D01*
X204584380Y-102306476D02*
X203584380Y-102306476D01*
X204203428Y-102211238D02*
X204584380Y-101925523D01*
X203917714Y-101925523D02*
X204298666Y-102306476D01*
X206954380Y-103258857D02*
X206478190Y-103592190D01*
X206954380Y-103830285D02*
X205954380Y-103830285D01*
X205954380Y-103449333D01*
X206002000Y-103354095D01*
X206049619Y-103306476D01*
X206144857Y-103258857D01*
X206287714Y-103258857D01*
X206382952Y-103306476D01*
X206430571Y-103354095D01*
X206478190Y-103449333D01*
X206478190Y-103830285D01*
X206954380Y-102306476D02*
X206954380Y-102877904D01*
X206954380Y-102592190D02*
X205954380Y-102592190D01*
X206097238Y-102687428D01*
X206192476Y-102782666D01*
X206240095Y-102877904D01*
X205954380Y-101973142D02*
X205954380Y-101354095D01*
X206335333Y-101687428D01*
X206335333Y-101544571D01*
X206382952Y-101449333D01*
X206430571Y-101401714D01*
X206525809Y-101354095D01*
X206763904Y-101354095D01*
X206859142Y-101401714D01*
X206906761Y-101449333D01*
X206954380Y-101544571D01*
X206954380Y-101830285D01*
X206906761Y-101925523D01*
X206859142Y-101973142D01*
X183078380Y-127158666D02*
X183078380Y-127730095D01*
X183078380Y-127444380D02*
X182078380Y-127444380D01*
X182221238Y-127539619D01*
X182316476Y-127634857D01*
X182364095Y-127730095D01*
X182078380Y-126539619D02*
X182078380Y-126444380D01*
X182126000Y-126349142D01*
X182173619Y-126301523D01*
X182268857Y-126253904D01*
X182459333Y-126206285D01*
X182697428Y-126206285D01*
X182887904Y-126253904D01*
X182983142Y-126301523D01*
X183030761Y-126349142D01*
X183078380Y-126444380D01*
X183078380Y-126539619D01*
X183030761Y-126634857D01*
X182983142Y-126682476D01*
X182887904Y-126730095D01*
X182697428Y-126777714D01*
X182459333Y-126777714D01*
X182268857Y-126730095D01*
X182173619Y-126682476D01*
X182126000Y-126634857D01*
X182078380Y-126539619D01*
X182078380Y-125587238D02*
X182078380Y-125492000D01*
X182126000Y-125396761D01*
X182173619Y-125349142D01*
X182268857Y-125301523D01*
X182459333Y-125253904D01*
X182697428Y-125253904D01*
X182887904Y-125301523D01*
X182983142Y-125349142D01*
X183030761Y-125396761D01*
X183078380Y-125492000D01*
X183078380Y-125587238D01*
X183030761Y-125682476D01*
X182983142Y-125730095D01*
X182887904Y-125777714D01*
X182697428Y-125825333D01*
X182459333Y-125825333D01*
X182268857Y-125777714D01*
X182173619Y-125730095D01*
X182126000Y-125682476D01*
X182078380Y-125587238D01*
X183078380Y-119006857D02*
X182602190Y-119340190D01*
X183078380Y-119578285D02*
X182078380Y-119578285D01*
X182078380Y-119197333D01*
X182126000Y-119102095D01*
X182173619Y-119054476D01*
X182268857Y-119006857D01*
X182411714Y-119006857D01*
X182506952Y-119054476D01*
X182554571Y-119102095D01*
X182602190Y-119197333D01*
X182602190Y-119578285D01*
X183078380Y-118054476D02*
X183078380Y-118625904D01*
X183078380Y-118340190D02*
X182078380Y-118340190D01*
X182221238Y-118435428D01*
X182316476Y-118530666D01*
X182364095Y-118625904D01*
X182173619Y-117673523D02*
X182126000Y-117625904D01*
X182078380Y-117530666D01*
X182078380Y-117292571D01*
X182126000Y-117197333D01*
X182173619Y-117149714D01*
X182268857Y-117102095D01*
X182364095Y-117102095D01*
X182506952Y-117149714D01*
X183078380Y-117721142D01*
X183078380Y-117102095D01*
X186888380Y-127158666D02*
X186888380Y-127730095D01*
X186888380Y-127444380D02*
X185888380Y-127444380D01*
X186031238Y-127539619D01*
X186126476Y-127634857D01*
X186174095Y-127730095D01*
X185888380Y-126539619D02*
X185888380Y-126444380D01*
X185936000Y-126349142D01*
X185983619Y-126301523D01*
X186078857Y-126253904D01*
X186269333Y-126206285D01*
X186507428Y-126206285D01*
X186697904Y-126253904D01*
X186793142Y-126301523D01*
X186840761Y-126349142D01*
X186888380Y-126444380D01*
X186888380Y-126539619D01*
X186840761Y-126634857D01*
X186793142Y-126682476D01*
X186697904Y-126730095D01*
X186507428Y-126777714D01*
X186269333Y-126777714D01*
X186078857Y-126730095D01*
X185983619Y-126682476D01*
X185936000Y-126634857D01*
X185888380Y-126539619D01*
X185888380Y-125587238D02*
X185888380Y-125492000D01*
X185936000Y-125396761D01*
X185983619Y-125349142D01*
X186078857Y-125301523D01*
X186269333Y-125253904D01*
X186507428Y-125253904D01*
X186697904Y-125301523D01*
X186793142Y-125349142D01*
X186840761Y-125396761D01*
X186888380Y-125492000D01*
X186888380Y-125587238D01*
X186840761Y-125682476D01*
X186793142Y-125730095D01*
X186697904Y-125777714D01*
X186507428Y-125825333D01*
X186269333Y-125825333D01*
X186078857Y-125777714D01*
X185983619Y-125730095D01*
X185936000Y-125682476D01*
X185888380Y-125587238D01*
X186888380Y-119006857D02*
X186412190Y-119340190D01*
X186888380Y-119578285D02*
X185888380Y-119578285D01*
X185888380Y-119197333D01*
X185936000Y-119102095D01*
X185983619Y-119054476D01*
X186078857Y-119006857D01*
X186221714Y-119006857D01*
X186316952Y-119054476D01*
X186364571Y-119102095D01*
X186412190Y-119197333D01*
X186412190Y-119578285D01*
X186888380Y-118054476D02*
X186888380Y-118625904D01*
X186888380Y-118340190D02*
X185888380Y-118340190D01*
X186031238Y-118435428D01*
X186126476Y-118530666D01*
X186174095Y-118625904D01*
X186888380Y-117102095D02*
X186888380Y-117673523D01*
X186888380Y-117387809D02*
X185888380Y-117387809D01*
X186031238Y-117483047D01*
X186126476Y-117578285D01*
X186174095Y-117673523D01*
X164731619Y-102004666D02*
X164684000Y-101957047D01*
X164636380Y-101861809D01*
X164636380Y-101623714D01*
X164684000Y-101528476D01*
X164731619Y-101480857D01*
X164826857Y-101433238D01*
X164922095Y-101433238D01*
X165064952Y-101480857D01*
X165636380Y-102052285D01*
X165636380Y-101433238D01*
X165636380Y-101004666D02*
X164636380Y-101004666D01*
X165255428Y-100909428D02*
X165636380Y-100623714D01*
X164969714Y-100623714D02*
X165350666Y-101004666D01*
X164731619Y-100242761D02*
X164684000Y-100195142D01*
X164636380Y-100099904D01*
X164636380Y-99861809D01*
X164684000Y-99766571D01*
X164731619Y-99718952D01*
X164826857Y-99671333D01*
X164922095Y-99671333D01*
X165064952Y-99718952D01*
X165636380Y-100290380D01*
X165636380Y-99671333D01*
X163266380Y-101004666D02*
X162790190Y-101338000D01*
X163266380Y-101576095D02*
X162266380Y-101576095D01*
X162266380Y-101195142D01*
X162314000Y-101099904D01*
X162361619Y-101052285D01*
X162456857Y-101004666D01*
X162599714Y-101004666D01*
X162694952Y-101052285D01*
X162742571Y-101099904D01*
X162790190Y-101195142D01*
X162790190Y-101576095D01*
X163266380Y-100528476D02*
X163266380Y-100338000D01*
X163218761Y-100242761D01*
X163171142Y-100195142D01*
X163028285Y-100099904D01*
X162837809Y-100052285D01*
X162456857Y-100052285D01*
X162361619Y-100099904D01*
X162314000Y-100147523D01*
X162266380Y-100242761D01*
X162266380Y-100433238D01*
X162314000Y-100528476D01*
X162361619Y-100576095D01*
X162456857Y-100623714D01*
X162694952Y-100623714D01*
X162790190Y-100576095D01*
X162837809Y-100528476D01*
X162885428Y-100433238D01*
X162885428Y-100242761D01*
X162837809Y-100147523D01*
X162790190Y-100099904D01*
X162694952Y-100052285D01*
X171732380Y-70985047D02*
X171732380Y-71556476D01*
X171732380Y-71270761D02*
X170732380Y-71270761D01*
X170875238Y-71366000D01*
X170970476Y-71461238D01*
X171018095Y-71556476D01*
X171732380Y-70556476D02*
X170732380Y-70556476D01*
X171351428Y-70461238D02*
X171732380Y-70175523D01*
X171065714Y-70175523D02*
X171446666Y-70556476D01*
X169362380Y-71032666D02*
X168886190Y-71366000D01*
X169362380Y-71604095D02*
X168362380Y-71604095D01*
X168362380Y-71223142D01*
X168410000Y-71127904D01*
X168457619Y-71080285D01*
X168552857Y-71032666D01*
X168695714Y-71032666D01*
X168790952Y-71080285D01*
X168838571Y-71127904D01*
X168886190Y-71223142D01*
X168886190Y-71604095D01*
X168790952Y-70461238D02*
X168743333Y-70556476D01*
X168695714Y-70604095D01*
X168600476Y-70651714D01*
X168552857Y-70651714D01*
X168457619Y-70604095D01*
X168410000Y-70556476D01*
X168362380Y-70461238D01*
X168362380Y-70270761D01*
X168410000Y-70175523D01*
X168457619Y-70127904D01*
X168552857Y-70080285D01*
X168600476Y-70080285D01*
X168695714Y-70127904D01*
X168743333Y-70175523D01*
X168790952Y-70270761D01*
X168790952Y-70461238D01*
X168838571Y-70556476D01*
X168886190Y-70604095D01*
X168981428Y-70651714D01*
X169171904Y-70651714D01*
X169267142Y-70604095D01*
X169314761Y-70556476D01*
X169362380Y-70461238D01*
X169362380Y-70270761D01*
X169314761Y-70175523D01*
X169267142Y-70127904D01*
X169171904Y-70080285D01*
X168981428Y-70080285D01*
X168886190Y-70127904D01*
X168838571Y-70175523D01*
X168790952Y-70270761D01*
X180622380Y-71715238D02*
X180622380Y-72286666D01*
X180622380Y-72000952D02*
X179622380Y-72000952D01*
X179765238Y-72096190D01*
X179860476Y-72191428D01*
X179908095Y-72286666D01*
X179622380Y-71096190D02*
X179622380Y-71000952D01*
X179670000Y-70905714D01*
X179717619Y-70858095D01*
X179812857Y-70810476D01*
X180003333Y-70762857D01*
X180241428Y-70762857D01*
X180431904Y-70810476D01*
X180527142Y-70858095D01*
X180574761Y-70905714D01*
X180622380Y-71000952D01*
X180622380Y-71096190D01*
X180574761Y-71191428D01*
X180527142Y-71239047D01*
X180431904Y-71286666D01*
X180241428Y-71334285D01*
X180003333Y-71334285D01*
X179812857Y-71286666D01*
X179717619Y-71239047D01*
X179670000Y-71191428D01*
X179622380Y-71096190D01*
X180622380Y-70334285D02*
X179622380Y-70334285D01*
X180241428Y-70239047D02*
X180622380Y-69953333D01*
X179955714Y-69953333D02*
X180336666Y-70334285D01*
X178252380Y-71286666D02*
X177776190Y-71620000D01*
X178252380Y-71858095D02*
X177252380Y-71858095D01*
X177252380Y-71477142D01*
X177300000Y-71381904D01*
X177347619Y-71334285D01*
X177442857Y-71286666D01*
X177585714Y-71286666D01*
X177680952Y-71334285D01*
X177728571Y-71381904D01*
X177776190Y-71477142D01*
X177776190Y-71858095D01*
X177252380Y-70953333D02*
X177252380Y-70286666D01*
X178252380Y-70715238D01*
X145930952Y-60312380D02*
X145359523Y-60312380D01*
X145645238Y-60312380D02*
X145645238Y-59312380D01*
X145550000Y-59455238D01*
X145454761Y-59550476D01*
X145359523Y-59598095D01*
X146359523Y-60312380D02*
X146359523Y-59312380D01*
X146454761Y-59931428D02*
X146740476Y-60312380D01*
X146740476Y-59645714D02*
X146359523Y-60026666D01*
X145883333Y-62682380D02*
X145550000Y-62206190D01*
X145311904Y-62682380D02*
X145311904Y-61682380D01*
X145692857Y-61682380D01*
X145788095Y-61730000D01*
X145835714Y-61777619D01*
X145883333Y-61872857D01*
X145883333Y-62015714D01*
X145835714Y-62110952D01*
X145788095Y-62158571D01*
X145692857Y-62206190D01*
X145311904Y-62206190D01*
X146740476Y-61682380D02*
X146550000Y-61682380D01*
X146454761Y-61730000D01*
X146407142Y-61777619D01*
X146311904Y-61920476D01*
X146264285Y-62110952D01*
X146264285Y-62491904D01*
X146311904Y-62587142D01*
X146359523Y-62634761D01*
X146454761Y-62682380D01*
X146645238Y-62682380D01*
X146740476Y-62634761D01*
X146788095Y-62587142D01*
X146835714Y-62491904D01*
X146835714Y-62253809D01*
X146788095Y-62158571D01*
X146740476Y-62110952D01*
X146645238Y-62063333D01*
X146454761Y-62063333D01*
X146359523Y-62110952D01*
X146311904Y-62158571D01*
X146264285Y-62253809D01*
X173362952Y-64798380D02*
X172791523Y-64798380D01*
X173077238Y-64798380D02*
X173077238Y-63798380D01*
X172982000Y-63941238D01*
X172886761Y-64036476D01*
X172791523Y-64084095D01*
X173791523Y-64798380D02*
X173791523Y-63798380D01*
X173886761Y-64417428D02*
X174172476Y-64798380D01*
X174172476Y-64131714D02*
X173791523Y-64512666D01*
X173315333Y-62428380D02*
X172982000Y-61952190D01*
X172743904Y-62428380D02*
X172743904Y-61428380D01*
X173124857Y-61428380D01*
X173220095Y-61476000D01*
X173267714Y-61523619D01*
X173315333Y-61618857D01*
X173315333Y-61761714D01*
X173267714Y-61856952D01*
X173220095Y-61904571D01*
X173124857Y-61952190D01*
X172743904Y-61952190D01*
X174220095Y-61428380D02*
X173743904Y-61428380D01*
X173696285Y-61904571D01*
X173743904Y-61856952D01*
X173839142Y-61809333D01*
X174077238Y-61809333D01*
X174172476Y-61856952D01*
X174220095Y-61904571D01*
X174267714Y-61999809D01*
X174267714Y-62237904D01*
X174220095Y-62333142D01*
X174172476Y-62380761D01*
X174077238Y-62428380D01*
X173839142Y-62428380D01*
X173743904Y-62380761D01*
X173696285Y-62333142D01*
X153042952Y-111366380D02*
X152471523Y-111366380D01*
X152757238Y-111366380D02*
X152757238Y-110366380D01*
X152662000Y-110509238D01*
X152566761Y-110604476D01*
X152471523Y-110652095D01*
X153471523Y-111366380D02*
X153471523Y-110366380D01*
X153566761Y-110985428D02*
X153852476Y-111366380D01*
X153852476Y-110699714D02*
X153471523Y-111080666D01*
X152995333Y-113736380D02*
X152662000Y-113260190D01*
X152423904Y-113736380D02*
X152423904Y-112736380D01*
X152804857Y-112736380D01*
X152900095Y-112784000D01*
X152947714Y-112831619D01*
X152995333Y-112926857D01*
X152995333Y-113069714D01*
X152947714Y-113164952D01*
X152900095Y-113212571D01*
X152804857Y-113260190D01*
X152423904Y-113260190D01*
X153376285Y-112831619D02*
X153423904Y-112784000D01*
X153519142Y-112736380D01*
X153757238Y-112736380D01*
X153852476Y-112784000D01*
X153900095Y-112831619D01*
X153947714Y-112926857D01*
X153947714Y-113022095D01*
X153900095Y-113164952D01*
X153328666Y-113736380D01*
X153947714Y-113736380D01*
X155154380Y-130745904D02*
X155154380Y-130555428D01*
X155202000Y-130460190D01*
X155297238Y-130364952D01*
X155487714Y-130317333D01*
X155821047Y-130317333D01*
X156011523Y-130364952D01*
X156106761Y-130460190D01*
X156154380Y-130555428D01*
X156154380Y-130745904D01*
X156106761Y-130841142D01*
X156011523Y-130936380D01*
X155821047Y-130984000D01*
X155487714Y-130984000D01*
X155297238Y-130936380D01*
X155202000Y-130841142D01*
X155154380Y-130745904D01*
X155154380Y-129888761D02*
X155963904Y-129888761D01*
X156059142Y-129841142D01*
X156106761Y-129793523D01*
X156154380Y-129698285D01*
X156154380Y-129507809D01*
X156106761Y-129412571D01*
X156059142Y-129364952D01*
X155963904Y-129317333D01*
X155154380Y-129317333D01*
X155154380Y-128984000D02*
X155154380Y-128412571D01*
X156154380Y-128698285D02*
X155154380Y-128698285D01*
X155202000Y-126793523D02*
X155154380Y-126888761D01*
X155154380Y-127031619D01*
X155202000Y-127174476D01*
X155297238Y-127269714D01*
X155392476Y-127317333D01*
X155582952Y-127364952D01*
X155725809Y-127364952D01*
X155916285Y-127317333D01*
X156011523Y-127269714D01*
X156106761Y-127174476D01*
X156154380Y-127031619D01*
X156154380Y-126936380D01*
X156106761Y-126793523D01*
X156059142Y-126745904D01*
X155725809Y-126745904D01*
X155725809Y-126936380D01*
X156154380Y-125888761D02*
X155630571Y-125888761D01*
X155535333Y-125936380D01*
X155487714Y-126031619D01*
X155487714Y-126222095D01*
X155535333Y-126317333D01*
X156106761Y-125888761D02*
X156154380Y-125984000D01*
X156154380Y-126222095D01*
X156106761Y-126317333D01*
X156011523Y-126364952D01*
X155916285Y-126364952D01*
X155821047Y-126317333D01*
X155773428Y-126222095D01*
X155773428Y-125984000D01*
X155725809Y-125888761D01*
X156154380Y-125412571D02*
X155487714Y-125412571D01*
X155154380Y-125412571D02*
X155202000Y-125460190D01*
X155249619Y-125412571D01*
X155202000Y-125364952D01*
X155154380Y-125412571D01*
X155249619Y-125412571D01*
X155487714Y-124936380D02*
X156154380Y-124936380D01*
X155582952Y-124936380D02*
X155535333Y-124888761D01*
X155487714Y-124793523D01*
X155487714Y-124650666D01*
X155535333Y-124555428D01*
X155630571Y-124507809D01*
X156154380Y-124507809D01*
X156154380Y-122745904D02*
X156154380Y-123317333D01*
X156154380Y-123031619D02*
X155154380Y-123031619D01*
X155297238Y-123126857D01*
X155392476Y-123222095D01*
X155440095Y-123317333D01*
X155154380Y-122126857D02*
X155154380Y-122031619D01*
X155202000Y-121936380D01*
X155249619Y-121888761D01*
X155344857Y-121841142D01*
X155535333Y-121793523D01*
X155773428Y-121793523D01*
X155963904Y-121841142D01*
X156059142Y-121888761D01*
X156106761Y-121936380D01*
X156154380Y-122031619D01*
X156154380Y-122126857D01*
X156106761Y-122222095D01*
X156059142Y-122269714D01*
X155963904Y-122317333D01*
X155773428Y-122364952D01*
X155535333Y-122364952D01*
X155344857Y-122317333D01*
X155249619Y-122269714D01*
X155202000Y-122222095D01*
X155154380Y-122126857D01*
X156154380Y-121364952D02*
X155154380Y-121364952D01*
X155773428Y-121269714D02*
X156154380Y-120984000D01*
X155487714Y-120984000D02*
X155868666Y-121364952D01*
X158202380Y-126793523D02*
X158916666Y-126793523D01*
X159059523Y-126841142D01*
X159154761Y-126936380D01*
X159202380Y-127079238D01*
X159202380Y-127174476D01*
X159202380Y-125793523D02*
X159202380Y-126364952D01*
X159202380Y-126079238D02*
X158202380Y-126079238D01*
X158345238Y-126174476D01*
X158440476Y-126269714D01*
X158488095Y-126364952D01*
X159202380Y-124841142D02*
X159202380Y-125412571D01*
X159202380Y-125126857D02*
X158202380Y-125126857D01*
X158345238Y-125222095D01*
X158440476Y-125317333D01*
X158488095Y-125412571D01*
X192764571Y-131408380D02*
X192288380Y-131408380D01*
X192240761Y-131884571D01*
X192288380Y-131836952D01*
X192383619Y-131789333D01*
X192621714Y-131789333D01*
X192716952Y-131836952D01*
X192764571Y-131884571D01*
X192812190Y-131979809D01*
X192812190Y-132217904D01*
X192764571Y-132313142D01*
X192716952Y-132360761D01*
X192621714Y-132408380D01*
X192383619Y-132408380D01*
X192288380Y-132360761D01*
X192240761Y-132313142D01*
X193431238Y-131408380D02*
X193526476Y-131408380D01*
X193621714Y-131456000D01*
X193669333Y-131503619D01*
X193716952Y-131598857D01*
X193764571Y-131789333D01*
X193764571Y-132027428D01*
X193716952Y-132217904D01*
X193669333Y-132313142D01*
X193621714Y-132360761D01*
X193526476Y-132408380D01*
X193431238Y-132408380D01*
X193336000Y-132360761D01*
X193288380Y-132313142D01*
X193240761Y-132217904D01*
X193193142Y-132027428D01*
X193193142Y-131789333D01*
X193240761Y-131598857D01*
X193288380Y-131503619D01*
X193336000Y-131456000D01*
X193431238Y-131408380D01*
X195145523Y-131408380D02*
X195336000Y-131408380D01*
X195431238Y-131456000D01*
X195526476Y-131551238D01*
X195574095Y-131741714D01*
X195574095Y-132075047D01*
X195526476Y-132265523D01*
X195431238Y-132360761D01*
X195336000Y-132408380D01*
X195145523Y-132408380D01*
X195050285Y-132360761D01*
X194955047Y-132265523D01*
X194907428Y-132075047D01*
X194907428Y-131741714D01*
X194955047Y-131551238D01*
X195050285Y-131456000D01*
X195145523Y-131408380D01*
X196002666Y-132408380D02*
X196002666Y-131408380D01*
X196431238Y-132408380D02*
X196431238Y-131884571D01*
X196383619Y-131789333D01*
X196288380Y-131741714D01*
X196145523Y-131741714D01*
X196050285Y-131789333D01*
X196002666Y-131836952D01*
X196907428Y-132408380D02*
X196907428Y-131741714D01*
X196907428Y-131836952D02*
X196955047Y-131789333D01*
X197050285Y-131741714D01*
X197193142Y-131741714D01*
X197288380Y-131789333D01*
X197336000Y-131884571D01*
X197336000Y-132408380D01*
X197336000Y-131884571D02*
X197383619Y-131789333D01*
X197478857Y-131741714D01*
X197621714Y-131741714D01*
X197716952Y-131789333D01*
X197764571Y-131884571D01*
X197764571Y-132408380D01*
X199193142Y-131408380D02*
X199383619Y-131408380D01*
X199478857Y-131456000D01*
X199574095Y-131551238D01*
X199621714Y-131741714D01*
X199621714Y-132075047D01*
X199574095Y-132265523D01*
X199478857Y-132360761D01*
X199383619Y-132408380D01*
X199193142Y-132408380D01*
X199097904Y-132360761D01*
X199002666Y-132265523D01*
X198955047Y-132075047D01*
X198955047Y-131741714D01*
X199002666Y-131551238D01*
X199097904Y-131456000D01*
X199193142Y-131408380D01*
X200050285Y-131408380D02*
X200050285Y-132217904D01*
X200097904Y-132313142D01*
X200145523Y-132360761D01*
X200240761Y-132408380D01*
X200431238Y-132408380D01*
X200526476Y-132360761D01*
X200574095Y-132313142D01*
X200621714Y-132217904D01*
X200621714Y-131408380D01*
X200955047Y-131408380D02*
X201526476Y-131408380D01*
X201240761Y-132408380D02*
X201240761Y-131408380D01*
X195746476Y-121658380D02*
X195746476Y-122372666D01*
X195698857Y-122515523D01*
X195603619Y-122610761D01*
X195460761Y-122658380D01*
X195365523Y-122658380D01*
X196746476Y-122658380D02*
X196175047Y-122658380D01*
X196460761Y-122658380D02*
X196460761Y-121658380D01*
X196365523Y-121801238D01*
X196270285Y-121896476D01*
X196175047Y-121944095D01*
X197365523Y-121658380D02*
X197460761Y-121658380D01*
X197556000Y-121706000D01*
X197603619Y-121753619D01*
X197651238Y-121848857D01*
X197698857Y-122039333D01*
X197698857Y-122277428D01*
X197651238Y-122467904D01*
X197603619Y-122563142D01*
X197556000Y-122610761D01*
X197460761Y-122658380D01*
X197365523Y-122658380D01*
X197270285Y-122610761D01*
X197222666Y-122563142D01*
X197175047Y-122467904D01*
X197127428Y-122277428D01*
X197127428Y-122039333D01*
X197175047Y-121848857D01*
X197222666Y-121753619D01*
X197270285Y-121706000D01*
X197365523Y-121658380D01*
X136834571Y-84851333D02*
X136834571Y-85184666D01*
X137358380Y-85184666D02*
X136358380Y-85184666D01*
X136358380Y-84708476D01*
X137358380Y-84327523D02*
X136691714Y-84327523D01*
X136882190Y-84327523D02*
X136786952Y-84279904D01*
X136739333Y-84232285D01*
X136691714Y-84137047D01*
X136691714Y-84041809D01*
X137310761Y-83327523D02*
X137358380Y-83422761D01*
X137358380Y-83613238D01*
X137310761Y-83708476D01*
X137215523Y-83756095D01*
X136834571Y-83756095D01*
X136739333Y-83708476D01*
X136691714Y-83613238D01*
X136691714Y-83422761D01*
X136739333Y-83327523D01*
X136834571Y-83279904D01*
X136929809Y-83279904D01*
X137025047Y-83756095D01*
X136691714Y-82422761D02*
X137691714Y-82422761D01*
X137310761Y-82422761D02*
X137358380Y-82518000D01*
X137358380Y-82708476D01*
X137310761Y-82803714D01*
X137263142Y-82851333D01*
X137167904Y-82898952D01*
X136882190Y-82898952D01*
X136786952Y-82851333D01*
X136739333Y-82803714D01*
X136691714Y-82708476D01*
X136691714Y-82518000D01*
X136739333Y-82422761D01*
X136834571Y-81613238D02*
X136834571Y-81946571D01*
X137358380Y-81946571D02*
X136358380Y-81946571D01*
X136358380Y-81470380D01*
X137358380Y-81089428D02*
X136691714Y-81089428D01*
X136358380Y-81089428D02*
X136406000Y-81137047D01*
X136453619Y-81089428D01*
X136406000Y-81041809D01*
X136358380Y-81089428D01*
X136453619Y-81089428D01*
X136691714Y-80613238D02*
X137358380Y-80613238D01*
X136786952Y-80613238D02*
X136739333Y-80565619D01*
X136691714Y-80470380D01*
X136691714Y-80327523D01*
X136739333Y-80232285D01*
X136834571Y-80184666D01*
X137358380Y-80184666D01*
X137310761Y-79327523D02*
X137358380Y-79422761D01*
X137358380Y-79613238D01*
X137310761Y-79708476D01*
X137215523Y-79756095D01*
X136834571Y-79756095D01*
X136739333Y-79708476D01*
X136691714Y-79613238D01*
X136691714Y-79422761D01*
X136739333Y-79327523D01*
X136834571Y-79279904D01*
X136929809Y-79279904D01*
X137025047Y-79756095D01*
X137358380Y-77565619D02*
X137358380Y-78137047D01*
X137358380Y-77851333D02*
X136358380Y-77851333D01*
X136501238Y-77946571D01*
X136596476Y-78041809D01*
X136644095Y-78137047D01*
X136358380Y-76946571D02*
X136358380Y-76851333D01*
X136406000Y-76756095D01*
X136453619Y-76708476D01*
X136548857Y-76660857D01*
X136739333Y-76613238D01*
X136977428Y-76613238D01*
X137167904Y-76660857D01*
X137263142Y-76708476D01*
X137310761Y-76756095D01*
X137358380Y-76851333D01*
X137358380Y-76946571D01*
X137310761Y-77041809D01*
X137263142Y-77089428D01*
X137167904Y-77137047D01*
X136977428Y-77184666D01*
X136739333Y-77184666D01*
X136548857Y-77137047D01*
X136453619Y-77089428D01*
X136406000Y-77041809D01*
X136358380Y-76946571D01*
X137358380Y-76184666D02*
X136358380Y-76184666D01*
X136977428Y-76089428D02*
X137358380Y-75803714D01*
X136691714Y-75803714D02*
X137072666Y-76184666D01*
X133564380Y-80597333D02*
X134278666Y-80597333D01*
X134421523Y-80644952D01*
X134516761Y-80740190D01*
X134564380Y-80883047D01*
X134564380Y-80978285D01*
X134564380Y-80073523D02*
X134564380Y-79883047D01*
X134516761Y-79787809D01*
X134469142Y-79740190D01*
X134326285Y-79644952D01*
X134135809Y-79597333D01*
X133754857Y-79597333D01*
X133659619Y-79644952D01*
X133612000Y-79692571D01*
X133564380Y-79787809D01*
X133564380Y-79978285D01*
X133612000Y-80073523D01*
X133659619Y-80121142D01*
X133754857Y-80168761D01*
X133992952Y-80168761D01*
X134088190Y-80121142D01*
X134135809Y-80073523D01*
X134183428Y-79978285D01*
X134183428Y-79787809D01*
X134135809Y-79692571D01*
X134088190Y-79644952D01*
X133992952Y-79597333D01*
X126166571Y-85541809D02*
X126166571Y-85875142D01*
X126690380Y-85875142D02*
X125690380Y-85875142D01*
X125690380Y-85398952D01*
X126690380Y-85018000D02*
X126023714Y-85018000D01*
X126214190Y-85018000D02*
X126118952Y-84970380D01*
X126071333Y-84922761D01*
X126023714Y-84827523D01*
X126023714Y-84732285D01*
X126642761Y-84018000D02*
X126690380Y-84113238D01*
X126690380Y-84303714D01*
X126642761Y-84398952D01*
X126547523Y-84446571D01*
X126166571Y-84446571D01*
X126071333Y-84398952D01*
X126023714Y-84303714D01*
X126023714Y-84113238D01*
X126071333Y-84018000D01*
X126166571Y-83970380D01*
X126261809Y-83970380D01*
X126357047Y-84446571D01*
X126023714Y-83113238D02*
X127023714Y-83113238D01*
X126642761Y-83113238D02*
X126690380Y-83208476D01*
X126690380Y-83398952D01*
X126642761Y-83494190D01*
X126595142Y-83541809D01*
X126499904Y-83589428D01*
X126214190Y-83589428D01*
X126118952Y-83541809D01*
X126071333Y-83494190D01*
X126023714Y-83398952D01*
X126023714Y-83208476D01*
X126071333Y-83113238D01*
X126595142Y-82065619D02*
X126642761Y-82113238D01*
X126690380Y-82256095D01*
X126690380Y-82351333D01*
X126642761Y-82494190D01*
X126547523Y-82589428D01*
X126452285Y-82637047D01*
X126261809Y-82684666D01*
X126118952Y-82684666D01*
X125928476Y-82637047D01*
X125833238Y-82589428D01*
X125738000Y-82494190D01*
X125690380Y-82351333D01*
X125690380Y-82256095D01*
X125738000Y-82113238D01*
X125785619Y-82065619D01*
X126690380Y-81494190D02*
X126642761Y-81589428D01*
X126595142Y-81637047D01*
X126499904Y-81684666D01*
X126214190Y-81684666D01*
X126118952Y-81637047D01*
X126071333Y-81589428D01*
X126023714Y-81494190D01*
X126023714Y-81351333D01*
X126071333Y-81256095D01*
X126118952Y-81208476D01*
X126214190Y-81160857D01*
X126499904Y-81160857D01*
X126595142Y-81208476D01*
X126642761Y-81256095D01*
X126690380Y-81351333D01*
X126690380Y-81494190D01*
X126690380Y-80303714D02*
X126166571Y-80303714D01*
X126071333Y-80351333D01*
X126023714Y-80446571D01*
X126023714Y-80637047D01*
X126071333Y-80732285D01*
X126642761Y-80303714D02*
X126690380Y-80398952D01*
X126690380Y-80637047D01*
X126642761Y-80732285D01*
X126547523Y-80779904D01*
X126452285Y-80779904D01*
X126357047Y-80732285D01*
X126309428Y-80637047D01*
X126309428Y-80398952D01*
X126261809Y-80303714D01*
X126690380Y-79827523D02*
X126023714Y-79827523D01*
X126214190Y-79827523D02*
X126118952Y-79779904D01*
X126071333Y-79732285D01*
X126023714Y-79637047D01*
X126023714Y-79541809D01*
X126642761Y-79256095D02*
X126690380Y-79160857D01*
X126690380Y-78970380D01*
X126642761Y-78875142D01*
X126547523Y-78827523D01*
X126499904Y-78827523D01*
X126404666Y-78875142D01*
X126357047Y-78970380D01*
X126357047Y-79113238D01*
X126309428Y-79208476D01*
X126214190Y-79256095D01*
X126166571Y-79256095D01*
X126071333Y-79208476D01*
X126023714Y-79113238D01*
X126023714Y-78970380D01*
X126071333Y-78875142D01*
X126642761Y-78018000D02*
X126690380Y-78113238D01*
X126690380Y-78303714D01*
X126642761Y-78398952D01*
X126547523Y-78446571D01*
X126166571Y-78446571D01*
X126071333Y-78398952D01*
X126023714Y-78303714D01*
X126023714Y-78113238D01*
X126071333Y-78018000D01*
X126166571Y-77970380D01*
X126261809Y-77970380D01*
X126357047Y-78446571D01*
X126690380Y-76256095D02*
X126690380Y-76827523D01*
X126690380Y-76541809D02*
X125690380Y-76541809D01*
X125833238Y-76637047D01*
X125928476Y-76732285D01*
X125976095Y-76827523D01*
X126690380Y-75827523D02*
X125690380Y-75827523D01*
X126404666Y-75494190D01*
X125690380Y-75160857D01*
X126690380Y-75160857D01*
X128992380Y-80597333D02*
X129706666Y-80597333D01*
X129849523Y-80644952D01*
X129944761Y-80740190D01*
X129992380Y-80883047D01*
X129992380Y-80978285D01*
X129420952Y-79978285D02*
X129373333Y-80073523D01*
X129325714Y-80121142D01*
X129230476Y-80168761D01*
X129182857Y-80168761D01*
X129087619Y-80121142D01*
X129040000Y-80073523D01*
X128992380Y-79978285D01*
X128992380Y-79787809D01*
X129040000Y-79692571D01*
X129087619Y-79644952D01*
X129182857Y-79597333D01*
X129230476Y-79597333D01*
X129325714Y-79644952D01*
X129373333Y-79692571D01*
X129420952Y-79787809D01*
X129420952Y-79978285D01*
X129468571Y-80073523D01*
X129516190Y-80121142D01*
X129611428Y-80168761D01*
X129801904Y-80168761D01*
X129897142Y-80121142D01*
X129944761Y-80073523D01*
X129992380Y-79978285D01*
X129992380Y-79787809D01*
X129944761Y-79692571D01*
X129897142Y-79644952D01*
X129801904Y-79597333D01*
X129611428Y-79597333D01*
X129516190Y-79644952D01*
X129468571Y-79692571D01*
X129420952Y-79787809D01*
X165806380Y-118799809D02*
X164806380Y-118799809D01*
X164806380Y-118418857D01*
X164854000Y-118323619D01*
X164901619Y-118276000D01*
X164996857Y-118228380D01*
X165139714Y-118228380D01*
X165234952Y-118276000D01*
X165282571Y-118323619D01*
X165330190Y-118418857D01*
X165330190Y-118799809D01*
X165139714Y-117371238D02*
X165806380Y-117371238D01*
X165139714Y-117799809D02*
X165663523Y-117799809D01*
X165758761Y-117752190D01*
X165806380Y-117656952D01*
X165806380Y-117514095D01*
X165758761Y-117418857D01*
X165711142Y-117371238D01*
X165806380Y-116752190D02*
X165758761Y-116847428D01*
X165663523Y-116895047D01*
X164806380Y-116895047D01*
X165758761Y-116418857D02*
X165806380Y-116323619D01*
X165806380Y-116133142D01*
X165758761Y-116037904D01*
X165663523Y-115990285D01*
X165615904Y-115990285D01*
X165520666Y-116037904D01*
X165473047Y-116133142D01*
X165473047Y-116276000D01*
X165425428Y-116371238D01*
X165330190Y-116418857D01*
X165282571Y-116418857D01*
X165187333Y-116371238D01*
X165139714Y-116276000D01*
X165139714Y-116133142D01*
X165187333Y-116037904D01*
X165758761Y-115180761D02*
X165806380Y-115276000D01*
X165806380Y-115466476D01*
X165758761Y-115561714D01*
X165663523Y-115609333D01*
X165282571Y-115609333D01*
X165187333Y-115561714D01*
X165139714Y-115466476D01*
X165139714Y-115276000D01*
X165187333Y-115180761D01*
X165282571Y-115133142D01*
X165377809Y-115133142D01*
X165473047Y-115609333D01*
X164806380Y-114799809D02*
X165806380Y-114561714D01*
X165092095Y-114371238D01*
X165806380Y-114180761D01*
X164806380Y-113942666D01*
X165806380Y-113561714D02*
X165139714Y-113561714D01*
X164806380Y-113561714D02*
X164854000Y-113609333D01*
X164901619Y-113561714D01*
X164854000Y-113514095D01*
X164806380Y-113561714D01*
X164901619Y-113561714D01*
X165806380Y-112656952D02*
X164806380Y-112656952D01*
X165758761Y-112656952D02*
X165806380Y-112752190D01*
X165806380Y-112942666D01*
X165758761Y-113037904D01*
X165711142Y-113085523D01*
X165615904Y-113133142D01*
X165330190Y-113133142D01*
X165234952Y-113085523D01*
X165187333Y-113037904D01*
X165139714Y-112942666D01*
X165139714Y-112752190D01*
X165187333Y-112656952D01*
X165139714Y-112323619D02*
X165139714Y-111942666D01*
X164806380Y-112180761D02*
X165663523Y-112180761D01*
X165758761Y-112133142D01*
X165806380Y-112037904D01*
X165806380Y-111942666D01*
X165806380Y-111609333D02*
X164806380Y-111609333D01*
X165806380Y-111180761D02*
X165282571Y-111180761D01*
X165187333Y-111228380D01*
X165139714Y-111323619D01*
X165139714Y-111466476D01*
X165187333Y-111561714D01*
X165234952Y-111609333D01*
X165806380Y-109418857D02*
X165806380Y-109990285D01*
X165806380Y-109704571D02*
X164806380Y-109704571D01*
X164949238Y-109799809D01*
X165044476Y-109895047D01*
X165092095Y-109990285D01*
X164806380Y-108799809D02*
X164806380Y-108704571D01*
X164854000Y-108609333D01*
X164901619Y-108561714D01*
X164996857Y-108514095D01*
X165187333Y-108466476D01*
X165425428Y-108466476D01*
X165615904Y-108514095D01*
X165711142Y-108561714D01*
X165758761Y-108609333D01*
X165806380Y-108704571D01*
X165806380Y-108799809D01*
X165758761Y-108895047D01*
X165711142Y-108942666D01*
X165615904Y-108990285D01*
X165425428Y-109037904D01*
X165187333Y-109037904D01*
X164996857Y-108990285D01*
X164901619Y-108942666D01*
X164854000Y-108895047D01*
X164806380Y-108799809D01*
X164806380Y-107847428D02*
X164806380Y-107752190D01*
X164854000Y-107656952D01*
X164901619Y-107609333D01*
X164996857Y-107561714D01*
X165187333Y-107514095D01*
X165425428Y-107514095D01*
X165615904Y-107561714D01*
X165711142Y-107609333D01*
X165758761Y-107656952D01*
X165806380Y-107752190D01*
X165806380Y-107847428D01*
X165758761Y-107942666D01*
X165711142Y-107990285D01*
X165615904Y-108037904D01*
X165425428Y-108085523D01*
X165187333Y-108085523D01*
X164996857Y-108037904D01*
X164901619Y-107990285D01*
X164854000Y-107942666D01*
X164806380Y-107847428D01*
X165806380Y-107085523D02*
X164806380Y-107085523D01*
X165425428Y-106990285D02*
X165806380Y-106704571D01*
X165139714Y-106704571D02*
X165520666Y-107085523D01*
X162266380Y-113363333D02*
X162980666Y-113363333D01*
X163123523Y-113410952D01*
X163218761Y-113506190D01*
X163266380Y-113649047D01*
X163266380Y-113744285D01*
X162266380Y-112982380D02*
X162266380Y-112315714D01*
X163266380Y-112744285D01*
X189888761Y-114124476D02*
X189936380Y-113981619D01*
X189936380Y-113743523D01*
X189888761Y-113648285D01*
X189841142Y-113600666D01*
X189745904Y-113553047D01*
X189650666Y-113553047D01*
X189555428Y-113600666D01*
X189507809Y-113648285D01*
X189460190Y-113743523D01*
X189412571Y-113934000D01*
X189364952Y-114029238D01*
X189317333Y-114076857D01*
X189222095Y-114124476D01*
X189126857Y-114124476D01*
X189031619Y-114076857D01*
X188984000Y-114029238D01*
X188936380Y-113934000D01*
X188936380Y-113695904D01*
X188984000Y-113553047D01*
X189936380Y-113124476D02*
X188936380Y-113124476D01*
X189936380Y-112648285D02*
X188936380Y-112648285D01*
X189936380Y-112076857D01*
X188936380Y-112076857D01*
X189555428Y-111600666D02*
X189555428Y-110838761D01*
X188936380Y-110505428D02*
X188936380Y-109934000D01*
X189936380Y-110219714D02*
X188936380Y-110219714D01*
X189936380Y-109029238D02*
X189460190Y-109362571D01*
X189936380Y-109600666D02*
X188936380Y-109600666D01*
X188936380Y-109219714D01*
X188984000Y-109124476D01*
X189031619Y-109076857D01*
X189126857Y-109029238D01*
X189269714Y-109029238D01*
X189364952Y-109076857D01*
X189412571Y-109124476D01*
X189460190Y-109219714D01*
X189460190Y-109600666D01*
X189936380Y-108600666D02*
X188936380Y-108600666D01*
X189555428Y-108124476D02*
X189555428Y-107362571D01*
X189888761Y-106934000D02*
X189936380Y-106791142D01*
X189936380Y-106553047D01*
X189888761Y-106457809D01*
X189841142Y-106410190D01*
X189745904Y-106362571D01*
X189650666Y-106362571D01*
X189555428Y-106410190D01*
X189507809Y-106457809D01*
X189460190Y-106553047D01*
X189412571Y-106743523D01*
X189364952Y-106838761D01*
X189317333Y-106886380D01*
X189222095Y-106934000D01*
X189126857Y-106934000D01*
X189031619Y-106886380D01*
X188984000Y-106838761D01*
X188936380Y-106743523D01*
X188936380Y-106505428D01*
X188984000Y-106362571D01*
X190031619Y-105267333D02*
X189984000Y-105362571D01*
X189888761Y-105457809D01*
X189745904Y-105600666D01*
X189698285Y-105695904D01*
X189698285Y-105791142D01*
X189936380Y-105743523D02*
X189888761Y-105838761D01*
X189793523Y-105934000D01*
X189603047Y-105981619D01*
X189269714Y-105981619D01*
X189079238Y-105934000D01*
X188984000Y-105838761D01*
X188936380Y-105743523D01*
X188936380Y-105553047D01*
X188984000Y-105457809D01*
X189079238Y-105362571D01*
X189269714Y-105314952D01*
X189603047Y-105314952D01*
X189793523Y-105362571D01*
X189888761Y-105457809D01*
X189936380Y-105553047D01*
X189936380Y-105743523D01*
X188936380Y-104886380D02*
X189745904Y-104886380D01*
X189841142Y-104838761D01*
X189888761Y-104791142D01*
X189936380Y-104695904D01*
X189936380Y-104505428D01*
X189888761Y-104410190D01*
X189841142Y-104362571D01*
X189745904Y-104314952D01*
X188936380Y-104314952D01*
X189555428Y-103838761D02*
X189555428Y-103076857D01*
X189936380Y-102600666D02*
X188936380Y-102600666D01*
X188936380Y-102219714D01*
X188984000Y-102124476D01*
X189031619Y-102076857D01*
X189126857Y-102029238D01*
X189269714Y-102029238D01*
X189364952Y-102076857D01*
X189412571Y-102124476D01*
X189460190Y-102219714D01*
X189460190Y-102600666D01*
X188936380Y-101695904D02*
X189936380Y-101457809D01*
X189222095Y-101267333D01*
X189936380Y-101076857D01*
X188936380Y-100838761D01*
X189936380Y-100457809D02*
X188936380Y-100457809D01*
X189650666Y-100124476D01*
X188936380Y-99791142D01*
X189936380Y-99791142D01*
X191730380Y-106251333D02*
X192444666Y-106251333D01*
X192587523Y-106298952D01*
X192682761Y-106394190D01*
X192730380Y-106537047D01*
X192730380Y-106632285D01*
X191730380Y-105346571D02*
X191730380Y-105537047D01*
X191778000Y-105632285D01*
X191825619Y-105679904D01*
X191968476Y-105775142D01*
X192158952Y-105822761D01*
X192539904Y-105822761D01*
X192635142Y-105775142D01*
X192682761Y-105727523D01*
X192730380Y-105632285D01*
X192730380Y-105441809D01*
X192682761Y-105346571D01*
X192635142Y-105298952D01*
X192539904Y-105251333D01*
X192301809Y-105251333D01*
X192206571Y-105298952D01*
X192158952Y-105346571D01*
X192111333Y-105441809D01*
X192111333Y-105632285D01*
X192158952Y-105727523D01*
X192206571Y-105775142D01*
X192301809Y-105822761D01*
X127689047Y-57996380D02*
X128260476Y-57996380D01*
X127974761Y-58996380D02*
X127974761Y-57996380D01*
X128450952Y-57996380D02*
X129022380Y-57996380D01*
X128736666Y-58996380D02*
X128736666Y-57996380D01*
X129831904Y-58996380D02*
X129355714Y-58996380D01*
X129355714Y-57996380D01*
X131117619Y-57996380D02*
X131308095Y-57996380D01*
X131403333Y-58044000D01*
X131498571Y-58139238D01*
X131546190Y-58329714D01*
X131546190Y-58663047D01*
X131498571Y-58853523D01*
X131403333Y-58948761D01*
X131308095Y-58996380D01*
X131117619Y-58996380D01*
X131022380Y-58948761D01*
X130927142Y-58853523D01*
X130879523Y-58663047D01*
X130879523Y-58329714D01*
X130927142Y-58139238D01*
X131022380Y-58044000D01*
X131117619Y-57996380D01*
X131974761Y-57996380D02*
X131974761Y-58805904D01*
X132022380Y-58901142D01*
X132070000Y-58948761D01*
X132165238Y-58996380D01*
X132355714Y-58996380D01*
X132450952Y-58948761D01*
X132498571Y-58901142D01*
X132546190Y-58805904D01*
X132546190Y-57996380D01*
X132879523Y-57996380D02*
X133450952Y-57996380D01*
X133165238Y-58996380D02*
X133165238Y-57996380D01*
X130516666Y-67746380D02*
X130516666Y-68460666D01*
X130469047Y-68603523D01*
X130373809Y-68698761D01*
X130230952Y-68746380D01*
X130135714Y-68746380D01*
X131469047Y-67746380D02*
X130992857Y-67746380D01*
X130945238Y-68222571D01*
X130992857Y-68174952D01*
X131088095Y-68127333D01*
X131326190Y-68127333D01*
X131421428Y-68174952D01*
X131469047Y-68222571D01*
X131516666Y-68317809D01*
X131516666Y-68555904D01*
X131469047Y-68651142D01*
X131421428Y-68698761D01*
X131326190Y-68746380D01*
X131088095Y-68746380D01*
X130992857Y-68698761D01*
X130945238Y-68651142D01*
X151940285Y-64234571D02*
X151606952Y-64234571D01*
X151606952Y-64758380D02*
X151606952Y-63758380D01*
X152083142Y-63758380D01*
X152464095Y-64758380D02*
X152464095Y-64091714D01*
X152464095Y-64282190D02*
X152511714Y-64186952D01*
X152559333Y-64139333D01*
X152654571Y-64091714D01*
X152749809Y-64091714D01*
X153464095Y-64710761D02*
X153368857Y-64758380D01*
X153178380Y-64758380D01*
X153083142Y-64710761D01*
X153035523Y-64615523D01*
X153035523Y-64234571D01*
X153083142Y-64139333D01*
X153178380Y-64091714D01*
X153368857Y-64091714D01*
X153464095Y-64139333D01*
X153511714Y-64234571D01*
X153511714Y-64329809D01*
X153035523Y-64425047D01*
X154368857Y-64091714D02*
X154368857Y-65091714D01*
X154368857Y-64710761D02*
X154273619Y-64758380D01*
X154083142Y-64758380D01*
X153987904Y-64710761D01*
X153940285Y-64663142D01*
X153892666Y-64567904D01*
X153892666Y-64282190D01*
X153940285Y-64186952D01*
X153987904Y-64139333D01*
X154083142Y-64091714D01*
X154273619Y-64091714D01*
X154368857Y-64139333D01*
X155416476Y-64663142D02*
X155368857Y-64710761D01*
X155226000Y-64758380D01*
X155130761Y-64758380D01*
X154987904Y-64710761D01*
X154892666Y-64615523D01*
X154845047Y-64520285D01*
X154797428Y-64329809D01*
X154797428Y-64186952D01*
X154845047Y-63996476D01*
X154892666Y-63901238D01*
X154987904Y-63806000D01*
X155130761Y-63758380D01*
X155226000Y-63758380D01*
X155368857Y-63806000D01*
X155416476Y-63853619D01*
X155987904Y-64758380D02*
X155892666Y-64710761D01*
X155845047Y-64663142D01*
X155797428Y-64567904D01*
X155797428Y-64282190D01*
X155845047Y-64186952D01*
X155892666Y-64139333D01*
X155987904Y-64091714D01*
X156130761Y-64091714D01*
X156226000Y-64139333D01*
X156273619Y-64186952D01*
X156321238Y-64282190D01*
X156321238Y-64567904D01*
X156273619Y-64663142D01*
X156226000Y-64710761D01*
X156130761Y-64758380D01*
X155987904Y-64758380D01*
X157178380Y-64091714D02*
X157178380Y-64758380D01*
X156749809Y-64091714D02*
X156749809Y-64615523D01*
X156797428Y-64710761D01*
X156892666Y-64758380D01*
X157035523Y-64758380D01*
X157130761Y-64710761D01*
X157178380Y-64663142D01*
X157654571Y-64091714D02*
X157654571Y-64758380D01*
X157654571Y-64186952D02*
X157702190Y-64139333D01*
X157797428Y-64091714D01*
X157940285Y-64091714D01*
X158035523Y-64139333D01*
X158083142Y-64234571D01*
X158083142Y-64758380D01*
X158416476Y-64091714D02*
X158797428Y-64091714D01*
X158559333Y-63758380D02*
X158559333Y-64615523D01*
X158606952Y-64710761D01*
X158702190Y-64758380D01*
X158797428Y-64758380D01*
X159511714Y-64710761D02*
X159416476Y-64758380D01*
X159226000Y-64758380D01*
X159130761Y-64710761D01*
X159083142Y-64615523D01*
X159083142Y-64234571D01*
X159130761Y-64139333D01*
X159226000Y-64091714D01*
X159416476Y-64091714D01*
X159511714Y-64139333D01*
X159559333Y-64234571D01*
X159559333Y-64329809D01*
X159083142Y-64425047D01*
X159987904Y-64758380D02*
X159987904Y-64091714D01*
X159987904Y-64282190D02*
X160035523Y-64186952D01*
X160083142Y-64139333D01*
X160178380Y-64091714D01*
X160273619Y-64091714D01*
X160606952Y-64758380D02*
X160606952Y-63758380D01*
X160845047Y-63758380D01*
X160987904Y-63806000D01*
X161083142Y-63901238D01*
X161130761Y-63996476D01*
X161178380Y-64186952D01*
X161178380Y-64329809D01*
X161130761Y-64520285D01*
X161083142Y-64615523D01*
X160987904Y-64710761D01*
X160845047Y-64758380D01*
X160606952Y-64758380D01*
X162083142Y-63758380D02*
X161606952Y-63758380D01*
X161559333Y-64234571D01*
X161606952Y-64186952D01*
X161702190Y-64139333D01*
X161940285Y-64139333D01*
X162035523Y-64186952D01*
X162083142Y-64234571D01*
X162130761Y-64329809D01*
X162130761Y-64567904D01*
X162083142Y-64663142D01*
X162035523Y-64710761D01*
X161940285Y-64758380D01*
X161702190Y-64758380D01*
X161606952Y-64710761D01*
X161559333Y-64663142D01*
X156678380Y-62309333D02*
X157392666Y-62309333D01*
X157535523Y-62356952D01*
X157630761Y-62452190D01*
X157678380Y-62595047D01*
X157678380Y-62690285D01*
X157011714Y-61404571D02*
X157678380Y-61404571D01*
X156630761Y-61642666D02*
X157345047Y-61880761D01*
X157345047Y-61261714D01*
X149892285Y-80462380D02*
X149320857Y-80462380D01*
X149606571Y-80462380D02*
X149606571Y-79462380D01*
X149511333Y-79605238D01*
X149416095Y-79700476D01*
X149320857Y-79748095D01*
X150273238Y-79557619D02*
X150320857Y-79510000D01*
X150416095Y-79462380D01*
X150654190Y-79462380D01*
X150749428Y-79510000D01*
X150797047Y-79557619D01*
X150844666Y-79652857D01*
X150844666Y-79748095D01*
X150797047Y-79890952D01*
X150225619Y-80462380D01*
X150844666Y-80462380D01*
X151130380Y-79462380D02*
X151463714Y-80462380D01*
X151797047Y-79462380D01*
X152130380Y-80081428D02*
X152892285Y-80081428D01*
X153892285Y-79510000D02*
X153797047Y-79462380D01*
X153654190Y-79462380D01*
X153511333Y-79510000D01*
X153416095Y-79605238D01*
X153368476Y-79700476D01*
X153320857Y-79890952D01*
X153320857Y-80033809D01*
X153368476Y-80224285D01*
X153416095Y-80319523D01*
X153511333Y-80414761D01*
X153654190Y-80462380D01*
X153749428Y-80462380D01*
X153892285Y-80414761D01*
X153939904Y-80367142D01*
X153939904Y-80033809D01*
X153749428Y-80033809D01*
X154368476Y-80462380D02*
X154368476Y-79462380D01*
X154939904Y-80462380D01*
X154939904Y-79462380D01*
X155416095Y-80462380D02*
X155416095Y-79462380D01*
X155654190Y-79462380D01*
X155797047Y-79510000D01*
X155892285Y-79605238D01*
X155939904Y-79700476D01*
X155987523Y-79890952D01*
X155987523Y-80033809D01*
X155939904Y-80224285D01*
X155892285Y-80319523D01*
X155797047Y-80414761D01*
X155654190Y-80462380D01*
X155416095Y-80462380D01*
X156416095Y-80081428D02*
X157178000Y-80081428D01*
X158130380Y-79462380D02*
X157654190Y-79462380D01*
X157606571Y-79938571D01*
X157654190Y-79890952D01*
X157749428Y-79843333D01*
X157987523Y-79843333D01*
X158082761Y-79890952D01*
X158130380Y-79938571D01*
X158178000Y-80033809D01*
X158178000Y-80271904D01*
X158130380Y-80367142D01*
X158082761Y-80414761D01*
X157987523Y-80462380D01*
X157749428Y-80462380D01*
X157654190Y-80414761D01*
X157606571Y-80367142D01*
X158463714Y-79462380D02*
X158797047Y-80462380D01*
X159130380Y-79462380D01*
X149526666Y-82002380D02*
X149526666Y-82716666D01*
X149479047Y-82859523D01*
X149383809Y-82954761D01*
X149240952Y-83002380D01*
X149145714Y-83002380D01*
X149907619Y-82002380D02*
X150526666Y-82002380D01*
X150193333Y-82383333D01*
X150336190Y-82383333D01*
X150431428Y-82430952D01*
X150479047Y-82478571D01*
X150526666Y-82573809D01*
X150526666Y-82811904D01*
X150479047Y-82907142D01*
X150431428Y-82954761D01*
X150336190Y-83002380D01*
X150050476Y-83002380D01*
X149955238Y-82954761D01*
X149907619Y-82907142D01*
X138144666Y-79684571D02*
X137811333Y-79684571D01*
X137811333Y-80208380D02*
X137811333Y-79208380D01*
X138287523Y-79208380D01*
X138668476Y-80208380D02*
X138668476Y-79541714D01*
X138668476Y-79732190D02*
X138716095Y-79636952D01*
X138763714Y-79589333D01*
X138858952Y-79541714D01*
X138954190Y-79541714D01*
X139668476Y-80160761D02*
X139573238Y-80208380D01*
X139382761Y-80208380D01*
X139287523Y-80160761D01*
X139239904Y-80065523D01*
X139239904Y-79684571D01*
X139287523Y-79589333D01*
X139382761Y-79541714D01*
X139573238Y-79541714D01*
X139668476Y-79589333D01*
X139716095Y-79684571D01*
X139716095Y-79779809D01*
X139239904Y-79875047D01*
X140573238Y-79541714D02*
X140573238Y-80541714D01*
X140573238Y-80160761D02*
X140478000Y-80208380D01*
X140287523Y-80208380D01*
X140192285Y-80160761D01*
X140144666Y-80113142D01*
X140097047Y-80017904D01*
X140097047Y-79732190D01*
X140144666Y-79636952D01*
X140192285Y-79589333D01*
X140287523Y-79541714D01*
X140478000Y-79541714D01*
X140573238Y-79589333D01*
X141620857Y-80208380D02*
X141287523Y-79732190D01*
X141049428Y-80208380D02*
X141049428Y-79208380D01*
X141430380Y-79208380D01*
X141525619Y-79256000D01*
X141573238Y-79303619D01*
X141620857Y-79398857D01*
X141620857Y-79541714D01*
X141573238Y-79636952D01*
X141525619Y-79684571D01*
X141430380Y-79732190D01*
X141049428Y-79732190D01*
X142478000Y-80208380D02*
X142478000Y-79684571D01*
X142430380Y-79589333D01*
X142335142Y-79541714D01*
X142144666Y-79541714D01*
X142049428Y-79589333D01*
X142478000Y-80160761D02*
X142382761Y-80208380D01*
X142144666Y-80208380D01*
X142049428Y-80160761D01*
X142001809Y-80065523D01*
X142001809Y-79970285D01*
X142049428Y-79875047D01*
X142144666Y-79827428D01*
X142382761Y-79827428D01*
X142478000Y-79779809D01*
X142954190Y-79541714D02*
X142954190Y-80208380D01*
X142954190Y-79636952D02*
X143001809Y-79589333D01*
X143097047Y-79541714D01*
X143239904Y-79541714D01*
X143335142Y-79589333D01*
X143382761Y-79684571D01*
X143382761Y-80208380D01*
X144287523Y-79541714D02*
X144287523Y-80351238D01*
X144239904Y-80446476D01*
X144192285Y-80494095D01*
X144097047Y-80541714D01*
X143954190Y-80541714D01*
X143858952Y-80494095D01*
X144287523Y-80160761D02*
X144192285Y-80208380D01*
X144001809Y-80208380D01*
X143906571Y-80160761D01*
X143858952Y-80113142D01*
X143811333Y-80017904D01*
X143811333Y-79732190D01*
X143858952Y-79636952D01*
X143906571Y-79589333D01*
X144001809Y-79541714D01*
X144192285Y-79541714D01*
X144287523Y-79589333D01*
X145144666Y-80160761D02*
X145049428Y-80208380D01*
X144858952Y-80208380D01*
X144763714Y-80160761D01*
X144716095Y-80065523D01*
X144716095Y-79684571D01*
X144763714Y-79589333D01*
X144858952Y-79541714D01*
X145049428Y-79541714D01*
X145144666Y-79589333D01*
X145192285Y-79684571D01*
X145192285Y-79779809D01*
X144716095Y-79875047D01*
X140382666Y-82510380D02*
X140382666Y-83224666D01*
X140335047Y-83367523D01*
X140239809Y-83462761D01*
X140096952Y-83510380D01*
X140001714Y-83510380D01*
X141382666Y-83510380D02*
X140811238Y-83510380D01*
X141096952Y-83510380D02*
X141096952Y-82510380D01*
X141001714Y-82653238D01*
X140906476Y-82748476D01*
X140811238Y-82796095D01*
X207148380Y-86443619D02*
X207148380Y-87015047D01*
X207148380Y-86729333D02*
X206148380Y-86729333D01*
X206291238Y-86824571D01*
X206386476Y-86919809D01*
X206434095Y-87015047D01*
X206148380Y-85824571D02*
X206148380Y-85729333D01*
X206196000Y-85634095D01*
X206243619Y-85586476D01*
X206338857Y-85538857D01*
X206529333Y-85491238D01*
X206767428Y-85491238D01*
X206957904Y-85538857D01*
X207053142Y-85586476D01*
X207100761Y-85634095D01*
X207148380Y-85729333D01*
X207148380Y-85824571D01*
X207100761Y-85919809D01*
X207053142Y-85967428D01*
X206957904Y-86015047D01*
X206767428Y-86062666D01*
X206529333Y-86062666D01*
X206338857Y-86015047D01*
X206243619Y-85967428D01*
X206196000Y-85919809D01*
X206148380Y-85824571D01*
X206148380Y-84872190D02*
X206148380Y-84776952D01*
X206196000Y-84681714D01*
X206243619Y-84634095D01*
X206338857Y-84586476D01*
X206529333Y-84538857D01*
X206767428Y-84538857D01*
X206957904Y-84586476D01*
X207053142Y-84634095D01*
X207100761Y-84681714D01*
X207148380Y-84776952D01*
X207148380Y-84872190D01*
X207100761Y-84967428D01*
X207053142Y-85015047D01*
X206957904Y-85062666D01*
X206767428Y-85110285D01*
X206529333Y-85110285D01*
X206338857Y-85062666D01*
X206243619Y-85015047D01*
X206196000Y-84967428D01*
X206148380Y-84872190D01*
X206481714Y-84110285D02*
X207481714Y-84110285D01*
X206529333Y-84110285D02*
X206481714Y-84015047D01*
X206481714Y-83824571D01*
X206529333Y-83729333D01*
X206576952Y-83681714D01*
X206672190Y-83634095D01*
X206957904Y-83634095D01*
X207053142Y-83681714D01*
X207100761Y-83729333D01*
X207148380Y-83824571D01*
X207148380Y-84015047D01*
X207100761Y-84110285D01*
X206624571Y-82872190D02*
X206624571Y-83205523D01*
X207148380Y-83205523D02*
X206148380Y-83205523D01*
X206148380Y-82729333D01*
X203303142Y-85062666D02*
X203350761Y-85110285D01*
X203398380Y-85253142D01*
X203398380Y-85348380D01*
X203350761Y-85491238D01*
X203255523Y-85586476D01*
X203160285Y-85634095D01*
X202969809Y-85681714D01*
X202826952Y-85681714D01*
X202636476Y-85634095D01*
X202541238Y-85586476D01*
X202446000Y-85491238D01*
X202398380Y-85348380D01*
X202398380Y-85253142D01*
X202446000Y-85110285D01*
X202493619Y-85062666D01*
X202826952Y-84491238D02*
X202779333Y-84586476D01*
X202731714Y-84634095D01*
X202636476Y-84681714D01*
X202588857Y-84681714D01*
X202493619Y-84634095D01*
X202446000Y-84586476D01*
X202398380Y-84491238D01*
X202398380Y-84300761D01*
X202446000Y-84205523D01*
X202493619Y-84157904D01*
X202588857Y-84110285D01*
X202636476Y-84110285D01*
X202731714Y-84157904D01*
X202779333Y-84205523D01*
X202826952Y-84300761D01*
X202826952Y-84491238D01*
X202874571Y-84586476D01*
X202922190Y-84634095D01*
X203017428Y-84681714D01*
X203207904Y-84681714D01*
X203303142Y-84634095D01*
X203350761Y-84586476D01*
X203398380Y-84491238D01*
X203398380Y-84300761D01*
X203350761Y-84205523D01*
X203303142Y-84157904D01*
X203207904Y-84110285D01*
X203017428Y-84110285D01*
X202922190Y-84157904D01*
X202874571Y-84205523D01*
X202826952Y-84300761D01*
X218495619Y-114133047D02*
X218448000Y-114085428D01*
X218400380Y-113990190D01*
X218400380Y-113752095D01*
X218448000Y-113656857D01*
X218495619Y-113609238D01*
X218590857Y-113561619D01*
X218686095Y-113561619D01*
X218828952Y-113609238D01*
X219400380Y-114180666D01*
X219400380Y-113561619D01*
X218495619Y-113180666D02*
X218448000Y-113133047D01*
X218400380Y-113037809D01*
X218400380Y-112799714D01*
X218448000Y-112704476D01*
X218495619Y-112656857D01*
X218590857Y-112609238D01*
X218686095Y-112609238D01*
X218828952Y-112656857D01*
X219400380Y-113228285D01*
X219400380Y-112609238D01*
X218400380Y-111990190D02*
X218400380Y-111894952D01*
X218448000Y-111799714D01*
X218495619Y-111752095D01*
X218590857Y-111704476D01*
X218781333Y-111656857D01*
X219019428Y-111656857D01*
X219209904Y-111704476D01*
X219305142Y-111752095D01*
X219352761Y-111799714D01*
X219400380Y-111894952D01*
X219400380Y-111990190D01*
X219352761Y-112085428D01*
X219305142Y-112133047D01*
X219209904Y-112180666D01*
X219019428Y-112228285D01*
X218781333Y-112228285D01*
X218590857Y-112180666D01*
X218495619Y-112133047D01*
X218448000Y-112085428D01*
X218400380Y-111990190D01*
X218733714Y-110799714D02*
X219400380Y-110799714D01*
X218733714Y-111228285D02*
X219257523Y-111228285D01*
X219352761Y-111180666D01*
X219400380Y-111085428D01*
X219400380Y-110942571D01*
X219352761Y-110847333D01*
X219305142Y-110799714D01*
X218876571Y-109990190D02*
X218876571Y-110323523D01*
X219400380Y-110323523D02*
X218400380Y-110323523D01*
X218400380Y-109847333D01*
X214225142Y-116458666D02*
X214272761Y-116506285D01*
X214320380Y-116649142D01*
X214320380Y-116744380D01*
X214272761Y-116887238D01*
X214177523Y-116982476D01*
X214082285Y-117030095D01*
X213891809Y-117077714D01*
X213748952Y-117077714D01*
X213558476Y-117030095D01*
X213463238Y-116982476D01*
X213368000Y-116887238D01*
X213320380Y-116744380D01*
X213320380Y-116649142D01*
X213368000Y-116506285D01*
X213415619Y-116458666D01*
X213320380Y-116125333D02*
X213320380Y-115458666D01*
X214320380Y-115887238D01*
X218495619Y-102957047D02*
X218448000Y-102909428D01*
X218400380Y-102814190D01*
X218400380Y-102576095D01*
X218448000Y-102480857D01*
X218495619Y-102433238D01*
X218590857Y-102385619D01*
X218686095Y-102385619D01*
X218828952Y-102433238D01*
X219400380Y-103004666D01*
X219400380Y-102385619D01*
X218495619Y-102004666D02*
X218448000Y-101957047D01*
X218400380Y-101861809D01*
X218400380Y-101623714D01*
X218448000Y-101528476D01*
X218495619Y-101480857D01*
X218590857Y-101433238D01*
X218686095Y-101433238D01*
X218828952Y-101480857D01*
X219400380Y-102052285D01*
X219400380Y-101433238D01*
X218400380Y-100814190D02*
X218400380Y-100718952D01*
X218448000Y-100623714D01*
X218495619Y-100576095D01*
X218590857Y-100528476D01*
X218781333Y-100480857D01*
X219019428Y-100480857D01*
X219209904Y-100528476D01*
X219305142Y-100576095D01*
X219352761Y-100623714D01*
X219400380Y-100718952D01*
X219400380Y-100814190D01*
X219352761Y-100909428D01*
X219305142Y-100957047D01*
X219209904Y-101004666D01*
X219019428Y-101052285D01*
X218781333Y-101052285D01*
X218590857Y-101004666D01*
X218495619Y-100957047D01*
X218448000Y-100909428D01*
X218400380Y-100814190D01*
X218733714Y-99623714D02*
X219400380Y-99623714D01*
X218733714Y-100052285D02*
X219257523Y-100052285D01*
X219352761Y-100004666D01*
X219400380Y-99909428D01*
X219400380Y-99766571D01*
X219352761Y-99671333D01*
X219305142Y-99623714D01*
X218876571Y-98814190D02*
X218876571Y-99147523D01*
X219400380Y-99147523D02*
X218400380Y-99147523D01*
X218400380Y-98671333D01*
X214225142Y-105028666D02*
X214272761Y-105076285D01*
X214320380Y-105219142D01*
X214320380Y-105314380D01*
X214272761Y-105457238D01*
X214177523Y-105552476D01*
X214082285Y-105600095D01*
X213891809Y-105647714D01*
X213748952Y-105647714D01*
X213558476Y-105600095D01*
X213463238Y-105552476D01*
X213368000Y-105457238D01*
X213320380Y-105314380D01*
X213320380Y-105219142D01*
X213368000Y-105076285D01*
X213415619Y-105028666D01*
X213320380Y-104171523D02*
X213320380Y-104362000D01*
X213368000Y-104457238D01*
X213415619Y-104504857D01*
X213558476Y-104600095D01*
X213748952Y-104647714D01*
X214129904Y-104647714D01*
X214225142Y-104600095D01*
X214272761Y-104552476D01*
X214320380Y-104457238D01*
X214320380Y-104266761D01*
X214272761Y-104171523D01*
X214225142Y-104123904D01*
X214129904Y-104076285D01*
X213891809Y-104076285D01*
X213796571Y-104123904D01*
X213748952Y-104171523D01*
X213701333Y-104266761D01*
X213701333Y-104457238D01*
X213748952Y-104552476D01*
X213796571Y-104600095D01*
X213891809Y-104647714D01*
X162353333Y-94602380D02*
X161781904Y-94602380D01*
X162067619Y-94602380D02*
X162067619Y-93602380D01*
X161972380Y-93745238D01*
X161877142Y-93840476D01*
X161781904Y-93888095D01*
X163210476Y-93935714D02*
X163210476Y-94602380D01*
X162781904Y-93935714D02*
X162781904Y-94459523D01*
X162829523Y-94554761D01*
X162924761Y-94602380D01*
X163067619Y-94602380D01*
X163162857Y-94554761D01*
X163210476Y-94507142D01*
X162353333Y-89257142D02*
X162305714Y-89304761D01*
X162162857Y-89352380D01*
X162067619Y-89352380D01*
X161924761Y-89304761D01*
X161829523Y-89209523D01*
X161781904Y-89114285D01*
X161734285Y-88923809D01*
X161734285Y-88780952D01*
X161781904Y-88590476D01*
X161829523Y-88495238D01*
X161924761Y-88400000D01*
X162067619Y-88352380D01*
X162162857Y-88352380D01*
X162305714Y-88400000D01*
X162353333Y-88447619D01*
X163210476Y-88685714D02*
X163210476Y-89352380D01*
X162972380Y-88304761D02*
X162734285Y-89019047D01*
X163353333Y-89019047D01*
X189512380Y-68674857D02*
X189512380Y-69246285D01*
X189512380Y-68960571D02*
X188512380Y-68960571D01*
X188655238Y-69055809D01*
X188750476Y-69151047D01*
X188798095Y-69246285D01*
X188512380Y-68055809D02*
X188512380Y-67960571D01*
X188560000Y-67865333D01*
X188607619Y-67817714D01*
X188702857Y-67770095D01*
X188893333Y-67722476D01*
X189131428Y-67722476D01*
X189321904Y-67770095D01*
X189417142Y-67817714D01*
X189464761Y-67865333D01*
X189512380Y-67960571D01*
X189512380Y-68055809D01*
X189464761Y-68151047D01*
X189417142Y-68198666D01*
X189321904Y-68246285D01*
X189131428Y-68293904D01*
X188893333Y-68293904D01*
X188702857Y-68246285D01*
X188607619Y-68198666D01*
X188560000Y-68151047D01*
X188512380Y-68055809D01*
X188845714Y-66865333D02*
X189512380Y-66865333D01*
X188845714Y-67293904D02*
X189369523Y-67293904D01*
X189464761Y-67246285D01*
X189512380Y-67151047D01*
X189512380Y-67008190D01*
X189464761Y-66912952D01*
X189417142Y-66865333D01*
X194667142Y-68198666D02*
X194714761Y-68246285D01*
X194762380Y-68389142D01*
X194762380Y-68484380D01*
X194714761Y-68627238D01*
X194619523Y-68722476D01*
X194524285Y-68770095D01*
X194333809Y-68817714D01*
X194190952Y-68817714D01*
X194000476Y-68770095D01*
X193905238Y-68722476D01*
X193810000Y-68627238D01*
X193762380Y-68484380D01*
X193762380Y-68389142D01*
X193810000Y-68246285D01*
X193857619Y-68198666D01*
X193762380Y-67865333D02*
X193762380Y-67246285D01*
X194143333Y-67579619D01*
X194143333Y-67436761D01*
X194190952Y-67341523D01*
X194238571Y-67293904D01*
X194333809Y-67246285D01*
X194571904Y-67246285D01*
X194667142Y-67293904D01*
X194714761Y-67341523D01*
X194762380Y-67436761D01*
X194762380Y-67722476D01*
X194714761Y-67817714D01*
X194667142Y-67865333D01*
X127282380Y-116601428D02*
X127282380Y-117172857D01*
X127282380Y-116887142D02*
X126282380Y-116887142D01*
X126425238Y-116982380D01*
X126520476Y-117077619D01*
X126568095Y-117172857D01*
X126282380Y-115982380D02*
X126282380Y-115887142D01*
X126330000Y-115791904D01*
X126377619Y-115744285D01*
X126472857Y-115696666D01*
X126663333Y-115649047D01*
X126901428Y-115649047D01*
X127091904Y-115696666D01*
X127187142Y-115744285D01*
X127234761Y-115791904D01*
X127282380Y-115887142D01*
X127282380Y-115982380D01*
X127234761Y-116077619D01*
X127187142Y-116125238D01*
X127091904Y-116172857D01*
X126901428Y-116220476D01*
X126663333Y-116220476D01*
X126472857Y-116172857D01*
X126377619Y-116125238D01*
X126330000Y-116077619D01*
X126282380Y-115982380D01*
X126615714Y-114791904D02*
X127282380Y-114791904D01*
X126615714Y-115220476D02*
X127139523Y-115220476D01*
X127234761Y-115172857D01*
X127282380Y-115077619D01*
X127282380Y-114934761D01*
X127234761Y-114839523D01*
X127187142Y-114791904D01*
X126758571Y-113982380D02*
X126758571Y-114315714D01*
X127282380Y-114315714D02*
X126282380Y-114315714D01*
X126282380Y-113839523D01*
X132437142Y-115696666D02*
X132484761Y-115744285D01*
X132532380Y-115887142D01*
X132532380Y-115982380D01*
X132484761Y-116125238D01*
X132389523Y-116220476D01*
X132294285Y-116268095D01*
X132103809Y-116315714D01*
X131960952Y-116315714D01*
X131770476Y-116268095D01*
X131675238Y-116220476D01*
X131580000Y-116125238D01*
X131532380Y-115982380D01*
X131532380Y-115887142D01*
X131580000Y-115744285D01*
X131627619Y-115696666D01*
X131627619Y-115315714D02*
X131580000Y-115268095D01*
X131532380Y-115172857D01*
X131532380Y-114934761D01*
X131580000Y-114839523D01*
X131627619Y-114791904D01*
X131722857Y-114744285D01*
X131818095Y-114744285D01*
X131960952Y-114791904D01*
X132532380Y-115363333D01*
X132532380Y-114744285D01*
X139168380Y-92400380D02*
X138596952Y-92400380D01*
X138882666Y-92400380D02*
X138882666Y-91400380D01*
X138787428Y-91543238D01*
X138692190Y-91638476D01*
X138596952Y-91686095D01*
X139787428Y-91400380D02*
X139882666Y-91400380D01*
X139977904Y-91448000D01*
X140025523Y-91495619D01*
X140073142Y-91590857D01*
X140120761Y-91781333D01*
X140120761Y-92019428D01*
X140073142Y-92209904D01*
X140025523Y-92305142D01*
X139977904Y-92352761D01*
X139882666Y-92400380D01*
X139787428Y-92400380D01*
X139692190Y-92352761D01*
X139644571Y-92305142D01*
X139596952Y-92209904D01*
X139549333Y-92019428D01*
X139549333Y-91781333D01*
X139596952Y-91590857D01*
X139644571Y-91495619D01*
X139692190Y-91448000D01*
X139787428Y-91400380D01*
X140739809Y-91400380D02*
X140835047Y-91400380D01*
X140930285Y-91448000D01*
X140977904Y-91495619D01*
X141025523Y-91590857D01*
X141073142Y-91781333D01*
X141073142Y-92019428D01*
X141025523Y-92209904D01*
X140977904Y-92305142D01*
X140930285Y-92352761D01*
X140835047Y-92400380D01*
X140739809Y-92400380D01*
X140644571Y-92352761D01*
X140596952Y-92305142D01*
X140549333Y-92209904D01*
X140501714Y-92019428D01*
X140501714Y-91781333D01*
X140549333Y-91590857D01*
X140596952Y-91495619D01*
X140644571Y-91448000D01*
X140739809Y-91400380D01*
X141501714Y-91733714D02*
X141501714Y-92733714D01*
X141501714Y-91781333D02*
X141596952Y-91733714D01*
X141787428Y-91733714D01*
X141882666Y-91781333D01*
X141930285Y-91828952D01*
X141977904Y-91924190D01*
X141977904Y-92209904D01*
X141930285Y-92305142D01*
X141882666Y-92352761D01*
X141787428Y-92400380D01*
X141596952Y-92400380D01*
X141501714Y-92352761D01*
X142739809Y-91876571D02*
X142406476Y-91876571D01*
X142406476Y-92400380D02*
X142406476Y-91400380D01*
X142882666Y-91400380D01*
X143911333Y-88495142D02*
X143863714Y-88542761D01*
X143720857Y-88590380D01*
X143625619Y-88590380D01*
X143482761Y-88542761D01*
X143387523Y-88447523D01*
X143339904Y-88352285D01*
X143292285Y-88161809D01*
X143292285Y-88018952D01*
X143339904Y-87828476D01*
X143387523Y-87733238D01*
X143482761Y-87638000D01*
X143625619Y-87590380D01*
X143720857Y-87590380D01*
X143863714Y-87638000D01*
X143911333Y-87685619D01*
X144863714Y-88590380D02*
X144292285Y-88590380D01*
X144578000Y-88590380D02*
X144578000Y-87590380D01*
X144482761Y-87733238D01*
X144387523Y-87828476D01*
X144292285Y-87876095D01*
M02*
