G04 #@! TF.GenerationSoftware,KiCad,Pcbnew,(5.1.5)-3*
G04 #@! TF.CreationDate,2020-03-25T20:54:11+01:00*
G04 #@! TF.ProjectId,FunctiongeneratorMK3Frequency,46756e63-7469-46f6-9e67-656e65726174,rev?*
G04 #@! TF.SameCoordinates,Original*
G04 #@! TF.FileFunction,Copper,L2,Bot*
G04 #@! TF.FilePolarity,Positive*
%FSLAX46Y46*%
G04 Gerber Fmt 4.6, Leading zero omitted, Abs format (unit mm)*
G04 Created by KiCad (PCBNEW (5.1.5)-3) date 2020-03-25 20:54:11*
%MOMM*%
%LPD*%
G04 APERTURE LIST*
%ADD10C,0.600000*%
%ADD11C,1.440000*%
%ADD12R,1.700000X1.700000*%
%ADD13C,1.676400*%
%ADD14R,1.676400X1.676400*%
%ADD15O,1.600000X1.600000*%
%ADD16R,1.600000X1.600000*%
%ADD17C,1.600000*%
%ADD18O,1.700000X1.700000*%
%ADD19O,1.980000X3.960000*%
%ADD20R,1.980000X3.960000*%
%ADD21C,2.000000*%
%ADD22C,1.000000*%
%ADD23C,0.750000*%
%ADD24C,0.254000*%
G04 APERTURE END LIST*
D10*
X210644857Y-68413142D02*
X211644857Y-66984571D01*
X212359142Y-68413142D02*
X212359142Y-65413142D01*
X211216285Y-65413142D01*
X210930571Y-65556000D01*
X210787714Y-65698857D01*
X210644857Y-65984571D01*
X210644857Y-66413142D01*
X210787714Y-66698857D01*
X210930571Y-66841714D01*
X211216285Y-66984571D01*
X212359142Y-66984571D01*
X209359142Y-66841714D02*
X208359142Y-66841714D01*
X207930571Y-68413142D02*
X209359142Y-68413142D01*
X209359142Y-65413142D01*
X207930571Y-65413142D01*
X207073428Y-65413142D02*
X206073428Y-68413142D01*
X205073428Y-65413142D01*
X201930571Y-67556000D02*
X200502000Y-67556000D01*
X202216285Y-68413142D02*
X201216285Y-65413142D01*
X200216285Y-68413142D01*
D11*
X134112000Y-89916000D03*
X131572000Y-89916000D03*
X129032000Y-89916000D03*
D12*
X146812000Y-92964000D03*
X144780000Y-117094000D03*
X140462000Y-114808000D03*
D13*
X170942000Y-117094000D03*
X173482000Y-117094000D03*
X176022000Y-117094000D03*
X178562000Y-117094000D03*
X178562000Y-124714000D03*
X176022000Y-124714000D03*
X173482000Y-124714000D03*
D14*
X170942000Y-124714000D03*
D13*
X194310000Y-82042000D03*
X194310000Y-84582000D03*
X194310000Y-87122000D03*
X194310000Y-89662000D03*
X186690000Y-89662000D03*
X186690000Y-87122000D03*
X186690000Y-84582000D03*
D14*
X186690000Y-82042000D03*
D13*
X158750000Y-74168000D03*
X156210000Y-74168000D03*
X153670000Y-74168000D03*
X151130000Y-74168000D03*
X148590000Y-74168000D03*
X146050000Y-74168000D03*
X143510000Y-74168000D03*
X143510000Y-66548000D03*
X146050000Y-66548000D03*
X148590000Y-66548000D03*
X151130000Y-66548000D03*
X153670000Y-66548000D03*
X156210000Y-66548000D03*
D14*
X158750000Y-66548000D03*
D13*
X149098000Y-104902000D03*
X146558000Y-104902000D03*
X144018000Y-104902000D03*
X141478000Y-104902000D03*
X138938000Y-104902000D03*
X136398000Y-104902000D03*
X133858000Y-104902000D03*
X131318000Y-104902000D03*
X131318000Y-97282000D03*
X133858000Y-97282000D03*
X136398000Y-97282000D03*
X138938000Y-97282000D03*
X141478000Y-97282000D03*
X144018000Y-97282000D03*
X146558000Y-97282000D03*
D14*
X149098000Y-97282000D03*
D15*
X170942000Y-110744000D03*
X178562000Y-92964000D03*
X170942000Y-108204000D03*
X178562000Y-95504000D03*
X170942000Y-105664000D03*
X178562000Y-98044000D03*
X170942000Y-103124000D03*
X178562000Y-100584000D03*
X170942000Y-100584000D03*
X178562000Y-103124000D03*
X170942000Y-98044000D03*
X178562000Y-105664000D03*
X170942000Y-95504000D03*
X178562000Y-108204000D03*
X170942000Y-92964000D03*
D16*
X178562000Y-110744000D03*
D11*
X210312000Y-82296000D03*
X210312000Y-84836000D03*
X210312000Y-87376000D03*
X179070000Y-87122000D03*
X179070000Y-84582000D03*
X179070000Y-82042000D03*
X155956000Y-109982000D03*
X155956000Y-107442000D03*
X155956000Y-104902000D03*
D15*
X212598000Y-74930000D03*
D17*
X202438000Y-74930000D03*
D15*
X197612000Y-74930000D03*
D17*
X187452000Y-74930000D03*
D15*
X201930000Y-97536000D03*
D17*
X201930000Y-107696000D03*
D15*
X197612000Y-96012000D03*
D17*
X187452000Y-96012000D03*
D15*
X206502000Y-129540000D03*
D17*
X206502000Y-119380000D03*
D15*
X206502000Y-107696000D03*
D17*
X206502000Y-97536000D03*
D15*
X182626000Y-113284000D03*
D17*
X182626000Y-123444000D03*
D15*
X186436000Y-113284000D03*
D17*
X186436000Y-123444000D03*
D15*
X162814000Y-95758000D03*
D17*
X162814000Y-105918000D03*
D15*
X168910000Y-65786000D03*
D17*
X168910000Y-75946000D03*
D15*
X177800000Y-66040000D03*
D17*
X177800000Y-76200000D03*
D15*
X140970000Y-62230000D03*
D17*
X151130000Y-62230000D03*
D15*
X178562000Y-61976000D03*
D17*
X168402000Y-61976000D03*
D15*
X148082000Y-113284000D03*
D17*
X158242000Y-113284000D03*
D18*
X158750000Y-123444000D03*
X158750000Y-125984000D03*
D12*
X158750000Y-128524000D03*
D19*
X199056000Y-124206000D03*
D20*
X194056000Y-124206000D03*
D18*
X134112000Y-82804000D03*
X134112000Y-80264000D03*
D12*
X134112000Y-77724000D03*
D18*
X129540000Y-82804000D03*
X129540000Y-80264000D03*
D12*
X129540000Y-77724000D03*
D18*
X162814000Y-115570000D03*
X162814000Y-113030000D03*
D12*
X162814000Y-110490000D03*
D18*
X192278000Y-103378000D03*
X192278000Y-105918000D03*
D12*
X192278000Y-108458000D03*
D19*
X128350000Y-66294000D03*
D20*
X133350000Y-66294000D03*
D12*
X157226000Y-61976000D03*
D18*
X152400000Y-82550000D03*
X149860000Y-82550000D03*
D12*
X147320000Y-82550000D03*
D18*
X139446000Y-83058000D03*
D12*
X141986000Y-83058000D03*
D21*
X202946000Y-81146000D03*
X202946000Y-88646000D03*
D17*
X213868000Y-118792000D03*
D16*
X213868000Y-113792000D03*
D17*
X213868000Y-107362000D03*
D16*
X213868000Y-102362000D03*
D17*
X165020000Y-88900000D03*
D16*
X160020000Y-88900000D03*
D17*
X194310000Y-70532000D03*
D16*
X194310000Y-65532000D03*
D17*
X132080000Y-118030000D03*
D16*
X132080000Y-113030000D03*
D21*
X140328000Y-88138000D03*
X147828000Y-88138000D03*
X194818000Y-92964000D03*
X184404000Y-89662000D03*
X152908000Y-97282000D03*
X148590000Y-118872000D03*
X192532000Y-92710000D03*
X215392000Y-94488000D03*
X159766000Y-105918000D03*
X148590000Y-125222000D03*
X168402000Y-108204000D03*
X197104000Y-84582000D03*
D22*
X136398000Y-96096607D02*
X136398000Y-97282000D01*
X136398000Y-93403190D02*
X136398000Y-96096607D01*
X139328001Y-90473189D02*
X136398000Y-93403190D01*
X139328001Y-89137999D02*
X139328001Y-90473189D01*
X140328000Y-88138000D02*
X139328001Y-89137999D01*
X139446000Y-87256000D02*
X140328000Y-88138000D01*
X139446000Y-83058000D02*
X139446000Y-87256000D01*
X142748000Y-83058000D02*
X147828000Y-88138000D01*
X141986000Y-83058000D02*
X142748000Y-83058000D01*
X147828000Y-88138000D02*
X144272000Y-88138000D01*
X138938000Y-93472000D02*
X138938000Y-97282000D01*
X144272000Y-88138000D02*
X138938000Y-93472000D01*
D23*
X144526000Y-78994000D02*
X147506081Y-78994000D01*
X143510000Y-66548000D02*
X142671801Y-67386199D01*
X142671801Y-67386199D02*
X142671801Y-70180199D01*
X142671801Y-70180199D02*
X140208000Y-72644000D01*
X140208000Y-72644000D02*
X139954000Y-73660000D01*
X139954000Y-73660000D02*
X140208000Y-74676000D01*
X140208000Y-74676000D02*
X141732000Y-76454000D01*
X141732000Y-76454000D02*
X144526000Y-78994000D01*
X132080000Y-118030000D02*
X133211370Y-118030000D01*
X177038000Y-98044000D02*
X177430630Y-98044000D01*
X176636999Y-97642999D02*
X177038000Y-98044000D01*
X176636999Y-94579999D02*
X176636999Y-97642999D01*
X178252998Y-92964000D02*
X176636999Y-94579999D01*
X178562000Y-92964000D02*
X178252998Y-92964000D01*
X177292000Y-103124000D02*
X177430630Y-103124000D01*
X176636999Y-102468999D02*
X177292000Y-103124000D01*
X176636999Y-99659999D02*
X176636999Y-102468999D01*
X177637999Y-98658999D02*
X176636999Y-99659999D01*
X178201001Y-98658999D02*
X177637999Y-98658999D01*
X178562000Y-98298000D02*
X178201001Y-98658999D01*
X178562000Y-98044000D02*
X178562000Y-98298000D01*
X176636999Y-107410369D02*
X177430630Y-108204000D01*
X177430630Y-103124000D02*
X176636999Y-103917631D01*
X176636999Y-103917631D02*
X176636999Y-107410369D01*
X176636999Y-112263461D02*
X185785538Y-121412000D01*
X176636999Y-107410369D02*
X176636999Y-112263461D01*
X179400199Y-125552199D02*
X178562000Y-124714000D01*
X187176803Y-125552199D02*
X179400199Y-125552199D01*
X188361001Y-124368001D02*
X187176803Y-125552199D01*
X188361001Y-122519999D02*
X188361001Y-124368001D01*
X186690000Y-89662000D02*
X185504607Y-89662000D01*
X185504607Y-89662000D02*
X184404000Y-89662000D01*
X184404000Y-89662000D02*
X184404000Y-89662000D01*
X146558000Y-109982000D02*
X146558000Y-109982000D01*
X142671801Y-70180199D02*
X143165310Y-69686690D01*
X215307334Y-118792000D02*
X214999370Y-118792000D01*
D22*
X143510000Y-66548000D02*
X143510000Y-68834000D01*
X138938000Y-73406000D02*
X138938000Y-73660000D01*
D23*
X138938000Y-73660000D02*
X139954000Y-73660000D01*
D22*
X132842000Y-73660000D02*
X129032000Y-69850000D01*
X138938000Y-73660000D02*
X132842000Y-73660000D01*
X128350000Y-69274000D02*
X128350000Y-66294000D01*
X128926000Y-69850000D02*
X128350000Y-69274000D01*
X129032000Y-69850000D02*
X128926000Y-69850000D01*
X141664081Y-76454000D02*
X141732000Y-76454000D01*
X135314081Y-82804000D02*
X141664081Y-76454000D01*
X134112000Y-82804000D02*
X135314081Y-82804000D01*
X139192000Y-73660000D02*
X144526000Y-78994000D01*
X138938000Y-73660000D02*
X139192000Y-73660000D01*
D23*
X149098000Y-80518000D02*
X149860000Y-81347919D01*
X147506081Y-78994000D02*
X149098000Y-80518000D01*
D22*
X147574000Y-78994000D02*
X149098000Y-80518000D01*
X144526000Y-78994000D02*
X147574000Y-78994000D01*
X147828000Y-79315919D02*
X147828000Y-79248000D01*
X147574000Y-78994000D02*
X147828000Y-79248000D01*
X149860000Y-82550000D02*
X149860000Y-81347919D01*
X142875000Y-69469000D02*
X138938000Y-73406000D01*
X143510000Y-68834000D02*
X142875000Y-69469000D01*
X193858001Y-59379999D02*
X215998001Y-59379999D01*
X215998001Y-59379999D02*
X217678000Y-61059998D01*
X206502000Y-129540000D02*
X206502000Y-126158000D01*
X213068001Y-119591999D02*
X213868000Y-118792000D01*
X206502000Y-126158000D02*
X213068001Y-119591999D01*
X179342001Y-125494001D02*
X187420001Y-125494001D01*
X178562000Y-124714000D02*
X179342001Y-125494001D01*
X187420001Y-125494001D02*
X188486001Y-124428001D01*
X188486001Y-124428001D02*
X188486001Y-122459999D01*
X185785538Y-121364128D02*
X176660935Y-112239525D01*
X185785538Y-121412000D02*
X185785538Y-121364128D01*
X176511999Y-108943999D02*
X176511999Y-112090589D01*
X178562000Y-108204000D02*
X177251998Y-108204000D01*
X177251998Y-108204000D02*
X176511999Y-108943999D01*
X177430630Y-103124000D02*
X178562000Y-103124000D01*
X176511999Y-104042631D02*
X177430630Y-103124000D01*
X176511999Y-107285369D02*
X176511999Y-104042631D01*
X177430630Y-108204000D02*
X176511999Y-107285369D01*
X178562000Y-108204000D02*
X177430630Y-108204000D01*
X177430630Y-98044000D02*
X178562000Y-98044000D01*
X176511999Y-98962631D02*
X177430630Y-98044000D01*
X176511999Y-101568001D02*
X176511999Y-98962631D01*
X177577999Y-102634001D02*
X176511999Y-101568001D01*
X178326001Y-102634001D02*
X177577999Y-102634001D01*
X178562000Y-102870000D02*
X178326001Y-102634001D01*
X178562000Y-103124000D02*
X178562000Y-102870000D01*
X176511999Y-97125369D02*
X176511999Y-94564611D01*
X177430630Y-98044000D02*
X176511999Y-97125369D01*
X178413000Y-92663610D02*
X176511999Y-94564611D01*
X178562000Y-92964000D02*
X178562000Y-92812610D01*
X178562000Y-92812610D02*
X178413000Y-92663610D01*
X138938000Y-111172000D02*
X132080000Y-118030000D01*
X138938000Y-104902000D02*
X138938000Y-111172000D01*
X146558000Y-111760000D02*
X148082000Y-113284000D01*
X146558000Y-109982000D02*
X146558000Y-111760000D01*
X133244001Y-119194001D02*
X132879999Y-118829999D01*
X146743999Y-119194001D02*
X133244001Y-119194001D01*
X148881999Y-117056001D02*
X146743999Y-119194001D01*
X148881999Y-114083999D02*
X148881999Y-117056001D01*
X132879999Y-118829999D02*
X132080000Y-118030000D01*
X148082000Y-113284000D02*
X148881999Y-114083999D01*
X150368000Y-115570000D02*
X162814000Y-115570000D01*
X148082000Y-113284000D02*
X150368000Y-115570000D01*
X162814000Y-113030000D02*
X162814000Y-115570000D01*
X215218000Y-118792000D02*
X214999370Y-118792000D01*
X218148021Y-115861979D02*
X215218000Y-118792000D01*
X218148021Y-61530019D02*
X218148021Y-115861979D01*
X214999370Y-118792000D02*
X213868000Y-118792000D01*
X217678000Y-61059998D02*
X218148021Y-61530019D01*
X187494003Y-59379999D02*
X193858001Y-59379999D01*
X177405002Y-69469000D02*
X187494003Y-59379999D01*
X142875000Y-69469000D02*
X177405002Y-69469000D01*
X149098000Y-97282000D02*
X152908000Y-97282000D01*
X178562000Y-108204000D02*
X182880000Y-108204000D01*
X182880000Y-108204000D02*
X182880000Y-108204000D01*
X148556041Y-80043959D02*
X148810041Y-80043959D01*
X148556041Y-80043959D02*
X147828000Y-79315919D01*
X149860000Y-81347919D02*
X148556041Y-80043959D01*
X148810041Y-80043959D02*
X150114000Y-78740000D01*
X150114000Y-78740000D02*
X150114000Y-78740000D01*
X185803539Y-121393999D02*
X185785538Y-121412000D01*
X187420001Y-121393999D02*
X185803539Y-121393999D01*
X188486001Y-122459999D02*
X187420001Y-121393999D01*
D23*
X148590000Y-67733393D02*
X148590000Y-66548000D01*
X148590000Y-70442607D02*
X148590000Y-67733393D01*
X151130000Y-72982607D02*
X148590000Y-70442607D01*
X151130000Y-74168000D02*
X151130000Y-72982607D01*
X146050000Y-69453538D02*
X143510000Y-66913538D01*
X143510000Y-66913538D02*
X143510000Y-66548000D01*
X146050000Y-74168000D02*
X146050000Y-69453538D01*
X147039069Y-70442607D02*
X146050000Y-69453538D01*
X148590000Y-70442607D02*
X147039069Y-70442607D01*
D22*
X133858000Y-111252000D02*
X133858000Y-104902000D01*
X132080000Y-113030000D02*
X133858000Y-111252000D01*
D23*
X194030400Y-89662000D02*
X194310000Y-89662000D01*
D22*
X193124607Y-89662000D02*
X194310000Y-89662000D01*
X192221799Y-88759192D02*
X193124607Y-89662000D01*
X192221799Y-72620201D02*
X192221799Y-88759192D01*
X194310000Y-70532000D02*
X192221799Y-72620201D01*
X201930000Y-96404630D02*
X201930000Y-97536000D01*
X196025569Y-90500199D02*
X201930000Y-96404630D01*
X195148199Y-90500199D02*
X196025569Y-90500199D01*
X194310000Y-89662000D02*
X195148199Y-90500199D01*
D23*
X194310000Y-65532000D02*
X192384700Y-65532000D01*
X153670000Y-73888400D02*
X153670000Y-74168000D01*
D22*
X194310000Y-65532000D02*
X192510000Y-65532000D01*
X153670000Y-74168000D02*
X153670000Y-73617462D01*
X155913462Y-71374000D02*
X181282483Y-71374000D01*
X153670000Y-73617462D02*
X155913462Y-71374000D01*
X187124483Y-65532000D02*
X194310000Y-65532000D01*
X181282483Y-71374000D02*
X187124483Y-65532000D01*
D23*
X182226700Y-88976600D02*
X184081300Y-87122000D01*
X184081300Y-87122000D02*
X186690000Y-87122000D01*
X187452000Y-96012000D02*
X182226700Y-90786700D01*
X182226700Y-90786700D02*
X182226700Y-88976600D01*
X165020000Y-88900000D02*
X165096600Y-88976600D01*
X165096600Y-88976600D02*
X182226700Y-88976600D01*
D22*
X186652001Y-95212001D02*
X187452000Y-96012000D01*
X181864000Y-90424000D02*
X186652001Y-95212001D01*
X181864000Y-89167998D02*
X181864000Y-90424000D01*
X183909998Y-87122000D02*
X181864000Y-89167998D01*
X186690000Y-87122000D02*
X183909998Y-87122000D01*
X176567123Y-88927990D02*
X177622600Y-88927990D01*
X165020000Y-88900000D02*
X176539133Y-88900000D01*
X176539133Y-88900000D02*
X176567123Y-88927990D01*
X160020000Y-90700000D02*
X160020000Y-88900000D01*
X155655999Y-95064001D02*
X160020000Y-90700000D01*
X147389597Y-95064001D02*
X155655999Y-95064001D01*
X146558000Y-95895598D02*
X147389597Y-95064001D01*
X146558000Y-97282000D02*
X146558000Y-95895598D01*
D23*
X204573200Y-107696000D02*
X201930000Y-107696000D01*
X206502000Y-107696000D02*
X204573200Y-107696000D01*
X204573200Y-107696000D02*
X204573200Y-96671700D01*
X204375900Y-72992100D02*
X202438000Y-74930000D01*
X213868000Y-107362000D02*
X213868000Y-107696000D01*
X207464700Y-107696000D02*
X206502000Y-107696000D01*
X207464700Y-107696000D02*
X208427300Y-107696000D01*
X213868000Y-107696000D02*
X213868000Y-113792000D01*
X213868000Y-107696000D02*
X208427300Y-107696000D01*
X202574000Y-119380000D02*
X206502000Y-119380000D01*
X199056000Y-124540000D02*
X199056000Y-121158000D01*
D22*
X213868000Y-113792000D02*
X213868000Y-107362000D01*
X202264000Y-107362000D02*
X201930000Y-107696000D01*
X213868000Y-107362000D02*
X202264000Y-107362000D01*
X205702001Y-118580001D02*
X206502000Y-119380000D01*
X205702001Y-108495999D02*
X205702001Y-118580001D01*
X206502000Y-107696000D02*
X205702001Y-108495999D01*
X199056000Y-121226000D02*
X199056000Y-124206000D01*
X200902000Y-119380000D02*
X199056000Y-121226000D01*
X206502000Y-119380000D02*
X200902000Y-119380000D01*
X197612000Y-74930000D02*
X202438000Y-74930000D01*
X202438000Y-74930000D02*
X204250900Y-73117100D01*
X204573200Y-98909200D02*
X204451999Y-98787999D01*
X204573200Y-107696000D02*
X204573200Y-98909200D01*
X204451999Y-98787999D02*
X204451999Y-96551999D01*
X197612000Y-103378000D02*
X201930000Y-107696000D01*
X197612000Y-96012000D02*
X197612000Y-103378000D01*
X158778211Y-128552211D02*
X158750000Y-128524000D01*
X199056000Y-124206000D02*
X199056000Y-127186000D01*
X205517999Y-95485999D02*
X204451999Y-96551999D01*
X205695120Y-95485999D02*
X205517999Y-95485999D01*
X214648001Y-73945999D02*
X214648001Y-86533118D01*
X211613999Y-72879999D02*
X213582001Y-72879999D01*
X213582001Y-72879999D02*
X214648001Y-73945999D01*
X211376898Y-73117100D02*
X211613999Y-72879999D01*
X214648001Y-86533118D02*
X205695120Y-95485999D01*
X204250900Y-73117100D02*
X211376898Y-73117100D01*
D23*
X166979010Y-128524000D02*
X158750000Y-128524000D01*
X168148000Y-129692990D02*
X166979010Y-128524000D01*
X197634898Y-129692990D02*
X168148000Y-129692990D01*
X199056000Y-127186000D02*
X199056000Y-128271888D01*
X199056000Y-128271888D02*
X197634898Y-129692990D01*
X148260300Y-90716100D02*
X145729600Y-90716100D01*
X145729600Y-90716100D02*
X141478000Y-94967700D01*
X141478000Y-94967700D02*
X141478000Y-97282000D01*
X196277100Y-71456900D02*
X194310000Y-73424000D01*
X194310000Y-73424000D02*
X194310000Y-82042000D01*
X196277100Y-69762700D02*
X196277100Y-71456900D01*
X213868000Y-102362000D02*
X213868000Y-100436700D01*
X159277400Y-119106600D02*
X155956000Y-122428000D01*
X170942000Y-117094000D02*
X168929400Y-119106600D01*
X168929400Y-119106600D02*
X159277400Y-119106600D01*
D22*
X213868000Y-104162000D02*
X215979300Y-106273300D01*
X213868000Y-102362000D02*
X213868000Y-104162000D01*
X212883999Y-116741999D02*
X212056999Y-117568999D01*
X214793115Y-116741999D02*
X212883999Y-116741999D01*
X215979300Y-106273300D02*
X215979300Y-115555814D01*
X215979300Y-115555814D02*
X214793115Y-116741999D01*
X212056999Y-117568999D02*
X212056999Y-117635001D01*
X159152890Y-119231110D02*
X159277400Y-119231110D01*
X155956000Y-122428000D02*
X159152890Y-119231110D01*
X168804890Y-119231110D02*
X170942000Y-117094000D01*
X159152890Y-119231110D02*
X168804890Y-119231110D01*
X141478000Y-94347998D02*
X145147998Y-90678000D01*
X141478000Y-97282000D02*
X141478000Y-94347998D01*
X145147998Y-90678000D02*
X149860000Y-90678000D01*
X177000001Y-76999999D02*
X177800000Y-76200000D01*
X169349999Y-84650001D02*
X177000001Y-76999999D01*
X147759999Y-83558001D02*
X148851999Y-84650001D01*
X147759999Y-82735999D02*
X147759999Y-83558001D01*
X147574000Y-82550000D02*
X147759999Y-82735999D01*
X147320000Y-82550000D02*
X147574000Y-82550000D01*
X196360001Y-69547999D02*
X196360001Y-71516001D01*
X182319660Y-72811710D02*
X188996288Y-72811710D01*
X194310000Y-73566002D02*
X194310000Y-80856607D01*
X178931370Y-76200000D02*
X182319660Y-72811710D01*
X194310000Y-80856607D02*
X194310000Y-82042000D01*
X196360001Y-71516001D02*
X194310000Y-73566002D01*
X177800000Y-76200000D02*
X178931370Y-76200000D01*
X194310000Y-82042000D02*
X194310000Y-73566002D01*
X194310000Y-73566002D02*
X196508912Y-71367090D01*
X213868000Y-100562000D02*
X213868000Y-102362000D01*
X210842000Y-97536000D02*
X213868000Y-100562000D01*
X206502000Y-97536000D02*
X210842000Y-97536000D01*
X198307998Y-131318000D02*
X212056999Y-117568999D01*
X155956000Y-122428000D02*
X155956000Y-129540000D01*
X157734000Y-131318000D02*
X198307998Y-131318000D01*
X155956000Y-129540000D02*
X157734000Y-131318000D01*
X207301999Y-96736001D02*
X206502000Y-97536000D01*
X216398011Y-73221122D02*
X216398011Y-87639989D01*
X214306878Y-71129989D02*
X216398011Y-73221122D01*
X203763124Y-71129989D02*
X214306878Y-71129989D01*
X216398011Y-87639989D02*
X207301999Y-96736001D01*
X203436213Y-71456900D02*
X203763124Y-71129989D01*
X196277100Y-71456900D02*
X203436213Y-71456900D01*
X150078001Y-84936003D02*
X149791999Y-84650001D01*
X150078001Y-89218001D02*
X150078001Y-84936003D01*
X149860000Y-90678000D02*
X149860000Y-89436002D01*
X149860000Y-89436002D02*
X150078001Y-89218001D01*
X149791999Y-84650001D02*
X169349999Y-84650001D01*
X148851999Y-84650001D02*
X149791999Y-84650001D01*
X195294001Y-68481999D02*
X196360001Y-69547999D01*
X193325999Y-68481999D02*
X195294001Y-68481999D01*
X188996288Y-72811710D02*
X193325999Y-68481999D01*
D23*
X194310000Y-84582000D02*
X197104000Y-84582000D01*
X170942000Y-108204000D02*
X168402000Y-108204000D01*
D22*
X199510000Y-84582000D02*
X202946000Y-81146000D01*
X194310000Y-84582000D02*
X199510000Y-84582000D01*
X209162000Y-81146000D02*
X210312000Y-82296000D01*
X202946000Y-81146000D02*
X209162000Y-81146000D01*
X210312000Y-82296000D02*
X210312000Y-84836000D01*
D23*
X194886400Y-87698400D02*
X194310000Y-87122000D01*
X210312000Y-87376000D02*
X209989600Y-87698400D01*
X202946000Y-88646000D02*
X202946000Y-87698400D01*
D22*
X201422000Y-87122000D02*
X202946000Y-88646000D01*
X194310000Y-87122000D02*
X201422000Y-87122000D01*
X204216000Y-87376000D02*
X202946000Y-88646000D01*
X210312000Y-87376000D02*
X204216000Y-87376000D01*
X211330233Y-87376000D02*
X210312000Y-87376000D01*
X212598000Y-86108233D02*
X211330233Y-87376000D01*
X212598000Y-74930000D02*
X212598000Y-86108233D01*
X141478000Y-113792000D02*
X140462000Y-114808000D01*
X141478000Y-104902000D02*
X141478000Y-113792000D01*
X156210000Y-62992000D02*
X156210000Y-66548000D01*
X157226000Y-61976000D02*
X156210000Y-62992000D01*
X137174201Y-64459799D02*
X150227192Y-64459799D01*
X135340000Y-66294000D02*
X137174201Y-64459799D01*
X151130000Y-65362607D02*
X151130000Y-66548000D01*
X150227192Y-64459799D02*
X151130000Y-65362607D01*
X133350000Y-66294000D02*
X135340000Y-66294000D01*
X191075919Y-103378000D02*
X192278000Y-103378000D01*
X182487370Y-103378000D02*
X191075919Y-103378000D01*
X179693370Y-100584000D02*
X182487370Y-103378000D01*
X178562000Y-100584000D02*
X179693370Y-100584000D01*
X179693370Y-95504000D02*
X184519370Y-100330000D01*
X193480081Y-105918000D02*
X192278000Y-105918000D01*
X194378001Y-105020080D02*
X193480081Y-105918000D01*
X194378001Y-102369999D02*
X194378001Y-105020080D01*
X192338002Y-100330000D02*
X194378001Y-102369999D01*
X184519370Y-100330000D02*
X192338002Y-100330000D01*
X192024000Y-105664000D02*
X192278000Y-105918000D01*
X178562000Y-105664000D02*
X192024000Y-105664000D01*
X179693370Y-95504000D02*
X178562000Y-95504000D01*
X180362000Y-110744000D02*
X178562000Y-110744000D01*
X190428000Y-108458000D02*
X188142000Y-110744000D01*
X188142000Y-110744000D02*
X180362000Y-110744000D01*
X192278000Y-108458000D02*
X190428000Y-108458000D01*
X162814000Y-105918000D02*
X162814000Y-110490000D01*
X134112000Y-77724000D02*
X134112000Y-80264000D01*
X130742081Y-82804000D02*
X129540000Y-82804000D01*
X131003998Y-82804000D02*
X130742081Y-82804000D01*
X133543998Y-80264000D02*
X131003998Y-82804000D01*
X134112000Y-80264000D02*
X133543998Y-80264000D01*
X129540000Y-77724000D02*
X129540000Y-80264000D01*
X128312001Y-89196001D02*
X129032000Y-89916000D01*
X127439999Y-88323999D02*
X128312001Y-89196001D01*
X127439999Y-81161920D02*
X127439999Y-88323999D01*
X128337919Y-80264000D02*
X127439999Y-81161920D01*
X129540000Y-80264000D02*
X128337919Y-80264000D01*
D23*
X194056000Y-120904000D02*
X194056000Y-121158000D01*
D22*
X194056000Y-120904000D02*
X186436000Y-113284000D01*
X194056000Y-124206000D02*
X194056000Y-120904000D01*
X186436000Y-113284000D02*
X182626000Y-113284000D01*
X173482000Y-118279393D02*
X173482000Y-117094000D01*
X168317393Y-123444000D02*
X173482000Y-118279393D01*
X158750000Y-123444000D02*
X168317393Y-123444000D01*
X173482000Y-117094000D02*
X176022000Y-117094000D01*
X175119192Y-126802201D02*
X160770282Y-126802201D01*
X159952081Y-125984000D02*
X158750000Y-125984000D01*
X160770282Y-126802201D02*
X159952081Y-125984000D01*
X176022000Y-125899393D02*
X175119192Y-126802201D01*
X176022000Y-124714000D02*
X176022000Y-125899393D01*
X158242000Y-112152630D02*
X158242000Y-113284000D01*
X158242000Y-108709767D02*
X158242000Y-112152630D01*
X156974233Y-107442000D02*
X158242000Y-108709767D01*
X155956000Y-107442000D02*
X156974233Y-107442000D01*
X163830000Y-66548000D02*
X168402000Y-61976000D01*
X158750000Y-66548000D02*
X163830000Y-66548000D01*
X153670000Y-64770000D02*
X153670000Y-66548000D01*
X151130000Y-62230000D02*
X153670000Y-64770000D01*
D23*
X168910000Y-75946000D02*
X168724400Y-76131600D01*
X156210000Y-74422800D02*
X156210000Y-74168000D01*
D22*
X168110001Y-76745999D02*
X168910000Y-75946000D01*
X157602606Y-76745999D02*
X168110001Y-76745999D01*
X156210000Y-75353393D02*
X157602606Y-76745999D01*
X156210000Y-74168000D02*
X156210000Y-75353393D01*
X163068000Y-95504000D02*
X162814000Y-95758000D01*
X170942000Y-95504000D02*
X163068000Y-95504000D01*
X170942000Y-124714000D02*
X173482000Y-124714000D01*
X181807799Y-122625799D02*
X181826001Y-122644001D01*
X181826001Y-122644001D02*
X182626000Y-123444000D01*
X174384808Y-122625799D02*
X181807799Y-122625799D01*
X173482000Y-123528607D02*
X174384808Y-122625799D01*
X173482000Y-124714000D02*
X173482000Y-123528607D01*
X182626000Y-123444000D02*
X186436000Y-123444000D01*
D23*
X181103500Y-87122000D02*
X179070000Y-87122000D01*
D22*
X186690000Y-84582000D02*
X183642000Y-84582000D01*
D23*
X181356000Y-86868000D02*
X181103500Y-87122000D01*
D22*
X181102000Y-87122000D02*
X179070000Y-87122000D01*
X181991000Y-86233000D02*
X181102000Y-87122000D01*
X181991000Y-86233000D02*
X181356000Y-86868000D01*
X183642000Y-84582000D02*
X181991000Y-86233000D01*
X186320630Y-74930000D02*
X187452000Y-74930000D01*
X183266398Y-74930000D02*
X186320630Y-74930000D01*
X177099999Y-81096399D02*
X183266398Y-74930000D01*
X177099999Y-86170232D02*
X177099999Y-81096399D01*
X178051767Y-87122000D02*
X177099999Y-86170232D01*
X179070000Y-87122000D02*
X178051767Y-87122000D01*
X150452607Y-109982000D02*
X154937767Y-109982000D01*
X154937767Y-109982000D02*
X155956000Y-109982000D01*
X146558000Y-106087393D02*
X150452607Y-109982000D01*
X146558000Y-104902000D02*
X146558000Y-106087393D01*
X149098000Y-104902000D02*
X155956000Y-104902000D01*
D23*
X186690000Y-82042000D02*
X186976000Y-82042000D01*
X186976000Y-82042000D02*
X189424200Y-84490200D01*
X189424200Y-84490200D02*
X189424200Y-96846800D01*
X189424200Y-96846800D02*
X188301400Y-97969600D01*
X188301400Y-97969600D02*
X186309100Y-97969600D01*
X179378100Y-91038600D02*
X177739900Y-91038600D01*
X177739900Y-91038600D02*
X172867300Y-95911200D01*
X172867300Y-95911200D02*
X172867300Y-96304100D01*
X172867300Y-96304100D02*
X171127400Y-98044000D01*
X171127400Y-98044000D02*
X170942000Y-98044000D01*
D22*
X185982600Y-97844600D02*
X186309100Y-97844600D01*
X174761989Y-93208011D02*
X177292000Y-90678000D01*
X170942000Y-98044000D02*
X170942000Y-97790000D01*
X174761989Y-94718013D02*
X174761989Y-93208011D01*
X171177999Y-97554001D02*
X171926001Y-97554001D01*
X177292000Y-90678000D02*
X179310002Y-90678000D01*
X170942000Y-97790000D02*
X171177999Y-97554001D01*
X171926001Y-97554001D02*
X174761989Y-94718013D01*
X179070000Y-84582000D02*
X179070000Y-82042000D01*
X179070000Y-82042000D02*
X186690000Y-82042000D01*
X187692337Y-82493799D02*
X189502001Y-84303463D01*
X189502001Y-96996001D02*
X188653402Y-97844600D01*
X186690000Y-82042000D02*
X187141799Y-82493799D01*
X189502001Y-84303463D02*
X189502001Y-96996001D01*
X187141799Y-82493799D02*
X187692337Y-82493799D01*
X185692001Y-98062001D02*
X180612001Y-92982001D01*
X188436001Y-98062001D02*
X185692001Y-98062001D01*
X180612001Y-91979999D02*
X179310002Y-90678000D01*
X180612001Y-92982001D02*
X180612001Y-91979999D01*
X189502001Y-96996001D02*
X188436001Y-98062001D01*
D23*
X178562000Y-116438700D02*
X178562000Y-117094000D01*
X172867300Y-110744000D02*
X178562000Y-116438700D01*
X171529600Y-110744000D02*
X170942000Y-110744000D01*
X171529600Y-110744000D02*
X172867300Y-110744000D01*
X172073370Y-100584000D02*
X170942000Y-100584000D01*
X172867300Y-110744000D02*
X172867300Y-101377930D01*
X172867300Y-101377930D02*
X172073370Y-100584000D01*
D22*
X178562000Y-116615476D02*
X172690524Y-110744000D01*
X172690524Y-110744000D02*
X172073370Y-110744000D01*
X178562000Y-117094000D02*
X178562000Y-116615476D01*
X172992001Y-109825369D02*
X172073370Y-110744000D01*
X172992001Y-102139999D02*
X172992001Y-109825369D01*
X171926001Y-101073999D02*
X172992001Y-102139999D01*
X171177999Y-101073999D02*
X171926001Y-101073999D01*
X170942000Y-100838000D02*
X171177999Y-101073999D01*
X172073370Y-110744000D02*
X170942000Y-110744000D01*
X170942000Y-100584000D02*
X170942000Y-100838000D01*
D23*
X130139100Y-106080900D02*
X131318000Y-104902000D01*
X166111900Y-117606100D02*
X157546900Y-117606100D01*
X170942000Y-105664000D02*
X168092998Y-105664000D01*
X168041001Y-115676999D02*
X166111900Y-117606100D01*
X130139100Y-118837300D02*
X130139100Y-106080900D01*
D22*
X170942000Y-105664000D02*
X167125464Y-105664000D01*
X168166001Y-112077445D02*
X168166001Y-115805999D01*
X168166001Y-115805999D02*
X166490900Y-117481100D01*
X166351999Y-110263443D02*
X168166001Y-112077445D01*
X166351999Y-106437465D02*
X166351999Y-110263443D01*
X167125464Y-105664000D02*
X166351999Y-106437465D01*
X130479801Y-105740199D02*
X131318000Y-104902000D01*
X130029999Y-106190001D02*
X130479801Y-105740199D01*
X130029999Y-119014001D02*
X130029999Y-106190001D01*
X132783008Y-121767010D02*
X130029999Y-119014001D01*
X153385990Y-121767010D02*
X132783008Y-121767010D01*
X157546900Y-117606100D02*
X153385990Y-121767010D01*
X165340002Y-82550000D02*
X153602081Y-82550000D01*
X170960001Y-76930001D02*
X165340002Y-82550000D01*
X170960001Y-74961999D02*
X170960001Y-76930001D01*
X169894001Y-73895999D02*
X170960001Y-74961999D01*
X159022001Y-73895999D02*
X169894001Y-73895999D01*
X153602081Y-82550000D02*
X152400000Y-82550000D01*
X158750000Y-74168000D02*
X159022001Y-73895999D01*
X144018000Y-116332000D02*
X144780000Y-117094000D01*
X144018000Y-104902000D02*
X144018000Y-116332000D01*
X144018000Y-95758000D02*
X146812000Y-92964000D01*
X144018000Y-97282000D02*
X144018000Y-95758000D01*
X177546000Y-65786000D02*
X177800000Y-66040000D01*
X168910000Y-65786000D02*
X177546000Y-65786000D01*
X170447998Y-103124000D02*
X170942000Y-103124000D01*
X169939998Y-102616000D02*
X170447998Y-103124000D01*
X136398000Y-104902000D02*
X136398000Y-103716607D01*
X136398000Y-103716607D02*
X136398000Y-102616000D01*
X136398000Y-102616000D02*
X169939998Y-102616000D01*
X178562000Y-65278000D02*
X177800000Y-66040000D01*
X178562000Y-61976000D02*
X178562000Y-65278000D01*
X141769999Y-61430001D02*
X140970000Y-62230000D01*
X143324001Y-59875999D02*
X141769999Y-61430001D01*
X169336001Y-59875999D02*
X143324001Y-59875999D01*
X170452001Y-64243999D02*
X170452001Y-60991999D01*
X170452001Y-60991999D02*
X169336001Y-59875999D01*
X168910000Y-65786000D02*
X170452001Y-64243999D01*
X125689989Y-95717989D02*
X132588000Y-102616000D01*
X125689989Y-64796159D02*
X125689989Y-95717989D01*
X128256148Y-62230000D02*
X125689989Y-64796159D01*
X132588000Y-102616000D02*
X136398000Y-102616000D01*
X140970000Y-62230000D02*
X128256148Y-62230000D01*
X131318000Y-98467393D02*
X131318000Y-97282000D01*
X132220808Y-99370201D02*
X131318000Y-98467393D01*
X156393801Y-99370201D02*
X132220808Y-99370201D01*
X157498001Y-98266001D02*
X156393801Y-99370201D01*
X157498001Y-96297999D02*
X157498001Y-98266001D01*
X160832000Y-92964000D02*
X157498001Y-96297999D01*
X170942000Y-92964000D02*
X160832000Y-92964000D01*
X133858000Y-92456000D02*
X133858000Y-97282000D01*
X134112000Y-92202000D02*
X134112000Y-89916000D01*
X133858000Y-92456000D02*
X134112000Y-92202000D01*
X134112000Y-89916000D02*
X131572000Y-89916000D01*
D24*
G36*
X220549001Y-134443000D02*
G01*
X120319000Y-134443000D01*
X120319000Y-64796159D01*
X124306327Y-64796159D01*
X124312989Y-64863799D01*
X124312990Y-95650339D01*
X124306327Y-95717989D01*
X124332914Y-95987928D01*
X124411652Y-96247493D01*
X124496557Y-96406338D01*
X124539517Y-96486710D01*
X124711593Y-96696386D01*
X124764135Y-96739506D01*
X131211428Y-103186800D01*
X131149068Y-103186800D01*
X130817695Y-103252714D01*
X130505548Y-103382010D01*
X130224624Y-103569717D01*
X129985717Y-103808624D01*
X129798010Y-104089548D01*
X129668714Y-104401695D01*
X129618502Y-104654127D01*
X129104145Y-105168484D01*
X129051603Y-105211604D01*
X128885294Y-105414253D01*
X128879527Y-105421280D01*
X128751662Y-105660497D01*
X128672924Y-105920062D01*
X128646337Y-106190001D01*
X128653000Y-106257651D01*
X128652999Y-118946361D01*
X128646337Y-119014001D01*
X128672924Y-119283940D01*
X128702064Y-119380001D01*
X128751662Y-119543505D01*
X128879526Y-119782721D01*
X129051602Y-119992397D01*
X129104145Y-120035518D01*
X131761491Y-122692865D01*
X131804611Y-122745407D01*
X132014287Y-122917483D01*
X132253503Y-123045347D01*
X132307208Y-123061638D01*
X132513068Y-123124085D01*
X132783008Y-123150672D01*
X132850648Y-123144010D01*
X153318350Y-123144010D01*
X153385990Y-123150672D01*
X153655929Y-123124085D01*
X153915495Y-123045347D01*
X154154711Y-122917483D01*
X154364387Y-122745407D01*
X154407511Y-122692860D01*
X154579000Y-122521371D01*
X154579001Y-129472350D01*
X154572338Y-129540000D01*
X154598925Y-129809939D01*
X154677663Y-130069504D01*
X154767892Y-130238310D01*
X154805528Y-130308721D01*
X154977604Y-130518397D01*
X155030145Y-130561516D01*
X156712483Y-132243855D01*
X156755603Y-132296397D01*
X156965279Y-132468473D01*
X157204495Y-132596337D01*
X157334278Y-132635706D01*
X157464060Y-132675075D01*
X157734000Y-132701662D01*
X157801640Y-132695000D01*
X198240358Y-132695000D01*
X198307998Y-132701662D01*
X198577937Y-132675075D01*
X198837503Y-132596337D01*
X199076719Y-132468473D01*
X199286395Y-132296397D01*
X199329519Y-132243850D01*
X201684329Y-129889040D01*
X205110091Y-129889040D01*
X205204930Y-130153881D01*
X205349615Y-130395131D01*
X205538586Y-130603519D01*
X205764580Y-130771037D01*
X206018913Y-130891246D01*
X206152961Y-130931904D01*
X206375000Y-130809915D01*
X206375000Y-129667000D01*
X206629000Y-129667000D01*
X206629000Y-130809915D01*
X206851039Y-130931904D01*
X206985087Y-130891246D01*
X207239420Y-130771037D01*
X207465414Y-130603519D01*
X207654385Y-130395131D01*
X207799070Y-130153881D01*
X207893909Y-129889040D01*
X207772624Y-129667000D01*
X206629000Y-129667000D01*
X206375000Y-129667000D01*
X205231376Y-129667000D01*
X205110091Y-129889040D01*
X201684329Y-129889040D01*
X202382409Y-129190960D01*
X205110091Y-129190960D01*
X205231376Y-129413000D01*
X206375000Y-129413000D01*
X206375000Y-128270085D01*
X206629000Y-128270085D01*
X206629000Y-129413000D01*
X207772624Y-129413000D01*
X207893909Y-129190960D01*
X207799070Y-128926119D01*
X207654385Y-128684869D01*
X207465414Y-128476481D01*
X207239420Y-128308963D01*
X206985087Y-128188754D01*
X206851039Y-128148096D01*
X206629000Y-128270085D01*
X206375000Y-128270085D01*
X206152961Y-128148096D01*
X206018913Y-128188754D01*
X205764580Y-128308963D01*
X205538586Y-128476481D01*
X205349615Y-128684869D01*
X205204930Y-128926119D01*
X205110091Y-129190960D01*
X202382409Y-129190960D01*
X211788667Y-119784702D01*
X213054903Y-119784702D01*
X213126486Y-120028671D01*
X213381996Y-120149571D01*
X213656184Y-120218300D01*
X213938512Y-120232217D01*
X214218130Y-120190787D01*
X214484292Y-120095603D01*
X214609514Y-120028671D01*
X214681097Y-119784702D01*
X213868000Y-118971605D01*
X213054903Y-119784702D01*
X211788667Y-119784702D01*
X212464313Y-119109057D01*
X212469213Y-119142130D01*
X212564397Y-119408292D01*
X212631329Y-119533514D01*
X212875298Y-119605097D01*
X213688395Y-118792000D01*
X213674253Y-118777858D01*
X213853858Y-118598253D01*
X213868000Y-118612395D01*
X213882143Y-118598253D01*
X214061748Y-118777858D01*
X214047605Y-118792000D01*
X214860702Y-119605097D01*
X215104671Y-119533514D01*
X215225571Y-119278004D01*
X215294300Y-119003816D01*
X215308217Y-118721488D01*
X215266787Y-118441870D01*
X215171603Y-118175708D01*
X215121212Y-118081432D01*
X215322620Y-118020336D01*
X215561836Y-117892472D01*
X215771512Y-117720396D01*
X215814636Y-117667849D01*
X216905155Y-116577331D01*
X216957697Y-116534211D01*
X217129773Y-116324535D01*
X217257637Y-116085319D01*
X217291624Y-115973278D01*
X217336375Y-115825754D01*
X217362962Y-115555814D01*
X217356300Y-115488174D01*
X217356300Y-106340939D01*
X217362962Y-106273299D01*
X217336375Y-106003360D01*
X217257637Y-105743795D01*
X217226210Y-105685000D01*
X217129773Y-105504579D01*
X216957696Y-105294903D01*
X216905160Y-105251788D01*
X215357561Y-103704190D01*
X215400727Y-103651592D01*
X215482162Y-103499237D01*
X215532310Y-103333922D01*
X215549243Y-103162000D01*
X215549243Y-101562000D01*
X215532310Y-101390078D01*
X215482162Y-101224763D01*
X215400727Y-101072408D01*
X215291133Y-100938867D01*
X215245000Y-100901007D01*
X215245000Y-100629636D01*
X215251662Y-100561999D01*
X215244408Y-100488349D01*
X215225075Y-100292061D01*
X215146337Y-100032495D01*
X215018473Y-99793279D01*
X214923801Y-99677921D01*
X214889514Y-99636142D01*
X214889513Y-99636141D01*
X214846396Y-99583603D01*
X214793860Y-99540488D01*
X211863521Y-96610150D01*
X211820397Y-96557603D01*
X211610721Y-96385527D01*
X211371505Y-96257663D01*
X211111939Y-96178925D01*
X210909640Y-96159000D01*
X210842000Y-96152338D01*
X210774360Y-96159000D01*
X209826371Y-96159000D01*
X217323872Y-88661501D01*
X217376408Y-88618386D01*
X217419523Y-88565850D01*
X217419526Y-88565847D01*
X217490738Y-88479074D01*
X217548484Y-88408710D01*
X217676348Y-88169494D01*
X217748826Y-87930564D01*
X217755086Y-87909929D01*
X217781673Y-87639989D01*
X217775011Y-87572349D01*
X217775011Y-73288762D01*
X217781673Y-73221122D01*
X217755086Y-72951182D01*
X217696382Y-72757662D01*
X217676348Y-72691617D01*
X217548484Y-72452401D01*
X217376407Y-72242725D01*
X217323871Y-72199610D01*
X215328399Y-70204139D01*
X215285275Y-70151592D01*
X215075599Y-69979516D01*
X214836383Y-69851652D01*
X214576817Y-69772914D01*
X214374518Y-69752989D01*
X214306878Y-69746327D01*
X214250429Y-69751887D01*
X214250429Y-63869000D01*
X198753572Y-63869000D01*
X198753572Y-70079900D01*
X197737001Y-70079900D01*
X197737001Y-69615639D01*
X197743663Y-69547999D01*
X197717076Y-69278059D01*
X197652070Y-69063762D01*
X197638338Y-69018494D01*
X197510474Y-68779278D01*
X197338397Y-68569602D01*
X197285860Y-68526487D01*
X196315522Y-67556149D01*
X196272398Y-67503602D01*
X196062722Y-67331526D01*
X195823506Y-67203662D01*
X195563940Y-67124924D01*
X195498947Y-67118523D01*
X195599592Y-67064727D01*
X195733133Y-66955133D01*
X195842727Y-66821592D01*
X195924162Y-66669237D01*
X195974310Y-66503922D01*
X195991243Y-66332000D01*
X195991243Y-64732000D01*
X195974310Y-64560078D01*
X195924162Y-64394763D01*
X195842727Y-64242408D01*
X195733133Y-64108867D01*
X195599592Y-63999273D01*
X195447237Y-63917838D01*
X195281922Y-63867690D01*
X195110000Y-63850757D01*
X193510000Y-63850757D01*
X193338078Y-63867690D01*
X193172763Y-63917838D01*
X193020408Y-63999273D01*
X192886867Y-64108867D01*
X192849007Y-64155000D01*
X187192123Y-64155000D01*
X187124483Y-64148338D01*
X186854543Y-64174925D01*
X186731882Y-64212134D01*
X186594978Y-64253663D01*
X186355762Y-64381527D01*
X186260387Y-64459799D01*
X186198625Y-64510485D01*
X186198622Y-64510488D01*
X186146086Y-64553603D01*
X186102971Y-64606139D01*
X180712112Y-69997000D01*
X155981098Y-69997000D01*
X155913461Y-69990338D01*
X155845824Y-69997000D01*
X155845822Y-69997000D01*
X155643523Y-70016925D01*
X155383957Y-70095663D01*
X155144741Y-70223527D01*
X154935065Y-70395603D01*
X154891947Y-70448143D01*
X152744145Y-72595946D01*
X152691604Y-72639065D01*
X152519527Y-72848741D01*
X152468919Y-72943422D01*
X152337717Y-73074624D01*
X152165479Y-73332397D01*
X152149975Y-73327630D01*
X151309605Y-74168000D01*
X152149975Y-75008370D01*
X152165479Y-75003603D01*
X152337717Y-75261376D01*
X152576624Y-75500283D01*
X152857548Y-75687990D01*
X153169695Y-75817286D01*
X153501068Y-75883200D01*
X153838932Y-75883200D01*
X154170305Y-75817286D01*
X154482452Y-75687990D01*
X154763376Y-75500283D01*
X154833863Y-75429796D01*
X154852925Y-75623332D01*
X154931663Y-75882898D01*
X155059528Y-76122114D01*
X155231604Y-76331790D01*
X155284145Y-76374909D01*
X156581089Y-77671854D01*
X156624209Y-77724396D01*
X156833885Y-77896472D01*
X157073101Y-78024336D01*
X157332667Y-78103074D01*
X157534966Y-78122999D01*
X157534968Y-78122999D01*
X157602605Y-78129661D01*
X157670242Y-78122999D01*
X167819631Y-78122999D01*
X164769631Y-81173000D01*
X153447691Y-81173000D01*
X153218041Y-81019553D01*
X152903747Y-80889368D01*
X152570095Y-80823000D01*
X152229905Y-80823000D01*
X151896253Y-80889368D01*
X151581959Y-81019553D01*
X151299102Y-81208552D01*
X151058552Y-81449102D01*
X150972871Y-81577333D01*
X150860269Y-81452412D01*
X150626920Y-81278359D01*
X150364099Y-81153175D01*
X150216890Y-81108524D01*
X149987000Y-81229845D01*
X149987000Y-82423000D01*
X150007000Y-82423000D01*
X150007000Y-82677000D01*
X149987000Y-82677000D01*
X149987000Y-82697000D01*
X149733000Y-82697000D01*
X149733000Y-82677000D01*
X149713000Y-82677000D01*
X149713000Y-82423000D01*
X149733000Y-82423000D01*
X149733000Y-81229845D01*
X149503110Y-81108524D01*
X149355901Y-81153175D01*
X149093080Y-81278359D01*
X148982953Y-81360502D01*
X148902727Y-81210408D01*
X148793133Y-81076867D01*
X148659592Y-80967273D01*
X148507237Y-80885838D01*
X148341922Y-80835690D01*
X148170000Y-80818757D01*
X146470000Y-80818757D01*
X146298078Y-80835690D01*
X146132763Y-80885838D01*
X145980408Y-80967273D01*
X145846867Y-81076867D01*
X145737273Y-81210408D01*
X145655838Y-81362763D01*
X145605690Y-81528078D01*
X145588757Y-81700000D01*
X145588757Y-83400000D01*
X145605690Y-83571922D01*
X145655838Y-83737237D01*
X145737273Y-83889592D01*
X145846867Y-84023133D01*
X145980408Y-84132727D01*
X146132763Y-84214162D01*
X146298078Y-84264310D01*
X146470000Y-84281243D01*
X146585217Y-84281243D01*
X146609526Y-84326722D01*
X146781603Y-84536398D01*
X146834144Y-84579517D01*
X147830482Y-85575856D01*
X147873602Y-85628398D01*
X148083278Y-85800474D01*
X148322494Y-85928338D01*
X148582060Y-86007076D01*
X148701002Y-86018791D01*
X148701002Y-86467959D01*
X148375501Y-86333132D01*
X148012868Y-86261000D01*
X147898372Y-86261000D01*
X143769521Y-82132150D01*
X143726397Y-82079603D01*
X143702680Y-82060139D01*
X143700310Y-82036078D01*
X143650162Y-81870763D01*
X143568727Y-81718408D01*
X143459133Y-81584867D01*
X143325592Y-81475273D01*
X143173237Y-81393838D01*
X143007922Y-81343690D01*
X142836000Y-81326757D01*
X141136000Y-81326757D01*
X140964078Y-81343690D01*
X140798763Y-81393838D01*
X140646408Y-81475273D01*
X140512867Y-81584867D01*
X140455122Y-81655229D01*
X140264041Y-81527553D01*
X139949747Y-81397368D01*
X139616095Y-81331000D01*
X139275905Y-81331000D01*
X138942253Y-81397368D01*
X138627959Y-81527553D01*
X138345102Y-81716552D01*
X138104552Y-81957102D01*
X137915553Y-82239959D01*
X137785368Y-82554253D01*
X137719000Y-82887905D01*
X137719000Y-83228095D01*
X137785368Y-83561747D01*
X137915553Y-83876041D01*
X138069000Y-84105691D01*
X138069001Y-87188351D01*
X138062338Y-87256000D01*
X138088925Y-87525939D01*
X138167663Y-87785504D01*
X138289110Y-88012714D01*
X138295528Y-88024721D01*
X138383436Y-88131838D01*
X138349604Y-88159603D01*
X138177528Y-88369279D01*
X138087749Y-88537243D01*
X138049664Y-88608495D01*
X137970926Y-88868060D01*
X137944339Y-89137999D01*
X137951001Y-89205639D01*
X137951001Y-89902817D01*
X135478601Y-92375218D01*
X135489000Y-92269640D01*
X135489000Y-92269638D01*
X135495662Y-92202001D01*
X135489000Y-92134364D01*
X135489000Y-90729698D01*
X135527243Y-90672463D01*
X135647628Y-90381828D01*
X135709000Y-90073291D01*
X135709000Y-89758709D01*
X135647628Y-89450172D01*
X135527243Y-89159537D01*
X135352471Y-88897972D01*
X135130028Y-88675529D01*
X134868463Y-88500757D01*
X134577828Y-88380372D01*
X134269291Y-88319000D01*
X133954709Y-88319000D01*
X133646172Y-88380372D01*
X133355537Y-88500757D01*
X133298302Y-88539000D01*
X132385698Y-88539000D01*
X132328463Y-88500757D01*
X132037828Y-88380372D01*
X131729291Y-88319000D01*
X131414709Y-88319000D01*
X131106172Y-88380372D01*
X130815537Y-88500757D01*
X130553972Y-88675529D01*
X130331529Y-88897972D01*
X130302000Y-88942165D01*
X130272471Y-88897972D01*
X130050028Y-88675529D01*
X129788463Y-88500757D01*
X129497828Y-88380372D01*
X129430313Y-88366942D01*
X128816999Y-87753628D01*
X128816999Y-84373814D01*
X129036253Y-84464632D01*
X129369905Y-84531000D01*
X129710095Y-84531000D01*
X130043747Y-84464632D01*
X130358041Y-84334447D01*
X130587691Y-84181000D01*
X130936358Y-84181000D01*
X131003998Y-84187662D01*
X131273937Y-84161075D01*
X131316522Y-84148157D01*
X131533503Y-84082337D01*
X131772719Y-83954473D01*
X131982395Y-83782397D01*
X132025519Y-83729850D01*
X132755501Y-82999869D01*
X132670524Y-83160890D01*
X132715175Y-83308099D01*
X132840359Y-83570920D01*
X133014412Y-83804269D01*
X133230645Y-83999178D01*
X133480748Y-84148157D01*
X133755109Y-84245481D01*
X133985000Y-84124814D01*
X133985000Y-82931000D01*
X134239000Y-82931000D01*
X134239000Y-84124814D01*
X134468891Y-84245481D01*
X134743252Y-84148157D01*
X134993355Y-83999178D01*
X135209588Y-83804269D01*
X135383641Y-83570920D01*
X135508825Y-83308099D01*
X135553476Y-83160890D01*
X135432155Y-82931000D01*
X134239000Y-82931000D01*
X133985000Y-82931000D01*
X133965000Y-82931000D01*
X133965000Y-82677000D01*
X133985000Y-82677000D01*
X133985000Y-82657000D01*
X134239000Y-82657000D01*
X134239000Y-82677000D01*
X135432155Y-82677000D01*
X135553476Y-82447110D01*
X135508825Y-82299901D01*
X135383641Y-82037080D01*
X135209588Y-81803731D01*
X135084667Y-81691129D01*
X135212898Y-81605448D01*
X135453448Y-81364898D01*
X135642447Y-81082041D01*
X135772632Y-80767747D01*
X135839000Y-80434095D01*
X135839000Y-80093905D01*
X135772632Y-79760253D01*
X135642447Y-79445959D01*
X135514771Y-79254878D01*
X135585133Y-79197133D01*
X135694727Y-79063592D01*
X135776162Y-78911237D01*
X135826310Y-78745922D01*
X135843243Y-78574000D01*
X135843243Y-76874000D01*
X135826310Y-76702078D01*
X135776162Y-76536763D01*
X135694727Y-76384408D01*
X135585133Y-76250867D01*
X135451592Y-76141273D01*
X135299237Y-76059838D01*
X135133922Y-76009690D01*
X134962000Y-75992757D01*
X133262000Y-75992757D01*
X133090078Y-76009690D01*
X132924763Y-76059838D01*
X132772408Y-76141273D01*
X132638867Y-76250867D01*
X132529273Y-76384408D01*
X132447838Y-76536763D01*
X132397690Y-76702078D01*
X132380757Y-76874000D01*
X132380757Y-78574000D01*
X132397690Y-78745922D01*
X132447838Y-78911237D01*
X132529273Y-79063592D01*
X132638867Y-79197133D01*
X132656135Y-79211304D01*
X132565601Y-79285603D01*
X132522481Y-79338145D01*
X131227387Y-80633239D01*
X131267000Y-80434095D01*
X131267000Y-80093905D01*
X131200632Y-79760253D01*
X131070447Y-79445959D01*
X130942771Y-79254878D01*
X131013133Y-79197133D01*
X131122727Y-79063592D01*
X131204162Y-78911237D01*
X131254310Y-78745922D01*
X131271243Y-78574000D01*
X131271243Y-76874000D01*
X131254310Y-76702078D01*
X131204162Y-76536763D01*
X131122727Y-76384408D01*
X131013133Y-76250867D01*
X130879592Y-76141273D01*
X130727237Y-76059838D01*
X130561922Y-76009690D01*
X130390000Y-75992757D01*
X128690000Y-75992757D01*
X128518078Y-76009690D01*
X128352763Y-76059838D01*
X128200408Y-76141273D01*
X128066867Y-76250867D01*
X127957273Y-76384408D01*
X127875838Y-76536763D01*
X127825690Y-76702078D01*
X127808757Y-76874000D01*
X127808757Y-78574000D01*
X127825690Y-78745922D01*
X127875838Y-78911237D01*
X127900662Y-78957680D01*
X127808414Y-78985663D01*
X127569198Y-79113527D01*
X127359522Y-79285603D01*
X127316398Y-79338150D01*
X127066989Y-79587559D01*
X127066989Y-73999068D01*
X141794800Y-73999068D01*
X141794800Y-74336932D01*
X141860714Y-74668305D01*
X141990010Y-74980452D01*
X142177717Y-75261376D01*
X142416624Y-75500283D01*
X142697548Y-75687990D01*
X143009695Y-75817286D01*
X143341068Y-75883200D01*
X143678932Y-75883200D01*
X144010305Y-75817286D01*
X144322452Y-75687990D01*
X144603376Y-75500283D01*
X144842283Y-75261376D01*
X144891327Y-75187975D01*
X145209630Y-75187975D01*
X145285838Y-75435844D01*
X145547865Y-75560563D01*
X145829189Y-75631768D01*
X146118999Y-75646719D01*
X146406157Y-75604845D01*
X146679628Y-75507754D01*
X146814162Y-75435844D01*
X146890370Y-75187975D01*
X146050000Y-74347605D01*
X145209630Y-75187975D01*
X144891327Y-75187975D01*
X145014521Y-75003603D01*
X145030025Y-75008370D01*
X145870395Y-74168000D01*
X146229605Y-74168000D01*
X147069975Y-75008370D01*
X147085479Y-75003603D01*
X147257717Y-75261376D01*
X147496624Y-75500283D01*
X147777548Y-75687990D01*
X148089695Y-75817286D01*
X148421068Y-75883200D01*
X148758932Y-75883200D01*
X149090305Y-75817286D01*
X149402452Y-75687990D01*
X149683376Y-75500283D01*
X149922283Y-75261376D01*
X149971327Y-75187975D01*
X150289630Y-75187975D01*
X150365838Y-75435844D01*
X150627865Y-75560563D01*
X150909189Y-75631768D01*
X151198999Y-75646719D01*
X151486157Y-75604845D01*
X151759628Y-75507754D01*
X151894162Y-75435844D01*
X151970370Y-75187975D01*
X151130000Y-74347605D01*
X150289630Y-75187975D01*
X149971327Y-75187975D01*
X150094521Y-75003603D01*
X150110025Y-75008370D01*
X150950395Y-74168000D01*
X150110025Y-73327630D01*
X150094521Y-73332397D01*
X149971328Y-73148025D01*
X150289630Y-73148025D01*
X151130000Y-73988395D01*
X151970370Y-73148025D01*
X151894162Y-72900156D01*
X151632135Y-72775437D01*
X151350811Y-72704232D01*
X151061001Y-72689281D01*
X150773843Y-72731155D01*
X150500372Y-72828246D01*
X150365838Y-72900156D01*
X150289630Y-73148025D01*
X149971328Y-73148025D01*
X149922283Y-73074624D01*
X149683376Y-72835717D01*
X149402452Y-72648010D01*
X149090305Y-72518714D01*
X148758932Y-72452800D01*
X148421068Y-72452800D01*
X148089695Y-72518714D01*
X147777548Y-72648010D01*
X147496624Y-72835717D01*
X147257717Y-73074624D01*
X147085479Y-73332397D01*
X147069975Y-73327630D01*
X146229605Y-74168000D01*
X145870395Y-74168000D01*
X145030025Y-73327630D01*
X145014521Y-73332397D01*
X144891328Y-73148025D01*
X145209630Y-73148025D01*
X146050000Y-73988395D01*
X146890370Y-73148025D01*
X146814162Y-72900156D01*
X146552135Y-72775437D01*
X146270811Y-72704232D01*
X145981001Y-72689281D01*
X145693843Y-72731155D01*
X145420372Y-72828246D01*
X145285838Y-72900156D01*
X145209630Y-73148025D01*
X144891328Y-73148025D01*
X144842283Y-73074624D01*
X144603376Y-72835717D01*
X144322452Y-72648010D01*
X144010305Y-72518714D01*
X143678932Y-72452800D01*
X143341068Y-72452800D01*
X143009695Y-72518714D01*
X142697548Y-72648010D01*
X142416624Y-72835717D01*
X142177717Y-73074624D01*
X141990010Y-73355548D01*
X141860714Y-73667695D01*
X141794800Y-73999068D01*
X127066989Y-73999068D01*
X127066989Y-68288598D01*
X127069419Y-68292399D01*
X127290754Y-68522852D01*
X127552795Y-68705696D01*
X127845472Y-68833905D01*
X127971135Y-68864218D01*
X128223000Y-68744740D01*
X128223000Y-66421000D01*
X128477000Y-66421000D01*
X128477000Y-68744740D01*
X128728865Y-68864218D01*
X128854528Y-68833905D01*
X129147205Y-68705696D01*
X129409246Y-68522852D01*
X129630581Y-68292399D01*
X129802704Y-68023194D01*
X129919000Y-67725582D01*
X129975000Y-67411000D01*
X129975000Y-66421000D01*
X128477000Y-66421000D01*
X128223000Y-66421000D01*
X128203000Y-66421000D01*
X128203000Y-66167000D01*
X128223000Y-66167000D01*
X128223000Y-66147000D01*
X128477000Y-66147000D01*
X128477000Y-66167000D01*
X129975000Y-66167000D01*
X129975000Y-65177000D01*
X129919000Y-64862418D01*
X129802704Y-64564806D01*
X129630581Y-64295601D01*
X129409246Y-64065148D01*
X129147205Y-63882304D01*
X128854528Y-63754095D01*
X128728865Y-63723782D01*
X128692476Y-63741044D01*
X128826520Y-63607000D01*
X131839059Y-63607000D01*
X131736867Y-63690867D01*
X131627273Y-63824408D01*
X131545838Y-63976763D01*
X131495690Y-64142078D01*
X131478757Y-64314000D01*
X131478757Y-68274000D01*
X131495690Y-68445922D01*
X131545838Y-68611237D01*
X131627273Y-68763592D01*
X131736867Y-68897133D01*
X131870408Y-69006727D01*
X132022763Y-69088162D01*
X132188078Y-69138310D01*
X132360000Y-69155243D01*
X134340000Y-69155243D01*
X134511922Y-69138310D01*
X134677237Y-69088162D01*
X134829592Y-69006727D01*
X134963133Y-68897133D01*
X135072727Y-68763592D01*
X135154162Y-68611237D01*
X135204310Y-68445922D01*
X135221243Y-68274000D01*
X135221243Y-67671000D01*
X135272360Y-67671000D01*
X135340000Y-67677662D01*
X135609939Y-67651075D01*
X135869505Y-67572337D01*
X135877665Y-67567975D01*
X142669630Y-67567975D01*
X142745838Y-67815844D01*
X143007865Y-67940563D01*
X143289189Y-68011768D01*
X143578999Y-68026719D01*
X143866157Y-67984845D01*
X144139628Y-67887754D01*
X144274162Y-67815844D01*
X144350370Y-67567975D01*
X143510000Y-66727605D01*
X142669630Y-67567975D01*
X135877665Y-67567975D01*
X136108721Y-67444473D01*
X136318397Y-67272397D01*
X136361521Y-67219850D01*
X137744573Y-65836799D01*
X142216948Y-65836799D01*
X142117437Y-66045865D01*
X142046232Y-66327189D01*
X142031281Y-66616999D01*
X142073155Y-66904157D01*
X142170246Y-67177628D01*
X142242156Y-67312162D01*
X142490025Y-67388370D01*
X143330395Y-66548000D01*
X143316253Y-66533858D01*
X143495858Y-66354253D01*
X143510000Y-66368395D01*
X143524143Y-66354253D01*
X143703748Y-66533858D01*
X143689605Y-66548000D01*
X144529975Y-67388370D01*
X144545479Y-67383603D01*
X144717717Y-67641376D01*
X144956624Y-67880283D01*
X145237548Y-68067990D01*
X145549695Y-68197286D01*
X145881068Y-68263200D01*
X146218932Y-68263200D01*
X146550305Y-68197286D01*
X146862452Y-68067990D01*
X147143376Y-67880283D01*
X147382283Y-67641376D01*
X147431327Y-67567975D01*
X147749630Y-67567975D01*
X147825838Y-67815844D01*
X148087865Y-67940563D01*
X148369189Y-68011768D01*
X148658999Y-68026719D01*
X148946157Y-67984845D01*
X149219628Y-67887754D01*
X149354162Y-67815844D01*
X149430370Y-67567975D01*
X148590000Y-66727605D01*
X147749630Y-67567975D01*
X147431327Y-67567975D01*
X147554521Y-67383603D01*
X147570025Y-67388370D01*
X148410395Y-66548000D01*
X148396253Y-66533858D01*
X148575858Y-66354253D01*
X148590000Y-66368395D01*
X148604143Y-66354253D01*
X148783748Y-66533858D01*
X148769605Y-66548000D01*
X149609975Y-67388370D01*
X149625479Y-67383603D01*
X149797717Y-67641376D01*
X150036624Y-67880283D01*
X150317548Y-68067990D01*
X150629695Y-68197286D01*
X150961068Y-68263200D01*
X151298932Y-68263200D01*
X151630305Y-68197286D01*
X151942452Y-68067990D01*
X152223376Y-67880283D01*
X152400000Y-67703659D01*
X152576624Y-67880283D01*
X152857548Y-68067990D01*
X153169695Y-68197286D01*
X153501068Y-68263200D01*
X153838932Y-68263200D01*
X154170305Y-68197286D01*
X154482452Y-68067990D01*
X154763376Y-67880283D01*
X154940000Y-67703659D01*
X155116624Y-67880283D01*
X155397548Y-68067990D01*
X155709695Y-68197286D01*
X156041068Y-68263200D01*
X156378932Y-68263200D01*
X156710305Y-68197286D01*
X157022452Y-68067990D01*
X157225476Y-67932334D01*
X157288667Y-68009333D01*
X157422208Y-68118927D01*
X157574563Y-68200362D01*
X157739878Y-68250510D01*
X157911800Y-68267443D01*
X159588200Y-68267443D01*
X159760122Y-68250510D01*
X159925437Y-68200362D01*
X160077792Y-68118927D01*
X160211333Y-68009333D01*
X160280543Y-67925000D01*
X163762360Y-67925000D01*
X163830000Y-67931662D01*
X164099939Y-67905075D01*
X164157039Y-67887754D01*
X164359505Y-67826337D01*
X164598721Y-67698473D01*
X164808397Y-67526397D01*
X164851521Y-67473850D01*
X167605360Y-64720012D01*
X167423862Y-64991643D01*
X167297446Y-65296837D01*
X167233000Y-65620830D01*
X167233000Y-65951170D01*
X167297446Y-66275163D01*
X167423862Y-66580357D01*
X167607389Y-66855025D01*
X167840975Y-67088611D01*
X168115643Y-67272138D01*
X168420837Y-67398554D01*
X168744830Y-67463000D01*
X169075170Y-67463000D01*
X169399163Y-67398554D01*
X169704357Y-67272138D01*
X169867694Y-67163000D01*
X176551364Y-67163000D01*
X176730975Y-67342611D01*
X177005643Y-67526138D01*
X177310837Y-67652554D01*
X177634830Y-67717000D01*
X177965170Y-67717000D01*
X178289163Y-67652554D01*
X178594357Y-67526138D01*
X178869025Y-67342611D01*
X179102611Y-67109025D01*
X179286138Y-66834357D01*
X179412554Y-66529163D01*
X179450878Y-66336493D01*
X179487850Y-66299521D01*
X179540397Y-66256397D01*
X179712473Y-66046721D01*
X179840337Y-65807505D01*
X179902957Y-65601074D01*
X179919075Y-65547940D01*
X179945662Y-65278000D01*
X179939000Y-65210360D01*
X179939000Y-62933694D01*
X180048138Y-62770357D01*
X180174554Y-62465163D01*
X180239000Y-62141170D01*
X180239000Y-61810830D01*
X180174554Y-61486837D01*
X180048138Y-61181643D01*
X179864611Y-60906975D01*
X179631025Y-60673389D01*
X179356357Y-60489862D01*
X179051163Y-60363446D01*
X178727170Y-60299000D01*
X178396830Y-60299000D01*
X178072837Y-60363446D01*
X177767643Y-60489862D01*
X177492975Y-60673389D01*
X177259389Y-60906975D01*
X177075862Y-61181643D01*
X176949446Y-61486837D01*
X176885000Y-61810830D01*
X176885000Y-62141170D01*
X176949446Y-62465163D01*
X177075862Y-62770357D01*
X177185000Y-62933694D01*
X177185001Y-64409000D01*
X171819412Y-64409000D01*
X171835663Y-64243999D01*
X171829001Y-64176359D01*
X171829001Y-61059635D01*
X171835663Y-60991998D01*
X171826651Y-60900498D01*
X171809076Y-60722060D01*
X171730338Y-60462494D01*
X171602474Y-60223278D01*
X171430398Y-60013602D01*
X171377856Y-59970482D01*
X170357522Y-58950149D01*
X170314398Y-58897602D01*
X170104722Y-58725526D01*
X169865506Y-58597662D01*
X169605940Y-58518924D01*
X169403641Y-58498999D01*
X169336001Y-58492337D01*
X169268361Y-58498999D01*
X143391641Y-58498999D01*
X143324001Y-58492337D01*
X143054061Y-58518924D01*
X142924279Y-58558293D01*
X142794496Y-58597662D01*
X142555280Y-58725526D01*
X142345604Y-58897602D01*
X142302484Y-58950144D01*
X140844142Y-60408487D01*
X140673507Y-60579122D01*
X140480837Y-60617446D01*
X140175643Y-60743862D01*
X140012306Y-60853000D01*
X128323788Y-60853000D01*
X128256148Y-60846338D01*
X127986208Y-60872925D01*
X127806664Y-60927389D01*
X127726643Y-60951663D01*
X127487427Y-61079527D01*
X127277751Y-61251603D01*
X127234633Y-61304143D01*
X124764135Y-63774642D01*
X124711592Y-63817763D01*
X124539516Y-64027439D01*
X124460683Y-64174925D01*
X124411652Y-64266655D01*
X124332914Y-64526220D01*
X124306327Y-64796159D01*
X120319000Y-64796159D01*
X120319000Y-56819000D01*
X220549000Y-56819000D01*
X220549001Y-134443000D01*
G37*
X220549001Y-134443000D02*
X120319000Y-134443000D01*
X120319000Y-64796159D01*
X124306327Y-64796159D01*
X124312989Y-64863799D01*
X124312990Y-95650339D01*
X124306327Y-95717989D01*
X124332914Y-95987928D01*
X124411652Y-96247493D01*
X124496557Y-96406338D01*
X124539517Y-96486710D01*
X124711593Y-96696386D01*
X124764135Y-96739506D01*
X131211428Y-103186800D01*
X131149068Y-103186800D01*
X130817695Y-103252714D01*
X130505548Y-103382010D01*
X130224624Y-103569717D01*
X129985717Y-103808624D01*
X129798010Y-104089548D01*
X129668714Y-104401695D01*
X129618502Y-104654127D01*
X129104145Y-105168484D01*
X129051603Y-105211604D01*
X128885294Y-105414253D01*
X128879527Y-105421280D01*
X128751662Y-105660497D01*
X128672924Y-105920062D01*
X128646337Y-106190001D01*
X128653000Y-106257651D01*
X128652999Y-118946361D01*
X128646337Y-119014001D01*
X128672924Y-119283940D01*
X128702064Y-119380001D01*
X128751662Y-119543505D01*
X128879526Y-119782721D01*
X129051602Y-119992397D01*
X129104145Y-120035518D01*
X131761491Y-122692865D01*
X131804611Y-122745407D01*
X132014287Y-122917483D01*
X132253503Y-123045347D01*
X132307208Y-123061638D01*
X132513068Y-123124085D01*
X132783008Y-123150672D01*
X132850648Y-123144010D01*
X153318350Y-123144010D01*
X153385990Y-123150672D01*
X153655929Y-123124085D01*
X153915495Y-123045347D01*
X154154711Y-122917483D01*
X154364387Y-122745407D01*
X154407511Y-122692860D01*
X154579000Y-122521371D01*
X154579001Y-129472350D01*
X154572338Y-129540000D01*
X154598925Y-129809939D01*
X154677663Y-130069504D01*
X154767892Y-130238310D01*
X154805528Y-130308721D01*
X154977604Y-130518397D01*
X155030145Y-130561516D01*
X156712483Y-132243855D01*
X156755603Y-132296397D01*
X156965279Y-132468473D01*
X157204495Y-132596337D01*
X157334278Y-132635706D01*
X157464060Y-132675075D01*
X157734000Y-132701662D01*
X157801640Y-132695000D01*
X198240358Y-132695000D01*
X198307998Y-132701662D01*
X198577937Y-132675075D01*
X198837503Y-132596337D01*
X199076719Y-132468473D01*
X199286395Y-132296397D01*
X199329519Y-132243850D01*
X201684329Y-129889040D01*
X205110091Y-129889040D01*
X205204930Y-130153881D01*
X205349615Y-130395131D01*
X205538586Y-130603519D01*
X205764580Y-130771037D01*
X206018913Y-130891246D01*
X206152961Y-130931904D01*
X206375000Y-130809915D01*
X206375000Y-129667000D01*
X206629000Y-129667000D01*
X206629000Y-130809915D01*
X206851039Y-130931904D01*
X206985087Y-130891246D01*
X207239420Y-130771037D01*
X207465414Y-130603519D01*
X207654385Y-130395131D01*
X207799070Y-130153881D01*
X207893909Y-129889040D01*
X207772624Y-129667000D01*
X206629000Y-129667000D01*
X206375000Y-129667000D01*
X205231376Y-129667000D01*
X205110091Y-129889040D01*
X201684329Y-129889040D01*
X202382409Y-129190960D01*
X205110091Y-129190960D01*
X205231376Y-129413000D01*
X206375000Y-129413000D01*
X206375000Y-128270085D01*
X206629000Y-128270085D01*
X206629000Y-129413000D01*
X207772624Y-129413000D01*
X207893909Y-129190960D01*
X207799070Y-128926119D01*
X207654385Y-128684869D01*
X207465414Y-128476481D01*
X207239420Y-128308963D01*
X206985087Y-128188754D01*
X206851039Y-128148096D01*
X206629000Y-128270085D01*
X206375000Y-128270085D01*
X206152961Y-128148096D01*
X206018913Y-128188754D01*
X205764580Y-128308963D01*
X205538586Y-128476481D01*
X205349615Y-128684869D01*
X205204930Y-128926119D01*
X205110091Y-129190960D01*
X202382409Y-129190960D01*
X211788667Y-119784702D01*
X213054903Y-119784702D01*
X213126486Y-120028671D01*
X213381996Y-120149571D01*
X213656184Y-120218300D01*
X213938512Y-120232217D01*
X214218130Y-120190787D01*
X214484292Y-120095603D01*
X214609514Y-120028671D01*
X214681097Y-119784702D01*
X213868000Y-118971605D01*
X213054903Y-119784702D01*
X211788667Y-119784702D01*
X212464313Y-119109057D01*
X212469213Y-119142130D01*
X212564397Y-119408292D01*
X212631329Y-119533514D01*
X212875298Y-119605097D01*
X213688395Y-118792000D01*
X213674253Y-118777858D01*
X213853858Y-118598253D01*
X213868000Y-118612395D01*
X213882143Y-118598253D01*
X214061748Y-118777858D01*
X214047605Y-118792000D01*
X214860702Y-119605097D01*
X215104671Y-119533514D01*
X215225571Y-119278004D01*
X215294300Y-119003816D01*
X215308217Y-118721488D01*
X215266787Y-118441870D01*
X215171603Y-118175708D01*
X215121212Y-118081432D01*
X215322620Y-118020336D01*
X215561836Y-117892472D01*
X215771512Y-117720396D01*
X215814636Y-117667849D01*
X216905155Y-116577331D01*
X216957697Y-116534211D01*
X217129773Y-116324535D01*
X217257637Y-116085319D01*
X217291624Y-115973278D01*
X217336375Y-115825754D01*
X217362962Y-115555814D01*
X217356300Y-115488174D01*
X217356300Y-106340939D01*
X217362962Y-106273299D01*
X217336375Y-106003360D01*
X217257637Y-105743795D01*
X217226210Y-105685000D01*
X217129773Y-105504579D01*
X216957696Y-105294903D01*
X216905160Y-105251788D01*
X215357561Y-103704190D01*
X215400727Y-103651592D01*
X215482162Y-103499237D01*
X215532310Y-103333922D01*
X215549243Y-103162000D01*
X215549243Y-101562000D01*
X215532310Y-101390078D01*
X215482162Y-101224763D01*
X215400727Y-101072408D01*
X215291133Y-100938867D01*
X215245000Y-100901007D01*
X215245000Y-100629636D01*
X215251662Y-100561999D01*
X215244408Y-100488349D01*
X215225075Y-100292061D01*
X215146337Y-100032495D01*
X215018473Y-99793279D01*
X214923801Y-99677921D01*
X214889514Y-99636142D01*
X214889513Y-99636141D01*
X214846396Y-99583603D01*
X214793860Y-99540488D01*
X211863521Y-96610150D01*
X211820397Y-96557603D01*
X211610721Y-96385527D01*
X211371505Y-96257663D01*
X211111939Y-96178925D01*
X210909640Y-96159000D01*
X210842000Y-96152338D01*
X210774360Y-96159000D01*
X209826371Y-96159000D01*
X217323872Y-88661501D01*
X217376408Y-88618386D01*
X217419523Y-88565850D01*
X217419526Y-88565847D01*
X217490738Y-88479074D01*
X217548484Y-88408710D01*
X217676348Y-88169494D01*
X217748826Y-87930564D01*
X217755086Y-87909929D01*
X217781673Y-87639989D01*
X217775011Y-87572349D01*
X217775011Y-73288762D01*
X217781673Y-73221122D01*
X217755086Y-72951182D01*
X217696382Y-72757662D01*
X217676348Y-72691617D01*
X217548484Y-72452401D01*
X217376407Y-72242725D01*
X217323871Y-72199610D01*
X215328399Y-70204139D01*
X215285275Y-70151592D01*
X215075599Y-69979516D01*
X214836383Y-69851652D01*
X214576817Y-69772914D01*
X214374518Y-69752989D01*
X214306878Y-69746327D01*
X214250429Y-69751887D01*
X214250429Y-63869000D01*
X198753572Y-63869000D01*
X198753572Y-70079900D01*
X197737001Y-70079900D01*
X197737001Y-69615639D01*
X197743663Y-69547999D01*
X197717076Y-69278059D01*
X197652070Y-69063762D01*
X197638338Y-69018494D01*
X197510474Y-68779278D01*
X197338397Y-68569602D01*
X197285860Y-68526487D01*
X196315522Y-67556149D01*
X196272398Y-67503602D01*
X196062722Y-67331526D01*
X195823506Y-67203662D01*
X195563940Y-67124924D01*
X195498947Y-67118523D01*
X195599592Y-67064727D01*
X195733133Y-66955133D01*
X195842727Y-66821592D01*
X195924162Y-66669237D01*
X195974310Y-66503922D01*
X195991243Y-66332000D01*
X195991243Y-64732000D01*
X195974310Y-64560078D01*
X195924162Y-64394763D01*
X195842727Y-64242408D01*
X195733133Y-64108867D01*
X195599592Y-63999273D01*
X195447237Y-63917838D01*
X195281922Y-63867690D01*
X195110000Y-63850757D01*
X193510000Y-63850757D01*
X193338078Y-63867690D01*
X193172763Y-63917838D01*
X193020408Y-63999273D01*
X192886867Y-64108867D01*
X192849007Y-64155000D01*
X187192123Y-64155000D01*
X187124483Y-64148338D01*
X186854543Y-64174925D01*
X186731882Y-64212134D01*
X186594978Y-64253663D01*
X186355762Y-64381527D01*
X186260387Y-64459799D01*
X186198625Y-64510485D01*
X186198622Y-64510488D01*
X186146086Y-64553603D01*
X186102971Y-64606139D01*
X180712112Y-69997000D01*
X155981098Y-69997000D01*
X155913461Y-69990338D01*
X155845824Y-69997000D01*
X155845822Y-69997000D01*
X155643523Y-70016925D01*
X155383957Y-70095663D01*
X155144741Y-70223527D01*
X154935065Y-70395603D01*
X154891947Y-70448143D01*
X152744145Y-72595946D01*
X152691604Y-72639065D01*
X152519527Y-72848741D01*
X152468919Y-72943422D01*
X152337717Y-73074624D01*
X152165479Y-73332397D01*
X152149975Y-73327630D01*
X151309605Y-74168000D01*
X152149975Y-75008370D01*
X152165479Y-75003603D01*
X152337717Y-75261376D01*
X152576624Y-75500283D01*
X152857548Y-75687990D01*
X153169695Y-75817286D01*
X153501068Y-75883200D01*
X153838932Y-75883200D01*
X154170305Y-75817286D01*
X154482452Y-75687990D01*
X154763376Y-75500283D01*
X154833863Y-75429796D01*
X154852925Y-75623332D01*
X154931663Y-75882898D01*
X155059528Y-76122114D01*
X155231604Y-76331790D01*
X155284145Y-76374909D01*
X156581089Y-77671854D01*
X156624209Y-77724396D01*
X156833885Y-77896472D01*
X157073101Y-78024336D01*
X157332667Y-78103074D01*
X157534966Y-78122999D01*
X157534968Y-78122999D01*
X157602605Y-78129661D01*
X157670242Y-78122999D01*
X167819631Y-78122999D01*
X164769631Y-81173000D01*
X153447691Y-81173000D01*
X153218041Y-81019553D01*
X152903747Y-80889368D01*
X152570095Y-80823000D01*
X152229905Y-80823000D01*
X151896253Y-80889368D01*
X151581959Y-81019553D01*
X151299102Y-81208552D01*
X151058552Y-81449102D01*
X150972871Y-81577333D01*
X150860269Y-81452412D01*
X150626920Y-81278359D01*
X150364099Y-81153175D01*
X150216890Y-81108524D01*
X149987000Y-81229845D01*
X149987000Y-82423000D01*
X150007000Y-82423000D01*
X150007000Y-82677000D01*
X149987000Y-82677000D01*
X149987000Y-82697000D01*
X149733000Y-82697000D01*
X149733000Y-82677000D01*
X149713000Y-82677000D01*
X149713000Y-82423000D01*
X149733000Y-82423000D01*
X149733000Y-81229845D01*
X149503110Y-81108524D01*
X149355901Y-81153175D01*
X149093080Y-81278359D01*
X148982953Y-81360502D01*
X148902727Y-81210408D01*
X148793133Y-81076867D01*
X148659592Y-80967273D01*
X148507237Y-80885838D01*
X148341922Y-80835690D01*
X148170000Y-80818757D01*
X146470000Y-80818757D01*
X146298078Y-80835690D01*
X146132763Y-80885838D01*
X145980408Y-80967273D01*
X145846867Y-81076867D01*
X145737273Y-81210408D01*
X145655838Y-81362763D01*
X145605690Y-81528078D01*
X145588757Y-81700000D01*
X145588757Y-83400000D01*
X145605690Y-83571922D01*
X145655838Y-83737237D01*
X145737273Y-83889592D01*
X145846867Y-84023133D01*
X145980408Y-84132727D01*
X146132763Y-84214162D01*
X146298078Y-84264310D01*
X146470000Y-84281243D01*
X146585217Y-84281243D01*
X146609526Y-84326722D01*
X146781603Y-84536398D01*
X146834144Y-84579517D01*
X147830482Y-85575856D01*
X147873602Y-85628398D01*
X148083278Y-85800474D01*
X148322494Y-85928338D01*
X148582060Y-86007076D01*
X148701002Y-86018791D01*
X148701002Y-86467959D01*
X148375501Y-86333132D01*
X148012868Y-86261000D01*
X147898372Y-86261000D01*
X143769521Y-82132150D01*
X143726397Y-82079603D01*
X143702680Y-82060139D01*
X143700310Y-82036078D01*
X143650162Y-81870763D01*
X143568727Y-81718408D01*
X143459133Y-81584867D01*
X143325592Y-81475273D01*
X143173237Y-81393838D01*
X143007922Y-81343690D01*
X142836000Y-81326757D01*
X141136000Y-81326757D01*
X140964078Y-81343690D01*
X140798763Y-81393838D01*
X140646408Y-81475273D01*
X140512867Y-81584867D01*
X140455122Y-81655229D01*
X140264041Y-81527553D01*
X139949747Y-81397368D01*
X139616095Y-81331000D01*
X139275905Y-81331000D01*
X138942253Y-81397368D01*
X138627959Y-81527553D01*
X138345102Y-81716552D01*
X138104552Y-81957102D01*
X137915553Y-82239959D01*
X137785368Y-82554253D01*
X137719000Y-82887905D01*
X137719000Y-83228095D01*
X137785368Y-83561747D01*
X137915553Y-83876041D01*
X138069000Y-84105691D01*
X138069001Y-87188351D01*
X138062338Y-87256000D01*
X138088925Y-87525939D01*
X138167663Y-87785504D01*
X138289110Y-88012714D01*
X138295528Y-88024721D01*
X138383436Y-88131838D01*
X138349604Y-88159603D01*
X138177528Y-88369279D01*
X138087749Y-88537243D01*
X138049664Y-88608495D01*
X137970926Y-88868060D01*
X137944339Y-89137999D01*
X137951001Y-89205639D01*
X137951001Y-89902817D01*
X135478601Y-92375218D01*
X135489000Y-92269640D01*
X135489000Y-92269638D01*
X135495662Y-92202001D01*
X135489000Y-92134364D01*
X135489000Y-90729698D01*
X135527243Y-90672463D01*
X135647628Y-90381828D01*
X135709000Y-90073291D01*
X135709000Y-89758709D01*
X135647628Y-89450172D01*
X135527243Y-89159537D01*
X135352471Y-88897972D01*
X135130028Y-88675529D01*
X134868463Y-88500757D01*
X134577828Y-88380372D01*
X134269291Y-88319000D01*
X133954709Y-88319000D01*
X133646172Y-88380372D01*
X133355537Y-88500757D01*
X133298302Y-88539000D01*
X132385698Y-88539000D01*
X132328463Y-88500757D01*
X132037828Y-88380372D01*
X131729291Y-88319000D01*
X131414709Y-88319000D01*
X131106172Y-88380372D01*
X130815537Y-88500757D01*
X130553972Y-88675529D01*
X130331529Y-88897972D01*
X130302000Y-88942165D01*
X130272471Y-88897972D01*
X130050028Y-88675529D01*
X129788463Y-88500757D01*
X129497828Y-88380372D01*
X129430313Y-88366942D01*
X128816999Y-87753628D01*
X128816999Y-84373814D01*
X129036253Y-84464632D01*
X129369905Y-84531000D01*
X129710095Y-84531000D01*
X130043747Y-84464632D01*
X130358041Y-84334447D01*
X130587691Y-84181000D01*
X130936358Y-84181000D01*
X131003998Y-84187662D01*
X131273937Y-84161075D01*
X131316522Y-84148157D01*
X131533503Y-84082337D01*
X131772719Y-83954473D01*
X131982395Y-83782397D01*
X132025519Y-83729850D01*
X132755501Y-82999869D01*
X132670524Y-83160890D01*
X132715175Y-83308099D01*
X132840359Y-83570920D01*
X133014412Y-83804269D01*
X133230645Y-83999178D01*
X133480748Y-84148157D01*
X133755109Y-84245481D01*
X133985000Y-84124814D01*
X133985000Y-82931000D01*
X134239000Y-82931000D01*
X134239000Y-84124814D01*
X134468891Y-84245481D01*
X134743252Y-84148157D01*
X134993355Y-83999178D01*
X135209588Y-83804269D01*
X135383641Y-83570920D01*
X135508825Y-83308099D01*
X135553476Y-83160890D01*
X135432155Y-82931000D01*
X134239000Y-82931000D01*
X133985000Y-82931000D01*
X133965000Y-82931000D01*
X133965000Y-82677000D01*
X133985000Y-82677000D01*
X133985000Y-82657000D01*
X134239000Y-82657000D01*
X134239000Y-82677000D01*
X135432155Y-82677000D01*
X135553476Y-82447110D01*
X135508825Y-82299901D01*
X135383641Y-82037080D01*
X135209588Y-81803731D01*
X135084667Y-81691129D01*
X135212898Y-81605448D01*
X135453448Y-81364898D01*
X135642447Y-81082041D01*
X135772632Y-80767747D01*
X135839000Y-80434095D01*
X135839000Y-80093905D01*
X135772632Y-79760253D01*
X135642447Y-79445959D01*
X135514771Y-79254878D01*
X135585133Y-79197133D01*
X135694727Y-79063592D01*
X135776162Y-78911237D01*
X135826310Y-78745922D01*
X135843243Y-78574000D01*
X135843243Y-76874000D01*
X135826310Y-76702078D01*
X135776162Y-76536763D01*
X135694727Y-76384408D01*
X135585133Y-76250867D01*
X135451592Y-76141273D01*
X135299237Y-76059838D01*
X135133922Y-76009690D01*
X134962000Y-75992757D01*
X133262000Y-75992757D01*
X133090078Y-76009690D01*
X132924763Y-76059838D01*
X132772408Y-76141273D01*
X132638867Y-76250867D01*
X132529273Y-76384408D01*
X132447838Y-76536763D01*
X132397690Y-76702078D01*
X132380757Y-76874000D01*
X132380757Y-78574000D01*
X132397690Y-78745922D01*
X132447838Y-78911237D01*
X132529273Y-79063592D01*
X132638867Y-79197133D01*
X132656135Y-79211304D01*
X132565601Y-79285603D01*
X132522481Y-79338145D01*
X131227387Y-80633239D01*
X131267000Y-80434095D01*
X131267000Y-80093905D01*
X131200632Y-79760253D01*
X131070447Y-79445959D01*
X130942771Y-79254878D01*
X131013133Y-79197133D01*
X131122727Y-79063592D01*
X131204162Y-78911237D01*
X131254310Y-78745922D01*
X131271243Y-78574000D01*
X131271243Y-76874000D01*
X131254310Y-76702078D01*
X131204162Y-76536763D01*
X131122727Y-76384408D01*
X131013133Y-76250867D01*
X130879592Y-76141273D01*
X130727237Y-76059838D01*
X130561922Y-76009690D01*
X130390000Y-75992757D01*
X128690000Y-75992757D01*
X128518078Y-76009690D01*
X128352763Y-76059838D01*
X128200408Y-76141273D01*
X128066867Y-76250867D01*
X127957273Y-76384408D01*
X127875838Y-76536763D01*
X127825690Y-76702078D01*
X127808757Y-76874000D01*
X127808757Y-78574000D01*
X127825690Y-78745922D01*
X127875838Y-78911237D01*
X127900662Y-78957680D01*
X127808414Y-78985663D01*
X127569198Y-79113527D01*
X127359522Y-79285603D01*
X127316398Y-79338150D01*
X127066989Y-79587559D01*
X127066989Y-73999068D01*
X141794800Y-73999068D01*
X141794800Y-74336932D01*
X141860714Y-74668305D01*
X141990010Y-74980452D01*
X142177717Y-75261376D01*
X142416624Y-75500283D01*
X142697548Y-75687990D01*
X143009695Y-75817286D01*
X143341068Y-75883200D01*
X143678932Y-75883200D01*
X144010305Y-75817286D01*
X144322452Y-75687990D01*
X144603376Y-75500283D01*
X144842283Y-75261376D01*
X144891327Y-75187975D01*
X145209630Y-75187975D01*
X145285838Y-75435844D01*
X145547865Y-75560563D01*
X145829189Y-75631768D01*
X146118999Y-75646719D01*
X146406157Y-75604845D01*
X146679628Y-75507754D01*
X146814162Y-75435844D01*
X146890370Y-75187975D01*
X146050000Y-74347605D01*
X145209630Y-75187975D01*
X144891327Y-75187975D01*
X145014521Y-75003603D01*
X145030025Y-75008370D01*
X145870395Y-74168000D01*
X146229605Y-74168000D01*
X147069975Y-75008370D01*
X147085479Y-75003603D01*
X147257717Y-75261376D01*
X147496624Y-75500283D01*
X147777548Y-75687990D01*
X148089695Y-75817286D01*
X148421068Y-75883200D01*
X148758932Y-75883200D01*
X149090305Y-75817286D01*
X149402452Y-75687990D01*
X149683376Y-75500283D01*
X149922283Y-75261376D01*
X149971327Y-75187975D01*
X150289630Y-75187975D01*
X150365838Y-75435844D01*
X150627865Y-75560563D01*
X150909189Y-75631768D01*
X151198999Y-75646719D01*
X151486157Y-75604845D01*
X151759628Y-75507754D01*
X151894162Y-75435844D01*
X151970370Y-75187975D01*
X151130000Y-74347605D01*
X150289630Y-75187975D01*
X149971327Y-75187975D01*
X150094521Y-75003603D01*
X150110025Y-75008370D01*
X150950395Y-74168000D01*
X150110025Y-73327630D01*
X150094521Y-73332397D01*
X149971328Y-73148025D01*
X150289630Y-73148025D01*
X151130000Y-73988395D01*
X151970370Y-73148025D01*
X151894162Y-72900156D01*
X151632135Y-72775437D01*
X151350811Y-72704232D01*
X151061001Y-72689281D01*
X150773843Y-72731155D01*
X150500372Y-72828246D01*
X150365838Y-72900156D01*
X150289630Y-73148025D01*
X149971328Y-73148025D01*
X149922283Y-73074624D01*
X149683376Y-72835717D01*
X149402452Y-72648010D01*
X149090305Y-72518714D01*
X148758932Y-72452800D01*
X148421068Y-72452800D01*
X148089695Y-72518714D01*
X147777548Y-72648010D01*
X147496624Y-72835717D01*
X147257717Y-73074624D01*
X147085479Y-73332397D01*
X147069975Y-73327630D01*
X146229605Y-74168000D01*
X145870395Y-74168000D01*
X145030025Y-73327630D01*
X145014521Y-73332397D01*
X144891328Y-73148025D01*
X145209630Y-73148025D01*
X146050000Y-73988395D01*
X146890370Y-73148025D01*
X146814162Y-72900156D01*
X146552135Y-72775437D01*
X146270811Y-72704232D01*
X145981001Y-72689281D01*
X145693843Y-72731155D01*
X145420372Y-72828246D01*
X145285838Y-72900156D01*
X145209630Y-73148025D01*
X144891328Y-73148025D01*
X144842283Y-73074624D01*
X144603376Y-72835717D01*
X144322452Y-72648010D01*
X144010305Y-72518714D01*
X143678932Y-72452800D01*
X143341068Y-72452800D01*
X143009695Y-72518714D01*
X142697548Y-72648010D01*
X142416624Y-72835717D01*
X142177717Y-73074624D01*
X141990010Y-73355548D01*
X141860714Y-73667695D01*
X141794800Y-73999068D01*
X127066989Y-73999068D01*
X127066989Y-68288598D01*
X127069419Y-68292399D01*
X127290754Y-68522852D01*
X127552795Y-68705696D01*
X127845472Y-68833905D01*
X127971135Y-68864218D01*
X128223000Y-68744740D01*
X128223000Y-66421000D01*
X128477000Y-66421000D01*
X128477000Y-68744740D01*
X128728865Y-68864218D01*
X128854528Y-68833905D01*
X129147205Y-68705696D01*
X129409246Y-68522852D01*
X129630581Y-68292399D01*
X129802704Y-68023194D01*
X129919000Y-67725582D01*
X129975000Y-67411000D01*
X129975000Y-66421000D01*
X128477000Y-66421000D01*
X128223000Y-66421000D01*
X128203000Y-66421000D01*
X128203000Y-66167000D01*
X128223000Y-66167000D01*
X128223000Y-66147000D01*
X128477000Y-66147000D01*
X128477000Y-66167000D01*
X129975000Y-66167000D01*
X129975000Y-65177000D01*
X129919000Y-64862418D01*
X129802704Y-64564806D01*
X129630581Y-64295601D01*
X129409246Y-64065148D01*
X129147205Y-63882304D01*
X128854528Y-63754095D01*
X128728865Y-63723782D01*
X128692476Y-63741044D01*
X128826520Y-63607000D01*
X131839059Y-63607000D01*
X131736867Y-63690867D01*
X131627273Y-63824408D01*
X131545838Y-63976763D01*
X131495690Y-64142078D01*
X131478757Y-64314000D01*
X131478757Y-68274000D01*
X131495690Y-68445922D01*
X131545838Y-68611237D01*
X131627273Y-68763592D01*
X131736867Y-68897133D01*
X131870408Y-69006727D01*
X132022763Y-69088162D01*
X132188078Y-69138310D01*
X132360000Y-69155243D01*
X134340000Y-69155243D01*
X134511922Y-69138310D01*
X134677237Y-69088162D01*
X134829592Y-69006727D01*
X134963133Y-68897133D01*
X135072727Y-68763592D01*
X135154162Y-68611237D01*
X135204310Y-68445922D01*
X135221243Y-68274000D01*
X135221243Y-67671000D01*
X135272360Y-67671000D01*
X135340000Y-67677662D01*
X135609939Y-67651075D01*
X135869505Y-67572337D01*
X135877665Y-67567975D01*
X142669630Y-67567975D01*
X142745838Y-67815844D01*
X143007865Y-67940563D01*
X143289189Y-68011768D01*
X143578999Y-68026719D01*
X143866157Y-67984845D01*
X144139628Y-67887754D01*
X144274162Y-67815844D01*
X144350370Y-67567975D01*
X143510000Y-66727605D01*
X142669630Y-67567975D01*
X135877665Y-67567975D01*
X136108721Y-67444473D01*
X136318397Y-67272397D01*
X136361521Y-67219850D01*
X137744573Y-65836799D01*
X142216948Y-65836799D01*
X142117437Y-66045865D01*
X142046232Y-66327189D01*
X142031281Y-66616999D01*
X142073155Y-66904157D01*
X142170246Y-67177628D01*
X142242156Y-67312162D01*
X142490025Y-67388370D01*
X143330395Y-66548000D01*
X143316253Y-66533858D01*
X143495858Y-66354253D01*
X143510000Y-66368395D01*
X143524143Y-66354253D01*
X143703748Y-66533858D01*
X143689605Y-66548000D01*
X144529975Y-67388370D01*
X144545479Y-67383603D01*
X144717717Y-67641376D01*
X144956624Y-67880283D01*
X145237548Y-68067990D01*
X145549695Y-68197286D01*
X145881068Y-68263200D01*
X146218932Y-68263200D01*
X146550305Y-68197286D01*
X146862452Y-68067990D01*
X147143376Y-67880283D01*
X147382283Y-67641376D01*
X147431327Y-67567975D01*
X147749630Y-67567975D01*
X147825838Y-67815844D01*
X148087865Y-67940563D01*
X148369189Y-68011768D01*
X148658999Y-68026719D01*
X148946157Y-67984845D01*
X149219628Y-67887754D01*
X149354162Y-67815844D01*
X149430370Y-67567975D01*
X148590000Y-66727605D01*
X147749630Y-67567975D01*
X147431327Y-67567975D01*
X147554521Y-67383603D01*
X147570025Y-67388370D01*
X148410395Y-66548000D01*
X148396253Y-66533858D01*
X148575858Y-66354253D01*
X148590000Y-66368395D01*
X148604143Y-66354253D01*
X148783748Y-66533858D01*
X148769605Y-66548000D01*
X149609975Y-67388370D01*
X149625479Y-67383603D01*
X149797717Y-67641376D01*
X150036624Y-67880283D01*
X150317548Y-68067990D01*
X150629695Y-68197286D01*
X150961068Y-68263200D01*
X151298932Y-68263200D01*
X151630305Y-68197286D01*
X151942452Y-68067990D01*
X152223376Y-67880283D01*
X152400000Y-67703659D01*
X152576624Y-67880283D01*
X152857548Y-68067990D01*
X153169695Y-68197286D01*
X153501068Y-68263200D01*
X153838932Y-68263200D01*
X154170305Y-68197286D01*
X154482452Y-68067990D01*
X154763376Y-67880283D01*
X154940000Y-67703659D01*
X155116624Y-67880283D01*
X155397548Y-68067990D01*
X155709695Y-68197286D01*
X156041068Y-68263200D01*
X156378932Y-68263200D01*
X156710305Y-68197286D01*
X157022452Y-68067990D01*
X157225476Y-67932334D01*
X157288667Y-68009333D01*
X157422208Y-68118927D01*
X157574563Y-68200362D01*
X157739878Y-68250510D01*
X157911800Y-68267443D01*
X159588200Y-68267443D01*
X159760122Y-68250510D01*
X159925437Y-68200362D01*
X160077792Y-68118927D01*
X160211333Y-68009333D01*
X160280543Y-67925000D01*
X163762360Y-67925000D01*
X163830000Y-67931662D01*
X164099939Y-67905075D01*
X164157039Y-67887754D01*
X164359505Y-67826337D01*
X164598721Y-67698473D01*
X164808397Y-67526397D01*
X164851521Y-67473850D01*
X167605360Y-64720012D01*
X167423862Y-64991643D01*
X167297446Y-65296837D01*
X167233000Y-65620830D01*
X167233000Y-65951170D01*
X167297446Y-66275163D01*
X167423862Y-66580357D01*
X167607389Y-66855025D01*
X167840975Y-67088611D01*
X168115643Y-67272138D01*
X168420837Y-67398554D01*
X168744830Y-67463000D01*
X169075170Y-67463000D01*
X169399163Y-67398554D01*
X169704357Y-67272138D01*
X169867694Y-67163000D01*
X176551364Y-67163000D01*
X176730975Y-67342611D01*
X177005643Y-67526138D01*
X177310837Y-67652554D01*
X177634830Y-67717000D01*
X177965170Y-67717000D01*
X178289163Y-67652554D01*
X178594357Y-67526138D01*
X178869025Y-67342611D01*
X179102611Y-67109025D01*
X179286138Y-66834357D01*
X179412554Y-66529163D01*
X179450878Y-66336493D01*
X179487850Y-66299521D01*
X179540397Y-66256397D01*
X179712473Y-66046721D01*
X179840337Y-65807505D01*
X179902957Y-65601074D01*
X179919075Y-65547940D01*
X179945662Y-65278000D01*
X179939000Y-65210360D01*
X179939000Y-62933694D01*
X180048138Y-62770357D01*
X180174554Y-62465163D01*
X180239000Y-62141170D01*
X180239000Y-61810830D01*
X180174554Y-61486837D01*
X180048138Y-61181643D01*
X179864611Y-60906975D01*
X179631025Y-60673389D01*
X179356357Y-60489862D01*
X179051163Y-60363446D01*
X178727170Y-60299000D01*
X178396830Y-60299000D01*
X178072837Y-60363446D01*
X177767643Y-60489862D01*
X177492975Y-60673389D01*
X177259389Y-60906975D01*
X177075862Y-61181643D01*
X176949446Y-61486837D01*
X176885000Y-61810830D01*
X176885000Y-62141170D01*
X176949446Y-62465163D01*
X177075862Y-62770357D01*
X177185000Y-62933694D01*
X177185001Y-64409000D01*
X171819412Y-64409000D01*
X171835663Y-64243999D01*
X171829001Y-64176359D01*
X171829001Y-61059635D01*
X171835663Y-60991998D01*
X171826651Y-60900498D01*
X171809076Y-60722060D01*
X171730338Y-60462494D01*
X171602474Y-60223278D01*
X171430398Y-60013602D01*
X171377856Y-59970482D01*
X170357522Y-58950149D01*
X170314398Y-58897602D01*
X170104722Y-58725526D01*
X169865506Y-58597662D01*
X169605940Y-58518924D01*
X169403641Y-58498999D01*
X169336001Y-58492337D01*
X169268361Y-58498999D01*
X143391641Y-58498999D01*
X143324001Y-58492337D01*
X143054061Y-58518924D01*
X142924279Y-58558293D01*
X142794496Y-58597662D01*
X142555280Y-58725526D01*
X142345604Y-58897602D01*
X142302484Y-58950144D01*
X140844142Y-60408487D01*
X140673507Y-60579122D01*
X140480837Y-60617446D01*
X140175643Y-60743862D01*
X140012306Y-60853000D01*
X128323788Y-60853000D01*
X128256148Y-60846338D01*
X127986208Y-60872925D01*
X127806664Y-60927389D01*
X127726643Y-60951663D01*
X127487427Y-61079527D01*
X127277751Y-61251603D01*
X127234633Y-61304143D01*
X124764135Y-63774642D01*
X124711592Y-63817763D01*
X124539516Y-64027439D01*
X124460683Y-64174925D01*
X124411652Y-64266655D01*
X124332914Y-64526220D01*
X124306327Y-64796159D01*
X120319000Y-64796159D01*
X120319000Y-56819000D01*
X220549000Y-56819000D01*
X220549001Y-134443000D01*
G36*
X190943462Y-89288696D02*
G01*
X191037218Y-89464100D01*
X191071327Y-89527913D01*
X191243403Y-89737589D01*
X191295945Y-89780709D01*
X192103086Y-90587850D01*
X192146210Y-90640397D01*
X192355886Y-90812473D01*
X192595102Y-90940337D01*
X192854668Y-91019075D01*
X193056967Y-91039000D01*
X193056969Y-91039000D01*
X193124606Y-91045662D01*
X193192243Y-91039000D01*
X193283548Y-91039000D01*
X193497548Y-91181990D01*
X193809695Y-91311286D01*
X194062127Y-91361498D01*
X194126678Y-91426049D01*
X194169802Y-91478596D01*
X194379478Y-91650672D01*
X194618694Y-91778536D01*
X194878260Y-91857274D01*
X195080559Y-91877199D01*
X195080561Y-91877199D01*
X195148198Y-91883861D01*
X195215835Y-91877199D01*
X195455198Y-91877199D01*
X197946725Y-94368726D01*
X197777170Y-94335000D01*
X197446830Y-94335000D01*
X197122837Y-94399446D01*
X196817643Y-94525862D01*
X196542975Y-94709389D01*
X196309389Y-94942975D01*
X196125862Y-95217643D01*
X195999446Y-95522837D01*
X195935000Y-95846830D01*
X195935000Y-96177170D01*
X195999446Y-96501163D01*
X196125862Y-96806357D01*
X196235000Y-96969694D01*
X196235001Y-103310350D01*
X196228338Y-103378000D01*
X196254925Y-103647939D01*
X196333663Y-103907504D01*
X196410602Y-104051446D01*
X196461528Y-104146721D01*
X196633604Y-104356397D01*
X196686146Y-104399517D01*
X200279122Y-107992494D01*
X200317446Y-108185163D01*
X200443862Y-108490357D01*
X200627389Y-108765025D01*
X200860975Y-108998611D01*
X201135643Y-109182138D01*
X201440837Y-109308554D01*
X201764830Y-109373000D01*
X202095170Y-109373000D01*
X202419163Y-109308554D01*
X202724357Y-109182138D01*
X202999025Y-108998611D01*
X203049636Y-108948000D01*
X203994422Y-108948000D01*
X204043695Y-108974337D01*
X204303261Y-109053075D01*
X204325001Y-109055216D01*
X204325002Y-118003000D01*
X200969636Y-118003000D01*
X200901999Y-117996338D01*
X200834362Y-118003000D01*
X200834360Y-118003000D01*
X200632061Y-118022925D01*
X200372495Y-118101663D01*
X200133279Y-118229527D01*
X199923603Y-118401603D01*
X199880485Y-118454143D01*
X198130146Y-120204483D01*
X198077603Y-120247604D01*
X197905527Y-120457280D01*
X197797938Y-120658565D01*
X197777663Y-120696496D01*
X197698925Y-120956061D01*
X197672338Y-121226000D01*
X197679000Y-121293640D01*
X197679000Y-121950910D01*
X197496136Y-122173733D01*
X197322772Y-122498074D01*
X197216014Y-122850005D01*
X197189000Y-123124286D01*
X197189001Y-125287715D01*
X197216015Y-125561996D01*
X197322773Y-125913927D01*
X197496137Y-126238268D01*
X197679001Y-126461089D01*
X197679001Y-127253640D01*
X197698926Y-127455939D01*
X197777664Y-127715505D01*
X197800000Y-127757293D01*
X197116303Y-128440990D01*
X168666595Y-128440990D01*
X168404806Y-128179201D01*
X175051552Y-128179201D01*
X175119192Y-128185863D01*
X175389131Y-128159276D01*
X175425987Y-128148096D01*
X175648697Y-128080538D01*
X175887913Y-127952674D01*
X176097589Y-127780598D01*
X176140713Y-127728051D01*
X176947850Y-126920914D01*
X177000397Y-126877790D01*
X177172473Y-126668114D01*
X177300337Y-126428898D01*
X177379075Y-126169332D01*
X177399000Y-125967033D01*
X177399000Y-125967031D01*
X177405662Y-125899394D01*
X177399000Y-125831757D01*
X177399000Y-125740452D01*
X177403327Y-125733975D01*
X177721630Y-125733975D01*
X177797838Y-125981844D01*
X178059865Y-126106563D01*
X178341189Y-126177768D01*
X178630999Y-126192719D01*
X178918157Y-126150845D01*
X179191628Y-126053754D01*
X179326162Y-125981844D01*
X179402370Y-125733975D01*
X178562000Y-124893605D01*
X177721630Y-125733975D01*
X177403327Y-125733975D01*
X177526521Y-125549603D01*
X177542025Y-125554370D01*
X178382395Y-124714000D01*
X178368253Y-124699858D01*
X178547858Y-124520253D01*
X178562000Y-124534395D01*
X178576143Y-124520253D01*
X178755748Y-124699858D01*
X178741605Y-124714000D01*
X179581975Y-125554370D01*
X179829844Y-125478162D01*
X179954563Y-125216135D01*
X180025768Y-124934811D01*
X180040719Y-124645001D01*
X179998845Y-124357843D01*
X179901754Y-124084372D01*
X179858152Y-124002799D01*
X181042290Y-124002799D01*
X181139862Y-124238357D01*
X181323389Y-124513025D01*
X181556975Y-124746611D01*
X181831643Y-124930138D01*
X182136837Y-125056554D01*
X182460830Y-125121000D01*
X182791170Y-125121000D01*
X183115163Y-125056554D01*
X183420357Y-124930138D01*
X183583694Y-124821000D01*
X185478306Y-124821000D01*
X185641643Y-124930138D01*
X185946837Y-125056554D01*
X186270830Y-125121000D01*
X186601170Y-125121000D01*
X186925163Y-125056554D01*
X187230357Y-124930138D01*
X187505025Y-124746611D01*
X187738611Y-124513025D01*
X187922138Y-124238357D01*
X188048554Y-123933163D01*
X188113000Y-123609170D01*
X188113000Y-123278830D01*
X188048554Y-122954837D01*
X187922138Y-122649643D01*
X187738611Y-122374975D01*
X187505025Y-122141389D01*
X187230357Y-121957862D01*
X186925163Y-121831446D01*
X186601170Y-121767000D01*
X186270830Y-121767000D01*
X185946837Y-121831446D01*
X185641643Y-121957862D01*
X185478306Y-122067000D01*
X183583694Y-122067000D01*
X183420357Y-121957862D01*
X183115163Y-121831446D01*
X182922493Y-121793122D01*
X182829320Y-121699949D01*
X182786196Y-121647402D01*
X182576520Y-121475326D01*
X182337304Y-121347462D01*
X182077738Y-121268724D01*
X181875439Y-121248799D01*
X181807799Y-121242137D01*
X181740159Y-121248799D01*
X174452444Y-121248799D01*
X174384807Y-121242137D01*
X174317170Y-121248799D01*
X174317168Y-121248799D01*
X174114869Y-121268724D01*
X173855303Y-121347462D01*
X173616087Y-121475326D01*
X173406411Y-121647402D01*
X173363287Y-121699949D01*
X172556146Y-122507090D01*
X172503604Y-122550210D01*
X172331528Y-122759886D01*
X172203663Y-122999102D01*
X172175310Y-123092571D01*
X172117437Y-123061638D01*
X171952122Y-123011490D01*
X171780200Y-122994557D01*
X170714207Y-122994557D01*
X174407860Y-119300905D01*
X174460396Y-119257790D01*
X174632473Y-119048114D01*
X174760337Y-118808898D01*
X174839075Y-118549332D01*
X174846790Y-118471000D01*
X174995548Y-118471000D01*
X175209548Y-118613990D01*
X175521695Y-118743286D01*
X175853068Y-118809200D01*
X176190932Y-118809200D01*
X176522305Y-118743286D01*
X176834452Y-118613990D01*
X177115376Y-118426283D01*
X177292000Y-118249659D01*
X177468624Y-118426283D01*
X177749548Y-118613990D01*
X178061695Y-118743286D01*
X178393068Y-118809200D01*
X178730932Y-118809200D01*
X179062305Y-118743286D01*
X179374452Y-118613990D01*
X179655376Y-118426283D01*
X179894283Y-118187376D01*
X180081990Y-117906452D01*
X180211286Y-117594305D01*
X180277200Y-117262932D01*
X180277200Y-116925068D01*
X180211286Y-116593695D01*
X180081990Y-116281548D01*
X179894283Y-116000624D01*
X179655376Y-115761717D01*
X179627275Y-115742941D01*
X179540397Y-115637079D01*
X179489463Y-115595279D01*
X179451581Y-115549119D01*
X179403814Y-115509918D01*
X174262825Y-110368930D01*
X174270338Y-110354874D01*
X174349076Y-110095308D01*
X174369001Y-109893009D01*
X174369001Y-109893007D01*
X174375663Y-109825370D01*
X174369001Y-109757733D01*
X174369001Y-102207639D01*
X174375663Y-102139999D01*
X174349076Y-101870059D01*
X174293568Y-101687075D01*
X174270338Y-101610494D01*
X174142474Y-101371278D01*
X174122278Y-101346669D01*
X174119300Y-101316432D01*
X174101184Y-101132495D01*
X174029593Y-100896492D01*
X173913336Y-100678991D01*
X173756881Y-100488349D01*
X173709103Y-100449138D01*
X173002158Y-99742193D01*
X172962951Y-99694419D01*
X172772309Y-99537964D01*
X172554808Y-99421707D01*
X172318805Y-99350116D01*
X172134868Y-99332000D01*
X172134866Y-99332000D01*
X172073370Y-99325943D01*
X172057174Y-99327538D01*
X172043636Y-99314000D01*
X172244611Y-99113025D01*
X172426225Y-98841220D01*
X172455506Y-98832338D01*
X172694722Y-98704474D01*
X172904398Y-98532398D01*
X172947522Y-98479851D01*
X175687849Y-95739525D01*
X175740385Y-95696410D01*
X175809381Y-95612339D01*
X175912461Y-95486735D01*
X175912462Y-95486734D01*
X176040326Y-95247518D01*
X176100984Y-95047555D01*
X176119064Y-94987953D01*
X176145651Y-94718013D01*
X176138989Y-94650373D01*
X176138989Y-94410106D01*
X177185447Y-93363649D01*
X177210754Y-93447087D01*
X177330963Y-93701420D01*
X177498481Y-93927414D01*
X177670097Y-94083040D01*
X177492975Y-94201389D01*
X177259389Y-94434975D01*
X177075862Y-94709643D01*
X176949446Y-95014837D01*
X176885000Y-95338830D01*
X176885000Y-95669170D01*
X176949446Y-95993163D01*
X177075862Y-96298357D01*
X177259389Y-96573025D01*
X177492975Y-96806611D01*
X177670097Y-96924960D01*
X177498481Y-97080586D01*
X177330963Y-97306580D01*
X177210754Y-97560913D01*
X177170096Y-97694961D01*
X177292085Y-97917000D01*
X178435000Y-97917000D01*
X178435000Y-97897000D01*
X178689000Y-97897000D01*
X178689000Y-97917000D01*
X179831915Y-97917000D01*
X179947896Y-97705897D01*
X183497853Y-101255855D01*
X183540973Y-101308397D01*
X183750649Y-101480473D01*
X183989865Y-101608337D01*
X184119648Y-101647706D01*
X184249430Y-101687075D01*
X184519370Y-101713662D01*
X184587010Y-101707000D01*
X191767631Y-101707000D01*
X191777377Y-101716747D01*
X191774253Y-101717368D01*
X191459959Y-101847553D01*
X191230309Y-102001000D01*
X183057742Y-102001000D01*
X180714891Y-99658150D01*
X180671767Y-99605603D01*
X180462091Y-99433527D01*
X180222875Y-99305663D01*
X179963309Y-99226925D01*
X179761010Y-99207000D01*
X179693370Y-99200338D01*
X179625730Y-99207000D01*
X179519694Y-99207000D01*
X179453903Y-99163040D01*
X179625519Y-99007414D01*
X179793037Y-98781420D01*
X179913246Y-98527087D01*
X179953904Y-98393039D01*
X179831915Y-98171000D01*
X178689000Y-98171000D01*
X178689000Y-98191000D01*
X178435000Y-98191000D01*
X178435000Y-98171000D01*
X177292085Y-98171000D01*
X177170096Y-98393039D01*
X177210754Y-98527087D01*
X177330963Y-98781420D01*
X177498481Y-99007414D01*
X177670097Y-99163040D01*
X177492975Y-99281389D01*
X177259389Y-99514975D01*
X177075862Y-99789643D01*
X176949446Y-100094837D01*
X176885000Y-100418830D01*
X176885000Y-100749170D01*
X176949446Y-101073163D01*
X177075862Y-101378357D01*
X177259389Y-101653025D01*
X177492975Y-101886611D01*
X177670097Y-102004960D01*
X177498481Y-102160586D01*
X177330963Y-102386580D01*
X177210754Y-102640913D01*
X177170096Y-102774961D01*
X177292085Y-102997000D01*
X178435000Y-102997000D01*
X178435000Y-102977000D01*
X178689000Y-102977000D01*
X178689000Y-102997000D01*
X179831915Y-102997000D01*
X179947896Y-102785897D01*
X181448998Y-104287000D01*
X179519694Y-104287000D01*
X179453903Y-104243040D01*
X179625519Y-104087414D01*
X179793037Y-103861420D01*
X179913246Y-103607087D01*
X179953904Y-103473039D01*
X179831915Y-103251000D01*
X178689000Y-103251000D01*
X178689000Y-103271000D01*
X178435000Y-103271000D01*
X178435000Y-103251000D01*
X177292085Y-103251000D01*
X177170096Y-103473039D01*
X177210754Y-103607087D01*
X177330963Y-103861420D01*
X177498481Y-104087414D01*
X177670097Y-104243040D01*
X177492975Y-104361389D01*
X177259389Y-104594975D01*
X177075862Y-104869643D01*
X176949446Y-105174837D01*
X176885000Y-105498830D01*
X176885000Y-105829170D01*
X176949446Y-106153163D01*
X177075862Y-106458357D01*
X177259389Y-106733025D01*
X177492975Y-106966611D01*
X177670097Y-107084960D01*
X177498481Y-107240586D01*
X177330963Y-107466580D01*
X177210754Y-107720913D01*
X177170096Y-107854961D01*
X177292085Y-108077000D01*
X178435000Y-108077000D01*
X178435000Y-108057000D01*
X178689000Y-108057000D01*
X178689000Y-108077000D01*
X179831915Y-108077000D01*
X179953904Y-107854961D01*
X179913246Y-107720913D01*
X179793037Y-107466580D01*
X179625519Y-107240586D01*
X179453903Y-107084960D01*
X179519694Y-107041000D01*
X190758800Y-107041000D01*
X190725973Y-107081000D01*
X190495636Y-107081000D01*
X190427999Y-107074338D01*
X190360362Y-107081000D01*
X190360360Y-107081000D01*
X190158061Y-107100925D01*
X189898495Y-107179663D01*
X189659279Y-107307527D01*
X189449603Y-107479603D01*
X189406483Y-107532145D01*
X187571629Y-109367000D01*
X180022993Y-109367000D01*
X179985133Y-109320867D01*
X179851592Y-109211273D01*
X179699237Y-109129838D01*
X179661792Y-109118479D01*
X179793037Y-108941420D01*
X179913246Y-108687087D01*
X179953904Y-108553039D01*
X179831915Y-108331000D01*
X178689000Y-108331000D01*
X178689000Y-108351000D01*
X178435000Y-108351000D01*
X178435000Y-108331000D01*
X177292085Y-108331000D01*
X177170096Y-108553039D01*
X177210754Y-108687087D01*
X177330963Y-108941420D01*
X177462208Y-109118479D01*
X177424763Y-109129838D01*
X177272408Y-109211273D01*
X177138867Y-109320867D01*
X177029273Y-109454408D01*
X176947838Y-109606763D01*
X176897690Y-109772078D01*
X176880757Y-109944000D01*
X176880757Y-111544000D01*
X176897690Y-111715922D01*
X176947838Y-111881237D01*
X177029273Y-112033592D01*
X177138867Y-112167133D01*
X177272408Y-112276727D01*
X177424763Y-112358162D01*
X177590078Y-112408310D01*
X177762000Y-112425243D01*
X179362000Y-112425243D01*
X179533922Y-112408310D01*
X179699237Y-112358162D01*
X179851592Y-112276727D01*
X179985133Y-112167133D01*
X180022993Y-112121000D01*
X181417364Y-112121000D01*
X181323389Y-112214975D01*
X181139862Y-112489643D01*
X181013446Y-112794837D01*
X180949000Y-113118830D01*
X180949000Y-113449170D01*
X181013446Y-113773163D01*
X181139862Y-114078357D01*
X181323389Y-114353025D01*
X181556975Y-114586611D01*
X181831643Y-114770138D01*
X182136837Y-114896554D01*
X182460830Y-114961000D01*
X182791170Y-114961000D01*
X183115163Y-114896554D01*
X183420357Y-114770138D01*
X183583694Y-114661000D01*
X185478306Y-114661000D01*
X185641643Y-114770138D01*
X185946837Y-114896554D01*
X186139507Y-114934878D01*
X192655582Y-121450954D01*
X192576408Y-121493273D01*
X192442867Y-121602867D01*
X192333273Y-121736408D01*
X192251838Y-121888763D01*
X192201690Y-122054078D01*
X192184757Y-122226000D01*
X192184757Y-126186000D01*
X192201690Y-126357922D01*
X192251838Y-126523237D01*
X192333273Y-126675592D01*
X192442867Y-126809133D01*
X192576408Y-126918727D01*
X192728763Y-127000162D01*
X192894078Y-127050310D01*
X193066000Y-127067243D01*
X195046000Y-127067243D01*
X195217922Y-127050310D01*
X195383237Y-127000162D01*
X195535592Y-126918727D01*
X195669133Y-126809133D01*
X195778727Y-126675592D01*
X195860162Y-126523237D01*
X195910310Y-126357922D01*
X195927243Y-126186000D01*
X195927243Y-122226000D01*
X195910310Y-122054078D01*
X195860162Y-121888763D01*
X195778727Y-121736408D01*
X195669133Y-121602867D01*
X195535592Y-121493273D01*
X195433000Y-121438437D01*
X195433000Y-120971636D01*
X195439662Y-120903999D01*
X195428297Y-120788613D01*
X195413075Y-120634061D01*
X195334337Y-120374495D01*
X195206473Y-120135279D01*
X195034397Y-119925603D01*
X194981855Y-119882483D01*
X188086878Y-112987507D01*
X188048554Y-112794837D01*
X187922138Y-112489643D01*
X187738611Y-112214975D01*
X187644636Y-112121000D01*
X188074360Y-112121000D01*
X188142000Y-112127662D01*
X188380790Y-112104143D01*
X188411939Y-112101075D01*
X188671505Y-112022337D01*
X188910721Y-111894473D01*
X189120397Y-111722397D01*
X189163521Y-111669850D01*
X190858348Y-109975024D01*
X190938408Y-110040727D01*
X191090763Y-110122162D01*
X191256078Y-110172310D01*
X191428000Y-110189243D01*
X193128000Y-110189243D01*
X193299922Y-110172310D01*
X193465237Y-110122162D01*
X193617592Y-110040727D01*
X193751133Y-109931133D01*
X193860727Y-109797592D01*
X193942162Y-109645237D01*
X193992310Y-109479922D01*
X194009243Y-109308000D01*
X194009243Y-107608000D01*
X193992310Y-107436078D01*
X193942162Y-107270763D01*
X193917338Y-107224320D01*
X194009586Y-107196337D01*
X194248802Y-107068473D01*
X194458478Y-106896397D01*
X194501602Y-106843850D01*
X195303851Y-106041601D01*
X195356398Y-105998477D01*
X195528474Y-105788801D01*
X195656338Y-105549585D01*
X195733594Y-105294904D01*
X195735076Y-105290020D01*
X195753796Y-105099959D01*
X195755001Y-105087720D01*
X195761663Y-105020080D01*
X195755001Y-104952440D01*
X195755001Y-102437635D01*
X195761663Y-102369998D01*
X195752513Y-102277102D01*
X195735076Y-102100060D01*
X195656338Y-101840494D01*
X195528474Y-101601278D01*
X195356397Y-101391602D01*
X195303861Y-101348487D01*
X193359523Y-99404150D01*
X193316399Y-99351603D01*
X193106723Y-99179527D01*
X192867507Y-99051663D01*
X192607941Y-98972925D01*
X192405642Y-98953000D01*
X192338002Y-98946338D01*
X192270362Y-98953000D01*
X189492373Y-98953000D01*
X190427856Y-98017518D01*
X190480398Y-97974398D01*
X190652474Y-97764722D01*
X190780338Y-97525506D01*
X190850783Y-97293279D01*
X190859076Y-97265941D01*
X190885631Y-96996326D01*
X190885663Y-96996002D01*
X190885111Y-96990396D01*
X190879001Y-96928361D01*
X190879001Y-89076196D01*
X190943462Y-89288696D01*
G37*
X190943462Y-89288696D02*
X191037218Y-89464100D01*
X191071327Y-89527913D01*
X191243403Y-89737589D01*
X191295945Y-89780709D01*
X192103086Y-90587850D01*
X192146210Y-90640397D01*
X192355886Y-90812473D01*
X192595102Y-90940337D01*
X192854668Y-91019075D01*
X193056967Y-91039000D01*
X193056969Y-91039000D01*
X193124606Y-91045662D01*
X193192243Y-91039000D01*
X193283548Y-91039000D01*
X193497548Y-91181990D01*
X193809695Y-91311286D01*
X194062127Y-91361498D01*
X194126678Y-91426049D01*
X194169802Y-91478596D01*
X194379478Y-91650672D01*
X194618694Y-91778536D01*
X194878260Y-91857274D01*
X195080559Y-91877199D01*
X195080561Y-91877199D01*
X195148198Y-91883861D01*
X195215835Y-91877199D01*
X195455198Y-91877199D01*
X197946725Y-94368726D01*
X197777170Y-94335000D01*
X197446830Y-94335000D01*
X197122837Y-94399446D01*
X196817643Y-94525862D01*
X196542975Y-94709389D01*
X196309389Y-94942975D01*
X196125862Y-95217643D01*
X195999446Y-95522837D01*
X195935000Y-95846830D01*
X195935000Y-96177170D01*
X195999446Y-96501163D01*
X196125862Y-96806357D01*
X196235000Y-96969694D01*
X196235001Y-103310350D01*
X196228338Y-103378000D01*
X196254925Y-103647939D01*
X196333663Y-103907504D01*
X196410602Y-104051446D01*
X196461528Y-104146721D01*
X196633604Y-104356397D01*
X196686146Y-104399517D01*
X200279122Y-107992494D01*
X200317446Y-108185163D01*
X200443862Y-108490357D01*
X200627389Y-108765025D01*
X200860975Y-108998611D01*
X201135643Y-109182138D01*
X201440837Y-109308554D01*
X201764830Y-109373000D01*
X202095170Y-109373000D01*
X202419163Y-109308554D01*
X202724357Y-109182138D01*
X202999025Y-108998611D01*
X203049636Y-108948000D01*
X203994422Y-108948000D01*
X204043695Y-108974337D01*
X204303261Y-109053075D01*
X204325001Y-109055216D01*
X204325002Y-118003000D01*
X200969636Y-118003000D01*
X200901999Y-117996338D01*
X200834362Y-118003000D01*
X200834360Y-118003000D01*
X200632061Y-118022925D01*
X200372495Y-118101663D01*
X200133279Y-118229527D01*
X199923603Y-118401603D01*
X199880485Y-118454143D01*
X198130146Y-120204483D01*
X198077603Y-120247604D01*
X197905527Y-120457280D01*
X197797938Y-120658565D01*
X197777663Y-120696496D01*
X197698925Y-120956061D01*
X197672338Y-121226000D01*
X197679000Y-121293640D01*
X197679000Y-121950910D01*
X197496136Y-122173733D01*
X197322772Y-122498074D01*
X197216014Y-122850005D01*
X197189000Y-123124286D01*
X197189001Y-125287715D01*
X197216015Y-125561996D01*
X197322773Y-125913927D01*
X197496137Y-126238268D01*
X197679001Y-126461089D01*
X197679001Y-127253640D01*
X197698926Y-127455939D01*
X197777664Y-127715505D01*
X197800000Y-127757293D01*
X197116303Y-128440990D01*
X168666595Y-128440990D01*
X168404806Y-128179201D01*
X175051552Y-128179201D01*
X175119192Y-128185863D01*
X175389131Y-128159276D01*
X175425987Y-128148096D01*
X175648697Y-128080538D01*
X175887913Y-127952674D01*
X176097589Y-127780598D01*
X176140713Y-127728051D01*
X176947850Y-126920914D01*
X177000397Y-126877790D01*
X177172473Y-126668114D01*
X177300337Y-126428898D01*
X177379075Y-126169332D01*
X177399000Y-125967033D01*
X177399000Y-125967031D01*
X177405662Y-125899394D01*
X177399000Y-125831757D01*
X177399000Y-125740452D01*
X177403327Y-125733975D01*
X177721630Y-125733975D01*
X177797838Y-125981844D01*
X178059865Y-126106563D01*
X178341189Y-126177768D01*
X178630999Y-126192719D01*
X178918157Y-126150845D01*
X179191628Y-126053754D01*
X179326162Y-125981844D01*
X179402370Y-125733975D01*
X178562000Y-124893605D01*
X177721630Y-125733975D01*
X177403327Y-125733975D01*
X177526521Y-125549603D01*
X177542025Y-125554370D01*
X178382395Y-124714000D01*
X178368253Y-124699858D01*
X178547858Y-124520253D01*
X178562000Y-124534395D01*
X178576143Y-124520253D01*
X178755748Y-124699858D01*
X178741605Y-124714000D01*
X179581975Y-125554370D01*
X179829844Y-125478162D01*
X179954563Y-125216135D01*
X180025768Y-124934811D01*
X180040719Y-124645001D01*
X179998845Y-124357843D01*
X179901754Y-124084372D01*
X179858152Y-124002799D01*
X181042290Y-124002799D01*
X181139862Y-124238357D01*
X181323389Y-124513025D01*
X181556975Y-124746611D01*
X181831643Y-124930138D01*
X182136837Y-125056554D01*
X182460830Y-125121000D01*
X182791170Y-125121000D01*
X183115163Y-125056554D01*
X183420357Y-124930138D01*
X183583694Y-124821000D01*
X185478306Y-124821000D01*
X185641643Y-124930138D01*
X185946837Y-125056554D01*
X186270830Y-125121000D01*
X186601170Y-125121000D01*
X186925163Y-125056554D01*
X187230357Y-124930138D01*
X187505025Y-124746611D01*
X187738611Y-124513025D01*
X187922138Y-124238357D01*
X188048554Y-123933163D01*
X188113000Y-123609170D01*
X188113000Y-123278830D01*
X188048554Y-122954837D01*
X187922138Y-122649643D01*
X187738611Y-122374975D01*
X187505025Y-122141389D01*
X187230357Y-121957862D01*
X186925163Y-121831446D01*
X186601170Y-121767000D01*
X186270830Y-121767000D01*
X185946837Y-121831446D01*
X185641643Y-121957862D01*
X185478306Y-122067000D01*
X183583694Y-122067000D01*
X183420357Y-121957862D01*
X183115163Y-121831446D01*
X182922493Y-121793122D01*
X182829320Y-121699949D01*
X182786196Y-121647402D01*
X182576520Y-121475326D01*
X182337304Y-121347462D01*
X182077738Y-121268724D01*
X181875439Y-121248799D01*
X181807799Y-121242137D01*
X181740159Y-121248799D01*
X174452444Y-121248799D01*
X174384807Y-121242137D01*
X174317170Y-121248799D01*
X174317168Y-121248799D01*
X174114869Y-121268724D01*
X173855303Y-121347462D01*
X173616087Y-121475326D01*
X173406411Y-121647402D01*
X173363287Y-121699949D01*
X172556146Y-122507090D01*
X172503604Y-122550210D01*
X172331528Y-122759886D01*
X172203663Y-122999102D01*
X172175310Y-123092571D01*
X172117437Y-123061638D01*
X171952122Y-123011490D01*
X171780200Y-122994557D01*
X170714207Y-122994557D01*
X174407860Y-119300905D01*
X174460396Y-119257790D01*
X174632473Y-119048114D01*
X174760337Y-118808898D01*
X174839075Y-118549332D01*
X174846790Y-118471000D01*
X174995548Y-118471000D01*
X175209548Y-118613990D01*
X175521695Y-118743286D01*
X175853068Y-118809200D01*
X176190932Y-118809200D01*
X176522305Y-118743286D01*
X176834452Y-118613990D01*
X177115376Y-118426283D01*
X177292000Y-118249659D01*
X177468624Y-118426283D01*
X177749548Y-118613990D01*
X178061695Y-118743286D01*
X178393068Y-118809200D01*
X178730932Y-118809200D01*
X179062305Y-118743286D01*
X179374452Y-118613990D01*
X179655376Y-118426283D01*
X179894283Y-118187376D01*
X180081990Y-117906452D01*
X180211286Y-117594305D01*
X180277200Y-117262932D01*
X180277200Y-116925068D01*
X180211286Y-116593695D01*
X180081990Y-116281548D01*
X179894283Y-116000624D01*
X179655376Y-115761717D01*
X179627275Y-115742941D01*
X179540397Y-115637079D01*
X179489463Y-115595279D01*
X179451581Y-115549119D01*
X179403814Y-115509918D01*
X174262825Y-110368930D01*
X174270338Y-110354874D01*
X174349076Y-110095308D01*
X174369001Y-109893009D01*
X174369001Y-109893007D01*
X174375663Y-109825370D01*
X174369001Y-109757733D01*
X174369001Y-102207639D01*
X174375663Y-102139999D01*
X174349076Y-101870059D01*
X174293568Y-101687075D01*
X174270338Y-101610494D01*
X174142474Y-101371278D01*
X174122278Y-101346669D01*
X174119300Y-101316432D01*
X174101184Y-101132495D01*
X174029593Y-100896492D01*
X173913336Y-100678991D01*
X173756881Y-100488349D01*
X173709103Y-100449138D01*
X173002158Y-99742193D01*
X172962951Y-99694419D01*
X172772309Y-99537964D01*
X172554808Y-99421707D01*
X172318805Y-99350116D01*
X172134868Y-99332000D01*
X172134866Y-99332000D01*
X172073370Y-99325943D01*
X172057174Y-99327538D01*
X172043636Y-99314000D01*
X172244611Y-99113025D01*
X172426225Y-98841220D01*
X172455506Y-98832338D01*
X172694722Y-98704474D01*
X172904398Y-98532398D01*
X172947522Y-98479851D01*
X175687849Y-95739525D01*
X175740385Y-95696410D01*
X175809381Y-95612339D01*
X175912461Y-95486735D01*
X175912462Y-95486734D01*
X176040326Y-95247518D01*
X176100984Y-95047555D01*
X176119064Y-94987953D01*
X176145651Y-94718013D01*
X176138989Y-94650373D01*
X176138989Y-94410106D01*
X177185447Y-93363649D01*
X177210754Y-93447087D01*
X177330963Y-93701420D01*
X177498481Y-93927414D01*
X177670097Y-94083040D01*
X177492975Y-94201389D01*
X177259389Y-94434975D01*
X177075862Y-94709643D01*
X176949446Y-95014837D01*
X176885000Y-95338830D01*
X176885000Y-95669170D01*
X176949446Y-95993163D01*
X177075862Y-96298357D01*
X177259389Y-96573025D01*
X177492975Y-96806611D01*
X177670097Y-96924960D01*
X177498481Y-97080586D01*
X177330963Y-97306580D01*
X177210754Y-97560913D01*
X177170096Y-97694961D01*
X177292085Y-97917000D01*
X178435000Y-97917000D01*
X178435000Y-97897000D01*
X178689000Y-97897000D01*
X178689000Y-97917000D01*
X179831915Y-97917000D01*
X179947896Y-97705897D01*
X183497853Y-101255855D01*
X183540973Y-101308397D01*
X183750649Y-101480473D01*
X183989865Y-101608337D01*
X184119648Y-101647706D01*
X184249430Y-101687075D01*
X184519370Y-101713662D01*
X184587010Y-101707000D01*
X191767631Y-101707000D01*
X191777377Y-101716747D01*
X191774253Y-101717368D01*
X191459959Y-101847553D01*
X191230309Y-102001000D01*
X183057742Y-102001000D01*
X180714891Y-99658150D01*
X180671767Y-99605603D01*
X180462091Y-99433527D01*
X180222875Y-99305663D01*
X179963309Y-99226925D01*
X179761010Y-99207000D01*
X179693370Y-99200338D01*
X179625730Y-99207000D01*
X179519694Y-99207000D01*
X179453903Y-99163040D01*
X179625519Y-99007414D01*
X179793037Y-98781420D01*
X179913246Y-98527087D01*
X179953904Y-98393039D01*
X179831915Y-98171000D01*
X178689000Y-98171000D01*
X178689000Y-98191000D01*
X178435000Y-98191000D01*
X178435000Y-98171000D01*
X177292085Y-98171000D01*
X177170096Y-98393039D01*
X177210754Y-98527087D01*
X177330963Y-98781420D01*
X177498481Y-99007414D01*
X177670097Y-99163040D01*
X177492975Y-99281389D01*
X177259389Y-99514975D01*
X177075862Y-99789643D01*
X176949446Y-100094837D01*
X176885000Y-100418830D01*
X176885000Y-100749170D01*
X176949446Y-101073163D01*
X177075862Y-101378357D01*
X177259389Y-101653025D01*
X177492975Y-101886611D01*
X177670097Y-102004960D01*
X177498481Y-102160586D01*
X177330963Y-102386580D01*
X177210754Y-102640913D01*
X177170096Y-102774961D01*
X177292085Y-102997000D01*
X178435000Y-102997000D01*
X178435000Y-102977000D01*
X178689000Y-102977000D01*
X178689000Y-102997000D01*
X179831915Y-102997000D01*
X179947896Y-102785897D01*
X181448998Y-104287000D01*
X179519694Y-104287000D01*
X179453903Y-104243040D01*
X179625519Y-104087414D01*
X179793037Y-103861420D01*
X179913246Y-103607087D01*
X179953904Y-103473039D01*
X179831915Y-103251000D01*
X178689000Y-103251000D01*
X178689000Y-103271000D01*
X178435000Y-103271000D01*
X178435000Y-103251000D01*
X177292085Y-103251000D01*
X177170096Y-103473039D01*
X177210754Y-103607087D01*
X177330963Y-103861420D01*
X177498481Y-104087414D01*
X177670097Y-104243040D01*
X177492975Y-104361389D01*
X177259389Y-104594975D01*
X177075862Y-104869643D01*
X176949446Y-105174837D01*
X176885000Y-105498830D01*
X176885000Y-105829170D01*
X176949446Y-106153163D01*
X177075862Y-106458357D01*
X177259389Y-106733025D01*
X177492975Y-106966611D01*
X177670097Y-107084960D01*
X177498481Y-107240586D01*
X177330963Y-107466580D01*
X177210754Y-107720913D01*
X177170096Y-107854961D01*
X177292085Y-108077000D01*
X178435000Y-108077000D01*
X178435000Y-108057000D01*
X178689000Y-108057000D01*
X178689000Y-108077000D01*
X179831915Y-108077000D01*
X179953904Y-107854961D01*
X179913246Y-107720913D01*
X179793037Y-107466580D01*
X179625519Y-107240586D01*
X179453903Y-107084960D01*
X179519694Y-107041000D01*
X190758800Y-107041000D01*
X190725973Y-107081000D01*
X190495636Y-107081000D01*
X190427999Y-107074338D01*
X190360362Y-107081000D01*
X190360360Y-107081000D01*
X190158061Y-107100925D01*
X189898495Y-107179663D01*
X189659279Y-107307527D01*
X189449603Y-107479603D01*
X189406483Y-107532145D01*
X187571629Y-109367000D01*
X180022993Y-109367000D01*
X179985133Y-109320867D01*
X179851592Y-109211273D01*
X179699237Y-109129838D01*
X179661792Y-109118479D01*
X179793037Y-108941420D01*
X179913246Y-108687087D01*
X179953904Y-108553039D01*
X179831915Y-108331000D01*
X178689000Y-108331000D01*
X178689000Y-108351000D01*
X178435000Y-108351000D01*
X178435000Y-108331000D01*
X177292085Y-108331000D01*
X177170096Y-108553039D01*
X177210754Y-108687087D01*
X177330963Y-108941420D01*
X177462208Y-109118479D01*
X177424763Y-109129838D01*
X177272408Y-109211273D01*
X177138867Y-109320867D01*
X177029273Y-109454408D01*
X176947838Y-109606763D01*
X176897690Y-109772078D01*
X176880757Y-109944000D01*
X176880757Y-111544000D01*
X176897690Y-111715922D01*
X176947838Y-111881237D01*
X177029273Y-112033592D01*
X177138867Y-112167133D01*
X177272408Y-112276727D01*
X177424763Y-112358162D01*
X177590078Y-112408310D01*
X177762000Y-112425243D01*
X179362000Y-112425243D01*
X179533922Y-112408310D01*
X179699237Y-112358162D01*
X179851592Y-112276727D01*
X179985133Y-112167133D01*
X180022993Y-112121000D01*
X181417364Y-112121000D01*
X181323389Y-112214975D01*
X181139862Y-112489643D01*
X181013446Y-112794837D01*
X180949000Y-113118830D01*
X180949000Y-113449170D01*
X181013446Y-113773163D01*
X181139862Y-114078357D01*
X181323389Y-114353025D01*
X181556975Y-114586611D01*
X181831643Y-114770138D01*
X182136837Y-114896554D01*
X182460830Y-114961000D01*
X182791170Y-114961000D01*
X183115163Y-114896554D01*
X183420357Y-114770138D01*
X183583694Y-114661000D01*
X185478306Y-114661000D01*
X185641643Y-114770138D01*
X185946837Y-114896554D01*
X186139507Y-114934878D01*
X192655582Y-121450954D01*
X192576408Y-121493273D01*
X192442867Y-121602867D01*
X192333273Y-121736408D01*
X192251838Y-121888763D01*
X192201690Y-122054078D01*
X192184757Y-122226000D01*
X192184757Y-126186000D01*
X192201690Y-126357922D01*
X192251838Y-126523237D01*
X192333273Y-126675592D01*
X192442867Y-126809133D01*
X192576408Y-126918727D01*
X192728763Y-127000162D01*
X192894078Y-127050310D01*
X193066000Y-127067243D01*
X195046000Y-127067243D01*
X195217922Y-127050310D01*
X195383237Y-127000162D01*
X195535592Y-126918727D01*
X195669133Y-126809133D01*
X195778727Y-126675592D01*
X195860162Y-126523237D01*
X195910310Y-126357922D01*
X195927243Y-126186000D01*
X195927243Y-122226000D01*
X195910310Y-122054078D01*
X195860162Y-121888763D01*
X195778727Y-121736408D01*
X195669133Y-121602867D01*
X195535592Y-121493273D01*
X195433000Y-121438437D01*
X195433000Y-120971636D01*
X195439662Y-120903999D01*
X195428297Y-120788613D01*
X195413075Y-120634061D01*
X195334337Y-120374495D01*
X195206473Y-120135279D01*
X195034397Y-119925603D01*
X194981855Y-119882483D01*
X188086878Y-112987507D01*
X188048554Y-112794837D01*
X187922138Y-112489643D01*
X187738611Y-112214975D01*
X187644636Y-112121000D01*
X188074360Y-112121000D01*
X188142000Y-112127662D01*
X188380790Y-112104143D01*
X188411939Y-112101075D01*
X188671505Y-112022337D01*
X188910721Y-111894473D01*
X189120397Y-111722397D01*
X189163521Y-111669850D01*
X190858348Y-109975024D01*
X190938408Y-110040727D01*
X191090763Y-110122162D01*
X191256078Y-110172310D01*
X191428000Y-110189243D01*
X193128000Y-110189243D01*
X193299922Y-110172310D01*
X193465237Y-110122162D01*
X193617592Y-110040727D01*
X193751133Y-109931133D01*
X193860727Y-109797592D01*
X193942162Y-109645237D01*
X193992310Y-109479922D01*
X194009243Y-109308000D01*
X194009243Y-107608000D01*
X193992310Y-107436078D01*
X193942162Y-107270763D01*
X193917338Y-107224320D01*
X194009586Y-107196337D01*
X194248802Y-107068473D01*
X194458478Y-106896397D01*
X194501602Y-106843850D01*
X195303851Y-106041601D01*
X195356398Y-105998477D01*
X195528474Y-105788801D01*
X195656338Y-105549585D01*
X195733594Y-105294904D01*
X195735076Y-105290020D01*
X195753796Y-105099959D01*
X195755001Y-105087720D01*
X195761663Y-105020080D01*
X195755001Y-104952440D01*
X195755001Y-102437635D01*
X195761663Y-102369998D01*
X195752513Y-102277102D01*
X195735076Y-102100060D01*
X195656338Y-101840494D01*
X195528474Y-101601278D01*
X195356397Y-101391602D01*
X195303861Y-101348487D01*
X193359523Y-99404150D01*
X193316399Y-99351603D01*
X193106723Y-99179527D01*
X192867507Y-99051663D01*
X192607941Y-98972925D01*
X192405642Y-98953000D01*
X192338002Y-98946338D01*
X192270362Y-98953000D01*
X189492373Y-98953000D01*
X190427856Y-98017518D01*
X190480398Y-97974398D01*
X190652474Y-97764722D01*
X190780338Y-97525506D01*
X190850783Y-97293279D01*
X190859076Y-97265941D01*
X190885631Y-96996326D01*
X190885663Y-96996002D01*
X190885111Y-96990396D01*
X190879001Y-96928361D01*
X190879001Y-89076196D01*
X190943462Y-89288696D01*
G36*
X169426477Y-104049850D02*
G01*
X169469601Y-104102397D01*
X169679277Y-104274473D01*
X169702713Y-104287000D01*
X167193104Y-104287000D01*
X167125464Y-104280338D01*
X166855524Y-104306925D01*
X166725742Y-104346294D01*
X166595959Y-104385663D01*
X166356743Y-104513527D01*
X166147067Y-104685603D01*
X166103943Y-104738150D01*
X165426145Y-105415948D01*
X165373602Y-105459069D01*
X165201526Y-105668745D01*
X165104450Y-105850361D01*
X165073662Y-105907961D01*
X164994924Y-106167526D01*
X164968337Y-106437465D01*
X164974999Y-106505105D01*
X164975000Y-110195794D01*
X164968337Y-110263443D01*
X164994924Y-110533382D01*
X165073662Y-110792947D01*
X165194761Y-111019505D01*
X165201527Y-111032164D01*
X165373603Y-111241840D01*
X165426144Y-111284959D01*
X166789001Y-112647817D01*
X166789002Y-115158403D01*
X165593305Y-116354100D01*
X164072827Y-116354100D01*
X164085641Y-116336920D01*
X164210825Y-116074099D01*
X164255476Y-115926890D01*
X164134155Y-115697000D01*
X162941000Y-115697000D01*
X162941000Y-115717000D01*
X162687000Y-115717000D01*
X162687000Y-115697000D01*
X161493845Y-115697000D01*
X161372524Y-115926890D01*
X161417175Y-116074099D01*
X161542359Y-116336920D01*
X161555173Y-116354100D01*
X158125676Y-116354100D01*
X158076403Y-116327763D01*
X157816839Y-116249026D01*
X157546899Y-116222438D01*
X157276960Y-116249026D01*
X157017395Y-116327763D01*
X156778178Y-116455628D01*
X156621042Y-116584586D01*
X152815619Y-120390010D01*
X133353380Y-120390010D01*
X132397057Y-119433687D01*
X132430130Y-119428787D01*
X132696292Y-119333603D01*
X132821514Y-119266671D01*
X132893097Y-119022702D01*
X132080000Y-118209605D01*
X132065858Y-118223748D01*
X131886253Y-118044143D01*
X131900395Y-118030000D01*
X132259605Y-118030000D01*
X133072702Y-118843097D01*
X133316671Y-118771514D01*
X133437571Y-118516004D01*
X133506300Y-118241816D01*
X133520217Y-117959488D01*
X133478787Y-117679870D01*
X133383603Y-117413708D01*
X133316671Y-117288486D01*
X133072702Y-117216903D01*
X132259605Y-118030000D01*
X131900395Y-118030000D01*
X131886253Y-118015858D01*
X132065858Y-117836253D01*
X132080000Y-117850395D01*
X132893097Y-117037298D01*
X132821514Y-116793329D01*
X132566004Y-116672429D01*
X132291816Y-116603700D01*
X132009488Y-116589783D01*
X131729870Y-116631213D01*
X131463708Y-116726397D01*
X131406999Y-116756708D01*
X131406999Y-114711243D01*
X132880000Y-114711243D01*
X133051922Y-114694310D01*
X133217237Y-114644162D01*
X133369592Y-114562727D01*
X133503133Y-114453133D01*
X133612727Y-114319592D01*
X133694162Y-114167237D01*
X133744310Y-114001922D01*
X133761243Y-113830000D01*
X133761243Y-113296128D01*
X134783860Y-112273512D01*
X134836396Y-112230397D01*
X134915895Y-112133528D01*
X134977815Y-112058078D01*
X135008473Y-112020721D01*
X135136337Y-111781505D01*
X135181209Y-111633581D01*
X135215075Y-111521940D01*
X135241662Y-111252000D01*
X135235000Y-111184360D01*
X135235000Y-106164659D01*
X135304624Y-106234283D01*
X135585548Y-106421990D01*
X135897695Y-106551286D01*
X136229068Y-106617200D01*
X136566932Y-106617200D01*
X136898305Y-106551286D01*
X137210452Y-106421990D01*
X137491376Y-106234283D01*
X137730283Y-105995376D01*
X137779327Y-105921975D01*
X138097630Y-105921975D01*
X138173838Y-106169844D01*
X138435865Y-106294563D01*
X138717189Y-106365768D01*
X139006999Y-106380719D01*
X139294157Y-106338845D01*
X139567628Y-106241754D01*
X139702162Y-106169844D01*
X139778370Y-105921975D01*
X138938000Y-105081605D01*
X138097630Y-105921975D01*
X137779327Y-105921975D01*
X137902521Y-105737603D01*
X137918025Y-105742370D01*
X138758395Y-104902000D01*
X138744253Y-104887858D01*
X138923858Y-104708253D01*
X138938000Y-104722395D01*
X138952143Y-104708253D01*
X139131748Y-104887858D01*
X139117605Y-104902000D01*
X139957975Y-105742370D01*
X139973479Y-105737603D01*
X140101000Y-105928452D01*
X140101001Y-113076757D01*
X139612000Y-113076757D01*
X139440078Y-113093690D01*
X139274763Y-113143838D01*
X139122408Y-113225273D01*
X138988867Y-113334867D01*
X138879273Y-113468408D01*
X138797838Y-113620763D01*
X138747690Y-113786078D01*
X138730757Y-113958000D01*
X138730757Y-115658000D01*
X138747690Y-115829922D01*
X138797838Y-115995237D01*
X138879273Y-116147592D01*
X138988867Y-116281133D01*
X139122408Y-116390727D01*
X139274763Y-116472162D01*
X139440078Y-116522310D01*
X139612000Y-116539243D01*
X141312000Y-116539243D01*
X141483922Y-116522310D01*
X141649237Y-116472162D01*
X141801592Y-116390727D01*
X141935133Y-116281133D01*
X142044727Y-116147592D01*
X142126162Y-115995237D01*
X142176310Y-115829922D01*
X142193243Y-115658000D01*
X142193243Y-115024129D01*
X142403855Y-114813517D01*
X142456397Y-114770397D01*
X142628473Y-114560721D01*
X142641001Y-114537283D01*
X142641001Y-116264350D01*
X142634338Y-116332000D01*
X142660925Y-116601939D01*
X142739663Y-116861504D01*
X142834801Y-117039494D01*
X142867528Y-117100721D01*
X143039604Y-117310397D01*
X143048757Y-117317909D01*
X143048757Y-117944000D01*
X143065690Y-118115922D01*
X143115838Y-118281237D01*
X143197273Y-118433592D01*
X143306867Y-118567133D01*
X143440408Y-118676727D01*
X143592763Y-118758162D01*
X143758078Y-118808310D01*
X143930000Y-118825243D01*
X145630000Y-118825243D01*
X145801922Y-118808310D01*
X145967237Y-118758162D01*
X146119592Y-118676727D01*
X146253133Y-118567133D01*
X146362727Y-118433592D01*
X146444162Y-118281237D01*
X146494310Y-118115922D01*
X146511243Y-117944000D01*
X146511243Y-116244000D01*
X146494310Y-116072078D01*
X146444162Y-115906763D01*
X146362727Y-115754408D01*
X146253133Y-115620867D01*
X146119592Y-115511273D01*
X145967237Y-115429838D01*
X145801922Y-115379690D01*
X145630000Y-115362757D01*
X145395000Y-115362757D01*
X145395000Y-113633039D01*
X146690096Y-113633039D01*
X146730754Y-113767087D01*
X146850963Y-114021420D01*
X147018481Y-114247414D01*
X147226869Y-114436385D01*
X147468119Y-114581070D01*
X147732960Y-114675909D01*
X147955000Y-114554624D01*
X147955000Y-113411000D01*
X148209000Y-113411000D01*
X148209000Y-114554624D01*
X148431040Y-114675909D01*
X148695881Y-114581070D01*
X148937131Y-114436385D01*
X149145519Y-114247414D01*
X149313037Y-114021420D01*
X149433246Y-113767087D01*
X149473904Y-113633039D01*
X149351915Y-113411000D01*
X148209000Y-113411000D01*
X147955000Y-113411000D01*
X146812085Y-113411000D01*
X146690096Y-113633039D01*
X145395000Y-113633039D01*
X145395000Y-112934961D01*
X146690096Y-112934961D01*
X146812085Y-113157000D01*
X147955000Y-113157000D01*
X147955000Y-112013376D01*
X148209000Y-112013376D01*
X148209000Y-113157000D01*
X149351915Y-113157000D01*
X149473904Y-112934961D01*
X149433246Y-112800913D01*
X149313037Y-112546580D01*
X149145519Y-112320586D01*
X148937131Y-112131615D01*
X148695881Y-111986930D01*
X148431040Y-111892091D01*
X148209000Y-112013376D01*
X147955000Y-112013376D01*
X147732960Y-111892091D01*
X147468119Y-111986930D01*
X147226869Y-112131615D01*
X147018481Y-112320586D01*
X146850963Y-112546580D01*
X146730754Y-112800913D01*
X146690096Y-112934961D01*
X145395000Y-112934961D01*
X145395000Y-106832676D01*
X145407528Y-106856114D01*
X145579604Y-107065790D01*
X145632146Y-107108910D01*
X149431090Y-110907855D01*
X149474210Y-110960397D01*
X149683886Y-111132473D01*
X149777375Y-111182444D01*
X149923102Y-111260337D01*
X150182667Y-111339075D01*
X150452606Y-111365662D01*
X150520246Y-111359000D01*
X155142302Y-111359000D01*
X155199537Y-111397243D01*
X155490172Y-111517628D01*
X155798709Y-111579000D01*
X156113291Y-111579000D01*
X156421828Y-111517628D01*
X156712463Y-111397243D01*
X156865001Y-111295321D01*
X156865001Y-112084981D01*
X156865000Y-112084991D01*
X156865000Y-112326306D01*
X156755862Y-112489643D01*
X156629446Y-112794837D01*
X156565000Y-113118830D01*
X156565000Y-113449170D01*
X156629446Y-113773163D01*
X156755862Y-114078357D01*
X156939389Y-114353025D01*
X157172975Y-114586611D01*
X157447643Y-114770138D01*
X157752837Y-114896554D01*
X158076830Y-114961000D01*
X158407170Y-114961000D01*
X158731163Y-114896554D01*
X159036357Y-114770138D01*
X159311025Y-114586611D01*
X159544611Y-114353025D01*
X159728138Y-114078357D01*
X159854554Y-113773163D01*
X159919000Y-113449170D01*
X159919000Y-113386890D01*
X161372524Y-113386890D01*
X161417175Y-113534099D01*
X161542359Y-113796920D01*
X161716412Y-114030269D01*
X161932645Y-114225178D01*
X162058255Y-114300000D01*
X161932645Y-114374822D01*
X161716412Y-114569731D01*
X161542359Y-114803080D01*
X161417175Y-115065901D01*
X161372524Y-115213110D01*
X161493845Y-115443000D01*
X162687000Y-115443000D01*
X162687000Y-113157000D01*
X162941000Y-113157000D01*
X162941000Y-115443000D01*
X164134155Y-115443000D01*
X164255476Y-115213110D01*
X164210825Y-115065901D01*
X164085641Y-114803080D01*
X163911588Y-114569731D01*
X163695355Y-114374822D01*
X163569745Y-114300000D01*
X163695355Y-114225178D01*
X163911588Y-114030269D01*
X164085641Y-113796920D01*
X164210825Y-113534099D01*
X164255476Y-113386890D01*
X164134155Y-113157000D01*
X162941000Y-113157000D01*
X162687000Y-113157000D01*
X161493845Y-113157000D01*
X161372524Y-113386890D01*
X159919000Y-113386890D01*
X159919000Y-113118830D01*
X159854554Y-112794837D01*
X159728138Y-112489643D01*
X159619000Y-112326306D01*
X159619000Y-109640000D01*
X161082757Y-109640000D01*
X161082757Y-111340000D01*
X161099690Y-111511922D01*
X161149838Y-111677237D01*
X161231273Y-111829592D01*
X161340867Y-111963133D01*
X161474408Y-112072727D01*
X161624502Y-112152953D01*
X161542359Y-112263080D01*
X161417175Y-112525901D01*
X161372524Y-112673110D01*
X161493845Y-112903000D01*
X162687000Y-112903000D01*
X162687000Y-112883000D01*
X162941000Y-112883000D01*
X162941000Y-112903000D01*
X164134155Y-112903000D01*
X164255476Y-112673110D01*
X164210825Y-112525901D01*
X164085641Y-112263080D01*
X164003498Y-112152953D01*
X164153592Y-112072727D01*
X164287133Y-111963133D01*
X164396727Y-111829592D01*
X164478162Y-111677237D01*
X164528310Y-111511922D01*
X164545243Y-111340000D01*
X164545243Y-109640000D01*
X164528310Y-109468078D01*
X164478162Y-109302763D01*
X164396727Y-109150408D01*
X164287133Y-109016867D01*
X164191000Y-108937973D01*
X164191000Y-106875694D01*
X164300138Y-106712357D01*
X164426554Y-106407163D01*
X164491000Y-106083170D01*
X164491000Y-105752830D01*
X164426554Y-105428837D01*
X164300138Y-105123643D01*
X164116611Y-104848975D01*
X163883025Y-104615389D01*
X163608357Y-104431862D01*
X163303163Y-104305446D01*
X162979170Y-104241000D01*
X162648830Y-104241000D01*
X162324837Y-104305446D01*
X162019643Y-104431862D01*
X161744975Y-104615389D01*
X161511389Y-104848975D01*
X161327862Y-105123643D01*
X161201446Y-105428837D01*
X161137000Y-105752830D01*
X161137000Y-106083170D01*
X161201446Y-106407163D01*
X161327862Y-106712357D01*
X161437000Y-106875694D01*
X161437001Y-108937972D01*
X161340867Y-109016867D01*
X161231273Y-109150408D01*
X161149838Y-109302763D01*
X161099690Y-109468078D01*
X161082757Y-109640000D01*
X159619000Y-109640000D01*
X159619000Y-108777403D01*
X159625662Y-108709766D01*
X159619000Y-108642127D01*
X159599075Y-108439828D01*
X159520337Y-108180262D01*
X159392473Y-107941046D01*
X159294058Y-107821127D01*
X159263514Y-107783909D01*
X159263513Y-107783908D01*
X159220396Y-107731370D01*
X159167860Y-107688255D01*
X157995754Y-106516150D01*
X157952630Y-106463603D01*
X157742954Y-106291527D01*
X157503738Y-106163663D01*
X157244172Y-106084925D01*
X157050636Y-106065863D01*
X157196471Y-105920028D01*
X157371243Y-105658463D01*
X157491628Y-105367828D01*
X157553000Y-105059291D01*
X157553000Y-104744709D01*
X157491628Y-104436172D01*
X157371243Y-104145537D01*
X157269321Y-103993000D01*
X169369627Y-103993000D01*
X169426477Y-104049850D01*
G37*
X169426477Y-104049850D02*
X169469601Y-104102397D01*
X169679277Y-104274473D01*
X169702713Y-104287000D01*
X167193104Y-104287000D01*
X167125464Y-104280338D01*
X166855524Y-104306925D01*
X166725742Y-104346294D01*
X166595959Y-104385663D01*
X166356743Y-104513527D01*
X166147067Y-104685603D01*
X166103943Y-104738150D01*
X165426145Y-105415948D01*
X165373602Y-105459069D01*
X165201526Y-105668745D01*
X165104450Y-105850361D01*
X165073662Y-105907961D01*
X164994924Y-106167526D01*
X164968337Y-106437465D01*
X164974999Y-106505105D01*
X164975000Y-110195794D01*
X164968337Y-110263443D01*
X164994924Y-110533382D01*
X165073662Y-110792947D01*
X165194761Y-111019505D01*
X165201527Y-111032164D01*
X165373603Y-111241840D01*
X165426144Y-111284959D01*
X166789001Y-112647817D01*
X166789002Y-115158403D01*
X165593305Y-116354100D01*
X164072827Y-116354100D01*
X164085641Y-116336920D01*
X164210825Y-116074099D01*
X164255476Y-115926890D01*
X164134155Y-115697000D01*
X162941000Y-115697000D01*
X162941000Y-115717000D01*
X162687000Y-115717000D01*
X162687000Y-115697000D01*
X161493845Y-115697000D01*
X161372524Y-115926890D01*
X161417175Y-116074099D01*
X161542359Y-116336920D01*
X161555173Y-116354100D01*
X158125676Y-116354100D01*
X158076403Y-116327763D01*
X157816839Y-116249026D01*
X157546899Y-116222438D01*
X157276960Y-116249026D01*
X157017395Y-116327763D01*
X156778178Y-116455628D01*
X156621042Y-116584586D01*
X152815619Y-120390010D01*
X133353380Y-120390010D01*
X132397057Y-119433687D01*
X132430130Y-119428787D01*
X132696292Y-119333603D01*
X132821514Y-119266671D01*
X132893097Y-119022702D01*
X132080000Y-118209605D01*
X132065858Y-118223748D01*
X131886253Y-118044143D01*
X131900395Y-118030000D01*
X132259605Y-118030000D01*
X133072702Y-118843097D01*
X133316671Y-118771514D01*
X133437571Y-118516004D01*
X133506300Y-118241816D01*
X133520217Y-117959488D01*
X133478787Y-117679870D01*
X133383603Y-117413708D01*
X133316671Y-117288486D01*
X133072702Y-117216903D01*
X132259605Y-118030000D01*
X131900395Y-118030000D01*
X131886253Y-118015858D01*
X132065858Y-117836253D01*
X132080000Y-117850395D01*
X132893097Y-117037298D01*
X132821514Y-116793329D01*
X132566004Y-116672429D01*
X132291816Y-116603700D01*
X132009488Y-116589783D01*
X131729870Y-116631213D01*
X131463708Y-116726397D01*
X131406999Y-116756708D01*
X131406999Y-114711243D01*
X132880000Y-114711243D01*
X133051922Y-114694310D01*
X133217237Y-114644162D01*
X133369592Y-114562727D01*
X133503133Y-114453133D01*
X133612727Y-114319592D01*
X133694162Y-114167237D01*
X133744310Y-114001922D01*
X133761243Y-113830000D01*
X133761243Y-113296128D01*
X134783860Y-112273512D01*
X134836396Y-112230397D01*
X134915895Y-112133528D01*
X134977815Y-112058078D01*
X135008473Y-112020721D01*
X135136337Y-111781505D01*
X135181209Y-111633581D01*
X135215075Y-111521940D01*
X135241662Y-111252000D01*
X135235000Y-111184360D01*
X135235000Y-106164659D01*
X135304624Y-106234283D01*
X135585548Y-106421990D01*
X135897695Y-106551286D01*
X136229068Y-106617200D01*
X136566932Y-106617200D01*
X136898305Y-106551286D01*
X137210452Y-106421990D01*
X137491376Y-106234283D01*
X137730283Y-105995376D01*
X137779327Y-105921975D01*
X138097630Y-105921975D01*
X138173838Y-106169844D01*
X138435865Y-106294563D01*
X138717189Y-106365768D01*
X139006999Y-106380719D01*
X139294157Y-106338845D01*
X139567628Y-106241754D01*
X139702162Y-106169844D01*
X139778370Y-105921975D01*
X138938000Y-105081605D01*
X138097630Y-105921975D01*
X137779327Y-105921975D01*
X137902521Y-105737603D01*
X137918025Y-105742370D01*
X138758395Y-104902000D01*
X138744253Y-104887858D01*
X138923858Y-104708253D01*
X138938000Y-104722395D01*
X138952143Y-104708253D01*
X139131748Y-104887858D01*
X139117605Y-104902000D01*
X139957975Y-105742370D01*
X139973479Y-105737603D01*
X140101000Y-105928452D01*
X140101001Y-113076757D01*
X139612000Y-113076757D01*
X139440078Y-113093690D01*
X139274763Y-113143838D01*
X139122408Y-113225273D01*
X138988867Y-113334867D01*
X138879273Y-113468408D01*
X138797838Y-113620763D01*
X138747690Y-113786078D01*
X138730757Y-113958000D01*
X138730757Y-115658000D01*
X138747690Y-115829922D01*
X138797838Y-115995237D01*
X138879273Y-116147592D01*
X138988867Y-116281133D01*
X139122408Y-116390727D01*
X139274763Y-116472162D01*
X139440078Y-116522310D01*
X139612000Y-116539243D01*
X141312000Y-116539243D01*
X141483922Y-116522310D01*
X141649237Y-116472162D01*
X141801592Y-116390727D01*
X141935133Y-116281133D01*
X142044727Y-116147592D01*
X142126162Y-115995237D01*
X142176310Y-115829922D01*
X142193243Y-115658000D01*
X142193243Y-115024129D01*
X142403855Y-114813517D01*
X142456397Y-114770397D01*
X142628473Y-114560721D01*
X142641001Y-114537283D01*
X142641001Y-116264350D01*
X142634338Y-116332000D01*
X142660925Y-116601939D01*
X142739663Y-116861504D01*
X142834801Y-117039494D01*
X142867528Y-117100721D01*
X143039604Y-117310397D01*
X143048757Y-117317909D01*
X143048757Y-117944000D01*
X143065690Y-118115922D01*
X143115838Y-118281237D01*
X143197273Y-118433592D01*
X143306867Y-118567133D01*
X143440408Y-118676727D01*
X143592763Y-118758162D01*
X143758078Y-118808310D01*
X143930000Y-118825243D01*
X145630000Y-118825243D01*
X145801922Y-118808310D01*
X145967237Y-118758162D01*
X146119592Y-118676727D01*
X146253133Y-118567133D01*
X146362727Y-118433592D01*
X146444162Y-118281237D01*
X146494310Y-118115922D01*
X146511243Y-117944000D01*
X146511243Y-116244000D01*
X146494310Y-116072078D01*
X146444162Y-115906763D01*
X146362727Y-115754408D01*
X146253133Y-115620867D01*
X146119592Y-115511273D01*
X145967237Y-115429838D01*
X145801922Y-115379690D01*
X145630000Y-115362757D01*
X145395000Y-115362757D01*
X145395000Y-113633039D01*
X146690096Y-113633039D01*
X146730754Y-113767087D01*
X146850963Y-114021420D01*
X147018481Y-114247414D01*
X147226869Y-114436385D01*
X147468119Y-114581070D01*
X147732960Y-114675909D01*
X147955000Y-114554624D01*
X147955000Y-113411000D01*
X148209000Y-113411000D01*
X148209000Y-114554624D01*
X148431040Y-114675909D01*
X148695881Y-114581070D01*
X148937131Y-114436385D01*
X149145519Y-114247414D01*
X149313037Y-114021420D01*
X149433246Y-113767087D01*
X149473904Y-113633039D01*
X149351915Y-113411000D01*
X148209000Y-113411000D01*
X147955000Y-113411000D01*
X146812085Y-113411000D01*
X146690096Y-113633039D01*
X145395000Y-113633039D01*
X145395000Y-112934961D01*
X146690096Y-112934961D01*
X146812085Y-113157000D01*
X147955000Y-113157000D01*
X147955000Y-112013376D01*
X148209000Y-112013376D01*
X148209000Y-113157000D01*
X149351915Y-113157000D01*
X149473904Y-112934961D01*
X149433246Y-112800913D01*
X149313037Y-112546580D01*
X149145519Y-112320586D01*
X148937131Y-112131615D01*
X148695881Y-111986930D01*
X148431040Y-111892091D01*
X148209000Y-112013376D01*
X147955000Y-112013376D01*
X147732960Y-111892091D01*
X147468119Y-111986930D01*
X147226869Y-112131615D01*
X147018481Y-112320586D01*
X146850963Y-112546580D01*
X146730754Y-112800913D01*
X146690096Y-112934961D01*
X145395000Y-112934961D01*
X145395000Y-106832676D01*
X145407528Y-106856114D01*
X145579604Y-107065790D01*
X145632146Y-107108910D01*
X149431090Y-110907855D01*
X149474210Y-110960397D01*
X149683886Y-111132473D01*
X149777375Y-111182444D01*
X149923102Y-111260337D01*
X150182667Y-111339075D01*
X150452606Y-111365662D01*
X150520246Y-111359000D01*
X155142302Y-111359000D01*
X155199537Y-111397243D01*
X155490172Y-111517628D01*
X155798709Y-111579000D01*
X156113291Y-111579000D01*
X156421828Y-111517628D01*
X156712463Y-111397243D01*
X156865001Y-111295321D01*
X156865001Y-112084981D01*
X156865000Y-112084991D01*
X156865000Y-112326306D01*
X156755862Y-112489643D01*
X156629446Y-112794837D01*
X156565000Y-113118830D01*
X156565000Y-113449170D01*
X156629446Y-113773163D01*
X156755862Y-114078357D01*
X156939389Y-114353025D01*
X157172975Y-114586611D01*
X157447643Y-114770138D01*
X157752837Y-114896554D01*
X158076830Y-114961000D01*
X158407170Y-114961000D01*
X158731163Y-114896554D01*
X159036357Y-114770138D01*
X159311025Y-114586611D01*
X159544611Y-114353025D01*
X159728138Y-114078357D01*
X159854554Y-113773163D01*
X159919000Y-113449170D01*
X159919000Y-113386890D01*
X161372524Y-113386890D01*
X161417175Y-113534099D01*
X161542359Y-113796920D01*
X161716412Y-114030269D01*
X161932645Y-114225178D01*
X162058255Y-114300000D01*
X161932645Y-114374822D01*
X161716412Y-114569731D01*
X161542359Y-114803080D01*
X161417175Y-115065901D01*
X161372524Y-115213110D01*
X161493845Y-115443000D01*
X162687000Y-115443000D01*
X162687000Y-113157000D01*
X162941000Y-113157000D01*
X162941000Y-115443000D01*
X164134155Y-115443000D01*
X164255476Y-115213110D01*
X164210825Y-115065901D01*
X164085641Y-114803080D01*
X163911588Y-114569731D01*
X163695355Y-114374822D01*
X163569745Y-114300000D01*
X163695355Y-114225178D01*
X163911588Y-114030269D01*
X164085641Y-113796920D01*
X164210825Y-113534099D01*
X164255476Y-113386890D01*
X164134155Y-113157000D01*
X162941000Y-113157000D01*
X162687000Y-113157000D01*
X161493845Y-113157000D01*
X161372524Y-113386890D01*
X159919000Y-113386890D01*
X159919000Y-113118830D01*
X159854554Y-112794837D01*
X159728138Y-112489643D01*
X159619000Y-112326306D01*
X159619000Y-109640000D01*
X161082757Y-109640000D01*
X161082757Y-111340000D01*
X161099690Y-111511922D01*
X161149838Y-111677237D01*
X161231273Y-111829592D01*
X161340867Y-111963133D01*
X161474408Y-112072727D01*
X161624502Y-112152953D01*
X161542359Y-112263080D01*
X161417175Y-112525901D01*
X161372524Y-112673110D01*
X161493845Y-112903000D01*
X162687000Y-112903000D01*
X162687000Y-112883000D01*
X162941000Y-112883000D01*
X162941000Y-112903000D01*
X164134155Y-112903000D01*
X164255476Y-112673110D01*
X164210825Y-112525901D01*
X164085641Y-112263080D01*
X164003498Y-112152953D01*
X164153592Y-112072727D01*
X164287133Y-111963133D01*
X164396727Y-111829592D01*
X164478162Y-111677237D01*
X164528310Y-111511922D01*
X164545243Y-111340000D01*
X164545243Y-109640000D01*
X164528310Y-109468078D01*
X164478162Y-109302763D01*
X164396727Y-109150408D01*
X164287133Y-109016867D01*
X164191000Y-108937973D01*
X164191000Y-106875694D01*
X164300138Y-106712357D01*
X164426554Y-106407163D01*
X164491000Y-106083170D01*
X164491000Y-105752830D01*
X164426554Y-105428837D01*
X164300138Y-105123643D01*
X164116611Y-104848975D01*
X163883025Y-104615389D01*
X163608357Y-104431862D01*
X163303163Y-104305446D01*
X162979170Y-104241000D01*
X162648830Y-104241000D01*
X162324837Y-104305446D01*
X162019643Y-104431862D01*
X161744975Y-104615389D01*
X161511389Y-104848975D01*
X161327862Y-105123643D01*
X161201446Y-105428837D01*
X161137000Y-105752830D01*
X161137000Y-106083170D01*
X161201446Y-106407163D01*
X161327862Y-106712357D01*
X161437000Y-106875694D01*
X161437001Y-108937972D01*
X161340867Y-109016867D01*
X161231273Y-109150408D01*
X161149838Y-109302763D01*
X161099690Y-109468078D01*
X161082757Y-109640000D01*
X159619000Y-109640000D01*
X159619000Y-108777403D01*
X159625662Y-108709766D01*
X159619000Y-108642127D01*
X159599075Y-108439828D01*
X159520337Y-108180262D01*
X159392473Y-107941046D01*
X159294058Y-107821127D01*
X159263514Y-107783909D01*
X159263513Y-107783908D01*
X159220396Y-107731370D01*
X159167860Y-107688255D01*
X157995754Y-106516150D01*
X157952630Y-106463603D01*
X157742954Y-106291527D01*
X157503738Y-106163663D01*
X157244172Y-106084925D01*
X157050636Y-106065863D01*
X157196471Y-105920028D01*
X157371243Y-105658463D01*
X157491628Y-105367828D01*
X157553000Y-105059291D01*
X157553000Y-104744709D01*
X157491628Y-104436172D01*
X157371243Y-104145537D01*
X157269321Y-103993000D01*
X169369627Y-103993000D01*
X169426477Y-104049850D01*
G36*
X156121001Y-96365639D02*
G01*
X156121002Y-97695628D01*
X155823429Y-97993201D01*
X150573566Y-97993201D01*
X150571200Y-97567750D01*
X150412450Y-97409000D01*
X149225000Y-97409000D01*
X149225000Y-97429000D01*
X148971000Y-97429000D01*
X148971000Y-97409000D01*
X148951000Y-97409000D01*
X148951000Y-97155000D01*
X148971000Y-97155000D01*
X148971000Y-97135000D01*
X149225000Y-97135000D01*
X149225000Y-97155000D01*
X150412450Y-97155000D01*
X150571200Y-96996250D01*
X150574272Y-96443800D01*
X150573996Y-96441001D01*
X155588359Y-96441001D01*
X155655999Y-96447663D01*
X155925938Y-96421076D01*
X156019689Y-96392637D01*
X156120644Y-96362013D01*
X156121001Y-96365639D01*
G37*
X156121001Y-96365639D02*
X156121002Y-97695628D01*
X155823429Y-97993201D01*
X150573566Y-97993201D01*
X150571200Y-97567750D01*
X150412450Y-97409000D01*
X149225000Y-97409000D01*
X149225000Y-97429000D01*
X148971000Y-97429000D01*
X148971000Y-97409000D01*
X148951000Y-97409000D01*
X148951000Y-97155000D01*
X148971000Y-97155000D01*
X148971000Y-97135000D01*
X149225000Y-97135000D01*
X149225000Y-97155000D01*
X150412450Y-97155000D01*
X150571200Y-96996250D01*
X150574272Y-96443800D01*
X150573996Y-96441001D01*
X155588359Y-96441001D01*
X155655999Y-96447663D01*
X155925938Y-96421076D01*
X156019689Y-96392637D01*
X156120644Y-96362013D01*
X156121001Y-96365639D01*
G36*
X188125001Y-89300650D02*
G01*
X188029754Y-89032372D01*
X187957844Y-88897838D01*
X187709975Y-88821630D01*
X186869605Y-89662000D01*
X187709975Y-90502370D01*
X187957844Y-90426162D01*
X188082563Y-90164135D01*
X188125001Y-89996465D01*
X188125002Y-94475595D01*
X187941163Y-94399446D01*
X187748493Y-94361122D01*
X187673520Y-94286149D01*
X187673515Y-94286143D01*
X184069347Y-90681975D01*
X185849630Y-90681975D01*
X185925838Y-90929844D01*
X186187865Y-91054563D01*
X186469189Y-91125768D01*
X186758999Y-91140719D01*
X187046157Y-91098845D01*
X187319628Y-91001754D01*
X187454162Y-90929844D01*
X187530370Y-90681975D01*
X186690000Y-89841605D01*
X185849630Y-90681975D01*
X184069347Y-90681975D01*
X183478700Y-90091329D01*
X183478700Y-89730999D01*
X185211281Y-89730999D01*
X185253155Y-90018157D01*
X185350246Y-90291628D01*
X185422156Y-90426162D01*
X185670025Y-90502370D01*
X186510395Y-89662000D01*
X185670025Y-88821630D01*
X185422156Y-88897838D01*
X185297437Y-89159865D01*
X185226232Y-89441189D01*
X185211281Y-89730999D01*
X183478700Y-89730999D01*
X183478700Y-89500669D01*
X184480370Y-88499000D01*
X185663548Y-88499000D01*
X185854397Y-88626521D01*
X185849630Y-88642025D01*
X186690000Y-89482395D01*
X187530370Y-88642025D01*
X187525603Y-88626521D01*
X187783376Y-88454283D01*
X188022283Y-88215376D01*
X188125001Y-88061647D01*
X188125001Y-89300650D01*
G37*
X188125001Y-89300650D02*
X188029754Y-89032372D01*
X187957844Y-88897838D01*
X187709975Y-88821630D01*
X186869605Y-89662000D01*
X187709975Y-90502370D01*
X187957844Y-90426162D01*
X188082563Y-90164135D01*
X188125001Y-89996465D01*
X188125002Y-94475595D01*
X187941163Y-94399446D01*
X187748493Y-94361122D01*
X187673520Y-94286149D01*
X187673515Y-94286143D01*
X184069347Y-90681975D01*
X185849630Y-90681975D01*
X185925838Y-90929844D01*
X186187865Y-91054563D01*
X186469189Y-91125768D01*
X186758999Y-91140719D01*
X187046157Y-91098845D01*
X187319628Y-91001754D01*
X187454162Y-90929844D01*
X187530370Y-90681975D01*
X186690000Y-89841605D01*
X185849630Y-90681975D01*
X184069347Y-90681975D01*
X183478700Y-90091329D01*
X183478700Y-89730999D01*
X185211281Y-89730999D01*
X185253155Y-90018157D01*
X185350246Y-90291628D01*
X185422156Y-90426162D01*
X185670025Y-90502370D01*
X186510395Y-89662000D01*
X185670025Y-88821630D01*
X185422156Y-88897838D01*
X185297437Y-89159865D01*
X185226232Y-89441189D01*
X185211281Y-89730999D01*
X183478700Y-89730999D01*
X183478700Y-89500669D01*
X184480370Y-88499000D01*
X185663548Y-88499000D01*
X185854397Y-88626521D01*
X185849630Y-88642025D01*
X186690000Y-89482395D01*
X187530370Y-88642025D01*
X187525603Y-88626521D01*
X187783376Y-88454283D01*
X188022283Y-88215376D01*
X188125001Y-88061647D01*
X188125001Y-89300650D01*
G36*
X178689000Y-92837000D02*
G01*
X178709000Y-92837000D01*
X178709000Y-93091000D01*
X178689000Y-93091000D01*
X178689000Y-93111000D01*
X178435000Y-93111000D01*
X178435000Y-93091000D01*
X178415000Y-93091000D01*
X178415000Y-92837000D01*
X178435000Y-92837000D01*
X178435000Y-92817000D01*
X178689000Y-92817000D01*
X178689000Y-92837000D01*
G37*
X178689000Y-92837000D02*
X178709000Y-92837000D01*
X178709000Y-93091000D01*
X178689000Y-93091000D01*
X178689000Y-93111000D01*
X178435000Y-93111000D01*
X178435000Y-93091000D01*
X178415000Y-93091000D01*
X178415000Y-92837000D01*
X178435000Y-92837000D01*
X178435000Y-92817000D01*
X178689000Y-92817000D01*
X178689000Y-92837000D01*
M02*
