M48
; DRILL file {KiCad (5.1.5)-3} date 25.03.2020 20:54:15
; FORMAT={-:-/ absolute / inch / decimal}
; #@! TF.CreationDate,2020-03-25T20:54:15+01:00
; #@! TF.GenerationSoftware,Kicad,Pcbnew,(5.1.5)-3
FMAT,2
INCH
T1C0.0315
T2C0.0394
T3C0.0440
T4C0.0520
%
G90
G05
T1
X5.85Y-4.68
X5.85Y-4.93
X6.02Y-3.83
X6.29Y-4.17
X6.63Y-4.26
X7.26Y-3.53
X7.58Y-3.65
X7.67Y-3.66
X7.76Y-3.33
X8.48Y-3.72
X7.97Y-2.95
X8.37Y-2.95
X7.34Y-4.46
X7.34Y-4.86
X5.83Y-4.46
X6.23Y-4.46
X6.3Y-3.5
X6.4969Y-3.5
X7.0Y-2.6
X7.0Y-3.0
X8.42Y-4.03
X8.42Y-4.2269
X6.63Y-2.44
X7.03Y-2.44
X6.14Y-4.13
X6.14Y-4.23
X6.14Y-4.33
X8.42Y-4.48
X8.42Y-4.6769
X6.41Y-3.77
X6.41Y-4.17
X7.05Y-3.23
X7.05Y-3.33
X7.05Y-3.43
X6.73Y-3.66
X6.73Y-3.76
X6.73Y-3.86
X6.73Y-3.96
X6.73Y-4.06
X6.73Y-4.16
X6.73Y-4.26
X6.73Y-4.36
X7.03Y-3.66
X7.03Y-3.76
X7.03Y-3.86
X7.03Y-3.96
X7.03Y-4.06
X7.03Y-4.16
X7.03Y-4.26
X7.03Y-4.36
X7.19Y-4.46
X7.19Y-4.86
X8.13Y-4.7
X8.13Y-5.1
X5.55Y-2.45
X5.95Y-2.45
X6.65Y-2.59
X6.65Y-2.99
X7.65Y-2.58
X7.65Y-2.7769
X8.13Y-3.84
X8.13Y-4.24
X8.28Y-3.24
X8.28Y-3.34
X8.28Y-3.44
X5.2Y-4.45
X5.2Y-4.6469
X7.38Y-2.95
X7.78Y-2.95
X7.38Y-3.78
X7.78Y-3.78
X5.08Y-3.54
X5.18Y-3.54
X5.28Y-3.54
X7.95Y-3.84
X7.95Y-4.24
T2
X5.53Y-4.52
X5.8Y-3.25
X5.9Y-3.25
X6.0Y-3.25
X5.1Y-3.06
X5.1Y-3.16
X5.1Y-3.26
X7.57Y-4.07
X7.57Y-4.17
X7.57Y-4.27
X7.99Y-3.1947
X7.99Y-3.49
X5.28Y-3.06
X5.28Y-3.16
X5.28Y-3.26
X6.19Y-2.44
X5.5247Y-3.47
X5.82Y-3.47
X5.78Y-3.66
X6.25Y-4.86
X6.25Y-4.96
X6.25Y-5.06
X5.7Y-4.61
X6.41Y-4.35
X6.41Y-4.45
X6.41Y-4.55
X5.49Y-3.27
X5.59Y-3.27
T3
X5.65Y-2.62
X5.65Y-2.92
X5.75Y-2.62
X5.75Y-2.92
X5.85Y-2.62
X5.85Y-2.92
X5.95Y-2.62
X5.95Y-2.92
X6.05Y-2.62
X6.05Y-2.92
X6.15Y-2.62
X6.15Y-2.92
X6.25Y-2.62
X6.25Y-2.92
X6.73Y-4.61
X6.73Y-4.91
X6.83Y-4.61
X6.83Y-4.91
X6.93Y-4.61
X6.93Y-4.91
X7.03Y-4.61
X7.03Y-4.91
X7.35Y-3.23
X7.35Y-3.33
X7.35Y-3.43
X7.35Y-3.53
X7.65Y-3.23
X7.65Y-3.33
X7.65Y-3.43
X7.65Y-3.53
X5.17Y-3.83
X5.17Y-4.13
X5.27Y-3.83
X5.27Y-4.13
X5.37Y-3.83
X5.37Y-4.13
X5.47Y-3.83
X5.47Y-4.13
X5.57Y-3.83
X5.57Y-4.13
X5.67Y-3.83
X5.67Y-4.13
X5.77Y-3.83
X5.77Y-4.13
X5.87Y-3.83
X5.87Y-4.13
T4
X5.0531Y-2.61
X5.25Y-2.61
X7.64Y-4.89
X7.8369Y-4.89
T0
M30
