G04 #@! TF.GenerationSoftware,KiCad,Pcbnew,(5.1.5)-3*
G04 #@! TF.CreationDate,2020-03-25T20:54:11+01:00*
G04 #@! TF.ProjectId,FunctiongeneratorMK3Frequency,46756e63-7469-46f6-9e67-656e65726174,rev?*
G04 #@! TF.SameCoordinates,Original*
G04 #@! TF.FileFunction,Legend,Top*
G04 #@! TF.FilePolarity,Positive*
%FSLAX46Y46*%
G04 Gerber Fmt 4.6, Leading zero omitted, Abs format (unit mm)*
G04 Created by KiCad (PCBNEW (5.1.5)-3) date 2020-03-25 20:54:11*
%MOMM*%
%LPD*%
G04 APERTURE LIST*
%ADD10C,0.150000*%
%ADD11C,0.120000*%
%ADD12C,0.100000*%
%ADD13C,0.152400*%
%ADD14C,0.015000*%
G04 APERTURE END LIST*
D10*
X186309047Y-114371428D02*
X187070952Y-114371428D01*
X186690000Y-114752380D02*
X186690000Y-113990476D01*
X214915714Y-88082380D02*
X214344285Y-88082380D01*
X214630000Y-88082380D02*
X214630000Y-87082380D01*
X214534761Y-87225238D01*
X214439523Y-87320476D01*
X214344285Y-87368095D01*
X175545714Y-81732380D02*
X174974285Y-81732380D01*
X175260000Y-81732380D02*
X175260000Y-80732380D01*
X175164761Y-80875238D01*
X175069523Y-80970476D01*
X174974285Y-81018095D01*
X184435714Y-83002380D02*
X183864285Y-83002380D01*
X184150000Y-83002380D02*
X184150000Y-82002380D01*
X184054761Y-82145238D01*
X183959523Y-82240476D01*
X183864285Y-82288095D01*
X195865714Y-109672380D02*
X195294285Y-109672380D01*
X195580000Y-109672380D02*
X195580000Y-108672380D01*
X195484761Y-108815238D01*
X195389523Y-108910476D01*
X195294285Y-108958095D01*
X214249047Y-99131428D02*
X215010952Y-99131428D01*
X214630000Y-99512380D02*
X214630000Y-98750476D01*
X211709047Y-111831428D02*
X212470952Y-111831428D01*
X212090000Y-112212380D02*
X212090000Y-111450476D01*
X161575714Y-128722380D02*
X161004285Y-128722380D01*
X161290000Y-128722380D02*
X161290000Y-127722380D01*
X161194761Y-127865238D01*
X161099523Y-127960476D01*
X161004285Y-128008095D01*
X170465714Y-127452380D02*
X169894285Y-127452380D01*
X170180000Y-127452380D02*
X170180000Y-126452380D01*
X170084761Y-126595238D01*
X169989523Y-126690476D01*
X169894285Y-126738095D01*
X179355714Y-113482380D02*
X178784285Y-113482380D01*
X179070000Y-113482380D02*
X179070000Y-112482380D01*
X178974761Y-112625238D01*
X178879523Y-112720476D01*
X178784285Y-112768095D01*
X166655714Y-110942380D02*
X166084285Y-110942380D01*
X166370000Y-110942380D02*
X166370000Y-109942380D01*
X166274761Y-110085238D01*
X166179523Y-110180476D01*
X166084285Y-110228095D01*
X155225714Y-110942380D02*
X154654285Y-110942380D01*
X154940000Y-110942380D02*
X154940000Y-109942380D01*
X154844761Y-110085238D01*
X154749523Y-110180476D01*
X154654285Y-110228095D01*
X131699047Y-110561428D02*
X132460952Y-110561428D01*
X132080000Y-110942380D02*
X132080000Y-110180476D01*
X152685714Y-96972380D02*
X152114285Y-96972380D01*
X152400000Y-96972380D02*
X152400000Y-95972380D01*
X152304761Y-96115238D01*
X152209523Y-96210476D01*
X152114285Y-96258095D01*
X147605714Y-80462380D02*
X147034285Y-80462380D01*
X147320000Y-80462380D02*
X147320000Y-79462380D01*
X147224761Y-79605238D01*
X147129523Y-79700476D01*
X147034285Y-79748095D01*
X142525714Y-80462380D02*
X141954285Y-80462380D01*
X142240000Y-80462380D02*
X142240000Y-79462380D01*
X142144761Y-79605238D01*
X142049523Y-79700476D01*
X141954285Y-79748095D01*
X136937714Y-77922380D02*
X136366285Y-77922380D01*
X136652000Y-77922380D02*
X136652000Y-76922380D01*
X136556761Y-77065238D01*
X136461523Y-77160476D01*
X136366285Y-77208095D01*
X127285714Y-78176380D02*
X126714285Y-78176380D01*
X127000000Y-78176380D02*
X127000000Y-77176380D01*
X126904761Y-77319238D01*
X126809523Y-77414476D01*
X126714285Y-77462095D01*
X136779047Y-66111428D02*
X137540952Y-66111428D01*
X137160000Y-66492380D02*
X137160000Y-65730476D01*
X193929047Y-62301428D02*
X194690952Y-62301428D01*
X194310000Y-62682380D02*
X194310000Y-61920476D01*
X161575714Y-66492380D02*
X161004285Y-66492380D01*
X161290000Y-66492380D02*
X161290000Y-65492380D01*
X161194761Y-65635238D01*
X161099523Y-65730476D01*
X161004285Y-65778095D01*
D11*
X128097000Y-89420000D02*
X128097000Y-87456000D01*
X128097000Y-92196000D02*
X128097000Y-90410000D01*
X135047000Y-89420000D02*
X135047000Y-87456000D01*
X135047000Y-92196000D02*
X135047000Y-90410000D01*
X135047000Y-87456000D02*
X128097000Y-87456000D01*
X135047000Y-92196000D02*
X128097000Y-92196000D01*
X145482000Y-91634000D02*
X146812000Y-91634000D01*
X145482000Y-92964000D02*
X145482000Y-91634000D01*
X145482000Y-94234000D02*
X148142000Y-94234000D01*
X148142000Y-94234000D02*
X148142000Y-94294000D01*
X145482000Y-94234000D02*
X145482000Y-94294000D01*
X145482000Y-94294000D02*
X148142000Y-94294000D01*
X143450000Y-115764000D02*
X144780000Y-115764000D01*
X143450000Y-117094000D02*
X143450000Y-115764000D01*
X143450000Y-118364000D02*
X146110000Y-118364000D01*
X146110000Y-118364000D02*
X146110000Y-118424000D01*
X143450000Y-118364000D02*
X143450000Y-118424000D01*
X143450000Y-118424000D02*
X146110000Y-118424000D01*
X139132000Y-113478000D02*
X140462000Y-113478000D01*
X139132000Y-114808000D02*
X139132000Y-113478000D01*
X139132000Y-116078000D02*
X141792000Y-116078000D01*
X141792000Y-116078000D02*
X141792000Y-116138000D01*
X139132000Y-116078000D02*
X139132000Y-116138000D01*
X139132000Y-116138000D02*
X141792000Y-116138000D01*
D12*
X169672000Y-120599200D02*
G75*
G02X169672000Y-121208800I0J-304800D01*
G01*
D13*
X169672000Y-121208800D02*
X169672000Y-123571000D01*
X169672000Y-120599200D02*
X169672000Y-121208800D01*
X169672000Y-117602000D02*
X169672000Y-120599200D01*
X179832000Y-124206000D02*
X179832000Y-117602000D01*
D12*
X190804800Y-80772000D02*
G75*
G02X190195200Y-80772000I-304800J0D01*
G01*
D13*
X190195200Y-80772000D02*
X187833000Y-80772000D01*
X190804800Y-80772000D02*
X190195200Y-80772000D01*
X193802000Y-80772000D02*
X190804800Y-80772000D01*
X187198000Y-90932000D02*
X193802000Y-90932000D01*
D12*
X160985200Y-70662800D02*
G75*
G02X160985200Y-70053200I0J304800D01*
G01*
D13*
X160985200Y-67056000D02*
X160070800Y-67056000D01*
X160985200Y-70053200D02*
X160985200Y-67056000D01*
X160985200Y-70662800D02*
X160985200Y-70053200D01*
X160985200Y-73660000D02*
X160985200Y-70662800D01*
X141274800Y-73660000D02*
X142290800Y-73660000D01*
X141274800Y-67056000D02*
X141274800Y-73660000D01*
X142290800Y-67056000D02*
X141274800Y-67056000D01*
X159969200Y-73660000D02*
X160985200Y-73660000D01*
X150063200Y-101396800D02*
G75*
G02X150063200Y-100787200I0J304800D01*
G01*
X150063200Y-100787200D02*
X150063200Y-98602800D01*
X150063200Y-101396800D02*
X150063200Y-100787200D01*
X150063200Y-104013000D02*
X150063200Y-101396800D01*
X130352800Y-98171000D02*
X130352800Y-104013000D01*
D11*
X172102000Y-112074000D02*
X173752000Y-112074000D01*
X172102000Y-91634000D02*
X172102000Y-112074000D01*
X177402000Y-91634000D02*
X172102000Y-91634000D01*
X177402000Y-112074000D02*
X177402000Y-91634000D01*
X175752000Y-112074000D02*
X177402000Y-112074000D01*
X173752000Y-112074000D02*
G75*
G02X175752000Y-112074000I1000000J0D01*
G01*
X209816000Y-88311000D02*
X207852000Y-88311000D01*
X212592000Y-88311000D02*
X210806000Y-88311000D01*
X209816000Y-81361000D02*
X207852000Y-81361000D01*
X212592000Y-81361000D02*
X210806000Y-81361000D01*
X207852000Y-81361000D02*
X207852000Y-88311000D01*
X212592000Y-81361000D02*
X212592000Y-88311000D01*
X179566000Y-81107000D02*
X181530000Y-81107000D01*
X176790000Y-81107000D02*
X178576000Y-81107000D01*
X179566000Y-88057000D02*
X181530000Y-88057000D01*
X176790000Y-88057000D02*
X178576000Y-88057000D01*
X181530000Y-88057000D02*
X181530000Y-81107000D01*
X176790000Y-88057000D02*
X176790000Y-81107000D01*
X156452000Y-103967000D02*
X158416000Y-103967000D01*
X153676000Y-103967000D02*
X155462000Y-103967000D01*
X156452000Y-110917000D02*
X158416000Y-110917000D01*
X153676000Y-110917000D02*
X155462000Y-110917000D01*
X158416000Y-110917000D02*
X158416000Y-103967000D01*
X153676000Y-110917000D02*
X153676000Y-103967000D01*
X211558000Y-74930000D02*
X210788000Y-74930000D01*
X203478000Y-74930000D02*
X204248000Y-74930000D01*
X210788000Y-73560000D02*
X204248000Y-73560000D01*
X210788000Y-76300000D02*
X210788000Y-73560000D01*
X204248000Y-76300000D02*
X210788000Y-76300000D01*
X204248000Y-73560000D02*
X204248000Y-76300000D01*
X196572000Y-74930000D02*
X195802000Y-74930000D01*
X188492000Y-74930000D02*
X189262000Y-74930000D01*
X195802000Y-73560000D02*
X189262000Y-73560000D01*
X195802000Y-76300000D02*
X195802000Y-73560000D01*
X189262000Y-76300000D02*
X195802000Y-76300000D01*
X189262000Y-73560000D02*
X189262000Y-76300000D01*
X201930000Y-98576000D02*
X201930000Y-99346000D01*
X201930000Y-106656000D02*
X201930000Y-105886000D01*
X200560000Y-99346000D02*
X200560000Y-105886000D01*
X203300000Y-99346000D02*
X200560000Y-99346000D01*
X203300000Y-105886000D02*
X203300000Y-99346000D01*
X200560000Y-105886000D02*
X203300000Y-105886000D01*
X196572000Y-96012000D02*
X195802000Y-96012000D01*
X188492000Y-96012000D02*
X189262000Y-96012000D01*
X195802000Y-94642000D02*
X189262000Y-94642000D01*
X195802000Y-97382000D02*
X195802000Y-94642000D01*
X189262000Y-97382000D02*
X195802000Y-97382000D01*
X189262000Y-94642000D02*
X189262000Y-97382000D01*
X206502000Y-128500000D02*
X206502000Y-127730000D01*
X206502000Y-120420000D02*
X206502000Y-121190000D01*
X207872000Y-127730000D02*
X207872000Y-121190000D01*
X205132000Y-127730000D02*
X207872000Y-127730000D01*
X205132000Y-121190000D02*
X205132000Y-127730000D01*
X207872000Y-121190000D02*
X205132000Y-121190000D01*
X206502000Y-106656000D02*
X206502000Y-105886000D01*
X206502000Y-98576000D02*
X206502000Y-99346000D01*
X207872000Y-105886000D02*
X207872000Y-99346000D01*
X205132000Y-105886000D02*
X207872000Y-105886000D01*
X205132000Y-99346000D02*
X205132000Y-105886000D01*
X207872000Y-99346000D02*
X205132000Y-99346000D01*
X182626000Y-114324000D02*
X182626000Y-115094000D01*
X182626000Y-122404000D02*
X182626000Y-121634000D01*
X181256000Y-115094000D02*
X181256000Y-121634000D01*
X183996000Y-115094000D02*
X181256000Y-115094000D01*
X183996000Y-121634000D02*
X183996000Y-115094000D01*
X181256000Y-121634000D02*
X183996000Y-121634000D01*
X186436000Y-114324000D02*
X186436000Y-115094000D01*
X186436000Y-122404000D02*
X186436000Y-121634000D01*
X185066000Y-115094000D02*
X185066000Y-121634000D01*
X187806000Y-115094000D02*
X185066000Y-115094000D01*
X187806000Y-121634000D02*
X187806000Y-115094000D01*
X185066000Y-121634000D02*
X187806000Y-121634000D01*
X162814000Y-96798000D02*
X162814000Y-97568000D01*
X162814000Y-104878000D02*
X162814000Y-104108000D01*
X161444000Y-97568000D02*
X161444000Y-104108000D01*
X164184000Y-97568000D02*
X161444000Y-97568000D01*
X164184000Y-104108000D02*
X164184000Y-97568000D01*
X161444000Y-104108000D02*
X164184000Y-104108000D01*
X168910000Y-66826000D02*
X168910000Y-67596000D01*
X168910000Y-74906000D02*
X168910000Y-74136000D01*
X167540000Y-67596000D02*
X167540000Y-74136000D01*
X170280000Y-67596000D02*
X167540000Y-67596000D01*
X170280000Y-74136000D02*
X170280000Y-67596000D01*
X167540000Y-74136000D02*
X170280000Y-74136000D01*
X177800000Y-67080000D02*
X177800000Y-67850000D01*
X177800000Y-75160000D02*
X177800000Y-74390000D01*
X176430000Y-67850000D02*
X176430000Y-74390000D01*
X179170000Y-67850000D02*
X176430000Y-67850000D01*
X179170000Y-74390000D02*
X179170000Y-67850000D01*
X176430000Y-74390000D02*
X179170000Y-74390000D01*
X142010000Y-62230000D02*
X142780000Y-62230000D01*
X150090000Y-62230000D02*
X149320000Y-62230000D01*
X142780000Y-63600000D02*
X149320000Y-63600000D01*
X142780000Y-60860000D02*
X142780000Y-63600000D01*
X149320000Y-60860000D02*
X142780000Y-60860000D01*
X149320000Y-63600000D02*
X149320000Y-60860000D01*
X177522000Y-61976000D02*
X176752000Y-61976000D01*
X169442000Y-61976000D02*
X170212000Y-61976000D01*
X176752000Y-60606000D02*
X170212000Y-60606000D01*
X176752000Y-63346000D02*
X176752000Y-60606000D01*
X170212000Y-63346000D02*
X176752000Y-63346000D01*
X170212000Y-60606000D02*
X170212000Y-63346000D01*
X149122000Y-113284000D02*
X149892000Y-113284000D01*
X157202000Y-113284000D02*
X156432000Y-113284000D01*
X149892000Y-114654000D02*
X156432000Y-114654000D01*
X149892000Y-111914000D02*
X149892000Y-114654000D01*
X156432000Y-111914000D02*
X149892000Y-111914000D01*
X156432000Y-114654000D02*
X156432000Y-111914000D01*
X160080000Y-129854000D02*
X158750000Y-129854000D01*
X160080000Y-128524000D02*
X160080000Y-129854000D01*
X160080000Y-127254000D02*
X157420000Y-127254000D01*
X157420000Y-127254000D02*
X157420000Y-122114000D01*
X160080000Y-127254000D02*
X160080000Y-122114000D01*
X160080000Y-122114000D02*
X157420000Y-122114000D01*
X202256000Y-117906000D02*
X191406000Y-117906000D01*
X202256000Y-123006000D02*
X202256000Y-117906000D01*
X201756000Y-122706000D02*
X202256000Y-123006000D01*
X201756000Y-128106000D02*
X201756000Y-122706000D01*
X202256000Y-127856000D02*
X201756000Y-128106000D01*
X202256000Y-127906000D02*
X202256000Y-127856000D01*
X202256000Y-129806000D02*
X202256000Y-127906000D01*
X201756000Y-129556000D02*
X202256000Y-129806000D01*
X201756000Y-130506000D02*
X201756000Y-129556000D01*
X191406000Y-130506000D02*
X201756000Y-130506000D01*
X191406000Y-117906000D02*
X191406000Y-130506000D01*
X132782000Y-76394000D02*
X134112000Y-76394000D01*
X132782000Y-77724000D02*
X132782000Y-76394000D01*
X132782000Y-78994000D02*
X135442000Y-78994000D01*
X135442000Y-78994000D02*
X135442000Y-84134000D01*
X132782000Y-78994000D02*
X132782000Y-84134000D01*
X132782000Y-84134000D02*
X135442000Y-84134000D01*
X128210000Y-76394000D02*
X129540000Y-76394000D01*
X128210000Y-77724000D02*
X128210000Y-76394000D01*
X128210000Y-78994000D02*
X130870000Y-78994000D01*
X130870000Y-78994000D02*
X130870000Y-84134000D01*
X128210000Y-78994000D02*
X128210000Y-84134000D01*
X128210000Y-84134000D02*
X130870000Y-84134000D01*
X161484000Y-109160000D02*
X162814000Y-109160000D01*
X161484000Y-110490000D02*
X161484000Y-109160000D01*
X161484000Y-111760000D02*
X164144000Y-111760000D01*
X164144000Y-111760000D02*
X164144000Y-116900000D01*
X161484000Y-111760000D02*
X161484000Y-116900000D01*
X161484000Y-116900000D02*
X164144000Y-116900000D01*
X193608000Y-109788000D02*
X192278000Y-109788000D01*
X193608000Y-108458000D02*
X193608000Y-109788000D01*
X193608000Y-107188000D02*
X190948000Y-107188000D01*
X190948000Y-107188000D02*
X190948000Y-102048000D01*
X193608000Y-107188000D02*
X193608000Y-102048000D01*
X193608000Y-102048000D02*
X190948000Y-102048000D01*
X125150000Y-72594000D02*
X136000000Y-72594000D01*
X125150000Y-67494000D02*
X125150000Y-72594000D01*
X125650000Y-67794000D02*
X125150000Y-67494000D01*
X125650000Y-62394000D02*
X125650000Y-67794000D01*
X125150000Y-62644000D02*
X125650000Y-62394000D01*
X125150000Y-62594000D02*
X125150000Y-62644000D01*
X125150000Y-60694000D02*
X125150000Y-62594000D01*
X125650000Y-60944000D02*
X125150000Y-60694000D01*
X125650000Y-59994000D02*
X125650000Y-60944000D01*
X136000000Y-59994000D02*
X125650000Y-59994000D01*
X136000000Y-72594000D02*
X136000000Y-59994000D01*
X155896000Y-60646000D02*
X157226000Y-60646000D01*
X155896000Y-61976000D02*
X155896000Y-60646000D01*
X155896000Y-63246000D02*
X158556000Y-63246000D01*
X158556000Y-63246000D02*
X158556000Y-63306000D01*
X155896000Y-63246000D02*
X155896000Y-63306000D01*
X155896000Y-63306000D02*
X158556000Y-63306000D01*
X145990000Y-83880000D02*
X145990000Y-82550000D01*
X147320000Y-83880000D02*
X145990000Y-83880000D01*
X148590000Y-83880000D02*
X148590000Y-81220000D01*
X148590000Y-81220000D02*
X153730000Y-81220000D01*
X148590000Y-83880000D02*
X153730000Y-83880000D01*
X153730000Y-83880000D02*
X153730000Y-81220000D01*
X143316000Y-81728000D02*
X143316000Y-83058000D01*
X141986000Y-81728000D02*
X143316000Y-81728000D01*
X140716000Y-81728000D02*
X140716000Y-84388000D01*
X140716000Y-84388000D02*
X138116000Y-84388000D01*
X140716000Y-81728000D02*
X138116000Y-81728000D01*
X138116000Y-81728000D02*
X138116000Y-84388000D01*
X203892000Y-80276000D02*
X205566000Y-80276000D01*
X200326000Y-80276000D02*
X202000000Y-80276000D01*
X203892000Y-89516000D02*
X205566000Y-89516000D01*
X200326000Y-89516000D02*
X202000000Y-89516000D01*
X205566000Y-89516000D02*
X205566000Y-80276000D01*
X200326000Y-89516000D02*
X200326000Y-80276000D01*
X216583000Y-112282302D02*
X215783000Y-112282302D01*
X216183000Y-111882302D02*
X216183000Y-112682302D01*
X214401000Y-120373000D02*
X213335000Y-120373000D01*
X214636000Y-120333000D02*
X213100000Y-120333000D01*
X214816000Y-120293000D02*
X212920000Y-120293000D01*
X214966000Y-120253000D02*
X212770000Y-120253000D01*
X215097000Y-120213000D02*
X212639000Y-120213000D01*
X215214000Y-120173000D02*
X212522000Y-120173000D01*
X215321000Y-120133000D02*
X212415000Y-120133000D01*
X215420000Y-120093000D02*
X212316000Y-120093000D01*
X215513000Y-120053000D02*
X212223000Y-120053000D01*
X215599000Y-120013000D02*
X212137000Y-120013000D01*
X215681000Y-119973000D02*
X212055000Y-119973000D01*
X215758000Y-119933000D02*
X211978000Y-119933000D01*
X215832000Y-119893000D02*
X211904000Y-119893000D01*
X215902000Y-119853000D02*
X211834000Y-119853000D01*
X212828000Y-119813000D02*
X211766000Y-119813000D01*
X215970000Y-119813000D02*
X214908000Y-119813000D01*
X212828000Y-119773000D02*
X211702000Y-119773000D01*
X216034000Y-119773000D02*
X214908000Y-119773000D01*
X212828000Y-119733000D02*
X211640000Y-119733000D01*
X216096000Y-119733000D02*
X214908000Y-119733000D01*
X212828000Y-119693000D02*
X211581000Y-119693000D01*
X216155000Y-119693000D02*
X214908000Y-119693000D01*
X212828000Y-119653000D02*
X211523000Y-119653000D01*
X216213000Y-119653000D02*
X214908000Y-119653000D01*
X212828000Y-119613000D02*
X211468000Y-119613000D01*
X216268000Y-119613000D02*
X214908000Y-119613000D01*
X212828000Y-119573000D02*
X211414000Y-119573000D01*
X216322000Y-119573000D02*
X214908000Y-119573000D01*
X212828000Y-119533000D02*
X211363000Y-119533000D01*
X216373000Y-119533000D02*
X214908000Y-119533000D01*
X212828000Y-119493000D02*
X211312000Y-119493000D01*
X216424000Y-119493000D02*
X214908000Y-119493000D01*
X212828000Y-119453000D02*
X211264000Y-119453000D01*
X216472000Y-119453000D02*
X214908000Y-119453000D01*
X212828000Y-119413000D02*
X211217000Y-119413000D01*
X216519000Y-119413000D02*
X214908000Y-119413000D01*
X212828000Y-119373000D02*
X211171000Y-119373000D01*
X216565000Y-119373000D02*
X214908000Y-119373000D01*
X212828000Y-119333000D02*
X211127000Y-119333000D01*
X216609000Y-119333000D02*
X214908000Y-119333000D01*
X212828000Y-119293000D02*
X211084000Y-119293000D01*
X216652000Y-119293000D02*
X214908000Y-119293000D01*
X212828000Y-119253000D02*
X211042000Y-119253000D01*
X216694000Y-119253000D02*
X214908000Y-119253000D01*
X212828000Y-119213000D02*
X211001000Y-119213000D01*
X216735000Y-119213000D02*
X214908000Y-119213000D01*
X212828000Y-119173000D02*
X210961000Y-119173000D01*
X216775000Y-119173000D02*
X214908000Y-119173000D01*
X212828000Y-119133000D02*
X210923000Y-119133000D01*
X216813000Y-119133000D02*
X214908000Y-119133000D01*
X212828000Y-119093000D02*
X210885000Y-119093000D01*
X216851000Y-119093000D02*
X214908000Y-119093000D01*
X212828000Y-119053000D02*
X210849000Y-119053000D01*
X216887000Y-119053000D02*
X214908000Y-119053000D01*
X212828000Y-119013000D02*
X210813000Y-119013000D01*
X216923000Y-119013000D02*
X214908000Y-119013000D01*
X212828000Y-118973000D02*
X210778000Y-118973000D01*
X216958000Y-118973000D02*
X214908000Y-118973000D01*
X212828000Y-118933000D02*
X210744000Y-118933000D01*
X216992000Y-118933000D02*
X214908000Y-118933000D01*
X212828000Y-118893000D02*
X210712000Y-118893000D01*
X217024000Y-118893000D02*
X214908000Y-118893000D01*
X212828000Y-118853000D02*
X210679000Y-118853000D01*
X217057000Y-118853000D02*
X214908000Y-118853000D01*
X212828000Y-118813000D02*
X210648000Y-118813000D01*
X217088000Y-118813000D02*
X214908000Y-118813000D01*
X212828000Y-118773000D02*
X210618000Y-118773000D01*
X217118000Y-118773000D02*
X214908000Y-118773000D01*
X212828000Y-118733000D02*
X210588000Y-118733000D01*
X217148000Y-118733000D02*
X214908000Y-118733000D01*
X212828000Y-118693000D02*
X210559000Y-118693000D01*
X217177000Y-118693000D02*
X214908000Y-118693000D01*
X212828000Y-118653000D02*
X210530000Y-118653000D01*
X217206000Y-118653000D02*
X214908000Y-118653000D01*
X212828000Y-118613000D02*
X210503000Y-118613000D01*
X217233000Y-118613000D02*
X214908000Y-118613000D01*
X212828000Y-118573000D02*
X210476000Y-118573000D01*
X217260000Y-118573000D02*
X214908000Y-118573000D01*
X212828000Y-118533000D02*
X210450000Y-118533000D01*
X217286000Y-118533000D02*
X214908000Y-118533000D01*
X212828000Y-118493000D02*
X210424000Y-118493000D01*
X217312000Y-118493000D02*
X214908000Y-118493000D01*
X212828000Y-118453000D02*
X210399000Y-118453000D01*
X217337000Y-118453000D02*
X214908000Y-118453000D01*
X212828000Y-118413000D02*
X210375000Y-118413000D01*
X217361000Y-118413000D02*
X214908000Y-118413000D01*
X212828000Y-118373000D02*
X210351000Y-118373000D01*
X217385000Y-118373000D02*
X214908000Y-118373000D01*
X212828000Y-118333000D02*
X210328000Y-118333000D01*
X217408000Y-118333000D02*
X214908000Y-118333000D01*
X212828000Y-118293000D02*
X210306000Y-118293000D01*
X217430000Y-118293000D02*
X214908000Y-118293000D01*
X212828000Y-118253000D02*
X210284000Y-118253000D01*
X217452000Y-118253000D02*
X214908000Y-118253000D01*
X212828000Y-118213000D02*
X210262000Y-118213000D01*
X217474000Y-118213000D02*
X214908000Y-118213000D01*
X212828000Y-118173000D02*
X210241000Y-118173000D01*
X217495000Y-118173000D02*
X214908000Y-118173000D01*
X212828000Y-118133000D02*
X210221000Y-118133000D01*
X217515000Y-118133000D02*
X214908000Y-118133000D01*
X212828000Y-118093000D02*
X210202000Y-118093000D01*
X217534000Y-118093000D02*
X214908000Y-118093000D01*
X212828000Y-118053000D02*
X210182000Y-118053000D01*
X217554000Y-118053000D02*
X214908000Y-118053000D01*
X212828000Y-118013000D02*
X210164000Y-118013000D01*
X217572000Y-118013000D02*
X214908000Y-118013000D01*
X212828000Y-117973000D02*
X210146000Y-117973000D01*
X217590000Y-117973000D02*
X214908000Y-117973000D01*
X212828000Y-117933000D02*
X210128000Y-117933000D01*
X217608000Y-117933000D02*
X214908000Y-117933000D01*
X212828000Y-117893000D02*
X210111000Y-117893000D01*
X217625000Y-117893000D02*
X214908000Y-117893000D01*
X212828000Y-117853000D02*
X210094000Y-117853000D01*
X217642000Y-117853000D02*
X214908000Y-117853000D01*
X212828000Y-117813000D02*
X210078000Y-117813000D01*
X217658000Y-117813000D02*
X214908000Y-117813000D01*
X212828000Y-117773000D02*
X210063000Y-117773000D01*
X217673000Y-117773000D02*
X214908000Y-117773000D01*
X217689000Y-117733000D02*
X210047000Y-117733000D01*
X217703000Y-117693000D02*
X210033000Y-117693000D01*
X217718000Y-117653000D02*
X210018000Y-117653000D01*
X217731000Y-117613000D02*
X210005000Y-117613000D01*
X217745000Y-117573000D02*
X209991000Y-117573000D01*
X217757000Y-117533000D02*
X209979000Y-117533000D01*
X217770000Y-117493000D02*
X209966000Y-117493000D01*
X217782000Y-117453000D02*
X209954000Y-117453000D01*
X217793000Y-117413000D02*
X209943000Y-117413000D01*
X217804000Y-117373000D02*
X209932000Y-117373000D01*
X217815000Y-117333000D02*
X209921000Y-117333000D01*
X217825000Y-117293000D02*
X209911000Y-117293000D01*
X217835000Y-117253000D02*
X209901000Y-117253000D01*
X217844000Y-117213000D02*
X209892000Y-117213000D01*
X217853000Y-117173000D02*
X209883000Y-117173000D01*
X217862000Y-117133000D02*
X209874000Y-117133000D01*
X217870000Y-117093000D02*
X209866000Y-117093000D01*
X217878000Y-117053000D02*
X209858000Y-117053000D01*
X217885000Y-117013000D02*
X209851000Y-117013000D01*
X217892000Y-116972000D02*
X209844000Y-116972000D01*
X217898000Y-116932000D02*
X209838000Y-116932000D01*
X217905000Y-116892000D02*
X209831000Y-116892000D01*
X217910000Y-116852000D02*
X209826000Y-116852000D01*
X217916000Y-116812000D02*
X209820000Y-116812000D01*
X217920000Y-116772000D02*
X209816000Y-116772000D01*
X217925000Y-116732000D02*
X209811000Y-116732000D01*
X217929000Y-116692000D02*
X209807000Y-116692000D01*
X217933000Y-116652000D02*
X209803000Y-116652000D01*
X217936000Y-116612000D02*
X209800000Y-116612000D01*
X217939000Y-116572000D02*
X209797000Y-116572000D01*
X217942000Y-116532000D02*
X209794000Y-116532000D01*
X217944000Y-116492000D02*
X209792000Y-116492000D01*
X217945000Y-116452000D02*
X209791000Y-116452000D01*
X217947000Y-116412000D02*
X209789000Y-116412000D01*
X217948000Y-116372000D02*
X209788000Y-116372000D01*
X217948000Y-116332000D02*
X209788000Y-116332000D01*
X217948000Y-116292000D02*
X209788000Y-116292000D01*
X217988000Y-116292000D02*
G75*
G03X217988000Y-116292000I-4120000J0D01*
G01*
X216583000Y-100852302D02*
X215783000Y-100852302D01*
X216183000Y-100452302D02*
X216183000Y-101252302D01*
X214401000Y-108943000D02*
X213335000Y-108943000D01*
X214636000Y-108903000D02*
X213100000Y-108903000D01*
X214816000Y-108863000D02*
X212920000Y-108863000D01*
X214966000Y-108823000D02*
X212770000Y-108823000D01*
X215097000Y-108783000D02*
X212639000Y-108783000D01*
X215214000Y-108743000D02*
X212522000Y-108743000D01*
X215321000Y-108703000D02*
X212415000Y-108703000D01*
X215420000Y-108663000D02*
X212316000Y-108663000D01*
X215513000Y-108623000D02*
X212223000Y-108623000D01*
X215599000Y-108583000D02*
X212137000Y-108583000D01*
X215681000Y-108543000D02*
X212055000Y-108543000D01*
X215758000Y-108503000D02*
X211978000Y-108503000D01*
X215832000Y-108463000D02*
X211904000Y-108463000D01*
X215902000Y-108423000D02*
X211834000Y-108423000D01*
X212828000Y-108383000D02*
X211766000Y-108383000D01*
X215970000Y-108383000D02*
X214908000Y-108383000D01*
X212828000Y-108343000D02*
X211702000Y-108343000D01*
X216034000Y-108343000D02*
X214908000Y-108343000D01*
X212828000Y-108303000D02*
X211640000Y-108303000D01*
X216096000Y-108303000D02*
X214908000Y-108303000D01*
X212828000Y-108263000D02*
X211581000Y-108263000D01*
X216155000Y-108263000D02*
X214908000Y-108263000D01*
X212828000Y-108223000D02*
X211523000Y-108223000D01*
X216213000Y-108223000D02*
X214908000Y-108223000D01*
X212828000Y-108183000D02*
X211468000Y-108183000D01*
X216268000Y-108183000D02*
X214908000Y-108183000D01*
X212828000Y-108143000D02*
X211414000Y-108143000D01*
X216322000Y-108143000D02*
X214908000Y-108143000D01*
X212828000Y-108103000D02*
X211363000Y-108103000D01*
X216373000Y-108103000D02*
X214908000Y-108103000D01*
X212828000Y-108063000D02*
X211312000Y-108063000D01*
X216424000Y-108063000D02*
X214908000Y-108063000D01*
X212828000Y-108023000D02*
X211264000Y-108023000D01*
X216472000Y-108023000D02*
X214908000Y-108023000D01*
X212828000Y-107983000D02*
X211217000Y-107983000D01*
X216519000Y-107983000D02*
X214908000Y-107983000D01*
X212828000Y-107943000D02*
X211171000Y-107943000D01*
X216565000Y-107943000D02*
X214908000Y-107943000D01*
X212828000Y-107903000D02*
X211127000Y-107903000D01*
X216609000Y-107903000D02*
X214908000Y-107903000D01*
X212828000Y-107863000D02*
X211084000Y-107863000D01*
X216652000Y-107863000D02*
X214908000Y-107863000D01*
X212828000Y-107823000D02*
X211042000Y-107823000D01*
X216694000Y-107823000D02*
X214908000Y-107823000D01*
X212828000Y-107783000D02*
X211001000Y-107783000D01*
X216735000Y-107783000D02*
X214908000Y-107783000D01*
X212828000Y-107743000D02*
X210961000Y-107743000D01*
X216775000Y-107743000D02*
X214908000Y-107743000D01*
X212828000Y-107703000D02*
X210923000Y-107703000D01*
X216813000Y-107703000D02*
X214908000Y-107703000D01*
X212828000Y-107663000D02*
X210885000Y-107663000D01*
X216851000Y-107663000D02*
X214908000Y-107663000D01*
X212828000Y-107623000D02*
X210849000Y-107623000D01*
X216887000Y-107623000D02*
X214908000Y-107623000D01*
X212828000Y-107583000D02*
X210813000Y-107583000D01*
X216923000Y-107583000D02*
X214908000Y-107583000D01*
X212828000Y-107543000D02*
X210778000Y-107543000D01*
X216958000Y-107543000D02*
X214908000Y-107543000D01*
X212828000Y-107503000D02*
X210744000Y-107503000D01*
X216992000Y-107503000D02*
X214908000Y-107503000D01*
X212828000Y-107463000D02*
X210712000Y-107463000D01*
X217024000Y-107463000D02*
X214908000Y-107463000D01*
X212828000Y-107423000D02*
X210679000Y-107423000D01*
X217057000Y-107423000D02*
X214908000Y-107423000D01*
X212828000Y-107383000D02*
X210648000Y-107383000D01*
X217088000Y-107383000D02*
X214908000Y-107383000D01*
X212828000Y-107343000D02*
X210618000Y-107343000D01*
X217118000Y-107343000D02*
X214908000Y-107343000D01*
X212828000Y-107303000D02*
X210588000Y-107303000D01*
X217148000Y-107303000D02*
X214908000Y-107303000D01*
X212828000Y-107263000D02*
X210559000Y-107263000D01*
X217177000Y-107263000D02*
X214908000Y-107263000D01*
X212828000Y-107223000D02*
X210530000Y-107223000D01*
X217206000Y-107223000D02*
X214908000Y-107223000D01*
X212828000Y-107183000D02*
X210503000Y-107183000D01*
X217233000Y-107183000D02*
X214908000Y-107183000D01*
X212828000Y-107143000D02*
X210476000Y-107143000D01*
X217260000Y-107143000D02*
X214908000Y-107143000D01*
X212828000Y-107103000D02*
X210450000Y-107103000D01*
X217286000Y-107103000D02*
X214908000Y-107103000D01*
X212828000Y-107063000D02*
X210424000Y-107063000D01*
X217312000Y-107063000D02*
X214908000Y-107063000D01*
X212828000Y-107023000D02*
X210399000Y-107023000D01*
X217337000Y-107023000D02*
X214908000Y-107023000D01*
X212828000Y-106983000D02*
X210375000Y-106983000D01*
X217361000Y-106983000D02*
X214908000Y-106983000D01*
X212828000Y-106943000D02*
X210351000Y-106943000D01*
X217385000Y-106943000D02*
X214908000Y-106943000D01*
X212828000Y-106903000D02*
X210328000Y-106903000D01*
X217408000Y-106903000D02*
X214908000Y-106903000D01*
X212828000Y-106863000D02*
X210306000Y-106863000D01*
X217430000Y-106863000D02*
X214908000Y-106863000D01*
X212828000Y-106823000D02*
X210284000Y-106823000D01*
X217452000Y-106823000D02*
X214908000Y-106823000D01*
X212828000Y-106783000D02*
X210262000Y-106783000D01*
X217474000Y-106783000D02*
X214908000Y-106783000D01*
X212828000Y-106743000D02*
X210241000Y-106743000D01*
X217495000Y-106743000D02*
X214908000Y-106743000D01*
X212828000Y-106703000D02*
X210221000Y-106703000D01*
X217515000Y-106703000D02*
X214908000Y-106703000D01*
X212828000Y-106663000D02*
X210202000Y-106663000D01*
X217534000Y-106663000D02*
X214908000Y-106663000D01*
X212828000Y-106623000D02*
X210182000Y-106623000D01*
X217554000Y-106623000D02*
X214908000Y-106623000D01*
X212828000Y-106583000D02*
X210164000Y-106583000D01*
X217572000Y-106583000D02*
X214908000Y-106583000D01*
X212828000Y-106543000D02*
X210146000Y-106543000D01*
X217590000Y-106543000D02*
X214908000Y-106543000D01*
X212828000Y-106503000D02*
X210128000Y-106503000D01*
X217608000Y-106503000D02*
X214908000Y-106503000D01*
X212828000Y-106463000D02*
X210111000Y-106463000D01*
X217625000Y-106463000D02*
X214908000Y-106463000D01*
X212828000Y-106423000D02*
X210094000Y-106423000D01*
X217642000Y-106423000D02*
X214908000Y-106423000D01*
X212828000Y-106383000D02*
X210078000Y-106383000D01*
X217658000Y-106383000D02*
X214908000Y-106383000D01*
X212828000Y-106343000D02*
X210063000Y-106343000D01*
X217673000Y-106343000D02*
X214908000Y-106343000D01*
X217689000Y-106303000D02*
X210047000Y-106303000D01*
X217703000Y-106263000D02*
X210033000Y-106263000D01*
X217718000Y-106223000D02*
X210018000Y-106223000D01*
X217731000Y-106183000D02*
X210005000Y-106183000D01*
X217745000Y-106143000D02*
X209991000Y-106143000D01*
X217757000Y-106103000D02*
X209979000Y-106103000D01*
X217770000Y-106063000D02*
X209966000Y-106063000D01*
X217782000Y-106023000D02*
X209954000Y-106023000D01*
X217793000Y-105983000D02*
X209943000Y-105983000D01*
X217804000Y-105943000D02*
X209932000Y-105943000D01*
X217815000Y-105903000D02*
X209921000Y-105903000D01*
X217825000Y-105863000D02*
X209911000Y-105863000D01*
X217835000Y-105823000D02*
X209901000Y-105823000D01*
X217844000Y-105783000D02*
X209892000Y-105783000D01*
X217853000Y-105743000D02*
X209883000Y-105743000D01*
X217862000Y-105703000D02*
X209874000Y-105703000D01*
X217870000Y-105663000D02*
X209866000Y-105663000D01*
X217878000Y-105623000D02*
X209858000Y-105623000D01*
X217885000Y-105583000D02*
X209851000Y-105583000D01*
X217892000Y-105542000D02*
X209844000Y-105542000D01*
X217898000Y-105502000D02*
X209838000Y-105502000D01*
X217905000Y-105462000D02*
X209831000Y-105462000D01*
X217910000Y-105422000D02*
X209826000Y-105422000D01*
X217916000Y-105382000D02*
X209820000Y-105382000D01*
X217920000Y-105342000D02*
X209816000Y-105342000D01*
X217925000Y-105302000D02*
X209811000Y-105302000D01*
X217929000Y-105262000D02*
X209807000Y-105262000D01*
X217933000Y-105222000D02*
X209803000Y-105222000D01*
X217936000Y-105182000D02*
X209800000Y-105182000D01*
X217939000Y-105142000D02*
X209797000Y-105142000D01*
X217942000Y-105102000D02*
X209794000Y-105102000D01*
X217944000Y-105062000D02*
X209792000Y-105062000D01*
X217945000Y-105022000D02*
X209791000Y-105022000D01*
X217947000Y-104982000D02*
X209789000Y-104982000D01*
X217948000Y-104942000D02*
X209788000Y-104942000D01*
X217948000Y-104902000D02*
X209788000Y-104902000D01*
X217948000Y-104862000D02*
X209788000Y-104862000D01*
X217988000Y-104862000D02*
G75*
G03X217988000Y-104862000I-4120000J0D01*
G01*
X158510302Y-86185000D02*
X158510302Y-86985000D01*
X158110302Y-86585000D02*
X158910302Y-86585000D01*
X166601000Y-88367000D02*
X166601000Y-89433000D01*
X166561000Y-88132000D02*
X166561000Y-89668000D01*
X166521000Y-87952000D02*
X166521000Y-89848000D01*
X166481000Y-87802000D02*
X166481000Y-89998000D01*
X166441000Y-87671000D02*
X166441000Y-90129000D01*
X166401000Y-87554000D02*
X166401000Y-90246000D01*
X166361000Y-87447000D02*
X166361000Y-90353000D01*
X166321000Y-87348000D02*
X166321000Y-90452000D01*
X166281000Y-87255000D02*
X166281000Y-90545000D01*
X166241000Y-87169000D02*
X166241000Y-90631000D01*
X166201000Y-87087000D02*
X166201000Y-90713000D01*
X166161000Y-87010000D02*
X166161000Y-90790000D01*
X166121000Y-86936000D02*
X166121000Y-90864000D01*
X166081000Y-86866000D02*
X166081000Y-90934000D01*
X166041000Y-89940000D02*
X166041000Y-91002000D01*
X166041000Y-86798000D02*
X166041000Y-87860000D01*
X166001000Y-89940000D02*
X166001000Y-91066000D01*
X166001000Y-86734000D02*
X166001000Y-87860000D01*
X165961000Y-89940000D02*
X165961000Y-91128000D01*
X165961000Y-86672000D02*
X165961000Y-87860000D01*
X165921000Y-89940000D02*
X165921000Y-91187000D01*
X165921000Y-86613000D02*
X165921000Y-87860000D01*
X165881000Y-89940000D02*
X165881000Y-91245000D01*
X165881000Y-86555000D02*
X165881000Y-87860000D01*
X165841000Y-89940000D02*
X165841000Y-91300000D01*
X165841000Y-86500000D02*
X165841000Y-87860000D01*
X165801000Y-89940000D02*
X165801000Y-91354000D01*
X165801000Y-86446000D02*
X165801000Y-87860000D01*
X165761000Y-89940000D02*
X165761000Y-91405000D01*
X165761000Y-86395000D02*
X165761000Y-87860000D01*
X165721000Y-89940000D02*
X165721000Y-91456000D01*
X165721000Y-86344000D02*
X165721000Y-87860000D01*
X165681000Y-89940000D02*
X165681000Y-91504000D01*
X165681000Y-86296000D02*
X165681000Y-87860000D01*
X165641000Y-89940000D02*
X165641000Y-91551000D01*
X165641000Y-86249000D02*
X165641000Y-87860000D01*
X165601000Y-89940000D02*
X165601000Y-91597000D01*
X165601000Y-86203000D02*
X165601000Y-87860000D01*
X165561000Y-89940000D02*
X165561000Y-91641000D01*
X165561000Y-86159000D02*
X165561000Y-87860000D01*
X165521000Y-89940000D02*
X165521000Y-91684000D01*
X165521000Y-86116000D02*
X165521000Y-87860000D01*
X165481000Y-89940000D02*
X165481000Y-91726000D01*
X165481000Y-86074000D02*
X165481000Y-87860000D01*
X165441000Y-89940000D02*
X165441000Y-91767000D01*
X165441000Y-86033000D02*
X165441000Y-87860000D01*
X165401000Y-89940000D02*
X165401000Y-91807000D01*
X165401000Y-85993000D02*
X165401000Y-87860000D01*
X165361000Y-89940000D02*
X165361000Y-91845000D01*
X165361000Y-85955000D02*
X165361000Y-87860000D01*
X165321000Y-89940000D02*
X165321000Y-91883000D01*
X165321000Y-85917000D02*
X165321000Y-87860000D01*
X165281000Y-89940000D02*
X165281000Y-91919000D01*
X165281000Y-85881000D02*
X165281000Y-87860000D01*
X165241000Y-89940000D02*
X165241000Y-91955000D01*
X165241000Y-85845000D02*
X165241000Y-87860000D01*
X165201000Y-89940000D02*
X165201000Y-91990000D01*
X165201000Y-85810000D02*
X165201000Y-87860000D01*
X165161000Y-89940000D02*
X165161000Y-92024000D01*
X165161000Y-85776000D02*
X165161000Y-87860000D01*
X165121000Y-89940000D02*
X165121000Y-92056000D01*
X165121000Y-85744000D02*
X165121000Y-87860000D01*
X165081000Y-89940000D02*
X165081000Y-92089000D01*
X165081000Y-85711000D02*
X165081000Y-87860000D01*
X165041000Y-89940000D02*
X165041000Y-92120000D01*
X165041000Y-85680000D02*
X165041000Y-87860000D01*
X165001000Y-89940000D02*
X165001000Y-92150000D01*
X165001000Y-85650000D02*
X165001000Y-87860000D01*
X164961000Y-89940000D02*
X164961000Y-92180000D01*
X164961000Y-85620000D02*
X164961000Y-87860000D01*
X164921000Y-89940000D02*
X164921000Y-92209000D01*
X164921000Y-85591000D02*
X164921000Y-87860000D01*
X164881000Y-89940000D02*
X164881000Y-92238000D01*
X164881000Y-85562000D02*
X164881000Y-87860000D01*
X164841000Y-89940000D02*
X164841000Y-92265000D01*
X164841000Y-85535000D02*
X164841000Y-87860000D01*
X164801000Y-89940000D02*
X164801000Y-92292000D01*
X164801000Y-85508000D02*
X164801000Y-87860000D01*
X164761000Y-89940000D02*
X164761000Y-92318000D01*
X164761000Y-85482000D02*
X164761000Y-87860000D01*
X164721000Y-89940000D02*
X164721000Y-92344000D01*
X164721000Y-85456000D02*
X164721000Y-87860000D01*
X164681000Y-89940000D02*
X164681000Y-92369000D01*
X164681000Y-85431000D02*
X164681000Y-87860000D01*
X164641000Y-89940000D02*
X164641000Y-92393000D01*
X164641000Y-85407000D02*
X164641000Y-87860000D01*
X164601000Y-89940000D02*
X164601000Y-92417000D01*
X164601000Y-85383000D02*
X164601000Y-87860000D01*
X164561000Y-89940000D02*
X164561000Y-92440000D01*
X164561000Y-85360000D02*
X164561000Y-87860000D01*
X164521000Y-89940000D02*
X164521000Y-92462000D01*
X164521000Y-85338000D02*
X164521000Y-87860000D01*
X164481000Y-89940000D02*
X164481000Y-92484000D01*
X164481000Y-85316000D02*
X164481000Y-87860000D01*
X164441000Y-89940000D02*
X164441000Y-92506000D01*
X164441000Y-85294000D02*
X164441000Y-87860000D01*
X164401000Y-89940000D02*
X164401000Y-92527000D01*
X164401000Y-85273000D02*
X164401000Y-87860000D01*
X164361000Y-89940000D02*
X164361000Y-92547000D01*
X164361000Y-85253000D02*
X164361000Y-87860000D01*
X164321000Y-89940000D02*
X164321000Y-92566000D01*
X164321000Y-85234000D02*
X164321000Y-87860000D01*
X164281000Y-89940000D02*
X164281000Y-92586000D01*
X164281000Y-85214000D02*
X164281000Y-87860000D01*
X164241000Y-89940000D02*
X164241000Y-92604000D01*
X164241000Y-85196000D02*
X164241000Y-87860000D01*
X164201000Y-89940000D02*
X164201000Y-92622000D01*
X164201000Y-85178000D02*
X164201000Y-87860000D01*
X164161000Y-89940000D02*
X164161000Y-92640000D01*
X164161000Y-85160000D02*
X164161000Y-87860000D01*
X164121000Y-89940000D02*
X164121000Y-92657000D01*
X164121000Y-85143000D02*
X164121000Y-87860000D01*
X164081000Y-89940000D02*
X164081000Y-92674000D01*
X164081000Y-85126000D02*
X164081000Y-87860000D01*
X164041000Y-89940000D02*
X164041000Y-92690000D01*
X164041000Y-85110000D02*
X164041000Y-87860000D01*
X164001000Y-89940000D02*
X164001000Y-92705000D01*
X164001000Y-85095000D02*
X164001000Y-87860000D01*
X163961000Y-85079000D02*
X163961000Y-92721000D01*
X163921000Y-85065000D02*
X163921000Y-92735000D01*
X163881000Y-85050000D02*
X163881000Y-92750000D01*
X163841000Y-85037000D02*
X163841000Y-92763000D01*
X163801000Y-85023000D02*
X163801000Y-92777000D01*
X163761000Y-85011000D02*
X163761000Y-92789000D01*
X163721000Y-84998000D02*
X163721000Y-92802000D01*
X163681000Y-84986000D02*
X163681000Y-92814000D01*
X163641000Y-84975000D02*
X163641000Y-92825000D01*
X163601000Y-84964000D02*
X163601000Y-92836000D01*
X163561000Y-84953000D02*
X163561000Y-92847000D01*
X163521000Y-84943000D02*
X163521000Y-92857000D01*
X163481000Y-84933000D02*
X163481000Y-92867000D01*
X163441000Y-84924000D02*
X163441000Y-92876000D01*
X163401000Y-84915000D02*
X163401000Y-92885000D01*
X163361000Y-84906000D02*
X163361000Y-92894000D01*
X163321000Y-84898000D02*
X163321000Y-92902000D01*
X163281000Y-84890000D02*
X163281000Y-92910000D01*
X163241000Y-84883000D02*
X163241000Y-92917000D01*
X163200000Y-84876000D02*
X163200000Y-92924000D01*
X163160000Y-84870000D02*
X163160000Y-92930000D01*
X163120000Y-84863000D02*
X163120000Y-92937000D01*
X163080000Y-84858000D02*
X163080000Y-92942000D01*
X163040000Y-84852000D02*
X163040000Y-92948000D01*
X163000000Y-84848000D02*
X163000000Y-92952000D01*
X162960000Y-84843000D02*
X162960000Y-92957000D01*
X162920000Y-84839000D02*
X162920000Y-92961000D01*
X162880000Y-84835000D02*
X162880000Y-92965000D01*
X162840000Y-84832000D02*
X162840000Y-92968000D01*
X162800000Y-84829000D02*
X162800000Y-92971000D01*
X162760000Y-84826000D02*
X162760000Y-92974000D01*
X162720000Y-84824000D02*
X162720000Y-92976000D01*
X162680000Y-84823000D02*
X162680000Y-92977000D01*
X162640000Y-84821000D02*
X162640000Y-92979000D01*
X162600000Y-84820000D02*
X162600000Y-92980000D01*
X162560000Y-84820000D02*
X162560000Y-92980000D01*
X162520000Y-84820000D02*
X162520000Y-92980000D01*
X166640000Y-88900000D02*
G75*
G03X166640000Y-88900000I-4120000J0D01*
G01*
X197025000Y-64022302D02*
X196225000Y-64022302D01*
X196625000Y-63622302D02*
X196625000Y-64422302D01*
X194843000Y-72113000D02*
X193777000Y-72113000D01*
X195078000Y-72073000D02*
X193542000Y-72073000D01*
X195258000Y-72033000D02*
X193362000Y-72033000D01*
X195408000Y-71993000D02*
X193212000Y-71993000D01*
X195539000Y-71953000D02*
X193081000Y-71953000D01*
X195656000Y-71913000D02*
X192964000Y-71913000D01*
X195763000Y-71873000D02*
X192857000Y-71873000D01*
X195862000Y-71833000D02*
X192758000Y-71833000D01*
X195955000Y-71793000D02*
X192665000Y-71793000D01*
X196041000Y-71753000D02*
X192579000Y-71753000D01*
X196123000Y-71713000D02*
X192497000Y-71713000D01*
X196200000Y-71673000D02*
X192420000Y-71673000D01*
X196274000Y-71633000D02*
X192346000Y-71633000D01*
X196344000Y-71593000D02*
X192276000Y-71593000D01*
X193270000Y-71553000D02*
X192208000Y-71553000D01*
X196412000Y-71553000D02*
X195350000Y-71553000D01*
X193270000Y-71513000D02*
X192144000Y-71513000D01*
X196476000Y-71513000D02*
X195350000Y-71513000D01*
X193270000Y-71473000D02*
X192082000Y-71473000D01*
X196538000Y-71473000D02*
X195350000Y-71473000D01*
X193270000Y-71433000D02*
X192023000Y-71433000D01*
X196597000Y-71433000D02*
X195350000Y-71433000D01*
X193270000Y-71393000D02*
X191965000Y-71393000D01*
X196655000Y-71393000D02*
X195350000Y-71393000D01*
X193270000Y-71353000D02*
X191910000Y-71353000D01*
X196710000Y-71353000D02*
X195350000Y-71353000D01*
X193270000Y-71313000D02*
X191856000Y-71313000D01*
X196764000Y-71313000D02*
X195350000Y-71313000D01*
X193270000Y-71273000D02*
X191805000Y-71273000D01*
X196815000Y-71273000D02*
X195350000Y-71273000D01*
X193270000Y-71233000D02*
X191754000Y-71233000D01*
X196866000Y-71233000D02*
X195350000Y-71233000D01*
X193270000Y-71193000D02*
X191706000Y-71193000D01*
X196914000Y-71193000D02*
X195350000Y-71193000D01*
X193270000Y-71153000D02*
X191659000Y-71153000D01*
X196961000Y-71153000D02*
X195350000Y-71153000D01*
X193270000Y-71113000D02*
X191613000Y-71113000D01*
X197007000Y-71113000D02*
X195350000Y-71113000D01*
X193270000Y-71073000D02*
X191569000Y-71073000D01*
X197051000Y-71073000D02*
X195350000Y-71073000D01*
X193270000Y-71033000D02*
X191526000Y-71033000D01*
X197094000Y-71033000D02*
X195350000Y-71033000D01*
X193270000Y-70993000D02*
X191484000Y-70993000D01*
X197136000Y-70993000D02*
X195350000Y-70993000D01*
X193270000Y-70953000D02*
X191443000Y-70953000D01*
X197177000Y-70953000D02*
X195350000Y-70953000D01*
X193270000Y-70913000D02*
X191403000Y-70913000D01*
X197217000Y-70913000D02*
X195350000Y-70913000D01*
X193270000Y-70873000D02*
X191365000Y-70873000D01*
X197255000Y-70873000D02*
X195350000Y-70873000D01*
X193270000Y-70833000D02*
X191327000Y-70833000D01*
X197293000Y-70833000D02*
X195350000Y-70833000D01*
X193270000Y-70793000D02*
X191291000Y-70793000D01*
X197329000Y-70793000D02*
X195350000Y-70793000D01*
X193270000Y-70753000D02*
X191255000Y-70753000D01*
X197365000Y-70753000D02*
X195350000Y-70753000D01*
X193270000Y-70713000D02*
X191220000Y-70713000D01*
X197400000Y-70713000D02*
X195350000Y-70713000D01*
X193270000Y-70673000D02*
X191186000Y-70673000D01*
X197434000Y-70673000D02*
X195350000Y-70673000D01*
X193270000Y-70633000D02*
X191154000Y-70633000D01*
X197466000Y-70633000D02*
X195350000Y-70633000D01*
X193270000Y-70593000D02*
X191121000Y-70593000D01*
X197499000Y-70593000D02*
X195350000Y-70593000D01*
X193270000Y-70553000D02*
X191090000Y-70553000D01*
X197530000Y-70553000D02*
X195350000Y-70553000D01*
X193270000Y-70513000D02*
X191060000Y-70513000D01*
X197560000Y-70513000D02*
X195350000Y-70513000D01*
X193270000Y-70473000D02*
X191030000Y-70473000D01*
X197590000Y-70473000D02*
X195350000Y-70473000D01*
X193270000Y-70433000D02*
X191001000Y-70433000D01*
X197619000Y-70433000D02*
X195350000Y-70433000D01*
X193270000Y-70393000D02*
X190972000Y-70393000D01*
X197648000Y-70393000D02*
X195350000Y-70393000D01*
X193270000Y-70353000D02*
X190945000Y-70353000D01*
X197675000Y-70353000D02*
X195350000Y-70353000D01*
X193270000Y-70313000D02*
X190918000Y-70313000D01*
X197702000Y-70313000D02*
X195350000Y-70313000D01*
X193270000Y-70273000D02*
X190892000Y-70273000D01*
X197728000Y-70273000D02*
X195350000Y-70273000D01*
X193270000Y-70233000D02*
X190866000Y-70233000D01*
X197754000Y-70233000D02*
X195350000Y-70233000D01*
X193270000Y-70193000D02*
X190841000Y-70193000D01*
X197779000Y-70193000D02*
X195350000Y-70193000D01*
X193270000Y-70153000D02*
X190817000Y-70153000D01*
X197803000Y-70153000D02*
X195350000Y-70153000D01*
X193270000Y-70113000D02*
X190793000Y-70113000D01*
X197827000Y-70113000D02*
X195350000Y-70113000D01*
X193270000Y-70073000D02*
X190770000Y-70073000D01*
X197850000Y-70073000D02*
X195350000Y-70073000D01*
X193270000Y-70033000D02*
X190748000Y-70033000D01*
X197872000Y-70033000D02*
X195350000Y-70033000D01*
X193270000Y-69993000D02*
X190726000Y-69993000D01*
X197894000Y-69993000D02*
X195350000Y-69993000D01*
X193270000Y-69953000D02*
X190704000Y-69953000D01*
X197916000Y-69953000D02*
X195350000Y-69953000D01*
X193270000Y-69913000D02*
X190683000Y-69913000D01*
X197937000Y-69913000D02*
X195350000Y-69913000D01*
X193270000Y-69873000D02*
X190663000Y-69873000D01*
X197957000Y-69873000D02*
X195350000Y-69873000D01*
X193270000Y-69833000D02*
X190644000Y-69833000D01*
X197976000Y-69833000D02*
X195350000Y-69833000D01*
X193270000Y-69793000D02*
X190624000Y-69793000D01*
X197996000Y-69793000D02*
X195350000Y-69793000D01*
X193270000Y-69753000D02*
X190606000Y-69753000D01*
X198014000Y-69753000D02*
X195350000Y-69753000D01*
X193270000Y-69713000D02*
X190588000Y-69713000D01*
X198032000Y-69713000D02*
X195350000Y-69713000D01*
X193270000Y-69673000D02*
X190570000Y-69673000D01*
X198050000Y-69673000D02*
X195350000Y-69673000D01*
X193270000Y-69633000D02*
X190553000Y-69633000D01*
X198067000Y-69633000D02*
X195350000Y-69633000D01*
X193270000Y-69593000D02*
X190536000Y-69593000D01*
X198084000Y-69593000D02*
X195350000Y-69593000D01*
X193270000Y-69553000D02*
X190520000Y-69553000D01*
X198100000Y-69553000D02*
X195350000Y-69553000D01*
X193270000Y-69513000D02*
X190505000Y-69513000D01*
X198115000Y-69513000D02*
X195350000Y-69513000D01*
X198131000Y-69473000D02*
X190489000Y-69473000D01*
X198145000Y-69433000D02*
X190475000Y-69433000D01*
X198160000Y-69393000D02*
X190460000Y-69393000D01*
X198173000Y-69353000D02*
X190447000Y-69353000D01*
X198187000Y-69313000D02*
X190433000Y-69313000D01*
X198199000Y-69273000D02*
X190421000Y-69273000D01*
X198212000Y-69233000D02*
X190408000Y-69233000D01*
X198224000Y-69193000D02*
X190396000Y-69193000D01*
X198235000Y-69153000D02*
X190385000Y-69153000D01*
X198246000Y-69113000D02*
X190374000Y-69113000D01*
X198257000Y-69073000D02*
X190363000Y-69073000D01*
X198267000Y-69033000D02*
X190353000Y-69033000D01*
X198277000Y-68993000D02*
X190343000Y-68993000D01*
X198286000Y-68953000D02*
X190334000Y-68953000D01*
X198295000Y-68913000D02*
X190325000Y-68913000D01*
X198304000Y-68873000D02*
X190316000Y-68873000D01*
X198312000Y-68833000D02*
X190308000Y-68833000D01*
X198320000Y-68793000D02*
X190300000Y-68793000D01*
X198327000Y-68753000D02*
X190293000Y-68753000D01*
X198334000Y-68712000D02*
X190286000Y-68712000D01*
X198340000Y-68672000D02*
X190280000Y-68672000D01*
X198347000Y-68632000D02*
X190273000Y-68632000D01*
X198352000Y-68592000D02*
X190268000Y-68592000D01*
X198358000Y-68552000D02*
X190262000Y-68552000D01*
X198362000Y-68512000D02*
X190258000Y-68512000D01*
X198367000Y-68472000D02*
X190253000Y-68472000D01*
X198371000Y-68432000D02*
X190249000Y-68432000D01*
X198375000Y-68392000D02*
X190245000Y-68392000D01*
X198378000Y-68352000D02*
X190242000Y-68352000D01*
X198381000Y-68312000D02*
X190239000Y-68312000D01*
X198384000Y-68272000D02*
X190236000Y-68272000D01*
X198386000Y-68232000D02*
X190234000Y-68232000D01*
X198387000Y-68192000D02*
X190233000Y-68192000D01*
X198389000Y-68152000D02*
X190231000Y-68152000D01*
X198390000Y-68112000D02*
X190230000Y-68112000D01*
X198390000Y-68072000D02*
X190230000Y-68072000D01*
X198390000Y-68032000D02*
X190230000Y-68032000D01*
X198430000Y-68032000D02*
G75*
G03X198430000Y-68032000I-4120000J0D01*
G01*
X134795000Y-111520302D02*
X133995000Y-111520302D01*
X134395000Y-111120302D02*
X134395000Y-111920302D01*
X132613000Y-119611000D02*
X131547000Y-119611000D01*
X132848000Y-119571000D02*
X131312000Y-119571000D01*
X133028000Y-119531000D02*
X131132000Y-119531000D01*
X133178000Y-119491000D02*
X130982000Y-119491000D01*
X133309000Y-119451000D02*
X130851000Y-119451000D01*
X133426000Y-119411000D02*
X130734000Y-119411000D01*
X133533000Y-119371000D02*
X130627000Y-119371000D01*
X133632000Y-119331000D02*
X130528000Y-119331000D01*
X133725000Y-119291000D02*
X130435000Y-119291000D01*
X133811000Y-119251000D02*
X130349000Y-119251000D01*
X133893000Y-119211000D02*
X130267000Y-119211000D01*
X133970000Y-119171000D02*
X130190000Y-119171000D01*
X134044000Y-119131000D02*
X130116000Y-119131000D01*
X134114000Y-119091000D02*
X130046000Y-119091000D01*
X131040000Y-119051000D02*
X129978000Y-119051000D01*
X134182000Y-119051000D02*
X133120000Y-119051000D01*
X131040000Y-119011000D02*
X129914000Y-119011000D01*
X134246000Y-119011000D02*
X133120000Y-119011000D01*
X131040000Y-118971000D02*
X129852000Y-118971000D01*
X134308000Y-118971000D02*
X133120000Y-118971000D01*
X131040000Y-118931000D02*
X129793000Y-118931000D01*
X134367000Y-118931000D02*
X133120000Y-118931000D01*
X131040000Y-118891000D02*
X129735000Y-118891000D01*
X134425000Y-118891000D02*
X133120000Y-118891000D01*
X131040000Y-118851000D02*
X129680000Y-118851000D01*
X134480000Y-118851000D02*
X133120000Y-118851000D01*
X131040000Y-118811000D02*
X129626000Y-118811000D01*
X134534000Y-118811000D02*
X133120000Y-118811000D01*
X131040000Y-118771000D02*
X129575000Y-118771000D01*
X134585000Y-118771000D02*
X133120000Y-118771000D01*
X131040000Y-118731000D02*
X129524000Y-118731000D01*
X134636000Y-118731000D02*
X133120000Y-118731000D01*
X131040000Y-118691000D02*
X129476000Y-118691000D01*
X134684000Y-118691000D02*
X133120000Y-118691000D01*
X131040000Y-118651000D02*
X129429000Y-118651000D01*
X134731000Y-118651000D02*
X133120000Y-118651000D01*
X131040000Y-118611000D02*
X129383000Y-118611000D01*
X134777000Y-118611000D02*
X133120000Y-118611000D01*
X131040000Y-118571000D02*
X129339000Y-118571000D01*
X134821000Y-118571000D02*
X133120000Y-118571000D01*
X131040000Y-118531000D02*
X129296000Y-118531000D01*
X134864000Y-118531000D02*
X133120000Y-118531000D01*
X131040000Y-118491000D02*
X129254000Y-118491000D01*
X134906000Y-118491000D02*
X133120000Y-118491000D01*
X131040000Y-118451000D02*
X129213000Y-118451000D01*
X134947000Y-118451000D02*
X133120000Y-118451000D01*
X131040000Y-118411000D02*
X129173000Y-118411000D01*
X134987000Y-118411000D02*
X133120000Y-118411000D01*
X131040000Y-118371000D02*
X129135000Y-118371000D01*
X135025000Y-118371000D02*
X133120000Y-118371000D01*
X131040000Y-118331000D02*
X129097000Y-118331000D01*
X135063000Y-118331000D02*
X133120000Y-118331000D01*
X131040000Y-118291000D02*
X129061000Y-118291000D01*
X135099000Y-118291000D02*
X133120000Y-118291000D01*
X131040000Y-118251000D02*
X129025000Y-118251000D01*
X135135000Y-118251000D02*
X133120000Y-118251000D01*
X131040000Y-118211000D02*
X128990000Y-118211000D01*
X135170000Y-118211000D02*
X133120000Y-118211000D01*
X131040000Y-118171000D02*
X128956000Y-118171000D01*
X135204000Y-118171000D02*
X133120000Y-118171000D01*
X131040000Y-118131000D02*
X128924000Y-118131000D01*
X135236000Y-118131000D02*
X133120000Y-118131000D01*
X131040000Y-118091000D02*
X128891000Y-118091000D01*
X135269000Y-118091000D02*
X133120000Y-118091000D01*
X131040000Y-118051000D02*
X128860000Y-118051000D01*
X135300000Y-118051000D02*
X133120000Y-118051000D01*
X131040000Y-118011000D02*
X128830000Y-118011000D01*
X135330000Y-118011000D02*
X133120000Y-118011000D01*
X131040000Y-117971000D02*
X128800000Y-117971000D01*
X135360000Y-117971000D02*
X133120000Y-117971000D01*
X131040000Y-117931000D02*
X128771000Y-117931000D01*
X135389000Y-117931000D02*
X133120000Y-117931000D01*
X131040000Y-117891000D02*
X128742000Y-117891000D01*
X135418000Y-117891000D02*
X133120000Y-117891000D01*
X131040000Y-117851000D02*
X128715000Y-117851000D01*
X135445000Y-117851000D02*
X133120000Y-117851000D01*
X131040000Y-117811000D02*
X128688000Y-117811000D01*
X135472000Y-117811000D02*
X133120000Y-117811000D01*
X131040000Y-117771000D02*
X128662000Y-117771000D01*
X135498000Y-117771000D02*
X133120000Y-117771000D01*
X131040000Y-117731000D02*
X128636000Y-117731000D01*
X135524000Y-117731000D02*
X133120000Y-117731000D01*
X131040000Y-117691000D02*
X128611000Y-117691000D01*
X135549000Y-117691000D02*
X133120000Y-117691000D01*
X131040000Y-117651000D02*
X128587000Y-117651000D01*
X135573000Y-117651000D02*
X133120000Y-117651000D01*
X131040000Y-117611000D02*
X128563000Y-117611000D01*
X135597000Y-117611000D02*
X133120000Y-117611000D01*
X131040000Y-117571000D02*
X128540000Y-117571000D01*
X135620000Y-117571000D02*
X133120000Y-117571000D01*
X131040000Y-117531000D02*
X128518000Y-117531000D01*
X135642000Y-117531000D02*
X133120000Y-117531000D01*
X131040000Y-117491000D02*
X128496000Y-117491000D01*
X135664000Y-117491000D02*
X133120000Y-117491000D01*
X131040000Y-117451000D02*
X128474000Y-117451000D01*
X135686000Y-117451000D02*
X133120000Y-117451000D01*
X131040000Y-117411000D02*
X128453000Y-117411000D01*
X135707000Y-117411000D02*
X133120000Y-117411000D01*
X131040000Y-117371000D02*
X128433000Y-117371000D01*
X135727000Y-117371000D02*
X133120000Y-117371000D01*
X131040000Y-117331000D02*
X128414000Y-117331000D01*
X135746000Y-117331000D02*
X133120000Y-117331000D01*
X131040000Y-117291000D02*
X128394000Y-117291000D01*
X135766000Y-117291000D02*
X133120000Y-117291000D01*
X131040000Y-117251000D02*
X128376000Y-117251000D01*
X135784000Y-117251000D02*
X133120000Y-117251000D01*
X131040000Y-117211000D02*
X128358000Y-117211000D01*
X135802000Y-117211000D02*
X133120000Y-117211000D01*
X131040000Y-117171000D02*
X128340000Y-117171000D01*
X135820000Y-117171000D02*
X133120000Y-117171000D01*
X131040000Y-117131000D02*
X128323000Y-117131000D01*
X135837000Y-117131000D02*
X133120000Y-117131000D01*
X131040000Y-117091000D02*
X128306000Y-117091000D01*
X135854000Y-117091000D02*
X133120000Y-117091000D01*
X131040000Y-117051000D02*
X128290000Y-117051000D01*
X135870000Y-117051000D02*
X133120000Y-117051000D01*
X131040000Y-117011000D02*
X128275000Y-117011000D01*
X135885000Y-117011000D02*
X133120000Y-117011000D01*
X135901000Y-116971000D02*
X128259000Y-116971000D01*
X135915000Y-116931000D02*
X128245000Y-116931000D01*
X135930000Y-116891000D02*
X128230000Y-116891000D01*
X135943000Y-116851000D02*
X128217000Y-116851000D01*
X135957000Y-116811000D02*
X128203000Y-116811000D01*
X135969000Y-116771000D02*
X128191000Y-116771000D01*
X135982000Y-116731000D02*
X128178000Y-116731000D01*
X135994000Y-116691000D02*
X128166000Y-116691000D01*
X136005000Y-116651000D02*
X128155000Y-116651000D01*
X136016000Y-116611000D02*
X128144000Y-116611000D01*
X136027000Y-116571000D02*
X128133000Y-116571000D01*
X136037000Y-116531000D02*
X128123000Y-116531000D01*
X136047000Y-116491000D02*
X128113000Y-116491000D01*
X136056000Y-116451000D02*
X128104000Y-116451000D01*
X136065000Y-116411000D02*
X128095000Y-116411000D01*
X136074000Y-116371000D02*
X128086000Y-116371000D01*
X136082000Y-116331000D02*
X128078000Y-116331000D01*
X136090000Y-116291000D02*
X128070000Y-116291000D01*
X136097000Y-116251000D02*
X128063000Y-116251000D01*
X136104000Y-116210000D02*
X128056000Y-116210000D01*
X136110000Y-116170000D02*
X128050000Y-116170000D01*
X136117000Y-116130000D02*
X128043000Y-116130000D01*
X136122000Y-116090000D02*
X128038000Y-116090000D01*
X136128000Y-116050000D02*
X128032000Y-116050000D01*
X136132000Y-116010000D02*
X128028000Y-116010000D01*
X136137000Y-115970000D02*
X128023000Y-115970000D01*
X136141000Y-115930000D02*
X128019000Y-115930000D01*
X136145000Y-115890000D02*
X128015000Y-115890000D01*
X136148000Y-115850000D02*
X128012000Y-115850000D01*
X136151000Y-115810000D02*
X128009000Y-115810000D01*
X136154000Y-115770000D02*
X128006000Y-115770000D01*
X136156000Y-115730000D02*
X128004000Y-115730000D01*
X136157000Y-115690000D02*
X128003000Y-115690000D01*
X136159000Y-115650000D02*
X128001000Y-115650000D01*
X136160000Y-115610000D02*
X128000000Y-115610000D01*
X136160000Y-115570000D02*
X128000000Y-115570000D01*
X136160000Y-115530000D02*
X128000000Y-115530000D01*
X136200000Y-115530000D02*
G75*
G03X136200000Y-115530000I-4120000J0D01*
G01*
X139458000Y-87192000D02*
X139458000Y-85518000D01*
X139458000Y-90758000D02*
X139458000Y-89084000D01*
X148698000Y-87192000D02*
X148698000Y-85518000D01*
X148698000Y-90758000D02*
X148698000Y-89084000D01*
X148698000Y-85518000D02*
X139458000Y-85518000D01*
X148698000Y-90758000D02*
X139458000Y-90758000D01*
D10*
X130976761Y-93778380D02*
X130643428Y-93302190D01*
X130405333Y-93778380D02*
X130405333Y-92778380D01*
X130786285Y-92778380D01*
X130881523Y-92826000D01*
X130929142Y-92873619D01*
X130976761Y-92968857D01*
X130976761Y-93111714D01*
X130929142Y-93206952D01*
X130881523Y-93254571D01*
X130786285Y-93302190D01*
X130405333Y-93302190D01*
X131262476Y-92778380D02*
X131595809Y-93778380D01*
X131929142Y-92778380D01*
X132214857Y-92873619D02*
X132262476Y-92826000D01*
X132357714Y-92778380D01*
X132595809Y-92778380D01*
X132691047Y-92826000D01*
X132738666Y-92873619D01*
X132786285Y-92968857D01*
X132786285Y-93064095D01*
X132738666Y-93206952D01*
X132167238Y-93778380D01*
X132786285Y-93778380D01*
X146002476Y-90086380D02*
X146002476Y-90800666D01*
X145954857Y-90943523D01*
X145859619Y-91038761D01*
X145716761Y-91086380D01*
X145621523Y-91086380D01*
X147002476Y-91086380D02*
X146431047Y-91086380D01*
X146716761Y-91086380D02*
X146716761Y-90086380D01*
X146621523Y-90229238D01*
X146526285Y-90324476D01*
X146431047Y-90372095D01*
X147335809Y-90086380D02*
X147954857Y-90086380D01*
X147621523Y-90467333D01*
X147764380Y-90467333D01*
X147859619Y-90514952D01*
X147907238Y-90562571D01*
X147954857Y-90657809D01*
X147954857Y-90895904D01*
X147907238Y-90991142D01*
X147859619Y-91038761D01*
X147764380Y-91086380D01*
X147478666Y-91086380D01*
X147383428Y-91038761D01*
X147335809Y-90991142D01*
X143970476Y-114216380D02*
X143970476Y-114930666D01*
X143922857Y-115073523D01*
X143827619Y-115168761D01*
X143684761Y-115216380D01*
X143589523Y-115216380D01*
X144970476Y-115216380D02*
X144399047Y-115216380D01*
X144684761Y-115216380D02*
X144684761Y-114216380D01*
X144589523Y-114359238D01*
X144494285Y-114454476D01*
X144399047Y-114502095D01*
X145351428Y-114311619D02*
X145399047Y-114264000D01*
X145494285Y-114216380D01*
X145732380Y-114216380D01*
X145827619Y-114264000D01*
X145875238Y-114311619D01*
X145922857Y-114406857D01*
X145922857Y-114502095D01*
X145875238Y-114644952D01*
X145303809Y-115216380D01*
X145922857Y-115216380D01*
X140128666Y-111930380D02*
X140128666Y-112644666D01*
X140081047Y-112787523D01*
X139985809Y-112882761D01*
X139842952Y-112930380D01*
X139747714Y-112930380D01*
X140557238Y-112025619D02*
X140604857Y-111978000D01*
X140700095Y-111930380D01*
X140938190Y-111930380D01*
X141033428Y-111978000D01*
X141081047Y-112025619D01*
X141128666Y-112120857D01*
X141128666Y-112216095D01*
X141081047Y-112358952D01*
X140509619Y-112930380D01*
X141128666Y-112930380D01*
D14*
X166884050Y-121700366D02*
X168212836Y-121700366D01*
X168369163Y-121622202D01*
X168447327Y-121544039D01*
X168525491Y-121387711D01*
X168525491Y-121075055D01*
X168447327Y-120918728D01*
X168369163Y-120840564D01*
X168212836Y-120762400D01*
X166884050Y-120762400D01*
X166884050Y-119199123D02*
X166884050Y-119980761D01*
X167665689Y-120058925D01*
X167587525Y-119980761D01*
X167509361Y-119824434D01*
X167509361Y-119433614D01*
X167587525Y-119277287D01*
X167665689Y-119199123D01*
X167822016Y-119120959D01*
X168212836Y-119120959D01*
X168369163Y-119199123D01*
X168447327Y-119277287D01*
X168525491Y-119433614D01*
X168525491Y-119824434D01*
X168447327Y-119980761D01*
X168369163Y-120058925D01*
X189703633Y-77984050D02*
X189703633Y-79312836D01*
X189781797Y-79469163D01*
X189859961Y-79547327D01*
X190016288Y-79625491D01*
X190328944Y-79625491D01*
X190485271Y-79547327D01*
X190563435Y-79469163D01*
X190641599Y-79312836D01*
X190641599Y-77984050D01*
X192126712Y-78531197D02*
X192126712Y-79625491D01*
X191735893Y-77905886D02*
X191345074Y-79078344D01*
X192361204Y-79078344D01*
X161920642Y-72013387D02*
X163248605Y-72013387D01*
X163404836Y-71935272D01*
X163482951Y-71857156D01*
X163561067Y-71700925D01*
X163561067Y-71388463D01*
X163482951Y-71232232D01*
X163404836Y-71154117D01*
X163248605Y-71076001D01*
X161920642Y-71076001D01*
X161920642Y-70451078D02*
X161920642Y-69435576D01*
X162545565Y-69982385D01*
X162545565Y-69748038D01*
X162623681Y-69591807D01*
X162701796Y-69513692D01*
X162858027Y-69435576D01*
X163248605Y-69435576D01*
X163404836Y-69513692D01*
X163482951Y-69591807D01*
X163561067Y-69748038D01*
X163561067Y-70216731D01*
X163482951Y-70372962D01*
X163404836Y-70451078D01*
X150231344Y-102342304D02*
X151559792Y-102342304D01*
X151716080Y-102264160D01*
X151794224Y-102186016D01*
X151872368Y-102029728D01*
X151872368Y-101717152D01*
X151794224Y-101560864D01*
X151716080Y-101482720D01*
X151559792Y-101404576D01*
X150231344Y-101404576D01*
X150387632Y-100701280D02*
X150309488Y-100623136D01*
X150231344Y-100466848D01*
X150231344Y-100076128D01*
X150309488Y-99919840D01*
X150387632Y-99841696D01*
X150543920Y-99763552D01*
X150700208Y-99763552D01*
X150934640Y-99841696D01*
X151872368Y-100779424D01*
X151872368Y-99763552D01*
D10*
X173990095Y-112526380D02*
X173990095Y-113335904D01*
X174037714Y-113431142D01*
X174085333Y-113478761D01*
X174180571Y-113526380D01*
X174371047Y-113526380D01*
X174466285Y-113478761D01*
X174513904Y-113431142D01*
X174561523Y-113335904D01*
X174561523Y-112526380D01*
X175561523Y-113526380D02*
X174990095Y-113526380D01*
X175275809Y-113526380D02*
X175275809Y-112526380D01*
X175180571Y-112669238D01*
X175085333Y-112764476D01*
X174990095Y-112812095D01*
X214174380Y-85431238D02*
X213698190Y-85764571D01*
X214174380Y-86002666D02*
X213174380Y-86002666D01*
X213174380Y-85621714D01*
X213222000Y-85526476D01*
X213269619Y-85478857D01*
X213364857Y-85431238D01*
X213507714Y-85431238D01*
X213602952Y-85478857D01*
X213650571Y-85526476D01*
X213698190Y-85621714D01*
X213698190Y-86002666D01*
X213174380Y-85145523D02*
X214174380Y-84812190D01*
X213174380Y-84478857D01*
X213174380Y-83716952D02*
X213174380Y-83907428D01*
X213222000Y-84002666D01*
X213269619Y-84050285D01*
X213412476Y-84145523D01*
X213602952Y-84193142D01*
X213983904Y-84193142D01*
X214079142Y-84145523D01*
X214126761Y-84097904D01*
X214174380Y-84002666D01*
X214174380Y-83812190D01*
X214126761Y-83716952D01*
X214079142Y-83669333D01*
X213983904Y-83621714D01*
X213745809Y-83621714D01*
X213650571Y-83669333D01*
X213602952Y-83716952D01*
X213555333Y-83812190D01*
X213555333Y-84002666D01*
X213602952Y-84097904D01*
X213650571Y-84145523D01*
X213745809Y-84193142D01*
X176112380Y-85177238D02*
X175636190Y-85510571D01*
X176112380Y-85748666D02*
X175112380Y-85748666D01*
X175112380Y-85367714D01*
X175160000Y-85272476D01*
X175207619Y-85224857D01*
X175302857Y-85177238D01*
X175445714Y-85177238D01*
X175540952Y-85224857D01*
X175588571Y-85272476D01*
X175636190Y-85367714D01*
X175636190Y-85748666D01*
X175112380Y-84891523D02*
X176112380Y-84558190D01*
X175112380Y-84224857D01*
X175112380Y-83415333D02*
X175112380Y-83891523D01*
X175588571Y-83939142D01*
X175540952Y-83891523D01*
X175493333Y-83796285D01*
X175493333Y-83558190D01*
X175540952Y-83462952D01*
X175588571Y-83415333D01*
X175683809Y-83367714D01*
X175921904Y-83367714D01*
X176017142Y-83415333D01*
X176064761Y-83462952D01*
X176112380Y-83558190D01*
X176112380Y-83796285D01*
X176064761Y-83891523D01*
X176017142Y-83939142D01*
X152998380Y-108037238D02*
X152522190Y-108370571D01*
X152998380Y-108608666D02*
X151998380Y-108608666D01*
X151998380Y-108227714D01*
X152046000Y-108132476D01*
X152093619Y-108084857D01*
X152188857Y-108037238D01*
X152331714Y-108037238D01*
X152426952Y-108084857D01*
X152474571Y-108132476D01*
X152522190Y-108227714D01*
X152522190Y-108608666D01*
X151998380Y-107751523D02*
X152998380Y-107418190D01*
X151998380Y-107084857D01*
X152998380Y-106227714D02*
X152998380Y-106799142D01*
X152998380Y-106513428D02*
X151998380Y-106513428D01*
X152141238Y-106608666D01*
X152236476Y-106703904D01*
X152284095Y-106799142D01*
X206875142Y-73012380D02*
X206541809Y-72536190D01*
X206303714Y-73012380D02*
X206303714Y-72012380D01*
X206684666Y-72012380D01*
X206779904Y-72060000D01*
X206827523Y-72107619D01*
X206875142Y-72202857D01*
X206875142Y-72345714D01*
X206827523Y-72440952D01*
X206779904Y-72488571D01*
X206684666Y-72536190D01*
X206303714Y-72536190D01*
X207827523Y-73012380D02*
X207256095Y-73012380D01*
X207541809Y-73012380D02*
X207541809Y-72012380D01*
X207446571Y-72155238D01*
X207351333Y-72250476D01*
X207256095Y-72298095D01*
X208398952Y-72440952D02*
X208303714Y-72393333D01*
X208256095Y-72345714D01*
X208208476Y-72250476D01*
X208208476Y-72202857D01*
X208256095Y-72107619D01*
X208303714Y-72060000D01*
X208398952Y-72012380D01*
X208589428Y-72012380D01*
X208684666Y-72060000D01*
X208732285Y-72107619D01*
X208779904Y-72202857D01*
X208779904Y-72250476D01*
X208732285Y-72345714D01*
X208684666Y-72393333D01*
X208589428Y-72440952D01*
X208398952Y-72440952D01*
X208303714Y-72488571D01*
X208256095Y-72536190D01*
X208208476Y-72631428D01*
X208208476Y-72821904D01*
X208256095Y-72917142D01*
X208303714Y-72964761D01*
X208398952Y-73012380D01*
X208589428Y-73012380D01*
X208684666Y-72964761D01*
X208732285Y-72917142D01*
X208779904Y-72821904D01*
X208779904Y-72631428D01*
X208732285Y-72536190D01*
X208684666Y-72488571D01*
X208589428Y-72440952D01*
X191889142Y-73012380D02*
X191555809Y-72536190D01*
X191317714Y-73012380D02*
X191317714Y-72012380D01*
X191698666Y-72012380D01*
X191793904Y-72060000D01*
X191841523Y-72107619D01*
X191889142Y-72202857D01*
X191889142Y-72345714D01*
X191841523Y-72440952D01*
X191793904Y-72488571D01*
X191698666Y-72536190D01*
X191317714Y-72536190D01*
X192841523Y-73012380D02*
X192270095Y-73012380D01*
X192555809Y-73012380D02*
X192555809Y-72012380D01*
X192460571Y-72155238D01*
X192365333Y-72250476D01*
X192270095Y-72298095D01*
X193174857Y-72012380D02*
X193841523Y-72012380D01*
X193412952Y-73012380D01*
X200012380Y-103258857D02*
X199536190Y-103592190D01*
X200012380Y-103830285D02*
X199012380Y-103830285D01*
X199012380Y-103449333D01*
X199060000Y-103354095D01*
X199107619Y-103306476D01*
X199202857Y-103258857D01*
X199345714Y-103258857D01*
X199440952Y-103306476D01*
X199488571Y-103354095D01*
X199536190Y-103449333D01*
X199536190Y-103830285D01*
X200012380Y-102306476D02*
X200012380Y-102877904D01*
X200012380Y-102592190D02*
X199012380Y-102592190D01*
X199155238Y-102687428D01*
X199250476Y-102782666D01*
X199298095Y-102877904D01*
X199012380Y-101449333D02*
X199012380Y-101639809D01*
X199060000Y-101735047D01*
X199107619Y-101782666D01*
X199250476Y-101877904D01*
X199440952Y-101925523D01*
X199821904Y-101925523D01*
X199917142Y-101877904D01*
X199964761Y-101830285D01*
X200012380Y-101735047D01*
X200012380Y-101544571D01*
X199964761Y-101449333D01*
X199917142Y-101401714D01*
X199821904Y-101354095D01*
X199583809Y-101354095D01*
X199488571Y-101401714D01*
X199440952Y-101449333D01*
X199393333Y-101544571D01*
X199393333Y-101735047D01*
X199440952Y-101830285D01*
X199488571Y-101877904D01*
X199583809Y-101925523D01*
X191889142Y-94094380D02*
X191555809Y-93618190D01*
X191317714Y-94094380D02*
X191317714Y-93094380D01*
X191698666Y-93094380D01*
X191793904Y-93142000D01*
X191841523Y-93189619D01*
X191889142Y-93284857D01*
X191889142Y-93427714D01*
X191841523Y-93522952D01*
X191793904Y-93570571D01*
X191698666Y-93618190D01*
X191317714Y-93618190D01*
X192841523Y-94094380D02*
X192270095Y-94094380D01*
X192555809Y-94094380D02*
X192555809Y-93094380D01*
X192460571Y-93237238D01*
X192365333Y-93332476D01*
X192270095Y-93380095D01*
X193746285Y-93094380D02*
X193270095Y-93094380D01*
X193222476Y-93570571D01*
X193270095Y-93522952D01*
X193365333Y-93475333D01*
X193603428Y-93475333D01*
X193698666Y-93522952D01*
X193746285Y-93570571D01*
X193793904Y-93665809D01*
X193793904Y-93903904D01*
X193746285Y-93999142D01*
X193698666Y-94046761D01*
X193603428Y-94094380D01*
X193365333Y-94094380D01*
X193270095Y-94046761D01*
X193222476Y-93999142D01*
X209324380Y-125102857D02*
X208848190Y-125436190D01*
X209324380Y-125674285D02*
X208324380Y-125674285D01*
X208324380Y-125293333D01*
X208372000Y-125198095D01*
X208419619Y-125150476D01*
X208514857Y-125102857D01*
X208657714Y-125102857D01*
X208752952Y-125150476D01*
X208800571Y-125198095D01*
X208848190Y-125293333D01*
X208848190Y-125674285D01*
X209324380Y-124150476D02*
X209324380Y-124721904D01*
X209324380Y-124436190D02*
X208324380Y-124436190D01*
X208467238Y-124531428D01*
X208562476Y-124626666D01*
X208610095Y-124721904D01*
X208657714Y-123293333D02*
X209324380Y-123293333D01*
X208276761Y-123531428D02*
X208991047Y-123769523D01*
X208991047Y-123150476D01*
X209324380Y-103258857D02*
X208848190Y-103592190D01*
X209324380Y-103830285D02*
X208324380Y-103830285D01*
X208324380Y-103449333D01*
X208372000Y-103354095D01*
X208419619Y-103306476D01*
X208514857Y-103258857D01*
X208657714Y-103258857D01*
X208752952Y-103306476D01*
X208800571Y-103354095D01*
X208848190Y-103449333D01*
X208848190Y-103830285D01*
X209324380Y-102306476D02*
X209324380Y-102877904D01*
X209324380Y-102592190D02*
X208324380Y-102592190D01*
X208467238Y-102687428D01*
X208562476Y-102782666D01*
X208610095Y-102877904D01*
X208324380Y-101973142D02*
X208324380Y-101354095D01*
X208705333Y-101687428D01*
X208705333Y-101544571D01*
X208752952Y-101449333D01*
X208800571Y-101401714D01*
X208895809Y-101354095D01*
X209133904Y-101354095D01*
X209229142Y-101401714D01*
X209276761Y-101449333D01*
X209324380Y-101544571D01*
X209324380Y-101830285D01*
X209276761Y-101925523D01*
X209229142Y-101973142D01*
X183078380Y-119006857D02*
X182602190Y-119340190D01*
X183078380Y-119578285D02*
X182078380Y-119578285D01*
X182078380Y-119197333D01*
X182126000Y-119102095D01*
X182173619Y-119054476D01*
X182268857Y-119006857D01*
X182411714Y-119006857D01*
X182506952Y-119054476D01*
X182554571Y-119102095D01*
X182602190Y-119197333D01*
X182602190Y-119578285D01*
X183078380Y-118054476D02*
X183078380Y-118625904D01*
X183078380Y-118340190D02*
X182078380Y-118340190D01*
X182221238Y-118435428D01*
X182316476Y-118530666D01*
X182364095Y-118625904D01*
X182173619Y-117673523D02*
X182126000Y-117625904D01*
X182078380Y-117530666D01*
X182078380Y-117292571D01*
X182126000Y-117197333D01*
X182173619Y-117149714D01*
X182268857Y-117102095D01*
X182364095Y-117102095D01*
X182506952Y-117149714D01*
X183078380Y-117721142D01*
X183078380Y-117102095D01*
X186888380Y-119006857D02*
X186412190Y-119340190D01*
X186888380Y-119578285D02*
X185888380Y-119578285D01*
X185888380Y-119197333D01*
X185936000Y-119102095D01*
X185983619Y-119054476D01*
X186078857Y-119006857D01*
X186221714Y-119006857D01*
X186316952Y-119054476D01*
X186364571Y-119102095D01*
X186412190Y-119197333D01*
X186412190Y-119578285D01*
X186888380Y-118054476D02*
X186888380Y-118625904D01*
X186888380Y-118340190D02*
X185888380Y-118340190D01*
X186031238Y-118435428D01*
X186126476Y-118530666D01*
X186174095Y-118625904D01*
X186888380Y-117102095D02*
X186888380Y-117673523D01*
X186888380Y-117387809D02*
X185888380Y-117387809D01*
X186031238Y-117483047D01*
X186126476Y-117578285D01*
X186174095Y-117673523D01*
X160896380Y-101004666D02*
X160420190Y-101338000D01*
X160896380Y-101576095D02*
X159896380Y-101576095D01*
X159896380Y-101195142D01*
X159944000Y-101099904D01*
X159991619Y-101052285D01*
X160086857Y-101004666D01*
X160229714Y-101004666D01*
X160324952Y-101052285D01*
X160372571Y-101099904D01*
X160420190Y-101195142D01*
X160420190Y-101576095D01*
X160896380Y-100528476D02*
X160896380Y-100338000D01*
X160848761Y-100242761D01*
X160801142Y-100195142D01*
X160658285Y-100099904D01*
X160467809Y-100052285D01*
X160086857Y-100052285D01*
X159991619Y-100099904D01*
X159944000Y-100147523D01*
X159896380Y-100242761D01*
X159896380Y-100433238D01*
X159944000Y-100528476D01*
X159991619Y-100576095D01*
X160086857Y-100623714D01*
X160324952Y-100623714D01*
X160420190Y-100576095D01*
X160467809Y-100528476D01*
X160515428Y-100433238D01*
X160515428Y-100242761D01*
X160467809Y-100147523D01*
X160420190Y-100099904D01*
X160324952Y-100052285D01*
X166992380Y-71032666D02*
X166516190Y-71366000D01*
X166992380Y-71604095D02*
X165992380Y-71604095D01*
X165992380Y-71223142D01*
X166040000Y-71127904D01*
X166087619Y-71080285D01*
X166182857Y-71032666D01*
X166325714Y-71032666D01*
X166420952Y-71080285D01*
X166468571Y-71127904D01*
X166516190Y-71223142D01*
X166516190Y-71604095D01*
X166420952Y-70461238D02*
X166373333Y-70556476D01*
X166325714Y-70604095D01*
X166230476Y-70651714D01*
X166182857Y-70651714D01*
X166087619Y-70604095D01*
X166040000Y-70556476D01*
X165992380Y-70461238D01*
X165992380Y-70270761D01*
X166040000Y-70175523D01*
X166087619Y-70127904D01*
X166182857Y-70080285D01*
X166230476Y-70080285D01*
X166325714Y-70127904D01*
X166373333Y-70175523D01*
X166420952Y-70270761D01*
X166420952Y-70461238D01*
X166468571Y-70556476D01*
X166516190Y-70604095D01*
X166611428Y-70651714D01*
X166801904Y-70651714D01*
X166897142Y-70604095D01*
X166944761Y-70556476D01*
X166992380Y-70461238D01*
X166992380Y-70270761D01*
X166944761Y-70175523D01*
X166897142Y-70127904D01*
X166801904Y-70080285D01*
X166611428Y-70080285D01*
X166516190Y-70127904D01*
X166468571Y-70175523D01*
X166420952Y-70270761D01*
X175882380Y-71286666D02*
X175406190Y-71620000D01*
X175882380Y-71858095D02*
X174882380Y-71858095D01*
X174882380Y-71477142D01*
X174930000Y-71381904D01*
X174977619Y-71334285D01*
X175072857Y-71286666D01*
X175215714Y-71286666D01*
X175310952Y-71334285D01*
X175358571Y-71381904D01*
X175406190Y-71477142D01*
X175406190Y-71858095D01*
X174882380Y-70953333D02*
X174882380Y-70286666D01*
X175882380Y-70715238D01*
X145883333Y-65052380D02*
X145550000Y-64576190D01*
X145311904Y-65052380D02*
X145311904Y-64052380D01*
X145692857Y-64052380D01*
X145788095Y-64100000D01*
X145835714Y-64147619D01*
X145883333Y-64242857D01*
X145883333Y-64385714D01*
X145835714Y-64480952D01*
X145788095Y-64528571D01*
X145692857Y-64576190D01*
X145311904Y-64576190D01*
X146740476Y-64052380D02*
X146550000Y-64052380D01*
X146454761Y-64100000D01*
X146407142Y-64147619D01*
X146311904Y-64290476D01*
X146264285Y-64480952D01*
X146264285Y-64861904D01*
X146311904Y-64957142D01*
X146359523Y-65004761D01*
X146454761Y-65052380D01*
X146645238Y-65052380D01*
X146740476Y-65004761D01*
X146788095Y-64957142D01*
X146835714Y-64861904D01*
X146835714Y-64623809D01*
X146788095Y-64528571D01*
X146740476Y-64480952D01*
X146645238Y-64433333D01*
X146454761Y-64433333D01*
X146359523Y-64480952D01*
X146311904Y-64528571D01*
X146264285Y-64623809D01*
X173315333Y-60058380D02*
X172982000Y-59582190D01*
X172743904Y-60058380D02*
X172743904Y-59058380D01*
X173124857Y-59058380D01*
X173220095Y-59106000D01*
X173267714Y-59153619D01*
X173315333Y-59248857D01*
X173315333Y-59391714D01*
X173267714Y-59486952D01*
X173220095Y-59534571D01*
X173124857Y-59582190D01*
X172743904Y-59582190D01*
X174220095Y-59058380D02*
X173743904Y-59058380D01*
X173696285Y-59534571D01*
X173743904Y-59486952D01*
X173839142Y-59439333D01*
X174077238Y-59439333D01*
X174172476Y-59486952D01*
X174220095Y-59534571D01*
X174267714Y-59629809D01*
X174267714Y-59867904D01*
X174220095Y-59963142D01*
X174172476Y-60010761D01*
X174077238Y-60058380D01*
X173839142Y-60058380D01*
X173743904Y-60010761D01*
X173696285Y-59963142D01*
X152995333Y-116106380D02*
X152662000Y-115630190D01*
X152423904Y-116106380D02*
X152423904Y-115106380D01*
X152804857Y-115106380D01*
X152900095Y-115154000D01*
X152947714Y-115201619D01*
X152995333Y-115296857D01*
X152995333Y-115439714D01*
X152947714Y-115534952D01*
X152900095Y-115582571D01*
X152804857Y-115630190D01*
X152423904Y-115630190D01*
X153376285Y-115201619D02*
X153423904Y-115154000D01*
X153519142Y-115106380D01*
X153757238Y-115106380D01*
X153852476Y-115154000D01*
X153900095Y-115201619D01*
X153947714Y-115296857D01*
X153947714Y-115392095D01*
X153900095Y-115534952D01*
X153328666Y-116106380D01*
X153947714Y-116106380D01*
X157940476Y-130306380D02*
X157940476Y-131020666D01*
X157892857Y-131163523D01*
X157797619Y-131258761D01*
X157654761Y-131306380D01*
X157559523Y-131306380D01*
X158940476Y-131306380D02*
X158369047Y-131306380D01*
X158654761Y-131306380D02*
X158654761Y-130306380D01*
X158559523Y-130449238D01*
X158464285Y-130544476D01*
X158369047Y-130592095D01*
X159892857Y-131306380D02*
X159321428Y-131306380D01*
X159607142Y-131306380D02*
X159607142Y-130306380D01*
X159511904Y-130449238D01*
X159416666Y-130544476D01*
X159321428Y-130592095D01*
X191326476Y-116668380D02*
X191326476Y-117382666D01*
X191278857Y-117525523D01*
X191183619Y-117620761D01*
X191040761Y-117668380D01*
X190945523Y-117668380D01*
X192326476Y-117668380D02*
X191755047Y-117668380D01*
X192040761Y-117668380D02*
X192040761Y-116668380D01*
X191945523Y-116811238D01*
X191850285Y-116906476D01*
X191755047Y-116954095D01*
X192945523Y-116668380D02*
X193040761Y-116668380D01*
X193136000Y-116716000D01*
X193183619Y-116763619D01*
X193231238Y-116858857D01*
X193278857Y-117049333D01*
X193278857Y-117287428D01*
X193231238Y-117477904D01*
X193183619Y-117573142D01*
X193136000Y-117620761D01*
X193040761Y-117668380D01*
X192945523Y-117668380D01*
X192850285Y-117620761D01*
X192802666Y-117573142D01*
X192755047Y-117477904D01*
X192707428Y-117287428D01*
X192707428Y-117049333D01*
X192755047Y-116858857D01*
X192802666Y-116763619D01*
X192850285Y-116716000D01*
X192945523Y-116668380D01*
X133778666Y-74846380D02*
X133778666Y-75560666D01*
X133731047Y-75703523D01*
X133635809Y-75798761D01*
X133492952Y-75846380D01*
X133397714Y-75846380D01*
X134302476Y-75846380D02*
X134492952Y-75846380D01*
X134588190Y-75798761D01*
X134635809Y-75751142D01*
X134731047Y-75608285D01*
X134778666Y-75417809D01*
X134778666Y-75036857D01*
X134731047Y-74941619D01*
X134683428Y-74894000D01*
X134588190Y-74846380D01*
X134397714Y-74846380D01*
X134302476Y-74894000D01*
X134254857Y-74941619D01*
X134207238Y-75036857D01*
X134207238Y-75274952D01*
X134254857Y-75370190D01*
X134302476Y-75417809D01*
X134397714Y-75465428D01*
X134588190Y-75465428D01*
X134683428Y-75417809D01*
X134731047Y-75370190D01*
X134778666Y-75274952D01*
X129206666Y-74846380D02*
X129206666Y-75560666D01*
X129159047Y-75703523D01*
X129063809Y-75798761D01*
X128920952Y-75846380D01*
X128825714Y-75846380D01*
X129825714Y-75274952D02*
X129730476Y-75227333D01*
X129682857Y-75179714D01*
X129635238Y-75084476D01*
X129635238Y-75036857D01*
X129682857Y-74941619D01*
X129730476Y-74894000D01*
X129825714Y-74846380D01*
X130016190Y-74846380D01*
X130111428Y-74894000D01*
X130159047Y-74941619D01*
X130206666Y-75036857D01*
X130206666Y-75084476D01*
X130159047Y-75179714D01*
X130111428Y-75227333D01*
X130016190Y-75274952D01*
X129825714Y-75274952D01*
X129730476Y-75322571D01*
X129682857Y-75370190D01*
X129635238Y-75465428D01*
X129635238Y-75655904D01*
X129682857Y-75751142D01*
X129730476Y-75798761D01*
X129825714Y-75846380D01*
X130016190Y-75846380D01*
X130111428Y-75798761D01*
X130159047Y-75751142D01*
X130206666Y-75655904D01*
X130206666Y-75465428D01*
X130159047Y-75370190D01*
X130111428Y-75322571D01*
X130016190Y-75274952D01*
X162480666Y-107612380D02*
X162480666Y-108326666D01*
X162433047Y-108469523D01*
X162337809Y-108564761D01*
X162194952Y-108612380D01*
X162099714Y-108612380D01*
X162861619Y-107612380D02*
X163528285Y-107612380D01*
X163099714Y-108612380D01*
X191944666Y-110240380D02*
X191944666Y-110954666D01*
X191897047Y-111097523D01*
X191801809Y-111192761D01*
X191658952Y-111240380D01*
X191563714Y-111240380D01*
X192849428Y-110240380D02*
X192658952Y-110240380D01*
X192563714Y-110288000D01*
X192516095Y-110335619D01*
X192420857Y-110478476D01*
X192373238Y-110668952D01*
X192373238Y-111049904D01*
X192420857Y-111145142D01*
X192468476Y-111192761D01*
X192563714Y-111240380D01*
X192754190Y-111240380D01*
X192849428Y-111192761D01*
X192897047Y-111145142D01*
X192944666Y-111049904D01*
X192944666Y-110811809D01*
X192897047Y-110716571D01*
X192849428Y-110668952D01*
X192754190Y-110621333D01*
X192563714Y-110621333D01*
X192468476Y-110668952D01*
X192420857Y-110716571D01*
X192373238Y-110811809D01*
X134936666Y-72736380D02*
X134936666Y-73450666D01*
X134889047Y-73593523D01*
X134793809Y-73688761D01*
X134650952Y-73736380D01*
X134555714Y-73736380D01*
X135889047Y-72736380D02*
X135412857Y-72736380D01*
X135365238Y-73212571D01*
X135412857Y-73164952D01*
X135508095Y-73117333D01*
X135746190Y-73117333D01*
X135841428Y-73164952D01*
X135889047Y-73212571D01*
X135936666Y-73307809D01*
X135936666Y-73545904D01*
X135889047Y-73641142D01*
X135841428Y-73688761D01*
X135746190Y-73736380D01*
X135508095Y-73736380D01*
X135412857Y-73688761D01*
X135365238Y-73641142D01*
X156892666Y-59098380D02*
X156892666Y-59812666D01*
X156845047Y-59955523D01*
X156749809Y-60050761D01*
X156606952Y-60098380D01*
X156511714Y-60098380D01*
X157797428Y-59431714D02*
X157797428Y-60098380D01*
X157559333Y-59050761D02*
X157321238Y-59765047D01*
X157940285Y-59765047D01*
X149526666Y-77938380D02*
X149526666Y-78652666D01*
X149479047Y-78795523D01*
X149383809Y-78890761D01*
X149240952Y-78938380D01*
X149145714Y-78938380D01*
X149907619Y-77938380D02*
X150526666Y-77938380D01*
X150193333Y-78319333D01*
X150336190Y-78319333D01*
X150431428Y-78366952D01*
X150479047Y-78414571D01*
X150526666Y-78509809D01*
X150526666Y-78747904D01*
X150479047Y-78843142D01*
X150431428Y-78890761D01*
X150336190Y-78938380D01*
X150050476Y-78938380D01*
X149955238Y-78890761D01*
X149907619Y-78843142D01*
X141144666Y-77938380D02*
X141144666Y-78652666D01*
X141097047Y-78795523D01*
X141001809Y-78890761D01*
X140858952Y-78938380D01*
X140763714Y-78938380D01*
X142144666Y-78938380D02*
X141573238Y-78938380D01*
X141858952Y-78938380D02*
X141858952Y-77938380D01*
X141763714Y-78081238D01*
X141668476Y-78176476D01*
X141573238Y-78224095D01*
X199553142Y-85062666D02*
X199600761Y-85110285D01*
X199648380Y-85253142D01*
X199648380Y-85348380D01*
X199600761Y-85491238D01*
X199505523Y-85586476D01*
X199410285Y-85634095D01*
X199219809Y-85681714D01*
X199076952Y-85681714D01*
X198886476Y-85634095D01*
X198791238Y-85586476D01*
X198696000Y-85491238D01*
X198648380Y-85348380D01*
X198648380Y-85253142D01*
X198696000Y-85110285D01*
X198743619Y-85062666D01*
X199076952Y-84491238D02*
X199029333Y-84586476D01*
X198981714Y-84634095D01*
X198886476Y-84681714D01*
X198838857Y-84681714D01*
X198743619Y-84634095D01*
X198696000Y-84586476D01*
X198648380Y-84491238D01*
X198648380Y-84300761D01*
X198696000Y-84205523D01*
X198743619Y-84157904D01*
X198838857Y-84110285D01*
X198886476Y-84110285D01*
X198981714Y-84157904D01*
X199029333Y-84205523D01*
X199076952Y-84300761D01*
X199076952Y-84491238D01*
X199124571Y-84586476D01*
X199172190Y-84634095D01*
X199267428Y-84681714D01*
X199457904Y-84681714D01*
X199553142Y-84634095D01*
X199600761Y-84586476D01*
X199648380Y-84491238D01*
X199648380Y-84300761D01*
X199600761Y-84205523D01*
X199553142Y-84157904D01*
X199457904Y-84110285D01*
X199267428Y-84110285D01*
X199172190Y-84157904D01*
X199124571Y-84205523D01*
X199076952Y-84300761D01*
X219475142Y-116458666D02*
X219522761Y-116506285D01*
X219570380Y-116649142D01*
X219570380Y-116744380D01*
X219522761Y-116887238D01*
X219427523Y-116982476D01*
X219332285Y-117030095D01*
X219141809Y-117077714D01*
X218998952Y-117077714D01*
X218808476Y-117030095D01*
X218713238Y-116982476D01*
X218618000Y-116887238D01*
X218570380Y-116744380D01*
X218570380Y-116649142D01*
X218618000Y-116506285D01*
X218665619Y-116458666D01*
X218570380Y-116125333D02*
X218570380Y-115458666D01*
X219570380Y-115887238D01*
X219475142Y-105028666D02*
X219522761Y-105076285D01*
X219570380Y-105219142D01*
X219570380Y-105314380D01*
X219522761Y-105457238D01*
X219427523Y-105552476D01*
X219332285Y-105600095D01*
X219141809Y-105647714D01*
X218998952Y-105647714D01*
X218808476Y-105600095D01*
X218713238Y-105552476D01*
X218618000Y-105457238D01*
X218570380Y-105314380D01*
X218570380Y-105219142D01*
X218618000Y-105076285D01*
X218665619Y-105028666D01*
X218570380Y-104171523D02*
X218570380Y-104362000D01*
X218618000Y-104457238D01*
X218665619Y-104504857D01*
X218808476Y-104600095D01*
X218998952Y-104647714D01*
X219379904Y-104647714D01*
X219475142Y-104600095D01*
X219522761Y-104552476D01*
X219570380Y-104457238D01*
X219570380Y-104266761D01*
X219522761Y-104171523D01*
X219475142Y-104123904D01*
X219379904Y-104076285D01*
X219141809Y-104076285D01*
X219046571Y-104123904D01*
X218998952Y-104171523D01*
X218951333Y-104266761D01*
X218951333Y-104457238D01*
X218998952Y-104552476D01*
X219046571Y-104600095D01*
X219141809Y-104647714D01*
X162353333Y-84007142D02*
X162305714Y-84054761D01*
X162162857Y-84102380D01*
X162067619Y-84102380D01*
X161924761Y-84054761D01*
X161829523Y-83959523D01*
X161781904Y-83864285D01*
X161734285Y-83673809D01*
X161734285Y-83530952D01*
X161781904Y-83340476D01*
X161829523Y-83245238D01*
X161924761Y-83150000D01*
X162067619Y-83102380D01*
X162162857Y-83102380D01*
X162305714Y-83150000D01*
X162353333Y-83197619D01*
X163210476Y-83435714D02*
X163210476Y-84102380D01*
X162972380Y-83054761D02*
X162734285Y-83769047D01*
X163353333Y-83769047D01*
X199917142Y-68198666D02*
X199964761Y-68246285D01*
X200012380Y-68389142D01*
X200012380Y-68484380D01*
X199964761Y-68627238D01*
X199869523Y-68722476D01*
X199774285Y-68770095D01*
X199583809Y-68817714D01*
X199440952Y-68817714D01*
X199250476Y-68770095D01*
X199155238Y-68722476D01*
X199060000Y-68627238D01*
X199012380Y-68484380D01*
X199012380Y-68389142D01*
X199060000Y-68246285D01*
X199107619Y-68198666D01*
X199012380Y-67865333D02*
X199012380Y-67246285D01*
X199393333Y-67579619D01*
X199393333Y-67436761D01*
X199440952Y-67341523D01*
X199488571Y-67293904D01*
X199583809Y-67246285D01*
X199821904Y-67246285D01*
X199917142Y-67293904D01*
X199964761Y-67341523D01*
X200012380Y-67436761D01*
X200012380Y-67722476D01*
X199964761Y-67817714D01*
X199917142Y-67865333D01*
X137687142Y-115696666D02*
X137734761Y-115744285D01*
X137782380Y-115887142D01*
X137782380Y-115982380D01*
X137734761Y-116125238D01*
X137639523Y-116220476D01*
X137544285Y-116268095D01*
X137353809Y-116315714D01*
X137210952Y-116315714D01*
X137020476Y-116268095D01*
X136925238Y-116220476D01*
X136830000Y-116125238D01*
X136782380Y-115982380D01*
X136782380Y-115887142D01*
X136830000Y-115744285D01*
X136877619Y-115696666D01*
X136877619Y-115315714D02*
X136830000Y-115268095D01*
X136782380Y-115172857D01*
X136782380Y-114934761D01*
X136830000Y-114839523D01*
X136877619Y-114791904D01*
X136972857Y-114744285D01*
X137068095Y-114744285D01*
X137210952Y-114791904D01*
X137782380Y-115363333D01*
X137782380Y-114744285D01*
X143911333Y-92245142D02*
X143863714Y-92292761D01*
X143720857Y-92340380D01*
X143625619Y-92340380D01*
X143482761Y-92292761D01*
X143387523Y-92197523D01*
X143339904Y-92102285D01*
X143292285Y-91911809D01*
X143292285Y-91768952D01*
X143339904Y-91578476D01*
X143387523Y-91483238D01*
X143482761Y-91388000D01*
X143625619Y-91340380D01*
X143720857Y-91340380D01*
X143863714Y-91388000D01*
X143911333Y-91435619D01*
X144863714Y-92340380D02*
X144292285Y-92340380D01*
X144578000Y-92340380D02*
X144578000Y-91340380D01*
X144482761Y-91483238D01*
X144387523Y-91578476D01*
X144292285Y-91626095D01*
M02*
